<?xml version="1.0" standalone="no"?>
<!DOCTYPE svg PUBLIC "-//W3C//DTD SVG 1.1//EN" "http://www.w3.org/Graphics/SVG/1.1/DTD/svg11.dtd" >
<svg>
<metadata>
Created by FontForge 20090622 at Sun Jun 19 16:21:32 2016
 By deploy user
Copyright (c) OurType, 2010-2014. All rights reserved. Fakt is a design by Thomas Thiemich published by OurType.
</metadata>
<defs>
<font id="FaktPro-Medium" horiz-adv-x="359" >
  <font-face 
    font-family="Fakt Pro Medium"
    font-weight="500"
    font-stretch="normal"
    units-per-em="1000"
    panose-1="2 11 6 4 2 1 1 1 1 2"
    ascent="750"
    descent="-250"
    x-height="488"
    cap-height="688"
    bbox="-345 -312 1486 1012"
    underline-thickness="50"
    underline-position="-50"
    unicode-range="U+0020-U+FEFF"
  />
<missing-glyph horiz-adv-x="712" 
d="M0 720h712v-720h-712v720zM358 313l126 -129l52 52l-127 130l127 130l-52 52l-126 -129l-126 129l-52 -52l126 -130l-126 -130l52 -52z" />
    <glyph glyph-name="f_b" unicode="fb" horiz-adv-x="928" 
d="M402 644h-118q-46 0 -63.5 -21t-17.5 -66v-69h103v-84h-103v-404h-108v404h-92v84h92v73q0 85 43 128t137 43h235v-153q0 -25 -0.5 -70.5t-4.5 -93.5h4q23 45 65.5 65t96.5 20q46 0 86 -16.5t69 -48.5t46 -79t17 -108t-17.5 -109t-48.5 -81.5t-72 -51.5t-88 -18
q-53 0 -92 20t-62 65h-4v-73h-103v644zM510 244q0 -81 38 -125t96 -44q28 0 52.5 12t42.5 34.5t28 54.5t10 72q0 81 -38 123t-95 42q-56 0 -94 -42.5t-40 -119.5v-7z" />
    <glyph glyph-name="f_f" unicode="ff" horiz-adv-x="631" 
d="M95 404h-92v84h92v73q0 85 43 128t137 43h50v-88h-41q-46 0 -63.5 -21t-17.5 -66v-69h199v73q0 85 43 128t136 43h61v-88h-52q-45 0 -62.5 -21t-17.5 -66v-69h116v-84h-116v-404h-108v404h-199v-404h-108v404z" />
    <glyph glyph-name="f_f_b" unicode="ffb" horiz-adv-x="1234" 
d="M402 404h-199v-404h-108v404h-92v84h92v73q0 85 43 128t137 43h50v-88h-41q-46 0 -63.5 -21t-17.5 -66v-69h199v73q0 85 43 128t136 43h235v-153q0 -25 -0.5 -70.5t-4.5 -93.5h4q23 45 65.5 65t96.5 20q46 0 86 -16.5t69.5 -48.5t46 -79t16.5 -108t-17.5 -109
t-48.5 -81.5t-72 -51.5t-88 -18q-52 0 -91.5 20t-62.5 65h-4v-73h-103v644h-118q-45 0 -62.5 -21t-17.5 -66v-69h121v-84h-121v-404h-108v404zM816 243q1 -80 39 -124t95 -44q28 0 52.5 12t42.5 34.5t28 54.5t10 72q0 81 -38 123t-95 42q-56 0 -94 -43t-40 -120v-7z" />
    <glyph glyph-name="f_f_h" unicode="ffh" horiz-adv-x="1216" 
d="M402 404h-199v-404h-108v404h-92v84h92v73q0 85 43 128t137 43h50v-88h-41q-46 0 -63.5 -21t-17.5 -66v-69h199v73q0 85 43 128t136 43h235v-151q0 -25 -0.5 -70t-4.5 -94h4q21 42 59.5 62.5t91.5 20.5q37 0 70 -10.5t58.5 -34.5t40.5 -63t15 -96v-296h-108v282
q0 73 -28 101.5t-76 28.5q-52 0 -87 -41.5t-35 -113.5v-257h-108v644h-118q-45 0 -62.5 -21t-17.5 -66v-69h121v-84h-121v-404h-108v404z" />
    <glyph glyph-name="f_f_i" unicode="ffi" horiz-adv-x="889" 
d="M402 404h-199v-404h-108v404h-92v84h92v73q0 85 43 128t137 43h56v-88h-47q-46 0 -63.5 -21t-17.5 -66v-69h199v73q0 85 43 128t136 43h51v-88h-42q-45 0 -62.5 -21t-17.5 -66v-69h306v-488h-108v404h-198v-404h-108v404zM704 732h116v-110h-116v110z" />
    <glyph glyph-name="f_f_j" unicode="ffj" horiz-adv-x="889" 
d="M402 404h-199v-404h-108v404h-92v84h92v73q0 85 43 128t137 43h56v-88h-47q-46 0 -63.5 -21t-17.5 -66v-69h199v73q0 85 43 128t136 43h51v-88h-42q-45 0 -62.5 -21t-17.5 -66v-69h306v-559q0 -34 -7.5 -61.5t-25.5 -47t-47.5 -30t-72.5 -10.5h-37v90h25q32 0 44.5 17
t12.5 54v463h-198v-404h-108v404zM704 732h116v-110h-116v110z" />
    <glyph glyph-name="f_f_k" unicode="ffk" horiz-adv-x="1162" 
d="M402 404h-199v-404h-108v404h-92v84h92v73q0 85 43 128t137 43h50v-88h-41q-46 0 -63.5 -21t-17.5 -66v-69h199v73q0 85 43 128t136 43h235v-463l201 219h122l-182 -196l201 -292h-126l-147 216l-69 -75v-141h-108v644h-118q-45 0 -62.5 -21t-17.5 -66v-69h121v-84h-121
v-404h-108v404z" />
    <glyph glyph-name="f_f_l" unicode="ffl" horiz-adv-x="889" 
d="M402 404h-199v-404h-108v404h-92v84h92v73q0 85 43 128t137 43h50v-88h-41q-46 0 -63.5 -21t-17.5 -66v-69h199v73q0 85 43 128t136 43h235v-732h-108v644h-118q-45 0 -62.5 -21t-17.5 -66v-69h121v-84h-121v-404h-108v404z" />
    <glyph glyph-name="f_f_t" unicode="fft" horiz-adv-x="958" 
d="M402 404h-199v-404h-108v404h-92v84h92v73q0 85 43 128t137 43h50v-88h-41q-46 0 -63.5 -21t-17.5 -66v-69h199v73q0 85 43 128t136 43h51v-88h-42q-45 0 -62.5 -21t-17.5 -66v-69h192v148h108v-148h124v-84h-124v-248q0 -35 17 -50.5t49 -15.5h58v-90h-72q-84 0 -122 35
t-38 115v254h-192v-404h-108v404z" />
    <glyph glyph-name="f_h" unicode="fh" horiz-adv-x="910" 
d="M402 644h-118q-46 0 -63.5 -21t-17.5 -66v-69h103v-84h-103v-404h-108v404h-92v84h92v73q0 85 43 128t137 43h235v-151q0 -25 -0.5 -70t-4.5 -94h4q21 42 59.5 62.5t91.5 20.5q37 0 70 -10.5t58.5 -34.5t40.5 -63t15 -96v-296h-109v282q0 73 -28 101.5t-75 28.5
q-54 0 -88 -42.5t-34 -115.5v-254h-108v644z" />
    <glyph glyph-name="f_i" unicode="fi" horiz-adv-x="583" 
d="M402 404h-199v-404h-108v404h-92v84h92v73q0 85 43 128t137 43h50v-88h-41q-46 0 -63.5 -21t-17.5 -66v-69h307v-488h-108v404zM398 732h116v-110h-116v110z" />
    <glyph glyph-name="f_j" unicode="fj" horiz-adv-x="583" 
d="M345 -130q32 0 44.5 17t12.5 54v463h-199v-404h-108v404h-92v84h92v73q0 85 43 128t137 43h50v-88h-41q-46 0 -63.5 -21t-17.5 -66v-69h307v-559q0 -34 -8 -61.5t-26 -47t-47.5 -30t-72.5 -10.5h-36v90h25zM398 732h116v-110h-116v110z" />
    <glyph glyph-name="f_k" unicode="fk" horiz-adv-x="855" 
d="M402 644h-118q-46 0 -63.5 -21t-17.5 -66v-69h103v-84h-103v-404h-108v404h-92v84h92v73q0 85 43 128t137 43h235v-463l200 219h122l-181 -196l200 -292h-126l-147 216l-68 -75v-141h-108v644z" />
    <glyph glyph-name="f_l" unicode="fl" horiz-adv-x="583" 
d="M95 404h-92v84h92v73q0 85 43 128t137 43h235v-732h-108v644h-118q-46 0 -63.5 -21t-17.5 -66v-69h103v-84h-103v-404h-108v404z" />
    <glyph glyph-name="f_t" unicode="ft" horiz-adv-x="652" 
d="M395 404h-192v-404h-108v404h-92v84h92v73q0 85 43 128t137 43h50v-88h-41q-46 0 -63.5 -21t-17.5 -66v-69h192v148h109v-148h124v-84h-124v-248q0 -35 17 -50.5t49 -15.5h58v-90h-72q-85 0 -123 35t-38 115v254z" />
    <glyph glyph-name=".notdef" horiz-adv-x="712" 
d="M0 720h712v-720h-712v720zM358 313l126 -129l52 52l-127 130l127 130l-52 52l-126 -129l-126 129l-52 -52l126 -130l-126 -130l52 -52z" />
    <glyph glyph-name=".null" horiz-adv-x="0" 
 />
    <glyph glyph-name="nonmarkingreturn" horiz-adv-x="220" 
 />
    <glyph glyph-name="space" unicode=" " horiz-adv-x="220" 
 />
    <glyph glyph-name="exclam" unicode="!" horiz-adv-x="284" 
d="M81 498v190h122v-190l-31 -300h-61zM82 120h119v-120h-119v120z" />
    <glyph glyph-name="quotedbl" unicode="&#x22;" horiz-adv-x="411" 
d="M61 597v91h103v-91l-17 -176h-69zM247 597v91h103v-91l-17 -176h-69z" />
    <glyph glyph-name="numbersign" unicode="#" horiz-adv-x="623" 
d="M61 528h124l28 160h92l-28 -160h134l28 160h92l-28 -160h102v-78h-116l-36 -209h109v-79h-123l-28 -162h-92l28 162h-134l-28 -162h-92l28 162h-103v79h117l36 209h-110v78zM227 241h134l36 209h-134z" />
    <glyph glyph-name="dollar" unicode="$" horiz-adv-x="568" 
d="M146 194q4 -59 40.5 -90.5t93.5 -31.5q59 0 94.5 29t35.5 83q0 24 -8 40.5t-23 28.5t-36 21t-48 17l-85 26q-26 8 -53.5 22t-50.5 36.5t-37.5 54.5t-14.5 76q0 38 13 70t36 56.5t56 41t73 22.5v108h96v-108q36 -6 67.5 -21.5t55 -39t37.5 -54.5t17 -69h-107
q-7 54 -39.5 78.5t-78.5 24.5q-23 0 -44 -6t-37 -18t-25 -30.5t-9 -43.5q0 -23 6.5 -39.5t20 -28.5t33.5 -20.5t47 -17.5l85 -26q81 -25 123 -70t42 -121q0 -42 -14 -76.5t-39.5 -61t-61.5 -43t-79 -22.5v-111h-96v111q-88 12 -139.5 64.5t-54.5 138.5h108z" />
    <glyph glyph-name="percent" unicode="%" horiz-adv-x="793" 
d="M180 336q-40 0 -69 14t-48 38t-28.5 57t-9.5 71t9.5 71t28.5 57t48 38t69 14t69 -14t48 -38t28 -57t9 -71t-9 -71t-28 -57t-48 -38t-69 -14zM180 404q33 0 50 29t17 83t-16.5 83t-50.5 29t-51 -29t-17 -83t17.5 -83t50.5 -29zM533 700h75l-348 -712h-75zM614 -8
q-40 0 -69 14t-48 38t-28.5 57t-9.5 71t9.5 71t28.5 57t48 38t69 14t69 -14t48 -38t28 -57t9 -71t-9 -71t-28 -57t-48 -38t-69 -14zM614 60q33 0 50 29t17 83t-16.5 83t-50.5 29t-51 -29t-17 -83t17.5 -83t50.5 -29z" />
    <glyph glyph-name="ampersand" unicode="&#x26;" horiz-adv-x="720" 
d="M43 180q0 39 13 69t34.5 54t49.5 42t59 33q-22 23 -37.5 42t-25 37t-13.5 36t-4 39q0 33 13 63t38 53.5t62 37.5t85 14q94 0 145.5 -43.5t51.5 -114.5q0 -36 -14 -63.5t-37 -49t-53 -38t-62 -30.5l166 -167q27 60 27 139v11h97v-20q0 -39 -12 -93.5t-44 -105.5l126 -125
h-129l-58 58q-37 -32 -88.5 -51t-122.5 -19q-129 0 -198 52t-69 140zM310 72q47 0 83 13t63 36l-198 197q-22 -11 -41.5 -23.5t-33.5 -28t-22.5 -34t-8.5 -42.5q0 -29 12 -51t33.5 -37t50.5 -22.5t62 -7.5zM219 536q0 -29 17.5 -54.5t52.5 -62.5q25 12 47.5 24t39 26t26 31
t9.5 39q0 35 -24 59t-70 24q-50 0 -74 -25.5t-24 -60.5z" />
    <glyph glyph-name="quotesingle" unicode="'" horiz-adv-x="225" 
d="M61 597v91h103v-91l-17 -176h-69z" />
    <glyph glyph-name="parenleft" unicode="(" horiz-adv-x="297" 
d="M19 260q0 80 16 152.5t40 134.5t53 112t55 85h99q-21 -28 -49 -77t-52.5 -113t-41.5 -139t-17 -155t17.5 -156t42.5 -140.5t52.5 -114t47.5 -77.5h-99q-26 35 -55 85.5t-53 113.5t-40 136t-16 153z" />
    <glyph glyph-name="parenright" unicode=")" horiz-adv-x="297" 
d="M15 -228q20 28 47.5 77.5t52.5 114t42.5 140.5t17.5 156t-17 155t-41.5 139t-52.5 113t-49 77h98q26 -35 55 -85t53 -112t40 -134.5t16 -152.5t-16 -153t-40 -136t-53 -113.5t-55 -85.5h-98z" />
    <glyph glyph-name="asterisk" unicode="*" horiz-adv-x="463" 
d="M273 696l-16 -129l117 56l26 -80l-127 -25l88 -93l-67 -49l-63 112l-62 -111l-67 48l86 94l-124 24l25 80l116 -54l-15 127h83z" />
    <glyph glyph-name="plus" unicode="+" horiz-adv-x="568" 
d="M57 298h181v182h92v-182h181v-88h-181v-181h-92v181h-181v88z" />
    <glyph glyph-name="comma" unicode="," horiz-adv-x="267" 
d="M72 0v122h123v-114l-47 -161h-57l33 153h-52z" />
    <glyph glyph-name="hyphen" unicode="-" horiz-adv-x="396" 
d="M56 299h284v-94h-284v94z" />
    <glyph glyph-name="period" unicode="." horiz-adv-x="267" 
d="M72 122h123v-122h-123v122z" />
    <glyph glyph-name="slash" unicode="/" horiz-adv-x="413" 
d="M314 700h93l-308 -712h-93z" />
    <glyph glyph-name="zero" unicode="0" horiz-adv-x="568" 
d="M284 -12q-66 0 -112.5 27.5t-76.5 75.5t-43.5 113t-13.5 140t13.5 140t43.5 113t76.5 75.5t112.5 27.5t112.5 -27.5t76.5 -75.5t43.5 -113t13.5 -140t-13.5 -140t-43.5 -113t-76.5 -75.5t-112.5 -27.5zM284 81q68 0 100.5 67t32.5 196t-32.5 196t-100.5 67
q-69 0 -101 -67t-32 -196t32.5 -196t100.5 -67z" />
    <glyph glyph-name="one" unicode="1" horiz-adv-x="568" 
d="M56 533l226 155h76v-598h160v-90h-439v90h171v464l-147 -101z" />
    <glyph glyph-name="two" unicode="2" horiz-adv-x="568" 
d="M50 0q2 59 12.5 104t31 80.5t50.5 64t71 55.5l78 51l45 31.5t34 31t21.5 36t7.5 46.5q0 20 -6.5 40t-20.5 35.5t-35.5 25t-52.5 9.5q-115 0 -124 -129h-102q3 62 22.5 104t51 67.5t71.5 36.5t82 11q49 0 90 -13.5t70.5 -39t46 -62.5t16.5 -83q0 -44 -11.5 -75.5
t-32 -56.5t-47 -45t-56.5 -39l-77 -51q-35 -23 -56 -42.5t-33 -37t-17 -33.5t-6 -32h341l1 -90h-466z" />
    <glyph glyph-name="three" unicode="3" horiz-adv-x="568" 
d="M148 208q0 -69 37.5 -100.5t94.5 -31.5q60 0 96 30t36 88q0 28 -10.5 50t-28.5 37t-42.5 22.5t-52.5 7.5h-51v89h52q47 0 80 29.5t33 80.5q0 50 -32.5 76.5t-80.5 26.5q-47 0 -80 -28.5t-33 -86.5h-98q0 47 15.5 84.5t44 63.5t67 40t85.5 14q48 0 87.5 -13.5t68 -37.5
t44 -58.5t15.5 -76.5q0 -56 -29 -96.5t-70 -56.5q54 -16 90 -60.5t36 -115.5q0 -47 -18 -83.5t-50 -62t-76.5 -38.5t-97.5 -13t-97 13t-75.5 40t-48.5 68.5t-17 98.5h106z" />
    <glyph glyph-name="four" unicode="4" horiz-adv-x="568" 
d="M28 234l328 454h90v-437h94v-90h-94v-161h-108v161h-310v73zM338 251v275l-202 -275h202z" />
    <glyph glyph-name="five" unicode="5" horiz-adv-x="568" 
d="M152 184q3 -20 12 -39.5t25 -34.5t39 -24.5t55 -9.5q25 0 49 9t42 26t29 43t11 59q0 66 -37.5 102.5t-93.5 36.5q-39 0 -67 -18t-51 -47l-99 8l21 393h396v-93h-299l-12 -197h5q20 18 51 30t73 12q46 0 86.5 -15t70.5 -43t47 -69t17 -93q0 -59 -20 -102.5t-53 -72.5
t-76 -43t-90 -14q-109 0 -170 53.5t-69 142.5h108z" />
    <glyph glyph-name="six" unicode="6" horiz-adv-x="568" 
d="M43 328q0 104 21 175t56.5 115t83.5 63t102 19t93 -13.5t65 -38.5t39 -59.5t16 -76.5h-106q-2 22 -8 40t-18.5 31.5t-32 21t-48.5 7.5q-30 0 -56.5 -13t-47 -42.5t-32.5 -77.5t-14 -118v-2q10 19 27.5 34t39 25.5t46.5 16t50 5.5q45 0 84.5 -15t69 -43.5t46 -70
t16.5 -94.5q0 -56 -19.5 -98.5t-52.5 -71.5t-75.5 -44t-88.5 -15q-53 0 -99.5 17.5t-81 57.5t-55 105t-20.5 160zM302 352q-29 0 -53.5 -10.5t-42.5 -28.5t-28 -43t-10 -55v-1q0 -30 9.5 -55.5t26.5 -44t40.5 -28.5t51.5 -10q55 0 93 36t38 104q0 31 -10 56t-27 43
t-39.5 27.5t-48.5 9.5z" />
    <glyph glyph-name="seven" unicode="7" horiz-adv-x="568" 
d="M411 592h-363v96h480v-71l-285 -617h-112z" />
    <glyph glyph-name="eight" unicode="8" horiz-adv-x="568" 
d="M39 185q0 64 33 110.5t93 62.5q-21 7 -39.5 23t-32 36.5t-21 45t-7.5 50.5q0 42 15.5 76t44.5 59t69 38.5t90 13.5q49 0 89.5 -13.5t69.5 -38.5t44.5 -59t15.5 -76q0 -26 -7.5 -50.5t-21 -45t-32 -36.5t-39.5 -23q60 -16 93 -62.5t33 -110.5q0 -94 -65.5 -145.5
t-179.5 -51.5t-179.5 51.5t-65.5 145.5zM149 193q0 -57 35.5 -87.5t99.5 -30.5t99.5 30.5t35.5 87.5q0 54 -36 86t-99 32t-99 -32t-36 -86zM284 400q49 0 82.5 29.5t33.5 80.5q0 50 -33.5 78t-82.5 28t-82.5 -28t-33.5 -78q0 -51 33.5 -80.5t82.5 -29.5z" />
    <glyph glyph-name="nine" unicode="9" horiz-adv-x="568" 
d="M524 360q0 -104 -18.5 -175t-52 -115t-81.5 -63t-106 -19q-55 0 -94.5 13.5t-66 38.5t-40.5 59.5t-18 76.5h107q2 -20 8.5 -38.5t20 -32t34 -21.5t51.5 -8q34 0 60 13t44 42.5t27.5 77.5t11.5 118v1q-10 -18 -27 -33t-39 -25.5t-47 -16t-50 -5.5q-45 0 -84.5 15t-69 43.5
t-46 70t-16.5 94.5q0 55 19.5 98t52.5 72t75.5 44t88.5 15q52 0 99 -17.5t81.5 -57.5t55 -105t20.5 -160zM265 336q29 0 53.5 10.5t42.5 28.5t28 43t10 55v1q0 30 -9.5 55.5t-26.5 43.5t-40.5 28.5t-50.5 10.5t-50.5 -9t-41.5 -27t-28.5 -44t-10.5 -60q0 -31 10 -56
t26.5 -43t39 -27.5t48.5 -9.5z" />
    <glyph glyph-name="colon" unicode=":" horiz-adv-x="267" 
d="M72 488h123v-122h-123v122zM72 122h123v-122h-123v122z" />
    <glyph glyph-name="semicolon" unicode=";" horiz-adv-x="267" 
d="M72 488h123v-122h-123v122zM72 0v122h123v-114l-47 -161h-57l33 153h-52z" />
    <glyph glyph-name="less" unicode="&#x3c;" horiz-adv-x="568" 
d="M72 299l424 179v-95l-320 -127l320 -128v-98l-424 180v89z" />
    <glyph glyph-name="equal" unicode="=" horiz-adv-x="568" 
d="M56 404h456v-88h-456v88zM56 192h456v-88h-456v88z" />
    <glyph glyph-name="greater" unicode="&#x3e;" horiz-adv-x="568" 
d="M496 209l-424 -179v95l320 127l-320 128v98l424 -180v-89z" />
    <glyph glyph-name="question" unicode="?" horiz-adv-x="510" 
d="M198 228q0 34 7 60.5t19 46.5t27.5 35t32.5 27l24 18q25 20 43.5 41t18.5 55q0 42 -29 70.5t-79 28.5q-33 0 -56 -10.5t-38 -28.5t-22 -41.5t-7 -49.5h-105q0 42 13.5 82t41 70.5t70.5 49t103 18.5q48 0 88 -12.5t69 -36.5t45 -58t16 -77q0 -30 -7.5 -53t-19.5 -41
t-27.5 -32.5t-31.5 -27.5l-24 -18q-28 -20 -48 -44.5t-20 -63.5v-34h-104v26zM190 120h119v-120h-119v120z" />
    <glyph glyph-name="at" unicode="@" horiz-adv-x="1033" 
d="M291 128q0 58 38 96t125 52l95 15q37 6 50 12.5t13 25.5q0 42 -23 66t-73 24t-75.5 -22t-28.5 -64h-102q5 76 58.5 121.5t144.5 45.5q105 0 156 -47.5t51 -137.5v-150q0 -32 6 -52.5t15.5 -32.5t23 -17t28.5 -5q21 0 40.5 12t35 38t25 66.5t9.5 97.5q0 84 -29 150
t-80.5 112.5t-121.5 71t-152 24.5q-90 0 -162 -31t-122.5 -85t-78 -127t-27.5 -157q0 -86 27.5 -157.5t76.5 -122.5t117.5 -79.5t150.5 -28.5q63 0 118.5 17t93.5 55h107q-54 -70 -134 -106t-185 -36q-99 0 -182.5 34t-144 95t-94 145t-33.5 184q0 97 33.5 183t95 149.5
t149 100.5t194.5 37q100 0 185 -30.5t147 -86t97.5 -135t35.5 -176.5q0 -75 -17 -129t-45.5 -88.5t-66.5 -50.5t-80 -16q-47 0 -86 16.5t-58 66.5q-27 -46 -72.5 -64.5t-103.5 -18.5q-81 0 -123 39t-42 101zM612 245q-14 -17 -50 -23l-87 -14q-42 -7 -59.5 -25.5
t-17.5 -47.5q0 -32 22.5 -51t61.5 -19q26 0 49.5 8t41.5 25t28.5 42t10.5 60v45z" />
    <glyph glyph-name="A" unicode="A" horiz-adv-x="665" 
d="M266 688h133l256 -688h-119l-59 167h-294l-59 -167h-114zM329 576l-112 -315h227l-111 315h-4z" />
    <glyph glyph-name="B" unicode="B" horiz-adv-x="682" 
d="M81 688h304q114 0 168.5 -47.5t54.5 -132.5q0 -49 -26.5 -89t-81.5 -57q63 -11 99.5 -54.5t36.5 -103.5q0 -44 -15 -81.5t-44 -64.5t-72 -42.5t-100 -15.5h-324v688zM194 310v-217h202q65 0 95.5 31t30.5 82q0 45 -31 74.5t-95 29.5h-202zM194 595v-194h182q60 0 89.5 29
t29.5 74q0 42 -27 66.5t-91 24.5h-183z" />
    <glyph glyph-name="C" unicode="C" horiz-adv-x="723" 
d="M44 344q0 76 24.5 141.5t68.5 113t106.5 74.5t138.5 27q62 0 112.5 -17t89 -47.5t63.5 -74t35 -97.5h-116q-37 136 -184 136q-50 0 -91 -19t-70 -52.5t-44.5 -80.5t-15.5 -104q0 -56 16 -102.5t44.5 -81t68.5 -53.5t89 -19q80 0 124.5 34.5t62.5 101.5h116
q-10 -54 -35.5 -97.5t-64.5 -74t-90.5 -47.5t-113.5 -17q-76 0 -137.5 26.5t-105 74t-67.5 112.5t-24 143z" />
    <glyph glyph-name="D" unicode="D" horiz-adv-x="720" 
d="M84 688h227q90 0 158 -25.5t114 -71.5t69.5 -109t23.5 -138t-23.5 -138t-69.5 -109t-114 -71.5t-158 -25.5h-227v688zM197 592v-496h111q69 0 116.5 20t77 54t43 79t13.5 95t-13.5 95t-43 79t-77 54t-116.5 20h-111z" />
    <glyph glyph-name="E" unicode="E" horiz-adv-x="626" 
d="M84 688h482v-96h-369v-195h296v-93h-296v-208h378v-96h-491v688z" />
    <glyph glyph-name="F" unicode="F" horiz-adv-x="590" 
d="M84 688h472v-96h-359v-221h286v-95h-286v-276h-113v688z" />
    <glyph glyph-name="G" unicode="G" horiz-adv-x="767" 
d="M605 91h-3q-36 -52 -89.5 -77.5t-129.5 -25.5t-138.5 26.5t-107 74t-69 113t-24.5 142.5t25 142.5t70.5 113t109 74t141.5 26.5q63 0 114.5 -17t90 -47t63.5 -70.5t35 -87.5h-115q-8 25 -23 47t-38 38.5t-55 26.5t-72 10q-52 0 -94.5 -19t-72.5 -53t-46 -81t-16 -103
t16.5 -103t46.5 -81t71.5 -53t91.5 -19q40 0 77 11.5t65.5 33.5t45 54t16.5 74v16h-201v91h303v-368h-73z" />
    <glyph glyph-name="H" unicode="H" horiz-adv-x="741" 
d="M84 688h113v-292h346v292h114v-688h-114v300h-346v-300h-113v688z" />
    <glyph glyph-name="I" unicode="I" horiz-adv-x="282" 
d="M84 688h113v-688h-113v688z" />
    <glyph glyph-name="J" unicode="J" horiz-adv-x="534" 
d="M36 233h112v-32q0 -33 7.5 -55.5t21 -36t31.5 -19.5t40 -6t40 6t31.5 19.5t21 36.5t7.5 57v485h113v-485q0 -59 -15.5 -100t-43.5 -66.5t-67 -37t-87 -11.5q-47 0 -85.5 11.5t-67 36.5t-44 65t-15.5 97v35z" />
    <glyph glyph-name="K" unicode="K" horiz-adv-x="674" 
d="M84 688h113v-348l323 348h132l-281 -298l295 -390h-129l-239 313l-101 -107v-206h-113v688z" />
    <glyph glyph-name="L" unicode="L" horiz-adv-x="561" 
d="M84 688h113v-591h333v-97h-446v688z" />
    <glyph glyph-name="M" unicode="M" horiz-adv-x="921" 
d="M84 688h146l231 -535h3l228 535h144v-688h-113l9 524h-4l-224 -524h-87l-224 515h-4l8 -515h-113v688z" />
    <glyph glyph-name="N" unicode="N" horiz-adv-x="749" 
d="M84 688h105l362 -496h4l-4 496h114v-688h-104l-364 494h-4l4 -494h-113v688z" />
    <glyph glyph-name="O" unicode="O" horiz-adv-x="775" 
d="M44 344q0 77 24.5 142t69.5 112.5t108 74.5t141 27q76 0 139.5 -27t109 -74.5t70.5 -112.5t25 -142t-25 -142t-70.5 -112.5t-109 -74.5t-139.5 -27q-78 0 -141 27t-108 74.5t-69.5 112.5t-24.5 142zM161 344q0 -56 16 -102.5t46 -81t71.5 -53.5t92.5 -19t93 19.5t72 53.5
t46 81t16 102t-16 102t-46 81t-72 53.5t-93 19.5t-92.5 -19t-71.5 -53.5t-46 -81.5t-16 -102z" />
    <glyph glyph-name="P" unicode="P" horiz-adv-x="655" 
d="M84 688h279q60 0 106.5 -16.5t78 -46t48 -71t16.5 -90.5q0 -50 -16.5 -92t-48 -73t-78 -48.5t-106.5 -17.5h-166v-233h-113v688zM197 594v-268h161q35 0 61.5 10.5t44 29.5t26 43.5t8.5 53.5q0 58 -34.5 94.5t-105.5 36.5h-161z" />
    <glyph glyph-name="Q" unicode="Q" horiz-adv-x="778" 
d="M44 344q0 77 24.5 142t69.5 112.5t108 74.5t141 27q76 0 139.5 -27t109 -74.5t70.5 -112.5t25 -142q0 -81 -27.5 -148.5t-77.5 -115.5l130 -134l-74 -73l-141 148q-34 -16 -72.5 -24.5t-81.5 -8.5q-78 0 -141 27t-108 74.5t-69.5 112.5t-24.5 142zM161 344
q0 -56 16 -102.5t46 -81t71.5 -53.5t92.5 -19t93 19.5t72 53.5t46 81t16 102t-16 102t-46 81t-72 53.5t-93 19.5t-92.5 -19t-71.5 -53.5t-46 -81.5t-16 -102z" />
    <glyph glyph-name="R" unicode="R" horiz-adv-x="673" 
d="M84 688h278q121 0 184 -55t63 -154q0 -75 -37.5 -129.5t-110.5 -77.5l173 -272h-123l-165 259h-149v-259h-113v688zM197 594v-242h164q67 0 100.5 36.5t33.5 89.5q0 54 -34.5 85t-99.5 31h-164z" />
    <glyph glyph-name="S" unicode="S" horiz-adv-x="658" 
d="M165 204q0 -60 42.5 -94t117.5 -34q79 0 121.5 30.5t42.5 85.5q0 25 -11.5 42t-31.5 29t-46.5 19t-57.5 13l-45 8q-42 7 -83.5 18t-74.5 32t-53.5 55t-20.5 88q0 44 18.5 81.5t52 64.5t82 42.5t108.5 15.5q58 0 105.5 -14t81.5 -40t52.5 -64t18.5 -87h-111q0 59 -42 88
t-105 29q-32 0 -59 -6.5t-47 -20t-31.5 -33t-11.5 -45.5t12.5 -43.5t34 -29t51 -18.5t62.5 -13l45 -8q41 -7 81 -18.5t71.5 -33t51 -55.5t19.5 -87q0 -48 -18.5 -87t-54.5 -67t-88 -43.5t-119 -15.5q-132 0 -202 57.5t-70 158.5h112z" />
    <glyph glyph-name="T" unicode="T" horiz-adv-x="602" 
d="M8 688h586v-95h-237v-593h-113v593h-236v95z" />
    <glyph glyph-name="U" unicode="U" horiz-adv-x="713" 
d="M70 688h113v-413q0 -90 42.5 -138.5t130.5 -48.5t130.5 48.5t42.5 138.5v413h113v-414q0 -78 -21 -132.5t-58.5 -88.5t-90.5 -49.5t-116 -15.5t-115.5 15.5t-90.5 49.5t-59 88.5t-21 132.5v414z" />
    <glyph glyph-name="V" unicode="V" horiz-adv-x="645" 
d="M8 688h119l195 -576h4l197 576h114l-250 -688h-130z" />
    <glyph glyph-name="W" unicode="W" horiz-adv-x="957" 
d="M11 688h120l135 -568h4l149 568h126l151 -568h4l130 568h116l-177 -688h-141l-146 551h-4l-146 -551h-141z" />
    <glyph glyph-name="X" unicode="X" horiz-adv-x="625" 
d="M247 351l-231 337h129l167 -251l166 251h123l-227 -334l243 -354h-128l-180 267l-177 -267h-124z" />
    <glyph glyph-name="Y" unicode="Y" horiz-adv-x="637" 
d="M260 266l-249 422h128l178 -310h4l185 310h119l-252 -417v-271h-113v266z" />
    <glyph glyph-name="Z" unicode="Z" horiz-adv-x="598" 
d="M52 688h511v-69l-383 -525h380v-94h-525v69l383 525h-366v94z" />
    <glyph glyph-name="bracketleft" unicode="[" horiz-adv-x="340" 
d="M325 -142v-86h-243v972h243v-86h-145v-800h145z" />
    <glyph glyph-name="backslash" unicode="\" horiz-adv-x="413" 
d="M6 700h93l308 -712h-93z" />
    <glyph glyph-name="bracketright" unicode="]" horiz-adv-x="340" 
d="M160 -142v800h-145v86h244v-972h-244v86h145z" />
    <glyph glyph-name="asciicircum" unicode="^" horiz-adv-x="568" 
d="M235 688h93v-1l6 1l185 -336h-104l-132 249l-132 -249h-101z" />
    <glyph glyph-name="underscore" unicode="_" horiz-adv-x="500" 
d="M500 -72v-85h-500v85h500z" />
    <glyph glyph-name="grave" unicode="`" horiz-adv-x="573" 
d="M103 732h120l102 -164h-76z" />
    <glyph glyph-name="a" unicode="a" horiz-adv-x="541" 
d="M45 130q0 65 37.5 100t121.5 48l99 16q19 3 31.5 5.5t19.5 6.5t9.5 11t2.5 18q0 35 -23.5 59.5t-72.5 24.5t-74.5 -24t-28.5 -62h-103q5 76 59 121.5t147 45.5q103 0 153.5 -47t50.5 -133v-320h-103v76h-4q-17 -39 -58 -61.5t-102 -22.5q-76 0 -119 36.5t-43 101.5z
M366 249q-14 -18 -50 -23l-84 -15q-41 -6 -60 -22.5t-19 -47.5q0 -30 20 -49t57 -19q27 0 51.5 8t43 24.5t30 41t11.5 57.5v45z" />
    <glyph glyph-name="b" unicode="b" horiz-adv-x="600" 
d="M73 732h108v-153q0 -25 -0.5 -70.5t-3.5 -93.5h4q23 45 65.5 65t96.5 20q46 0 86 -16.5t69 -48.5t46 -79t17 -108t-17.5 -109t-48.5 -81.5t-72 -51.5t-88 -18q-53 0 -92 20t-62 65h-4v-73h-104v732zM181 244q0 -40 10 -71.5t28 -53t42.5 -33t53.5 -11.5q58 0 95.5 46
t37.5 127t-37.5 123t-95.5 42q-28 0 -52 -11t-42 -31.5t-28.5 -50.5t-11.5 -68v-8z" />
    <glyph glyph-name="c" unicode="c" horiz-adv-x="534" 
d="M38 244q0 59 18 106.5t50.5 80.5t77 51t97.5 18q51 0 90.5 -14t67.5 -38.5t43.5 -59t20.5 -76.5h-106q-7 45 -34.5 73t-81.5 28q-29 0 -53 -12t-41 -34.5t-27 -53.5t-10 -69t10 -69t27 -53.5t41 -34.5t53 -12q54 0 81.5 28t34.5 73h106q-5 -42 -20.5 -76.5t-43.5 -59
t-67.5 -38.5t-90.5 -14q-56 0 -101 17.5t-76.5 50.5t-48.5 80.5t-17 107.5z" />
    <glyph glyph-name="d" unicode="d" horiz-adv-x="600" 
d="M39 240q0 61 17.5 109t48.5 81.5t72 51.5t88 18q53 0 92 -20t62 -65h4q-4 48 -4.5 93.5t-0.5 70.5v153h108v-732h-103v73h-4q-23 -45 -65.5 -65t-96.5 -20q-46 0 -86 16.5t-69 48.5t-46 79t-17 108zM151 240q0 -81 38 -123t95 -42q58 0 96 44t38 125t-38 125t-96 44
q-29 0 -53 -12t-42 -34.5t-28 -54.5t-10 -72z" />
    <glyph glyph-name="e" unicode="e" horiz-adv-x="543" 
d="M38 243q0 58 18 105.5t50.5 81t76.5 52t97 18.5q51 0 93 -16t72 -46.5t46.5 -74.5t16.5 -101v-36h-359q4 -72 40 -112.5t95 -40.5q52 0 79 23.5t35 53.5h105q-5 -33 -22 -62.5t-45 -51.5t-66.5 -35t-86.5 -13q-118 0 -181.5 67t-63.5 188zM280 415q-48 0 -81.5 -31
t-44.5 -86h244q-6 60 -36 88.5t-82 28.5z" />
    <glyph glyph-name="f" unicode="f" horiz-adv-x="325" 
d="M95 404h-92v84h92v73q0 85 43 128t136 43h62v-88h-52q-46 0 -63.5 -21t-17.5 -66v-69h117v-84h-117v-404h-108v404z" />
    <glyph glyph-name="g" unicode="g" horiz-adv-x="600" 
d="M154 -57q1 -43 35.5 -66.5t88.5 -23.5q32 0 59 9t46 29t29.5 53.5t10.5 81.5v47h-4q-23 -45 -65.5 -65t-96.5 -20q-46 0 -86 16.5t-69 48.5t-46 79t-17 108t17.5 109t48.5 81.5t72 51.5t88 18q53 0 92 -20t62 -65h4v73h103v-462q0 -69 -19 -117.5t-52 -78.5t-78.5 -44
t-99.5 -14q-49 0 -90 10.5t-70.5 32t-46.5 53.5t-18 75h102zM151 240q0 -81 38 -123t95 -42q28 0 52.5 11.5t42.5 33t28.5 52.5t10.5 71q0 81 -38 125.5t-96 44.5q-29 0 -53 -12t-42 -34.5t-28 -54.5t-10 -72z" />
    <glyph glyph-name="h" unicode="h" horiz-adv-x="581" 
d="M73 732h108v-151q0 -25 -0.5 -70.5t-3.5 -93.5h4q42 83 151 83q36 0 69.5 -10.5t58.5 -34.5t40 -63t15 -96v-296h-108v282q0 73 -28 101.5t-76 28.5q-26 0 -48.5 -11t-39 -32t-25.5 -50t-9 -65v-254h-108v732z" />
    <glyph glyph-name="i" unicode="i" horiz-adv-x="255" 
d="M69 732h116v-110h-116v110zM73 488h108v-488h-108v488z" />
    <glyph glyph-name="j" unicode="j" horiz-adv-x="255" 
d="M69 732h116v-110h-116v110zM73 488h108v-559q0 -34 -7.5 -61.5t-25.5 -47t-47.5 -30t-72.5 -10.5h-37v90h25q32 0 44.5 16.5t12.5 53.5v548z" />
    <glyph glyph-name="k" unicode="k" horiz-adv-x="527" 
d="M73 732h108v-463l201 219h122l-182 -196l201 -292h-126l-147 216l-69 -75v-141h-108v732z" />
    <glyph glyph-name="l" unicode="l" horiz-adv-x="255" 
d="M73 732h108v-732h-108v732z" />
    <glyph glyph-name="m" unicode="m" horiz-adv-x="887" 
d="M73 488h104v-71h4q21 42 59 62.5t89 20.5t92.5 -22t62.5 -75q26 53 68 75t96 22q36 0 67.5 -10.5t55 -34t37 -61t13.5 -92.5v-302h-108v289q0 68 -24 95.5t-70 27.5q-49 0 -83.5 -41t-34.5 -114v-257h-108v289q0 68 -25 95.5t-69 27.5q-49 0 -83.5 -41t-34.5 -115v-256
h-108v488z" />
    <glyph glyph-name="n" unicode="n" horiz-adv-x="581" 
d="M73 488h104v-71h4q42 83 151 83q36 0 69.5 -10.5t58.5 -34.5t40 -63t15 -96v-296h-108v282q0 73 -28 101.5t-76 28.5q-52 0 -87 -41.5t-35 -115.5v-255h-108v488z" />
    <glyph glyph-name="o" unicode="o" horiz-adv-x="577" 
d="M39 244q0 59 18.5 106.5t52 80.5t79 51t99.5 18q57 0 103 -17.5t78.5 -50.5t50 -80.5t17.5 -107.5q0 -59 -18.5 -106.5t-51.5 -80.5t-79 -51t-100 -18q-57 0 -103 17.5t-78.5 50.5t-50 80.5t-17.5 107.5zM151 244q0 -77 37.5 -123t99.5 -46t99.5 46t37.5 123
q0 80 -37.5 124.5t-99.5 44.5t-99.5 -46t-37.5 -123z" />
    <glyph glyph-name="p" unicode="p" horiz-adv-x="600" 
d="M181 -220h-108v708h104v-73h4q23 45 65.5 65t96.5 20q46 0 86 -16.5t69 -48.5t46 -79t17 -108t-17.5 -109t-48.5 -81.5t-72 -51.5t-88 -18q-53 0 -92 20t-62 65h-4q3 -48 3.5 -93.5t0.5 -70.5v-129zM448 248q0 81 -37.5 123t-95.5 42q-28 0 -52 -11t-42 -31.5
t-28.5 -50.5t-11.5 -68v-8q0 -40 10 -71.5t28 -53t42.5 -33t53.5 -11.5q58 0 95.5 46t37.5 127z" />
    <glyph glyph-name="q" unicode="q" horiz-adv-x="597" 
d="M418 -91q0 25 0.5 70.5t4.5 93.5h-4q-23 -45 -65.5 -65t-96.5 -20q-46 0 -86 16.5t-69 48.5t-46 79t-17 108t17.5 109t48.5 81.5t72 51.5t88 18q53 0 92 -20t62 -65h4v73h103v-708h-108v129zM151 240q0 -81 38 -123t95 -42q56 0 94 42t40 119v8q0 81 -38 125t-96 44
q-29 0 -53 -12t-42 -34.5t-28 -54.5t-10 -72z" />
    <glyph glyph-name="r" unicode="r" horiz-adv-x="377" 
d="M73 488h104v-71h3q18 39 50 61t79 22q15 0 32 -3.5t36 -16.5l-28 -96q-32 16 -60 16q-27 0 -47.5 -12.5t-34 -33.5t-20 -49.5t-6.5 -60.5v-244h-108v488z" />
    <glyph glyph-name="s" unicode="s" horiz-adv-x="503" 
d="M141 146q0 -22 9 -37.5t24 -25.5t34.5 -14.5t39.5 -4.5q55 0 80 18t25 54q0 27 -16.5 40.5t-53.5 19.5l-90 15q-27 4 -53 12.5t-46 24t-32.5 39t-12.5 58.5q0 37 15 66t42 48.5t63.5 30t79.5 10.5q42 0 78.5 -10t63.5 -29.5t42 -49t15 -68.5h-101q0 38 -27 59.5t-71 21.5
q-43 0 -69.5 -18t-26.5 -50q0 -25 17 -38.5t61 -21.5l90 -15q28 -5 53 -13.5t44.5 -24t31 -40t11.5 -60.5q0 -39 -15.5 -68.5t-43.5 -48.5t-67 -28.5t-87 -9.5q-97 0 -153.5 40t-56.5 118h103z" />
    <glyph glyph-name="t" unicode="t" horiz-adv-x="345" 
d="M88 404h-92v84h92v148h108v-148h125v-84h-125v-248q0 -35 15 -50.5t51 -15.5h59v-90h-73q-84 0 -122 35t-38 115v254z" />
    <glyph glyph-name="u" unicode="u" horiz-adv-x="577" 
d="M65 488h108v-282q0 -73 28.5 -101.5t75.5 -28.5q52 0 85.5 42t33.5 118v252h108v-488h-103v71h-4q-42 -83 -148 -83q-37 0 -70 10.5t-58.5 34.5t-40.5 63t-15 96v296z" />
    <glyph glyph-name="v" unicode="v" horiz-adv-x="493" 
d="M4 488h118l127 -376h4l127 376h109l-177 -488h-126z" />
    <glyph glyph-name="w" unicode="w" horiz-adv-x="750" 
d="M5 488h110l95 -379h4l105 379h115l106 -379h4l94 379h107l-141 -488h-126l-101 378h-4l-101 -378h-126z" />
    <glyph glyph-name="x" unicode="x" horiz-adv-x="484" 
d="M183 246l-169 242h124l110 -165l107 165h115l-169 -241l173 -247h-124l-114 171l-111 -171h-115z" />
    <glyph glyph-name="y" unicode="y" horiz-adv-x="493" 
d="M4 488h118l127 -376h4l127 376h109l-201 -556q-11 -30 -26.5 -58.5t-38 -51t-53 -36.5t-69.5 -14h-54v89h32q84 0 118 95l15 44h-26z" />
    <glyph glyph-name="z" unicode="z" horiz-adv-x="461" 
d="M32 488h393v-67l-251 -336h255v-85h-394v61l256 342h-259v85z" />
    <glyph glyph-name="braceleft" unicode="{" horiz-adv-x="370" 
d="M128 97q0 35 -4.5 59t-17 39t-34.5 22t-56 7v76q34 0 56 7t34.5 22t17 39t4.5 59v161q0 39 8.5 68t28 48.5t51 29.5t78.5 10h61v-83h-50q-46 0 -62 -18t-16 -62v-183q0 -54 -23 -86.5t-77 -47.5v-4q54 -15 77 -47.5t23 -86.5v-191q0 -44 16 -62t62 -18h50v-83h-61
q-47 0 -78.5 9.5t-51 29t-28 49t-8.5 68.5v169z" />
    <glyph glyph-name="bar" unicode="|" horiz-adv-x="271" 
d="M88 760h95v-1000h-95v1000z" />
    <glyph glyph-name="braceright" unicode="}" horiz-adv-x="370" 
d="M65 -145q46 0 62 18t16 62v191q0 54 23 86.5t77 47.5v4q-54 15 -77 47.5t-23 86.5v183q0 44 -16 62t-62 18h-50v83h60q47 0 79 -10t51.5 -29.5t27.5 -48.5t8 -68v-161q0 -35 4.5 -59t17 -39t34 -22t56.5 -7v-76q-35 0 -56.5 -7t-34 -22t-17 -39t-4.5 -59v-169
q0 -39 -8 -68.5t-27.5 -49t-51.5 -29t-79 -9.5h-60v83h50z" />
    <glyph glyph-name="asciitilde" unicode="~" horiz-adv-x="568" 
d="M52 179q0 43 11 73.5t29.5 50.5t42.5 29.5t50 9.5q34 0 61 -11.5t50 -25l43.5 -25t41.5 -11.5q24 0 37 18t13 57h86q0 -42 -11 -73t-29 -51t-41.5 -29.5t-48.5 -9.5q-34 0 -61.5 12t-51 26.5l-44.5 26.5t-42 12q-50 0 -50 -79h-86z" />
    <glyph glyph-name="uni00A0" unicode="&#xa0;" horiz-adv-x="220" 
 />
    <glyph glyph-name="exclamdown" unicode="&#xa1;" horiz-adv-x="284" 
d="M82 488h119v-120h-119v120zM111 290h61l30 -300v-190h-120v190z" />
    <glyph glyph-name="cent" unicode="&#xa2;" horiz-adv-x="568" 
d="M248 95q-93 15 -145.5 81.5t-52.5 171.5q0 52 15 95.5t42 76t64 53.5t81 28v99h96v-100q78 -14 122.5 -63t52.5 -121h-107q-7 45 -35.5 73t-83.5 28q-30 0 -54.5 -12t-42.5 -34.5t-28 -53.5t-10 -69t10 -69t28 -53.5t42.5 -34.5t54.5 -12q55 0 83.5 28t35.5 73h107
q-8 -74 -53 -123.5t-126 -61.5v-107h-96v107z" />
    <glyph glyph-name="sterling" unicode="&#xa3;" horiz-adv-x="568" 
d="M60 390h84q-11 32 -20 65.5t-9 68.5q0 81 51.5 128.5t140.5 47.5q172 0 183 -183h-100q-5 57 -26 79t-60 22q-35 0 -59 -22.5t-24 -64.5q0 -36 10 -71t23 -70h157v-68h-133q6 -22 10 -43t4 -44q0 -27 -4 -53t-11 -50q32 -22 62 -40t60 -18q29 0 45.5 21.5t18.5 74.5h87
q-2 -35 -9.5 -68t-24 -58.5t-44 -40.5t-69.5 -15q-45 0 -84 23.5t-74 51.5q-22 -34 -54.5 -54.5t-76.5 -20.5q-51 0 -81 26.5t-30 71.5q0 53 33.5 81.5t86.5 28.5q17 0 33.5 -4t32.5 -10q0 7 0.5 14.5t0.5 13.5q0 29 -6.5 56.5t-15.5 55.5h-108v68zM116 46q25 0 39.5 19.5
t22.5 47.5q-15 10 -30.5 16t-29.5 6q-20 0 -33.5 -12.5t-13.5 -32.5q0 -19 11 -31.5t34 -12.5z" />
    <glyph glyph-name="currency" unicode="&#xa4;" horiz-adv-x="568" 
d="M84 194l59 60q-12 19 -20 41.5t-8 48.5t8.5 49t21.5 42l-60 60l51 50l59 -61q20 11 42 17.5t47 6.5q24 0 46 -6.5t42 -17.5l60 61l51 -50l-60 -60q13 -19 21.5 -42t8.5 -49t-8.5 -48.5t-20.5 -41.5l60 -60l-51 -50l-60 60q-38 -24 -89 -24q-25 0 -48 6t-41 18l-60 -60z
M284 250q38 0 64 25.5t26 68.5t-26 68.5t-64 25.5t-64 -25.5t-26 -68.5t26 -68.5t64 -25.5z" />
    <glyph glyph-name="yen" unicode="&#xa5;" horiz-adv-x="568" 
d="M85 302h145v2l-221 384h124l153 -279h4l154 279h115l-221 -385v-1h145v-61h-145v-71h145v-61h-145v-109h-108v109h-145v61h145v71h-145v61z" />
    <glyph glyph-name="brokenbar" unicode="&#xa6;" horiz-adv-x="271" 
d="M88 688h95v-352h-95v352zM88 188h95v-352h-95v352z" />
    <glyph glyph-name="section" unicode="&#xa7;" horiz-adv-x="574" 
d="M165 -58q4 -51 36.5 -72t81.5 -21q55 0 84.5 22.5t29.5 64.5q0 36 -24 54t-70 32l-92 28q-81 23 -118.5 66t-37.5 109q0 52 31 93.5t85 62.5q-45 20 -71 53.5t-26 89.5q0 81 58 128.5t160 47.5q47 0 86 -10t67.5 -31t45 -53t19.5 -76h-101q-4 51 -36.5 72t-80.5 21
q-56 0 -85.5 -22.5t-29.5 -64.5q0 -36 24 -54t69 -32l92 -28q82 -23 119 -66t37 -109q0 -53 -30.5 -94t-84.5 -62q44 -20 70.5 -54t26.5 -89q0 -81 -58 -128.5t-160 -47.5q-97 0 -155 41t-63 129h101zM257 351q-51 -12 -76.5 -42.5t-25.5 -65.5q0 -45 24.5 -67.5t75.5 -37.5
l56 -17q54 12 81 42t27 66q0 45 -24.5 67t-75.5 38z" />
    <glyph glyph-name="dieresis" unicode="&#xa8;" horiz-adv-x="573" 
d="M340 704h102v-104h-102v104zM130 704h103v-104h-103v104z" />
    <glyph glyph-name="copyright" unicode="&#xa9;" horiz-adv-x="776" 
d="M35 348q0 75 26.5 139.5t73.5 112t111.5 74t141.5 26.5q75 0 139.5 -26.5t112 -74t74.5 -112t27 -139.5t-26.5 -141t-73.5 -114.5t-112 -76.5t-141 -28q-77 0 -141.5 28t-111.5 76.5t-73.5 114.5t-26.5 141zM112 348q0 -61 20 -115t56.5 -94t87.5 -63.5t112 -23.5
q60 0 110.5 23.5t87 63.5t57.5 94t21 115t-20 113t-56.5 90t-87.5 59.5t-112 21.5t-112 -21.5t-87.5 -59.5t-56.5 -90t-20 -113zM215 348q0 39 12 71t34.5 55.5t54.5 36.5t73 13q66 0 105 -35t47 -92h-78q-7 28 -23.5 44t-50.5 16q-42 0 -67.5 -32t-25.5 -77q0 -46 25.5 -78
t67.5 -32q34 0 50.5 16t23.5 45h78q-8 -57 -48.5 -92t-106.5 -35q-40 0 -72 13t-54 36t-33.5 55.5t-11.5 71.5z" />
    <glyph glyph-name="ordfeminine" unicode="&#xaa;" horiz-adv-x="396" 
d="M35 434q0 48 27.5 73.5t87.5 33.5l65 8q28 4 36 9t8 19q0 22 -14 38t-45 16q-27 0 -45 -13t-20 -42h-85q2 32 15 55t33 37.5t46.5 21t55.5 6.5q72 0 111 -31t39 -96v-225h-88v41h-3q-14 -23 -40.5 -36t-68.5 -13q-56 0 -85.5 27t-29.5 71zM259 511q-9 -13 -33 -16l-50 -6
q-28 -4 -39 -16.5t-11 -29.5q0 -21 14 -31t39 -10q32 0 56 19.5t24 63.5v26z" />
    <glyph glyph-name="guillemotleft" unicode="&#xab;" horiz-adv-x="537" 
d="M398 456h89l-114 -204l114 -204h-89l-143 204zM50 252l143 204h89l-114 -204l114 -204h-89z" />
    <glyph glyph-name="logicalnot" unicode="&#xac;" horiz-adv-x="568" 
d="M57 298h454v-270h-93v182h-361v88z" />
    <glyph glyph-name="uni00AD" unicode="&#xad;" horiz-adv-x="396" 
d="M56 299h284v-94h-284v94z" />
    <glyph glyph-name="registered" unicode="&#xae;" horiz-adv-x="776" 
d="M35 348q0 75 26.5 139.5t73.5 112t111.5 74t141.5 26.5q75 0 139.5 -26.5t112 -74t74.5 -112t27 -139.5t-26.5 -141t-73.5 -114.5t-112 -76.5t-141 -28q-77 0 -141.5 28t-111.5 76.5t-73.5 114.5t-26.5 141zM112 348q0 -61 20 -115t56.5 -94t87.5 -63.5t112 -23.5
q60 0 110.5 23.5t87 63.5t57.5 94t21 115t-20 113t-56.5 90t-87.5 59.5t-112 21.5t-112 -21.5t-87.5 -59.5t-56.5 -90t-20 -113zM244 520h163q66 0 99.5 -29.5t33.5 -80.5q0 -35 -20.5 -62.5t-54.5 -41.5l87 -130h-88l-74 120h-65v-120h-81v344zM325 454v-93h79q27 0 41 13
t14 35q0 45 -55 45h-79z" />
    <glyph glyph-name="macron" unicode="&#xaf;" horiz-adv-x="573" 
d="M141 689h287v-78h-287v78z" />
    <glyph glyph-name="degree" unicode="&#xb0;" horiz-adv-x="378" 
d="M189 413q-32 0 -59 10.5t-47 29.5t-31.5 45.5t-11.5 58.5t11.5 58.5t31.5 45t47 29t59 10.5t59 -10.5t47 -29t31.5 -45t11.5 -58.5t-11.5 -58.5t-31.5 -45.5t-47 -29.5t-59 -10.5zM189 629q-29 0 -48.5 -20t-19.5 -52q0 -33 19.5 -52.5t48.5 -19.5t48.5 19.5t19.5 52.5
q0 32 -19.5 52t-48.5 20z" />
    <glyph glyph-name="plusminus" unicode="&#xb1;" horiz-adv-x="568" 
d="M58 409h180v168h92v-168h182v-87h-182v-168h-92v168h-180v87zM56 88h456v-88h-456v88z" />
    <glyph glyph-name="twosuperior" unicode="&#xb2;" 
d="M30 496q0 40 10 68t26.5 48t37 33.5t42.5 24.5l21 10q31 14 50 28t19 31q0 43 -55 43q-28 0 -44.5 -15t-18.5 -44h-84q1 33 13.5 57t33 39t46.5 22t55 7q64 0 102.5 -27.5t38.5 -78.5q0 -24 -8.5 -41.5t-23.5 -31t-35 -24.5t-42 -21l-21 -10q-26 -12 -42.5 -25t-16.5 -23
h188v-70h-292z" />
    <glyph glyph-name="threesuperior" unicode="&#xb3;" 
d="M117 601q0 -26 17 -38.5t46 -12.5q27 0 45 11t18 36q0 24 -18 36t-47 12h-24v56h24q27 0 42.5 11t15.5 33q0 20 -15 30.5t-41 10.5t-41 -12.5t-15 -34.5h-82q1 54 39.5 81.5t103.5 27.5q63 0 99 -27t36 -70q0 -29 -15.5 -50t-41.5 -27q30 -7 49 -30t19 -55
q0 -50 -39.5 -75.5t-111.5 -25.5q-66 0 -105.5 26t-40.5 87h83z" />
    <glyph glyph-name="acute" unicode="&#xb4;" horiz-adv-x="573" 
d="M350 732h120l-146 -164h-76z" />
    <glyph glyph-name="mu" unicode="&#xb5;" horiz-adv-x="582" 
d="M168 11q6 -48 9 -84.5t3 -77.5v-69h-109v708h109v-282q0 -73 27 -101.5t76 -28.5q54 0 86.5 43t32.5 115v254h108v-488h-103v71h-4q-42 -83 -147 -83q-47 0 -85 23h-3z" />
    <glyph glyph-name="paragraph" unicode="&#xb6;" horiz-adv-x="628" 
d="M436 688h102v-688h-102v688zM256 249q-101 10 -158.5 67.5t-57.5 151.5q0 50 17.5 90.5t50 69.5t79 44.5t105.5 15.5h66v-688h-102v249z" />
    <glyph glyph-name="periodcentered" unicode="&#xb7;" horiz-adv-x="273" 
d="M72 314h129v-124h-129v124z" />
    <glyph glyph-name="cedilla" unicode="&#xb8;" horiz-adv-x="573" 
d="M269 0h36v-37q45 -2 68.5 -27t23.5 -60q0 -42 -28.5 -69t-88.5 -27h-61v59h53q23 0 36 7.5t13 30.5q0 20 -13 28.5t-36 8.5h-33z" />
    <glyph glyph-name="onesuperior" unicode="&#xb9;" 
d="M39 754l145 86h54v-274h92v-70h-279v70h98v170l-74 -43z" />
    <glyph glyph-name="ordmasculine" unicode="&#xba;" horiz-adv-x="424" 
d="M31 516q0 41 13 74.5t36.5 57t57 36.5t74.5 13q85 0 133 -49t48 -132t-49.5 -131.5t-131.5 -48.5q-85 0 -133 48.5t-48 131.5zM125 516q0 -49 23.5 -79t63.5 -30t63.5 30t23.5 79q0 50 -23.5 79.5t-63.5 29.5t-63.5 -29.5t-23.5 -79.5z" />
    <glyph glyph-name="guillemotright" unicode="&#xbb;" horiz-adv-x="537" 
d="M369 252l-114 204h89l143 -204l-143 -204h-89zM164 252l-114 204h89l143 -204l-143 -204h-89z" />
    <glyph glyph-name="onequarter" unicode="&#xbc;" horiz-adv-x="793" 
d="M39 602l145 86h54v-274h92v-70h-279v70h98v170l-74 -43zM561 700h75l-348 -712h-75zM456 113l188 232h75v-217h47v-67h-47v-61h-88v61h-175v52zM631 128v107l-85 -107h85z" />
    <glyph glyph-name="onehalf" unicode="&#xbd;" horiz-adv-x="793" 
d="M39 602l145 86h54v-274h92v-70h-279v70h98v170l-74 -43zM553 700h75l-348 -712h-75zM464 0q0 40 10 68t26.5 48t37 33.5t42.5 24.5l21 10q31 14 50 28t19 31q0 43 -55 43q-28 0 -44.5 -15t-18.5 -44h-84q1 33 13.5 57t33 39t46.5 22t55 7q64 0 102.5 -27.5t38.5 -78.5
q0 -24 -8.5 -41.5t-23.5 -31t-35 -24.5t-42 -21l-21 -10q-26 -12 -42.5 -25t-16.5 -23h188v-70h-292z" />
    <glyph glyph-name="threequarters" unicode="&#xbe;" horiz-adv-x="793" 
d="M117 449q0 -26 17 -38.5t46 -12.5q27 0 45 11t18 36q0 24 -18 36t-47 12h-24v56h24q27 0 42.5 11t15.5 33q0 20 -15 30.5t-41 10.5t-41 -12.5t-15 -34.5h-82q1 54 39.5 81.5t103.5 27.5q63 0 99 -27t36 -70q0 -29 -15.5 -50t-41.5 -27q30 -7 49 -30t19 -55
q0 -50 -39.5 -75.5t-111.5 -25.5q-66 0 -105.5 26t-40.5 87h83zM557 700h75l-348 -712h-75zM456 113l188 232h75v-217h47v-67h-47v-61h-88v61h-175v52zM631 128v107l-85 -107h85z" />
    <glyph glyph-name="questiondown" unicode="&#xbf;" horiz-adv-x="510" 
d="M316 260q0 -35 -7.5 -61t-19.5 -46t-27.5 -35t-31.5 -27l-25 -18q-25 -20 -43 -41t-18 -55q0 -42 28.5 -70.5t79.5 -28.5q32 0 55 10.5t38 28.5t22 41.5t7 49.5h106q0 -42 -13.5 -82t-41 -70.5t-70.5 -49t-103 -18.5q-48 0 -88.5 12.5t-69 36.5t-44.5 58t-16 77
q0 30 7 53t19 41t27.5 32.5t32.5 27.5l24 18q28 20 47.5 44.5t19.5 63.5v34h105v-26zM323 368h-119v120h119v-120z" />
    <glyph glyph-name="Agrave" unicode="&#xc0;" horiz-adv-x="665" 
d="M266 688h133l256 -688h-119l-59 167h-294l-59 -167h-114zM329 576l-112 -315h227l-111 315h-4zM148 932h120l102 -164h-76z" />
    <glyph glyph-name="Aacute" unicode="&#xc1;" horiz-adv-x="665" 
d="M266 688h133l256 -688h-119l-59 167h-294l-59 -167h-114zM329 576l-112 -315h227l-111 315h-4zM395 932h120l-146 -164h-76z" />
    <glyph glyph-name="Acircumflex" unicode="&#xc2;" horiz-adv-x="665" 
d="M266 688h133l256 -688h-119l-59 167h-294l-59 -167h-114zM329 576l-112 -315h227l-111 315h-4zM287 932h89l128 -164h-95l-78 106l-77 -106h-95z" />
    <glyph glyph-name="Atilde" unicode="&#xc3;" horiz-adv-x="665" 
d="M266 688h133l256 -688h-119l-59 167h-294l-59 -167h-114zM329 576l-112 -315h227l-111 315h-4zM162 767q2 52 27 84.5t73 32.5q22 0 42 -7t38 -16t33.5 -16t29.5 -7q20 0 29.5 15.5t12.5 32.5h54q-2 -52 -27 -84.5t-73 -32.5q-22 0 -42 7t-38 16t-34 16t-29 7
q-20 0 -30 -15.5t-12 -32.5h-54z" />
    <glyph glyph-name="Adieresis" unicode="&#xc4;" horiz-adv-x="665" 
d="M266 688h133l256 -688h-119l-59 167h-294l-59 -167h-114zM329 576l-112 -315h227l-111 315h-4zM385 872h102v-104h-102v104zM175 872h103v-104h-103v104z" />
    <glyph glyph-name="Aring" unicode="&#xc5;" horiz-adv-x="665" 
d="M266 688h133l256 -688h-119l-59 167h-294l-59 -167h-114zM329 576l-112 -315h227l-111 315h-4zM331 759q-21 0 -39.5 7.5t-33 20.5t-22.5 31t-8 40t8.5 40.5t22.5 31.5t32.5 20t39.5 7t40 -7t33 -20t22.5 -31.5t8.5 -40.5q0 -44 -30.5 -71.5t-73.5 -27.5zM331 808
q21 0 36 14.5t15 35.5q0 22 -15 36t-36 14q-20 0 -35 -14t-15 -36q0 -21 15 -35.5t35 -14.5z" />
    <glyph glyph-name="AE" unicode="&#xc6;" horiz-adv-x="1091" 
d="M508 688h523v-96h-370v-195h296v-93h-296v-208h379v-96h-492v157h-296l-113 -157h-128zM318 250h230v317h-4z" />
    <glyph glyph-name="Ccedilla" unicode="&#xc7;" horiz-adv-x="723" 
d="M357 -11q-72 4 -129.5 31.5t-98.5 74.5t-63 110.5t-22 138.5q0 76 24.5 141.5t68.5 113t106.5 74.5t138.5 27q62 0 112.5 -17t89 -47.5t63.5 -74t35 -97.5h-116q-37 136 -184 136q-50 0 -91 -19t-70 -52.5t-44.5 -80.5t-15.5 -104q0 -56 16 -102.5t44.5 -81t68.5 -53.5
t89 -19q80 0 124.5 34.5t62.5 101.5h116q-10 -53 -34 -95t-60 -72.5t-84 -48t-106 -20.5v-25q45 -2 68.5 -27t23.5 -60q0 -42 -28.5 -69t-88.5 -27h-61v59h53q23 0 36 7.5t13 30.5q0 20 -13 28.5t-36 8.5h-33z" />
    <glyph glyph-name="Egrave" unicode="&#xc8;" horiz-adv-x="626" 
d="M84 688h482v-96h-369v-195h296v-93h-296v-208h378v-96h-491v688zM143 932h120l102 -164h-76z" />
    <glyph glyph-name="Eacute" unicode="&#xc9;" horiz-adv-x="626" 
d="M84 688h482v-96h-369v-195h296v-93h-296v-208h378v-96h-491v688zM390 932h120l-146 -164h-76z" />
    <glyph glyph-name="Ecircumflex" unicode="&#xca;" horiz-adv-x="626" 
d="M84 688h482v-96h-369v-195h296v-93h-296v-208h378v-96h-491v688zM282 932h89l128 -164h-95l-78 106l-77 -106h-95z" />
    <glyph glyph-name="Edieresis" unicode="&#xcb;" horiz-adv-x="626" 
d="M84 688h482v-96h-369v-195h296v-93h-296v-208h378v-96h-491v688zM380 872h102v-104h-102v104zM170 872h103v-104h-103v104z" />
    <glyph glyph-name="Igrave" unicode="&#xcc;" horiz-adv-x="282" 
d="M84 688h113v-688h-113v688zM-41 932h120l102 -164h-76z" />
    <glyph glyph-name="Iacute" unicode="&#xcd;" horiz-adv-x="282" 
d="M84 688h113v-688h-113v688zM206 932h120l-146 -164h-76z" />
    <glyph glyph-name="Icircumflex" unicode="&#xce;" horiz-adv-x="282" 
d="M84 688h113v-688h-113v688zM98 932h89l128 -164h-95l-78 106l-77 -106h-95z" />
    <glyph glyph-name="Idieresis" unicode="&#xcf;" horiz-adv-x="282" 
d="M84 688h113v-688h-113v688zM196 872h102v-104h-102v104zM-14 872h103v-104h-103v104z" />
    <glyph glyph-name="Eth" unicode="&#xd0;" horiz-adv-x="720" 
d="M4 385h80v303h227q90 0 158 -25.5t114 -71.5t69.5 -109t23.5 -138t-23.5 -138t-69.5 -109t-114 -71.5t-158 -25.5h-227v306h-80v79zM197 592v-207h155v-79h-155v-210h111q69 0 116.5 20t77 54t43 79t13.5 95t-13.5 95t-43 79t-77 54t-116.5 20h-111z" />
    <glyph glyph-name="Ntilde" unicode="&#xd1;" horiz-adv-x="749" 
d="M84 688h105l362 -496h4l-4 496h114v-688h-104l-364 494h-4l4 -494h-113v688zM205 767q2 52 27 84.5t73 32.5q22 0 42 -7t38 -16t33.5 -16t29.5 -7q20 0 29.5 15.5t12.5 32.5h54q-2 -52 -27 -84.5t-73 -32.5q-22 0 -42 7t-38 16t-34 16t-29 7q-20 0 -30 -15.5t-12 -32.5
h-54z" />
    <glyph glyph-name="Ograve" unicode="&#xd2;" horiz-adv-x="775" 
d="M44 344q0 77 24.5 142t69.5 112.5t108 74.5t141 27q76 0 139.5 -27t109 -74.5t70.5 -112.5t25 -142t-25 -142t-70.5 -112.5t-109 -74.5t-139.5 -27q-78 0 -141 27t-108 74.5t-69.5 112.5t-24.5 142zM161 344q0 -56 16 -102.5t46 -81t71.5 -53.5t92.5 -19t93 19.5t72 53.5
t46 81t16 102t-16 102t-46 81t-72 53.5t-93 19.5t-92.5 -19t-71.5 -53.5t-46 -81.5t-16 -102zM204 932h120l102 -164h-76z" />
    <glyph glyph-name="Oacute" unicode="&#xd3;" horiz-adv-x="775" 
d="M44 344q0 77 24.5 142t69.5 112.5t108 74.5t141 27q76 0 139.5 -27t109 -74.5t70.5 -112.5t25 -142t-25 -142t-70.5 -112.5t-109 -74.5t-139.5 -27q-78 0 -141 27t-108 74.5t-69.5 112.5t-24.5 142zM161 344q0 -56 16 -102.5t46 -81t71.5 -53.5t92.5 -19t93 19.5t72 53.5
t46 81t16 102t-16 102t-46 81t-72 53.5t-93 19.5t-92.5 -19t-71.5 -53.5t-46 -81.5t-16 -102zM451 932h120l-146 -164h-76z" />
    <glyph glyph-name="Ocircumflex" unicode="&#xd4;" horiz-adv-x="775" 
d="M44 344q0 77 24.5 142t69.5 112.5t108 74.5t141 27q76 0 139.5 -27t109 -74.5t70.5 -112.5t25 -142t-25 -142t-70.5 -112.5t-109 -74.5t-139.5 -27q-78 0 -141 27t-108 74.5t-69.5 112.5t-24.5 142zM161 344q0 -56 16 -102.5t46 -81t71.5 -53.5t92.5 -19t93 19.5t72 53.5
t46 81t16 102t-16 102t-46 81t-72 53.5t-93 19.5t-92.5 -19t-71.5 -53.5t-46 -81.5t-16 -102zM343 932h89l128 -164h-95l-78 106l-77 -106h-95z" />
    <glyph glyph-name="Otilde" unicode="&#xd5;" horiz-adv-x="775" 
d="M44 344q0 77 24.5 142t69.5 112.5t108 74.5t141 27q76 0 139.5 -27t109 -74.5t70.5 -112.5t25 -142t-25 -142t-70.5 -112.5t-109 -74.5t-139.5 -27q-78 0 -141 27t-108 74.5t-69.5 112.5t-24.5 142zM161 344q0 -56 16 -102.5t46 -81t71.5 -53.5t92.5 -19t93 19.5t72 53.5
t46 81t16 102t-16 102t-46 81t-72 53.5t-93 19.5t-92.5 -19t-71.5 -53.5t-46 -81.5t-16 -102zM218 767q2 52 27 84.5t73 32.5q22 0 42 -7t38 -16t33.5 -16t29.5 -7q20 0 29.5 15.5t12.5 32.5h54q-2 -52 -27 -84.5t-73 -32.5q-22 0 -42 7t-38 16t-34 16t-29 7
q-20 0 -30 -15.5t-12 -32.5h-54z" />
    <glyph glyph-name="Odieresis" unicode="&#xd6;" horiz-adv-x="775" 
d="M44 344q0 77 24.5 142t69.5 112.5t108 74.5t141 27q76 0 139.5 -27t109 -74.5t70.5 -112.5t25 -142t-25 -142t-70.5 -112.5t-109 -74.5t-139.5 -27q-78 0 -141 27t-108 74.5t-69.5 112.5t-24.5 142zM161 344q0 -56 16 -102.5t46 -81t71.5 -53.5t92.5 -19t93 19.5t72 53.5
t46 81t16 102t-16 102t-46 81t-72 53.5t-93 19.5t-92.5 -19t-71.5 -53.5t-46 -81.5t-16 -102zM441 872h102v-104h-102v104zM231 872h103v-104h-103v104z" />
    <glyph glyph-name="multiply" unicode="&#xd7;" horiz-adv-x="568" 
d="M134 468l150 -152l150 152l63 -62l-151 -152l152 -153l-63 -62l-151 152l-151 -152l-63 62l152 153l-151 152z" />
    <glyph glyph-name="Oslash" unicode="&#xd8;" horiz-adv-x="775" 
d="M139 89q-46 48 -70.5 113t-24.5 142t25 142t70 112.5t108 74.5t140 27q57 0 107 -16t92 -45l49 61h83l-83 -103q45 -48 70.5 -112.5t25.5 -140.5q0 -77 -25.5 -142t-71.5 -112.5t-109 -74.5t-138 -27q-58 0 -108 15.5t-91 43.5l-49 -59h-82zM614 344q0 49 -13 91.5
t-37 75.5l-309 -381q56 -42 132 -42q51 0 93 19.5t72 53.5t46 81t16 102zM161 344q0 -50 13 -92.5t36 -74.5l309 380q-27 20 -60 31.5t-72 11.5q-51 0 -92.5 -19t-71.5 -53.5t-46 -81.5t-16 -102z" />
    <glyph glyph-name="Ugrave" unicode="&#xd9;" horiz-adv-x="713" 
d="M70 688h113v-413q0 -90 42.5 -138.5t130.5 -48.5t130.5 48.5t42.5 138.5v413h113v-414q0 -78 -21 -132.5t-58.5 -88.5t-90.5 -49.5t-116 -15.5t-115.5 15.5t-90.5 49.5t-59 88.5t-21 132.5v414zM173 932h120l102 -164h-76z" />
    <glyph glyph-name="Uacute" unicode="&#xda;" horiz-adv-x="713" 
d="M70 688h113v-413q0 -90 42.5 -138.5t130.5 -48.5t130.5 48.5t42.5 138.5v413h113v-414q0 -78 -21 -132.5t-58.5 -88.5t-90.5 -49.5t-116 -15.5t-115.5 15.5t-90.5 49.5t-59 88.5t-21 132.5v414zM420 932h120l-146 -164h-76z" />
    <glyph glyph-name="Ucircumflex" unicode="&#xdb;" horiz-adv-x="713" 
d="M70 688h113v-413q0 -90 42.5 -138.5t130.5 -48.5t130.5 48.5t42.5 138.5v413h113v-414q0 -78 -21 -132.5t-58.5 -88.5t-90.5 -49.5t-116 -15.5t-115.5 15.5t-90.5 49.5t-59 88.5t-21 132.5v414zM312 932h89l128 -164h-95l-78 106l-77 -106h-95z" />
    <glyph glyph-name="Udieresis" unicode="&#xdc;" horiz-adv-x="713" 
d="M70 688h113v-413q0 -90 42.5 -138.5t130.5 -48.5t130.5 48.5t42.5 138.5v413h113v-414q0 -78 -21 -132.5t-58.5 -88.5t-90.5 -49.5t-116 -15.5t-115.5 15.5t-90.5 49.5t-59 88.5t-21 132.5v414zM410 872h102v-104h-102v104zM200 872h103v-104h-103v104z" />
    <glyph glyph-name="Yacute" unicode="&#xdd;" horiz-adv-x="637" 
d="M260 266l-249 422h128l178 -310h4l185 310h119l-252 -417v-271h-113v266zM382 932h120l-146 -164h-76z" />
    <glyph glyph-name="Thorn" unicode="&#xde;" horiz-adv-x="655" 
d="M84 688h113v-109h166q60 0 106.5 -16.5t78 -46t48 -71t16.5 -90.5q0 -50 -16.5 -92t-48 -73.5t-78 -49t-106.5 -17.5h-166v-123h-113v688zM197 485v-268h161q35 0 61.5 10.5t44 29.5t26 43.5t8.5 53.5q0 57 -34.5 94t-105.5 37h-161z" />
    <glyph glyph-name="germandbls" unicode="&#xdf;" horiz-adv-x="591" 
d="M73 508q0 61 17 105.5t47.5 73.5t72.5 43t93 14q52 0 89.5 -13.5t61.5 -35t35 -49.5t11 -58q0 -38 -15.5 -63t-34 -44l-34 -36t-15.5 -38q0 -18 12 -32t30 -27.5l39 -28t39 -34.5t30 -46.5t12 -62.5q0 -44 -15.5 -76.5t-42 -55t-62.5 -33.5t-78 -11h-95v86h88
q45 0 71 20.5t26 59.5q0 26 -11.5 43.5t-28.5 31t-37.5 26.5t-37.5 29.5t-28.5 39.5t-11.5 58q0 39 15.5 63t34.5 43t34.5 38t15.5 47q0 29 -24 52t-77 23q-52 0 -85 -35t-33 -116v-509h-108v508z" />
    <glyph glyph-name="agrave" unicode="&#xe0;" horiz-adv-x="541" 
d="M45 130q0 65 37.5 100t121.5 48l99 16q19 3 31.5 5.5t19.5 6.5t9.5 11t2.5 18q0 35 -23.5 59.5t-72.5 24.5t-74.5 -24t-28.5 -62h-103q5 76 59 121.5t147 45.5q103 0 153.5 -47t50.5 -133v-320h-103v76h-4q-17 -39 -58 -61.5t-102 -22.5q-76 0 -119 36.5t-43 101.5z
M366 249q-14 -18 -50 -23l-84 -15q-41 -6 -60 -22.5t-19 -47.5q0 -30 20 -49t57 -19q27 0 51.5 8t43 24.5t30 41t11.5 57.5v45zM85 732h120l102 -164h-76z" />
    <glyph glyph-name="aacute" unicode="&#xe1;" horiz-adv-x="541" 
d="M45 130q0 65 37.5 100t121.5 48l99 16q19 3 31.5 5.5t19.5 6.5t9.5 11t2.5 18q0 35 -23.5 59.5t-72.5 24.5t-74.5 -24t-28.5 -62h-103q5 76 59 121.5t147 45.5q103 0 153.5 -47t50.5 -133v-320h-103v76h-4q-17 -39 -58 -61.5t-102 -22.5q-76 0 -119 36.5t-43 101.5z
M366 249q-14 -18 -50 -23l-84 -15q-41 -6 -60 -22.5t-19 -47.5q0 -30 20 -49t57 -19q27 0 51.5 8t43 24.5t30 41t11.5 57.5v45zM332 732h120l-146 -164h-76z" />
    <glyph glyph-name="acircumflex" unicode="&#xe2;" horiz-adv-x="541" 
d="M45 130q0 65 37.5 100t121.5 48l99 16q19 3 31.5 5.5t19.5 6.5t9.5 11t2.5 18q0 35 -23.5 59.5t-72.5 24.5t-74.5 -24t-28.5 -62h-103q5 76 59 121.5t147 45.5q103 0 153.5 -47t50.5 -133v-320h-103v76h-4q-17 -39 -58 -61.5t-102 -22.5q-76 0 -119 36.5t-43 101.5z
M366 249q-14 -18 -50 -23l-84 -15q-41 -6 -60 -22.5t-19 -47.5q0 -30 20 -49t57 -19q27 0 51.5 8t43 24.5t30 41t11.5 57.5v45zM224 732h89l128 -164h-95l-78 106l-77 -106h-95z" />
    <glyph glyph-name="atilde" unicode="&#xe3;" horiz-adv-x="541" 
d="M45 130q0 65 37.5 100t121.5 48l99 16q19 3 31.5 5.5t19.5 6.5t9.5 11t2.5 18q0 35 -23.5 59.5t-72.5 24.5t-74.5 -24t-28.5 -62h-103q5 76 59 121.5t147 45.5q103 0 153.5 -47t50.5 -133v-320h-103v76h-4q-17 -39 -58 -61.5t-102 -22.5q-76 0 -119 36.5t-43 101.5z
M366 249q-14 -18 -50 -23l-84 -15q-41 -6 -60 -22.5t-19 -47.5q0 -30 20 -49t57 -19q27 0 51.5 8t43 24.5t30 41t11.5 57.5v45zM99 591q2 52 27 84.5t73 32.5q22 0 42 -7t38 -16t33.5 -16t29.5 -7q20 0 29.5 15.5t12.5 32.5h54q-2 -52 -27 -84.5t-73 -32.5q-22 0 -42 7
t-38 16t-34 16t-29 7q-20 0 -30 -15.5t-12 -32.5h-54z" />
    <glyph glyph-name="adieresis" unicode="&#xe4;" horiz-adv-x="541" 
d="M45 130q0 65 37.5 100t121.5 48l99 16q19 3 31.5 5.5t19.5 6.5t9.5 11t2.5 18q0 35 -23.5 59.5t-72.5 24.5t-74.5 -24t-28.5 -62h-103q5 76 59 121.5t147 45.5q103 0 153.5 -47t50.5 -133v-320h-103v76h-4q-17 -39 -58 -61.5t-102 -22.5q-76 0 -119 36.5t-43 101.5z
M366 249q-14 -18 -50 -23l-84 -15q-41 -6 -60 -22.5t-19 -47.5q0 -30 20 -49t57 -19q27 0 51.5 8t43 24.5t30 41t11.5 57.5v45zM322 704h102v-104h-102v104zM112 704h103v-104h-103v104z" />
    <glyph glyph-name="aring" unicode="&#xe5;" horiz-adv-x="541" 
d="M45 130q0 65 37.5 100t121.5 48l99 16q19 3 31.5 5.5t19.5 6.5t9.5 11t2.5 18q0 35 -23.5 59.5t-72.5 24.5t-74.5 -24t-28.5 -62h-103q5 76 59 121.5t147 45.5q103 0 153.5 -47t50.5 -133v-320h-103v76h-4q-17 -39 -58 -61.5t-102 -22.5q-76 0 -119 36.5t-43 101.5z
M366 249q-14 -18 -50 -23l-84 -15q-41 -6 -60 -22.5t-19 -47.5q0 -30 20 -49t57 -19q27 0 51.5 8t43 24.5t30 41t11.5 57.5v45zM268 559q-21 0 -39.5 7.5t-33 20.5t-22.5 31t-8 40t8.5 40.5t22.5 31.5t32.5 20t39.5 7t40 -7t33 -20t22.5 -31.5t8.5 -40.5q0 -44 -30.5 -71.5
t-73.5 -27.5zM268 608q21 0 36 14.5t15 35.5q0 22 -15 36t-36 14q-20 0 -35 -14t-15 -36q0 -21 15 -35.5t35 -14.5z" />
    <glyph glyph-name="ae" unicode="&#xe6;" horiz-adv-x="856" 
d="M64 333q3 45 21 76.5t46 51.5t64 29.5t75 9.5q118 0 165 -67q29 32 69 49.5t94 17.5q49 0 90 -16t70 -46.5t45.5 -74.5t16.5 -101v-36h-347q4 -73 38.5 -113t90.5 -40q26 0 44.5 6.5t31 17t20 24.5t11.5 29h106q-5 -33 -22.5 -62.5t-45 -51.5t-64.5 -35t-82 -13
q-68 0 -115.5 24.5t-76.5 70.5q-18 -28 -40.5 -46.5t-48 -29t-53 -14.5t-53.5 -4q-84 0 -126.5 38.5t-42.5 100.5q0 63 38.5 99.5t124.5 50.5l95 16q39 6 51 12.5t12 23.5q0 38 -22.5 63.5t-73.5 25.5q-42 0 -71 -21t-32 -65h-103zM236 70q26 0 49.5 7.5t41.5 23.5
t28.5 40.5t10.5 59.5v48q-14 -18 -50 -23l-84 -15q-42 -6 -60.5 -24.5t-18.5 -47.5q0 -32 22 -50.5t61 -18.5zM598 416q-48 0 -79 -31.5t-42 -86.5h231q-5 57 -32.5 87.5t-77.5 30.5z" />
    <glyph glyph-name="ccedilla" unicode="&#xe7;" horiz-adv-x="534" 
d="M259 -11q-103 7 -162 73.5t-59 181.5q0 59 18 106.5t50.5 80.5t77 51t97.5 18q51 0 90.5 -14t67.5 -39t43.5 -59.5t20.5 -75.5h-107q-7 45 -34 73t-81 28q-29 0 -53 -12t-41 -34.5t-27 -53.5t-10 -69t10 -69t27 -53.5t41 -34.5t53 -12q54 0 81 28t34 73h107
q-5 -40 -19.5 -73t-39.5 -57.5t-61 -39t-83 -17.5v-26q45 -2 68.5 -27t23.5 -60q0 -42 -28.5 -69t-88.5 -27h-61v59h52q23 0 36.5 7.5t13.5 30.5q0 20 -13.5 28.5t-36.5 8.5h-32z" />
    <glyph glyph-name="egrave" unicode="&#xe8;" horiz-adv-x="543" 
d="M38 243q0 58 18 105.5t50.5 81t76.5 52t97 18.5q51 0 93 -16t72 -46.5t46.5 -74.5t16.5 -101v-36h-359q4 -72 40 -112.5t95 -40.5q52 0 79 23.5t35 53.5h105q-5 -33 -22 -62.5t-45 -51.5t-66.5 -35t-86.5 -13q-118 0 -181.5 67t-63.5 188zM280 415q-48 0 -81.5 -31
t-44.5 -86h244q-6 60 -36 88.5t-82 28.5zM98 732h120l102 -164h-76z" />
    <glyph glyph-name="eacute" unicode="&#xe9;" horiz-adv-x="543" 
d="M38 243q0 58 18 105.5t50.5 81t76.5 52t97 18.5q51 0 93 -16t72 -46.5t46.5 -74.5t16.5 -101v-36h-359q4 -72 40 -112.5t95 -40.5q52 0 79 23.5t35 53.5h105q-5 -33 -22 -62.5t-45 -51.5t-66.5 -35t-86.5 -13q-118 0 -181.5 67t-63.5 188zM280 415q-48 0 -81.5 -31
t-44.5 -86h244q-6 60 -36 88.5t-82 28.5zM345 732h120l-146 -164h-76z" />
    <glyph glyph-name="ecircumflex" unicode="&#xea;" horiz-adv-x="543" 
d="M38 243q0 58 18 105.5t50.5 81t76.5 52t97 18.5q51 0 93 -16t72 -46.5t46.5 -74.5t16.5 -101v-36h-359q4 -72 40 -112.5t95 -40.5q52 0 79 23.5t35 53.5h105q-5 -33 -22 -62.5t-45 -51.5t-66.5 -35t-86.5 -13q-118 0 -181.5 67t-63.5 188zM280 415q-48 0 -81.5 -31
t-44.5 -86h244q-6 60 -36 88.5t-82 28.5zM237 732h89l128 -164h-95l-78 106l-77 -106h-95z" />
    <glyph glyph-name="edieresis" unicode="&#xeb;" horiz-adv-x="543" 
d="M38 243q0 58 18 105.5t50.5 81t76.5 52t97 18.5q51 0 93 -16t72 -46.5t46.5 -74.5t16.5 -101v-36h-359q4 -72 40 -112.5t95 -40.5q52 0 79 23.5t35 53.5h105q-5 -33 -22 -62.5t-45 -51.5t-66.5 -35t-86.5 -13q-118 0 -181.5 67t-63.5 188zM280 415q-48 0 -81.5 -31
t-44.5 -86h244q-6 60 -36 88.5t-82 28.5zM335 704h102v-104h-102v104zM125 704h103v-104h-103v104z" />
    <glyph glyph-name="igrave" unicode="&#xec;" horiz-adv-x="255" 
d="M73 488h108v-488h-108v488zM-55 732h120l102 -164h-76z" />
    <glyph glyph-name="iacute" unicode="&#xed;" horiz-adv-x="255" 
d="M73 488h108v-488h-108v488zM192 732h120l-146 -164h-76z" />
    <glyph glyph-name="icircumflex" unicode="&#xee;" horiz-adv-x="255" 
d="M73 488h108v-488h-108v488zM84 732h89l128 -164h-95l-78 106l-77 -106h-95z" />
    <glyph glyph-name="idieresis" unicode="&#xef;" horiz-adv-x="255" 
d="M73 488h108v-488h-108v488zM182 704h102v-104h-102v104zM-28 704h103v-104h-103v104z" />
    <glyph glyph-name="eth" unicode="&#xf0;" horiz-adv-x="593" 
d="M173 563l84 58q-50 25 -119 46l26 77q50 -14 93 -31t80 -37l97 67l35 -52l-75 -52q36 -27 64.5 -61t48.5 -78t30.5 -101t10.5 -129v-2q0 -69 -18.5 -121.5t-52 -87.5t-80 -53t-102.5 -18q-58 0 -104.5 17.5t-79 49t-50 76t-17.5 97.5t19 97.5t51 76t75.5 49t93.5 17.5
q37 0 76.5 -13t64.5 -42h5q-17 57 -44 98.5t-69 73.5l-107 -73zM155 228q0 -34 10.5 -62t29 -48.5t44 -31.5t56.5 -11q63 0 101.5 42.5t38.5 110.5q0 70 -38.5 111.5t-101.5 41.5q-31 0 -56.5 -11.5t-44 -31.5t-29 -48t-10.5 -62z" />
    <glyph glyph-name="ntilde" unicode="&#xf1;" horiz-adv-x="581" 
d="M73 488h104v-71h4q42 83 151 83q36 0 69.5 -10.5t58.5 -34.5t40 -63t15 -96v-296h-108v282q0 73 -28 101.5t-76 28.5q-52 0 -87 -41.5t-35 -115.5v-255h-108v488zM124 591q2 52 27 84.5t73 32.5q22 0 42 -7t38 -16t33.5 -16t29.5 -7q20 0 29.5 15.5t12.5 32.5h54
q-2 -52 -27 -84.5t-73 -32.5q-22 0 -42 7t-38 16t-34 16t-29 7q-20 0 -30 -15.5t-12 -32.5h-54z" />
    <glyph glyph-name="ograve" unicode="&#xf2;" horiz-adv-x="577" 
d="M39 244q0 59 18.5 106.5t52 80.5t79 51t99.5 18q57 0 103 -17.5t78.5 -50.5t50 -80.5t17.5 -107.5q0 -59 -18.5 -106.5t-51.5 -80.5t-79 -51t-100 -18q-57 0 -103 17.5t-78.5 50.5t-50 80.5t-17.5 107.5zM151 244q0 -77 37.5 -123t99.5 -46t99.5 46t37.5 123
q0 80 -37.5 124.5t-99.5 44.5t-99.5 -46t-37.5 -123zM105 732h120l102 -164h-76z" />
    <glyph glyph-name="oacute" unicode="&#xf3;" horiz-adv-x="577" 
d="M39 244q0 59 18.5 106.5t52 80.5t79 51t99.5 18q57 0 103 -17.5t78.5 -50.5t50 -80.5t17.5 -107.5q0 -59 -18.5 -106.5t-51.5 -80.5t-79 -51t-100 -18q-57 0 -103 17.5t-78.5 50.5t-50 80.5t-17.5 107.5zM151 244q0 -77 37.5 -123t99.5 -46t99.5 46t37.5 123
q0 80 -37.5 124.5t-99.5 44.5t-99.5 -46t-37.5 -123zM352 732h120l-146 -164h-76z" />
    <glyph glyph-name="ocircumflex" unicode="&#xf4;" horiz-adv-x="577" 
d="M39 244q0 59 18.5 106.5t52 80.5t79 51t99.5 18q57 0 103 -17.5t78.5 -50.5t50 -80.5t17.5 -107.5q0 -59 -18.5 -106.5t-51.5 -80.5t-79 -51t-100 -18q-57 0 -103 17.5t-78.5 50.5t-50 80.5t-17.5 107.5zM151 244q0 -77 37.5 -123t99.5 -46t99.5 46t37.5 123
q0 80 -37.5 124.5t-99.5 44.5t-99.5 -46t-37.5 -123zM244 732h89l128 -164h-95l-78 106l-77 -106h-95z" />
    <glyph glyph-name="otilde" unicode="&#xf5;" horiz-adv-x="577" 
d="M39 244q0 59 18.5 106.5t52 80.5t79 51t99.5 18q57 0 103 -17.5t78.5 -50.5t50 -80.5t17.5 -107.5q0 -59 -18.5 -106.5t-51.5 -80.5t-79 -51t-100 -18q-57 0 -103 17.5t-78.5 50.5t-50 80.5t-17.5 107.5zM151 244q0 -77 37.5 -123t99.5 -46t99.5 46t37.5 123
q0 80 -37.5 124.5t-99.5 44.5t-99.5 -46t-37.5 -123zM119 591q2 52 27 84.5t73 32.5q22 0 42 -7t38 -16t33.5 -16t29.5 -7q20 0 29.5 15.5t12.5 32.5h54q-2 -52 -27 -84.5t-73 -32.5q-22 0 -42 7t-38 16t-34 16t-29 7q-20 0 -30 -15.5t-12 -32.5h-54z" />
    <glyph glyph-name="odieresis" unicode="&#xf6;" horiz-adv-x="577" 
d="M39 244q0 59 18.5 106.5t52 80.5t79 51t99.5 18q57 0 103 -17.5t78.5 -50.5t50 -80.5t17.5 -107.5q0 -59 -18.5 -106.5t-51.5 -80.5t-79 -51t-100 -18q-57 0 -103 17.5t-78.5 50.5t-50 80.5t-17.5 107.5zM151 244q0 -77 37.5 -123t99.5 -46t99.5 46t37.5 123
q0 80 -37.5 124.5t-99.5 44.5t-99.5 -46t-37.5 -123zM342 704h102v-104h-102v104zM132 704h103v-104h-103v104z" />
    <glyph glyph-name="divide" unicode="&#xf7;" horiz-adv-x="568" 
d="M231 488h106v-108h-106v108zM56 298h456v-88h-456v88zM231 127h106v-108h-106v108z" />
    <glyph glyph-name="oslash" unicode="&#xf8;" horiz-adv-x="575" 
d="M103 60q-65 68 -65 184q0 58 18.5 105.5t51.5 81t79 51.5t100 18q43 0 79.5 -10t65.5 -29l32 39h70l-61 -74q30 -33 47 -79t17 -103q0 -59 -18.5 -106t-51.5 -80.5t-79 -51.5t-101 -18q-84 0 -142 38l-31 -38h-69zM150 244q0 -59 23 -99l196 239q-34 29 -82 29
q-62 0 -99.5 -46t-37.5 -123zM424 244q0 57 -21 96l-195 -238q31 -27 79 -27q62 0 99.5 46t37.5 123z" />
    <glyph glyph-name="ugrave" unicode="&#xf9;" horiz-adv-x="577" 
d="M65 488h108v-282q0 -73 28.5 -101.5t75.5 -28.5q52 0 85.5 42t33.5 118v252h108v-488h-103v71h-4q-42 -83 -148 -83q-37 0 -70 10.5t-58.5 34.5t-40.5 63t-15 96v296zM107 732h120l102 -164h-76z" />
    <glyph glyph-name="uacute" unicode="&#xfa;" horiz-adv-x="577" 
d="M65 488h108v-282q0 -73 28.5 -101.5t75.5 -28.5q52 0 85.5 42t33.5 118v252h108v-488h-103v71h-4q-42 -83 -148 -83q-37 0 -70 10.5t-58.5 34.5t-40.5 63t-15 96v296zM354 732h120l-146 -164h-76z" />
    <glyph glyph-name="ucircumflex" unicode="&#xfb;" horiz-adv-x="577" 
d="M65 488h108v-282q0 -73 28.5 -101.5t75.5 -28.5q52 0 85.5 42t33.5 118v252h108v-488h-103v71h-4q-42 -83 -148 -83q-37 0 -70 10.5t-58.5 34.5t-40.5 63t-15 96v296zM246 732h89l128 -164h-95l-78 106l-77 -106h-95z" />
    <glyph glyph-name="udieresis" unicode="&#xfc;" horiz-adv-x="577" 
d="M65 488h108v-282q0 -73 28.5 -101.5t75.5 -28.5q52 0 85.5 42t33.5 118v252h108v-488h-103v71h-4q-42 -83 -148 -83q-37 0 -70 10.5t-58.5 34.5t-40.5 63t-15 96v296zM344 704h102v-104h-102v104zM134 704h103v-104h-103v104z" />
    <glyph glyph-name="yacute" unicode="&#xfd;" horiz-adv-x="493" 
d="M4 488h118l127 -376h4l127 376h109l-201 -556q-11 -30 -26.5 -58.5t-38 -51t-53 -36.5t-69.5 -14h-54v89h32q84 0 118 95l15 44h-26zM310 732h120l-146 -164h-76z" />
    <glyph glyph-name="thorn" unicode="&#xfe;" horiz-adv-x="600" 
d="M561 248q0 -61 -17.5 -109t-48.5 -81.5t-72 -51.5t-88 -18q-53 0 -92 20t-62 65h-4q3 -49 3.5 -94t0.5 -70v-129h-108v952h108v-153q0 -25 -0.5 -70.5t-3.5 -93.5h4q23 45 65.5 65t96.5 20q46 0 86 -16.5t69 -48.5t46 -79t17 -108zM448 248q0 81 -37.5 123t-95.5 42
q-28 0 -52 -11t-42 -31.5t-28.5 -50.5t-11.5 -68v-8q0 -40 10 -71.5t28 -53t42.5 -33t53.5 -11.5q58 0 95.5 46t37.5 127z" />
    <glyph glyph-name="ydieresis" unicode="&#xff;" horiz-adv-x="493" 
d="M4 488h118l127 -376h4l127 376h109l-201 -556q-11 -30 -26.5 -58.5t-38 -51t-53 -36.5t-69.5 -14h-54v89h32q84 0 118 95l15 44h-26zM300 704h102v-104h-102v104zM90 704h103v-104h-103v104z" />
    <glyph glyph-name="Amacron" unicode="&#x100;" horiz-adv-x="665" 
d="M266 688h133l256 -688h-119l-59 167h-294l-59 -167h-114zM329 576l-112 -315h227l-111 315h-4zM186 853h287v-78h-287v78z" />
    <glyph glyph-name="amacron" unicode="&#x101;" horiz-adv-x="541" 
d="M45 130q0 65 37.5 100t121.5 48l99 16q19 3 31.5 5.5t19.5 6.5t9.5 11t2.5 18q0 35 -23.5 59.5t-72.5 24.5t-74.5 -24t-28.5 -62h-103q5 76 59 121.5t147 45.5q103 0 153.5 -47t50.5 -133v-320h-103v76h-4q-17 -39 -58 -61.5t-102 -22.5q-76 0 -119 36.5t-43 101.5z
M366 249q-14 -18 -50 -23l-84 -15q-41 -6 -60 -22.5t-19 -47.5q0 -30 20 -49t57 -19q27 0 51.5 8t43 24.5t30 41t11.5 57.5v45zM123 689h287v-78h-287v78z" />
    <glyph glyph-name="Abreve" unicode="&#x102;" horiz-adv-x="665" 
d="M266 688h133l256 -688h-119l-59 167h-294l-59 -167h-114zM329 576l-112 -315h227l-111 315h-4zM331 768q-25 0 -50 7.5t-46 24.5t-35 45t-18 69h63q6 -38 27.5 -59.5t58.5 -21.5q38 0 59.5 21.5t27.5 59.5h63q-4 -41 -18 -69t-35 -45t-46.5 -24.5t-50.5 -7.5z" />
    <glyph glyph-name="abreve" unicode="&#x103;" horiz-adv-x="541" 
d="M45 130q0 65 37.5 100t121.5 48l99 16q19 3 31.5 5.5t19.5 6.5t9.5 11t2.5 18q0 35 -23.5 59.5t-72.5 24.5t-74.5 -24t-28.5 -62h-103q5 76 59 121.5t147 45.5q103 0 153.5 -47t50.5 -133v-320h-103v76h-4q-17 -39 -58 -61.5t-102 -22.5q-76 0 -119 36.5t-43 101.5z
M366 249q-14 -18 -50 -23l-84 -15q-41 -6 -60 -22.5t-19 -47.5q0 -30 20 -49t57 -19q27 0 51.5 8t43 24.5t30 41t11.5 57.5v45zM268 577q-25 0 -50 7.5t-46 24.5t-35 45t-18 69h63q6 -38 27.5 -59.5t58.5 -21.5q38 0 59.5 21.5t27.5 59.5h63q-4 -41 -18 -69t-35 -45
t-46.5 -24.5t-50.5 -7.5z" />
    <glyph glyph-name="Aogonek" unicode="&#x104;" horiz-adv-x="665" 
d="M617 -220q-51 0 -78 21t-27 65q0 37 21 66.5t58 67.5h-55l-59 167h-293l-60 -167h-114l256 688h133l256 -688q-32 -36 -50.5 -64t-18.5 -50q0 -39 49 -39h20v-67h-38zM444 261l-111 315h-4l-112 -315h227z" />
    <glyph glyph-name="aogonek" unicode="&#x105;" horiz-adv-x="541" 
d="M331 -134q0 37 21 66.5t58 67.5h-39v76h-4q-17 -39 -58 -61.5t-102 -22.5q-76 0 -119 36.5t-43 101.5t37.5 100t121.5 48l99 16q19 3 31.5 5.5t19.5 6.5t9.5 11t2.5 18q0 35 -23.5 59.5t-72.5 24.5t-74.5 -24t-28.5 -62h-103q5 76 59 121.5t147 45.5q103 0 153.5 -47
t50.5 -133v-320q-32 -36 -50 -64t-18 -50q0 -39 48 -39h20v-67h-37q-51 0 -78.5 21t-27.5 65zM366 249q-14 -18 -50 -23l-84 -15q-41 -6 -60 -22.5t-19 -47.5q0 -30 20 -49t57 -19q27 0 51.5 8t43 24.5t30 41t11.5 57.5v45z" />
    <glyph glyph-name="Cacute" unicode="&#x106;" horiz-adv-x="722" 
d="M44 344q0 76 24.5 141.5t68.5 113t106.5 74.5t138.5 27q62 0 112.5 -17t89 -47.5t63.5 -74t35 -97.5h-116q-37 136 -184 136q-50 0 -91 -19t-70 -52.5t-44.5 -80.5t-15.5 -104q0 -56 16 -102.5t44.5 -81t68.5 -53.5t89 -19q80 0 124.5 34.5t62.5 101.5h116
q-10 -54 -35.5 -97.5t-64.5 -74t-90.5 -47.5t-113.5 -17q-76 0 -137.5 26.5t-105 74t-67.5 112.5t-24 143zM446 932h120l-146 -164h-76z" />
    <glyph glyph-name="cacute" unicode="&#x107;" horiz-adv-x="534" 
d="M38 244q0 59 18 106.5t50.5 80.5t77 51t97.5 18q51 0 90.5 -14t67.5 -38.5t43.5 -59t20.5 -76.5h-106q-7 45 -34.5 73t-81.5 28q-29 0 -53 -12t-41 -34.5t-27 -53.5t-10 -69t10 -69t27 -53.5t41 -34.5t53 -12q54 0 81.5 28t34.5 73h106q-5 -42 -20.5 -76.5t-43.5 -59
t-67.5 -38.5t-90.5 -14q-56 0 -101 17.5t-76.5 50.5t-48.5 80.5t-17 107.5zM346 732h120l-146 -164h-76z" />
    <glyph glyph-name="Ccircumflex" unicode="&#x108;" horiz-adv-x="722" 
d="M44 344q0 76 24.5 141.5t68.5 113t106.5 74.5t138.5 27q62 0 112.5 -17t89 -47.5t63.5 -74t35 -97.5h-116q-37 136 -184 136q-50 0 -91 -19t-70 -52.5t-44.5 -80.5t-15.5 -104q0 -56 16 -102.5t44.5 -81t68.5 -53.5t89 -19q80 0 124.5 34.5t62.5 101.5h116
q-10 -54 -35.5 -97.5t-64.5 -74t-90.5 -47.5t-113.5 -17q-76 0 -137.5 26.5t-105 74t-67.5 112.5t-24 143zM338 932h89l128 -164h-95l-78 106l-77 -106h-95z" />
    <glyph glyph-name="ccircumflex" unicode="&#x109;" horiz-adv-x="534" 
d="M38 244q0 59 18 106.5t50.5 80.5t77 51t97.5 18q51 0 90.5 -14t67.5 -38.5t43.5 -59t20.5 -76.5h-106q-7 45 -34.5 73t-81.5 28q-29 0 -53 -12t-41 -34.5t-27 -53.5t-10 -69t10 -69t27 -53.5t41 -34.5t53 -12q54 0 81.5 28t34.5 73h106q-5 -42 -20.5 -76.5t-43.5 -59
t-67.5 -38.5t-90.5 -14q-56 0 -101 17.5t-76.5 50.5t-48.5 80.5t-17 107.5zM238 732h89l128 -164h-95l-78 106l-77 -106h-95z" />
    <glyph glyph-name="Cdotaccent" unicode="&#x10a;" horiz-adv-x="722" 
d="M44 344q0 76 24.5 141.5t68.5 113t106.5 74.5t138.5 27q62 0 112.5 -17t89 -47.5t63.5 -74t35 -97.5h-116q-37 136 -184 136q-50 0 -91 -19t-70 -52.5t-44.5 -80.5t-15.5 -104q0 -56 16 -102.5t44.5 -81t68.5 -53.5t89 -19q80 0 124.5 34.5t62.5 101.5h116
q-10 -54 -35.5 -97.5t-64.5 -74t-90.5 -47.5t-113.5 -17q-76 0 -137.5 26.5t-105 74t-67.5 112.5t-24 143zM331 872h103v-104h-103v104z" />
    <glyph glyph-name="cdotaccent" unicode="&#x10b;" horiz-adv-x="534" 
d="M38 244q0 59 18 106.5t50.5 80.5t77 51t97.5 18q51 0 90.5 -14t67.5 -38.5t43.5 -59t20.5 -76.5h-106q-7 45 -34.5 73t-81.5 28q-29 0 -53 -12t-41 -34.5t-27 -53.5t-10 -69t10 -69t27 -53.5t41 -34.5t53 -12q54 0 81.5 28t34.5 73h106q-5 -42 -20.5 -76.5t-43.5 -59
t-67.5 -38.5t-90.5 -14q-56 0 -101 17.5t-76.5 50.5t-48.5 80.5t-17 107.5zM231 704h103v-104h-103v104z" />
    <glyph glyph-name="Ccaron" unicode="&#x10c;" horiz-adv-x="722" 
d="M44 344q0 76 24.5 141.5t68.5 113t106.5 74.5t138.5 27q62 0 112.5 -17t89 -47.5t63.5 -74t35 -97.5h-116q-37 136 -184 136q-50 0 -91 -19t-70 -52.5t-44.5 -80.5t-15.5 -104q0 -56 16 -102.5t44.5 -81t68.5 -53.5t89 -19q80 0 124.5 34.5t62.5 101.5h116
q-10 -54 -35.5 -97.5t-64.5 -74t-90.5 -47.5t-113.5 -17q-76 0 -137.5 26.5t-105 74t-67.5 112.5t-24 143zM210 932h95l77 -106l78 106h95l-128 -164h-89z" />
    <glyph glyph-name="ccaron" unicode="&#x10d;" horiz-adv-x="534" 
d="M38 244q0 59 18 106.5t50.5 80.5t77 51t97.5 18q51 0 90.5 -14t67.5 -38.5t43.5 -59t20.5 -76.5h-106q-7 45 -34.5 73t-81.5 28q-29 0 -53 -12t-41 -34.5t-27 -53.5t-10 -69t10 -69t27 -53.5t41 -34.5t53 -12q54 0 81.5 28t34.5 73h106q-5 -42 -20.5 -76.5t-43.5 -59
t-67.5 -38.5t-90.5 -14q-56 0 -101 17.5t-76.5 50.5t-48.5 80.5t-17 107.5zM110 732h95l77 -106l78 106h95l-128 -164h-89z" />
    <glyph glyph-name="Dcaron" unicode="&#x10e;" horiz-adv-x="720" 
d="M84 688h227q90 0 158 -25.5t114 -71.5t69.5 -109t23.5 -138t-23.5 -138t-69.5 -109t-114 -71.5t-158 -25.5h-227v688zM197 592v-496h111q69 0 116.5 20t77 54t43 79t13.5 95t-13.5 95t-43 79t-77 54t-116.5 20h-111zM160 932h95l77 -106l78 106h95l-128 -164h-89z" />
    <glyph glyph-name="dcaron" unicode="&#x10f;" horiz-adv-x="600" 
d="M39 240q0 61 17.5 109t48.5 81.5t72 51.5t88 18q53 0 92 -20t62 -65h4q-4 48 -4.5 93.5t-0.5 70.5v153h108v-732h-103v73h-4q-23 -45 -65.5 -65t-96.5 -20q-46 0 -86 16.5t-69 48.5t-46 79t-17 108zM151 240q0 -81 38 -123t95 -42q58 0 96 44t38 125t-38 125t-96 44
q-29 0 -53 -12t-42 -34.5t-28 -54.5t-10 -72zM643 639h-43v94h103v-83l-43 -105h-47z" />
    <glyph glyph-name="Dcroat" unicode="&#x110;" horiz-adv-x="720" 
d="M4 385h80v303h227q90 0 158 -25.5t114 -71.5t69.5 -109t23.5 -138t-23.5 -138t-69.5 -109t-114 -71.5t-158 -25.5h-227v306h-80v79zM197 592v-207h155v-79h-155v-210h111q69 0 116.5 20t77 54t43 79t13.5 95t-13.5 95t-43 79t-77 54t-116.5 20h-111z" />
    <glyph glyph-name="dcroat" unicode="&#x111;" horiz-adv-x="600" 
d="M275 655h143v77h108v-77h74v-65h-74v-590h-103v73h-4q-23 -45 -65.5 -65t-96.5 -20q-46 0 -86 16.5t-69 48.5t-46 79t-17 108t17.5 109t48.5 81.5t72 51.5t88 18q53 0 92 -20t62 -65h4q-4 48 -4.5 93.5t-0.5 70.5v11h-143v65zM151 240q0 -81 38 -123t95 -42q58 0 96 44
t38 125v8q-1 38 -11.5 68t-28.5 50.5t-42 31.5t-52 11q-29 0 -53 -12t-42 -34.5t-28 -54.5t-10 -72z" />
    <glyph glyph-name="Emacron" unicode="&#x112;" horiz-adv-x="626" 
d="M84 688h482v-96h-369v-195h296v-93h-296v-208h378v-96h-491v688zM181 853h287v-78h-287v78z" />
    <glyph glyph-name="emacron" unicode="&#x113;" horiz-adv-x="543" 
d="M38 243q0 58 18 105.5t50.5 81t76.5 52t97 18.5q51 0 93 -16t72 -46.5t46.5 -74.5t16.5 -101v-36h-359q4 -72 40 -112.5t95 -40.5q52 0 79 23.5t35 53.5h105q-5 -33 -22 -62.5t-45 -51.5t-66.5 -35t-86.5 -13q-118 0 -181.5 67t-63.5 188zM280 415q-48 0 -81.5 -31
t-44.5 -86h244q-6 60 -36 88.5t-82 28.5zM136 689h287v-78h-287v78z" />
    <glyph glyph-name="Ebreve" unicode="&#x114;" horiz-adv-x="626" 
d="M84 688h482v-96h-369v-195h296v-93h-296v-208h378v-96h-491v688zM326 768q-25 0 -50 7.5t-46 24.5t-35 45t-18 69h63q6 -38 27.5 -59.5t58.5 -21.5q38 0 59.5 21.5t27.5 59.5h63q-4 -41 -18 -69t-35 -45t-46.5 -24.5t-50.5 -7.5z" />
    <glyph glyph-name="ebreve" unicode="&#x115;" horiz-adv-x="543" 
d="M38 243q0 58 18 105.5t50.5 81t76.5 52t97 18.5q51 0 93 -16t72 -46.5t46.5 -74.5t16.5 -101v-36h-359q4 -72 40 -112.5t95 -40.5q52 0 79 23.5t35 53.5h105q-5 -33 -22 -62.5t-45 -51.5t-66.5 -35t-86.5 -13q-118 0 -181.5 67t-63.5 188zM280 415q-48 0 -81.5 -31
t-44.5 -86h244q-6 60 -36 88.5t-82 28.5zM281 577q-25 0 -50 7.5t-46 24.5t-35 45t-18 69h63q6 -38 27.5 -59.5t58.5 -21.5q38 0 59.5 21.5t27.5 59.5h63q-4 -41 -18 -69t-35 -45t-46.5 -24.5t-50.5 -7.5z" />
    <glyph glyph-name="Edotaccent" unicode="&#x116;" horiz-adv-x="626" 
d="M84 688h482v-96h-369v-195h296v-93h-296v-208h378v-96h-491v688zM275 872h103v-104h-103v104z" />
    <glyph glyph-name="edotaccent" unicode="&#x117;" horiz-adv-x="543" 
d="M38 243q0 58 18 105.5t50.5 81t76.5 52t97 18.5q51 0 93 -16t72 -46.5t46.5 -74.5t16.5 -101v-36h-359q4 -72 40 -112.5t95 -40.5q52 0 79 23.5t35 53.5h105q-5 -33 -22 -62.5t-45 -51.5t-66.5 -35t-86.5 -13q-118 0 -181.5 67t-63.5 188zM280 415q-48 0 -81.5 -31
t-44.5 -86h244q-6 60 -36 88.5t-82 28.5zM230 704h103v-104h-103v104z" />
    <glyph glyph-name="Eogonek" unicode="&#x118;" horiz-adv-x="626" 
d="M537 -220q-51 0 -78.5 21t-27.5 65q0 37 21 66.5t58 67.5h-426v688h482v-96h-369v-195h296v-93h-296v-208h378v-96q-32 -36 -50.5 -64t-18.5 -50q0 -39 49 -39h20v-67h-38z" />
    <glyph glyph-name="eogonek" unicode="&#x119;" horiz-adv-x="543" 
d="M372 -220q-51 0 -78 21t-27 65q0 35 18 63.5t50 63.5q-12 -2 -25 -3.5t-27 -1.5q-118 0 -181.5 67t-63.5 188q0 58 18 105.5t50.5 81t76.5 52t97 18.5q51 0 93 -16t72 -46.5t46.5 -74.5t16.5 -101v-36h-359q4 -72 40 -112.5t95 -40.5q52 0 79 23.5t35 53.5h105
q-8 -53 -45 -95l-48 -55q-32 -36 -50 -64t-18 -50q0 -39 48 -39h20v-67h-38zM280 415q-48 0 -81.5 -31t-44.5 -86h244q-6 60 -36 88.5t-82 28.5z" />
    <glyph glyph-name="Ecaron" unicode="&#x11a;" horiz-adv-x="626" 
d="M84 688h482v-96h-369v-195h296v-93h-296v-208h378v-96h-491v688zM154 932h95l77 -106l78 106h95l-128 -164h-89z" />
    <glyph glyph-name="ecaron" unicode="&#x11b;" horiz-adv-x="543" 
d="M38 243q0 58 18 105.5t50.5 81t76.5 52t97 18.5q51 0 93 -16t72 -46.5t46.5 -74.5t16.5 -101v-36h-359q4 -72 40 -112.5t95 -40.5q52 0 79 23.5t35 53.5h105q-5 -33 -22 -62.5t-45 -51.5t-66.5 -35t-86.5 -13q-118 0 -181.5 67t-63.5 188zM280 415q-48 0 -81.5 -31
t-44.5 -86h244q-6 60 -36 88.5t-82 28.5zM109 732h95l77 -106l78 106h95l-128 -164h-89z" />
    <glyph glyph-name="Gcircumflex" unicode="&#x11c;" horiz-adv-x="767" 
d="M605 91h-3q-36 -52 -89.5 -77.5t-129.5 -25.5t-138.5 26.5t-107 74t-69 113t-24.5 142.5t25 142.5t70.5 113t109 74t141.5 26.5q63 0 114.5 -17t90 -47t63.5 -70.5t35 -87.5h-115q-8 25 -23 47t-38 38.5t-55 26.5t-72 10q-52 0 -94.5 -19t-72.5 -53t-46 -81t-16 -103
t16.5 -103t46.5 -81t71.5 -53t91.5 -19q40 0 77 11.5t65.5 33.5t45 54t16.5 74v16h-201v91h303v-368h-73zM346 932h89l128 -164h-95l-78 106l-77 -106h-95z" />
    <glyph glyph-name="gcircumflex" unicode="&#x11d;" horiz-adv-x="600" 
d="M154 -57q1 -43 35.5 -66.5t88.5 -23.5q32 0 59 9t46 29t29.5 53.5t10.5 81.5v47h-4q-23 -45 -65.5 -65t-96.5 -20q-46 0 -86 16.5t-69 48.5t-46 79t-17 108t17.5 109t48.5 81.5t72 51.5t88 18q53 0 92 -20t62 -65h4v73h103v-462q0 -69 -19 -117.5t-52 -78.5t-78.5 -44
t-99.5 -14q-49 0 -90 10.5t-70.5 32t-46.5 53.5t-18 75h102zM151 240q0 -81 38 -123t95 -42q28 0 52.5 11.5t42.5 33t28.5 52.5t10.5 71q0 81 -38 125.5t-96 44.5q-29 0 -53 -12t-42 -34.5t-28 -54.5t-10 -72zM241 732h89l128 -164h-95l-78 106l-77 -106h-95z" />
    <glyph glyph-name="Gbreve" unicode="&#x11e;" horiz-adv-x="767" 
d="M605 91h-3q-36 -52 -89.5 -77.5t-129.5 -25.5t-138.5 26.5t-107 74t-69 113t-24.5 142.5t25 142.5t70.5 113t109 74t141.5 26.5q63 0 114.5 -17t90 -47t63.5 -70.5t35 -87.5h-115q-8 25 -23 47t-38 38.5t-55 26.5t-72 10q-52 0 -94.5 -19t-72.5 -53t-46 -81t-16 -103
t16.5 -103t46.5 -81t71.5 -53t91.5 -19q40 0 77 11.5t65.5 33.5t45 54t16.5 74v16h-201v91h303v-368h-73zM390 768q-25 0 -50 7.5t-46 24.5t-35 45t-18 69h63q6 -38 27.5 -59.5t58.5 -21.5q38 0 59.5 21.5t27.5 59.5h63q-4 -41 -18 -69t-35 -45t-46.5 -24.5t-50.5 -7.5z" />
    <glyph glyph-name="gbreve" unicode="&#x11f;" horiz-adv-x="600" 
d="M154 -57q1 -43 35.5 -66.5t88.5 -23.5q32 0 59 9t46 29t29.5 53.5t10.5 81.5v47h-4q-23 -45 -65.5 -65t-96.5 -20q-46 0 -86 16.5t-69 48.5t-46 79t-17 108t17.5 109t48.5 81.5t72 51.5t88 18q53 0 92 -20t62 -65h4v73h103v-462q0 -69 -19 -117.5t-52 -78.5t-78.5 -44
t-99.5 -14q-49 0 -90 10.5t-70.5 32t-46.5 53.5t-18 75h102zM151 240q0 -81 38 -123t95 -42q28 0 52.5 11.5t42.5 33t28.5 52.5t10.5 71q0 81 -38 125.5t-96 44.5q-29 0 -53 -12t-42 -34.5t-28 -54.5t-10 -72zM285 577q-25 0 -50 7.5t-46 24.5t-35 45t-18 69h63
q6 -38 27.5 -59.5t58.5 -21.5q38 0 59.5 21.5t27.5 59.5h63q-4 -41 -18 -69t-35 -45t-46.5 -24.5t-50.5 -7.5z" />
    <glyph glyph-name="Gdotaccent" unicode="&#x120;" horiz-adv-x="767" 
d="M605 91h-3q-36 -52 -89.5 -77.5t-129.5 -25.5t-138.5 26.5t-107 74t-69 113t-24.5 142.5t25 142.5t70.5 113t109 74t141.5 26.5q63 0 114.5 -17t90 -47t63.5 -70.5t35 -87.5h-115q-8 25 -23 47t-38 38.5t-55 26.5t-72 10q-52 0 -94.5 -19t-72.5 -53t-46 -81t-16 -103
t16.5 -103t46.5 -81t71.5 -53t91.5 -19q40 0 77 11.5t65.5 33.5t45 54t16.5 74v16h-201v91h303v-368h-73zM339 872h103v-104h-103v104z" />
    <glyph glyph-name="gdotaccent" unicode="&#x121;" horiz-adv-x="600" 
d="M154 -57q1 -43 35.5 -66.5t88.5 -23.5q32 0 59 9t46 29t29.5 53.5t10.5 81.5v47h-4q-23 -45 -65.5 -65t-96.5 -20q-46 0 -86 16.5t-69 48.5t-46 79t-17 108t17.5 109t48.5 81.5t72 51.5t88 18q53 0 92 -20t62 -65h4v73h103v-462q0 -69 -19 -117.5t-52 -78.5t-78.5 -44
t-99.5 -14q-49 0 -90 10.5t-70.5 32t-46.5 53.5t-18 75h102zM151 240q0 -81 38 -123t95 -42q28 0 52.5 11.5t42.5 33t28.5 52.5t10.5 71q0 81 -38 125.5t-96 44.5q-29 0 -53 -12t-42 -34.5t-28 -54.5t-10 -72zM234 704h103v-104h-103v104z" />
    <glyph glyph-name="uni0122" unicode="&#x122;" horiz-adv-x="767" 
d="M605 91h-3q-36 -52 -89.5 -77.5t-129.5 -25.5t-138.5 26.5t-107 74t-69 113t-24.5 142.5t25 142.5t70.5 113t109 74t141.5 26.5q63 0 114.5 -17t90 -47t63.5 -70.5t35 -87.5h-115q-8 25 -23 47t-38 38.5t-55 26.5t-72 10q-52 0 -94.5 -19t-72.5 -53t-46 -81t-16 -103
t16.5 -103t46.5 -81t71.5 -53t91.5 -19q40 0 77 11.5t65.5 33.5t45 54t16.5 74v16h-201v91h303v-368h-73zM436 -64v-83l-43 -106h-47l30 94h-43v95h103z" />
    <glyph glyph-name="uni0123" unicode="&#x123;" horiz-adv-x="600" 
d="M154 -57q1 -43 35.5 -66.5t88.5 -23.5q32 0 59 9t46 29t29.5 53.5t10.5 81.5v47h-4q-23 -45 -65.5 -65t-96.5 -20q-46 0 -86 16.5t-69 48.5t-46 79t-17 108t17.5 109t48.5 81.5t72 51.5t88 18q53 0 92 -20t62 -65h4v73h103v-462q0 -69 -19 -117.5t-52 -78.5t-78.5 -44
t-99.5 -14q-49 0 -90 10.5t-70.5 32t-46.5 53.5t-18 75h102zM151 240q0 -81 38 -123t95 -42q28 0 52.5 11.5t42.5 33t28.5 52.5t10.5 71q0 81 -38 125.5t-96 44.5q-29 0 -53 -12t-42 -34.5t-28 -54.5t-10 -72zM234 651l43 105h47l-30 -94h43v-94h-103v83z" />
    <glyph glyph-name="Hcircumflex" unicode="&#x124;" horiz-adv-x="741" 
d="M84 688h113v-292h346v292h114v-688h-114v300h-346v-300h-113v688zM326 932h89l128 -164h-95l-78 106l-77 -106h-95z" />
    <glyph glyph-name="hcircumflex" unicode="&#x125;" horiz-adv-x="581" 
d="M73 732h108v-151q0 -25 -0.5 -70.5t-3.5 -93.5h4q42 83 151 83q36 0 69.5 -10.5t58.5 -34.5t40 -63t15 -96v-296h-108v282q0 73 -28 101.5t-76 28.5q-26 0 -48.5 -11t-39 -32t-25.5 -50t-9 -65v-254h-108v732zM84 973h89l128 -164h-95l-78 106l-77 -106h-95z" />
    <glyph glyph-name="Hbar" unicode="&#x126;" horiz-adv-x="741" 
d="M1 586h83v102h113v-102h346v102h114v-102h83v-79h-83v-507h-114v300h-346v-300h-113v507h-83v79zM197 396h346v111h-346v-111z" />
    <glyph glyph-name="hbar" unicode="&#x127;" horiz-adv-x="581" 
d="M0 655h73v77h108v-77h144v-65h-144v-9q0 -25 -0.5 -70.5t-3.5 -93.5h4q42 83 151 83q36 0 69.5 -10.5t58.5 -34.5t40 -63t15 -96v-296h-108v282q0 73 -28 101.5t-76 28.5q-52 0 -87 -41.5t-35 -114.5v-256h-108v590h-73v65z" />
    <glyph glyph-name="Itilde" unicode="&#x128;" horiz-adv-x="282" 
d="M84 688h113v-688h-113v688zM-27 767q2 52 27 84.5t73 32.5q22 0 42 -7t38 -16t33.5 -16t29.5 -7q20 0 29.5 15.5t12.5 32.5h54q-2 -52 -27 -84.5t-73 -32.5q-22 0 -42 7t-38 16t-34 16t-29 7q-20 0 -30 -15.5t-12 -32.5h-54z" />
    <glyph glyph-name="itilde" unicode="&#x129;" horiz-adv-x="255" 
d="M73 488h108v-488h-108v488zM-41 591q2 52 27 84.5t73 32.5q22 0 42 -7t38 -16t33.5 -16t29.5 -7q20 0 29.5 15.5t12.5 32.5h54q-2 -52 -27 -84.5t-73 -32.5q-22 0 -42 7t-38 16t-34 16t-29 7q-20 0 -30 -15.5t-12 -32.5h-54z" />
    <glyph glyph-name="Imacron" unicode="&#x12a;" horiz-adv-x="282" 
d="M84 688h113v-688h-113v688zM-3 853h287v-78h-287v78z" />
    <glyph glyph-name="imacron" unicode="&#x12b;" horiz-adv-x="255" 
d="M73 488h108v-488h-108v488zM-17 689h287v-78h-287v78z" />
    <glyph glyph-name="Ibreve" unicode="&#x12c;" horiz-adv-x="282" 
d="M84 688h113v-688h-113v688zM142 768q-25 0 -50 7.5t-46 24.5t-35 45t-18 69h63q6 -38 27.5 -59.5t58.5 -21.5q38 0 59.5 21.5t27.5 59.5h63q-4 -41 -18 -69t-35 -45t-46.5 -24.5t-50.5 -7.5z" />
    <glyph glyph-name="ibreve" unicode="&#x12d;" horiz-adv-x="255" 
d="M73 488h108v-488h-108v488zM128 577q-25 0 -50 7.5t-46 24.5t-35 45t-18 69h63q6 -38 27.5 -59.5t58.5 -21.5q38 0 59.5 21.5t27.5 59.5h63q-4 -41 -18 -69t-35 -45t-46.5 -24.5t-50.5 -7.5z" />
    <glyph glyph-name="Iogonek" unicode="&#x12e;" horiz-adv-x="282" 
d="M160 -220q-51 0 -78.5 21t-27.5 65q0 37 21 66.5t58 67.5h-49v688h113v-688q-32 -36 -50 -64t-18 -50q0 -39 48 -39h20v-67h-37z" />
    <glyph glyph-name="iogonek" unicode="&#x12f;" horiz-adv-x="255" 
d="M144 -220q-51 0 -78.5 21t-27.5 65q0 37 21 66.5t58 67.5h-44v488h108v-488q-32 -36 -50 -64t-18 -50q0 -39 48 -39h20v-67h-37zM69 732h116v-110h-116v110z" />
    <glyph glyph-name="Idotaccent" unicode="&#x130;" horiz-adv-x="282" 
d="M84 688h113v-688h-113v688zM91 872h103v-104h-103v104z" />
    <glyph glyph-name="dotlessi" unicode="&#x131;" horiz-adv-x="255" 
d="M73 488h108v-488h-108v488z" />
    <glyph glyph-name="IJ" unicode="&#x132;" horiz-adv-x="816" 
d="M84 688h113v-688h-113v688zM318 233h112v-32q0 -33 7.5 -55.5t21 -36t31.5 -19.5t40 -6t40 6t31.5 19.5t21 36.5t7.5 57v485h113v-485q0 -59 -15.5 -100t-43.5 -66.5t-67 -37t-87 -11.5q-47 0 -85.5 11.5t-67 36.5t-44 65t-15.5 97v35z" />
    <glyph glyph-name="ij" unicode="&#x133;" horiz-adv-x="510" 
d="M69 732h116v-110h-116v110zM73 488h108v-488h-108v488zM324 732h116v-110h-116v110zM328 488h108v-559q0 -34 -7.5 -61.5t-25.5 -47t-47.5 -30t-72.5 -10.5h-37v90h25q32 0 44.5 16.5t12.5 53.5v548z" />
    <glyph glyph-name="Jcircumflex" unicode="&#x134;" horiz-adv-x="534" 
d="M36 233h112v-32q0 -33 7.5 -55.5t21 -36t31.5 -19.5t40 -6t40 6t31.5 19.5t21 36.5t7.5 57v485h113v-485q0 -59 -15.5 -100t-43.5 -66.5t-67 -37t-87 -11.5q-47 0 -85.5 11.5t-67 36.5t-44 65t-15.5 97v35zM363 932h89l128 -164h-95l-78 106l-77 -106h-95z" />
    <glyph glyph-name="jcircumflex" unicode="&#x135;" horiz-adv-x="255" 
d="M73 488h108v-559q0 -34 -7.5 -61.5t-25.5 -47t-47.5 -30t-72.5 -10.5h-37v90h25q32 0 44.5 16.5t12.5 53.5v548zM84 732h89l128 -164h-95l-78 106l-77 -106h-95z" />
    <glyph glyph-name="uni0136" unicode="&#x136;" horiz-adv-x="674" 
d="M84 688h113v-348l323 348h132l-281 -298l295 -390h-129l-239 313l-101 -107v-206h-113v688zM401 -64v-83l-43 -106h-47l30 94h-43v95h103z" />
    <glyph glyph-name="uni0137" unicode="&#x137;" horiz-adv-x="527" 
d="M73 732h108v-463l201 219h122l-182 -196l201 -292h-126l-147 216l-69 -75v-141h-108v732zM331 -64v-83l-43 -106h-47l30 94h-43v95h103z" />
    <glyph glyph-name="Lacute" unicode="&#x139;" horiz-adv-x="561" 
d="M84 688h113v-591h333v-97h-446v688zM204 932h120l-146 -164h-76z" />
    <glyph glyph-name="lacute" unicode="&#x13a;" horiz-adv-x="255" 
d="M73 732h108v-732h-108v732zM192 973h120l-146 -164h-76z" />
    <glyph glyph-name="uni013B" unicode="&#x13b;" horiz-adv-x="561" 
d="M84 688h113v-591h333v-97h-446v688zM354 -64v-83l-43 -106h-47l30 94h-43v95h103z" />
    <glyph glyph-name="uni013C" unicode="&#x13c;" horiz-adv-x="255" 
d="M73 732h108v-732h-108v732zM179 -64v-83l-43 -106h-47l30 94h-43v95h103z" />
    <glyph glyph-name="Lcaron" unicode="&#x13d;" horiz-adv-x="561" 
d="M84 688h113v-591h333v-97h-446v688zM371 595h-43v94h103v-83l-43 -105h-47z" />
    <glyph glyph-name="lcaron" unicode="&#x13e;" horiz-adv-x="255" 
d="M73 732h108v-732h-108v732zM298 639h-43v94h103v-83l-43 -105h-47z" />
    <glyph glyph-name="Ldot" unicode="&#x13f;" horiz-adv-x="561" 
d="M84 688h113v-591h333v-97h-446v688zM319 413h103v-104h-103v104z" />
    <glyph glyph-name="ldot" unicode="&#x140;" horiz-adv-x="351" 
d="M73 732h108v-732h-108v732zM255 385h103v-104h-103v104z" />
    <glyph glyph-name="Lslash" unicode="&#x141;" horiz-adv-x="561" 
d="M4 258l80 58v372h113v-291l145 105v-90l-145 -104v-211h333v-97h-446v228l-80 -60v90z" />
    <glyph glyph-name="lslash" unicode="&#x142;" horiz-adv-x="255" 
d="M73 337v395h108v-296l69 62v-87l-69 -63v-348h-108v250l-68 -61v86z" />
    <glyph glyph-name="Nacute" unicode="&#x143;" horiz-adv-x="749" 
d="M84 688h105l362 -496h4l-4 496h114v-688h-104l-364 494h-4l4 -494h-113v688zM438 932h120l-146 -164h-76z" />
    <glyph glyph-name="nacute" unicode="&#x144;" horiz-adv-x="581" 
d="M73 488h104v-71h4q42 83 151 83q36 0 69.5 -10.5t58.5 -34.5t40 -63t15 -96v-296h-108v282q0 73 -28 101.5t-76 28.5q-52 0 -87 -41.5t-35 -115.5v-255h-108v488zM357 732h120l-146 -164h-76z" />
    <glyph glyph-name="uni0145" unicode="&#x145;" horiz-adv-x="749" 
d="M84 688h105l362 -496h4l-4 496h114v-688h-104l-364 494h-4l4 -494h-113v688zM426 -64v-83l-43 -106h-47l30 94h-43v95h103z" />
    <glyph glyph-name="uni0146" unicode="&#x146;" horiz-adv-x="581" 
d="M73 488h104v-71h4q42 83 151 83q36 0 69.5 -10.5t58.5 -34.5t40 -63t15 -96v-296h-108v282q0 73 -28 101.5t-76 28.5q-52 0 -87 -41.5t-35 -115.5v-255h-108v488zM341 -64v-83l-43 -106h-47l30 94h-43v95h103z" />
    <glyph glyph-name="Ncaron" unicode="&#x147;" horiz-adv-x="749" 
d="M84 688h105l362 -496h4l-4 496h114v-688h-104l-364 494h-4l4 -494h-113v688zM202 932h95l77 -106l78 106h95l-128 -164h-89z" />
    <glyph glyph-name="ncaron" unicode="&#x148;" horiz-adv-x="581" 
d="M73 488h104v-71h4q42 83 151 83q36 0 69.5 -10.5t58.5 -34.5t40 -63t15 -96v-296h-108v282q0 73 -28 101.5t-76 28.5q-52 0 -87 -41.5t-35 -115.5v-255h-108v488zM121 732h95l77 -106l78 106h95l-128 -164h-89z" />
    <glyph glyph-name="napostrophe" unicode="&#x149;" horiz-adv-x="581" 
d="M73 488h104v-71h4q42 83 151 83q36 0 69.5 -10.5t58.5 -34.5t40 -63t15 -96v-296h-108v282q0 73 -28 101.5t-76 28.5q-52 0 -87 -41.5t-35 -115.5v-255h-108v488zM116 639h-43v94h103v-83l-43 -105h-47z" />
    <glyph glyph-name="Eng" unicode="&#x14a;" horiz-adv-x="749" 
d="M84 688h105l363 -496h4l-5 496h114v-714q0 -55 -11.5 -92.5t-34.5 -60t-58 -32t-82 -9.5h-53v98h42q44 0 65.5 22t21.5 80v27l-358 487h-4l4 -494h-113v688z" />
    <glyph glyph-name="eng" unicode="&#x14b;" horiz-adv-x="581" 
d="M407 282q0 73 -28 101.5t-76 28.5q-52 0 -87 -41.5t-35 -114.5v-256h-108v488h104v-71h4q42 83 151 83q36 0 69.5 -10.5t58.5 -34.5t40 -63t15 -96v-367q0 -34 -7.5 -61.5t-25.5 -47t-47.5 -30t-72.5 -10.5h-37v88h25q32 0 44.5 18t12.5 55v341z" />
    <glyph glyph-name="Omacron" unicode="&#x14c;" horiz-adv-x="775" 
d="M44 344q0 77 24.5 142t69.5 112.5t108 74.5t141 27q76 0 139.5 -27t109 -74.5t70.5 -112.5t25 -142t-25 -142t-70.5 -112.5t-109 -74.5t-139.5 -27q-78 0 -141 27t-108 74.5t-69.5 112.5t-24.5 142zM161 344q0 -56 16 -102.5t46 -81t71.5 -53.5t92.5 -19t93 19.5t72 53.5
t46 81t16 102t-16 102t-46 81t-72 53.5t-93 19.5t-92.5 -19t-71.5 -53.5t-46 -81.5t-16 -102zM242 853h287v-78h-287v78z" />
    <glyph glyph-name="omacron" unicode="&#x14d;" horiz-adv-x="577" 
d="M39 244q0 59 18.5 106.5t52 80.5t79 51t99.5 18q57 0 103 -17.5t78.5 -50.5t50 -80.5t17.5 -107.5q0 -59 -18.5 -106.5t-51.5 -80.5t-79 -51t-100 -18q-57 0 -103 17.5t-78.5 50.5t-50 80.5t-17.5 107.5zM151 244q0 -77 37.5 -123t99.5 -46t99.5 46t37.5 123
q0 80 -37.5 124.5t-99.5 44.5t-99.5 -46t-37.5 -123zM143 689h287v-78h-287v78z" />
    <glyph glyph-name="Obreve" unicode="&#x14e;" horiz-adv-x="775" 
d="M44 344q0 77 24.5 142t69.5 112.5t108 74.5t141 27q76 0 139.5 -27t109 -74.5t70.5 -112.5t25 -142t-25 -142t-70.5 -112.5t-109 -74.5t-139.5 -27q-78 0 -141 27t-108 74.5t-69.5 112.5t-24.5 142zM161 344q0 -56 16 -102.5t46 -81t71.5 -53.5t92.5 -19t93 19.5t72 53.5
t46 81t16 102t-16 102t-46 81t-72 53.5t-93 19.5t-92.5 -19t-71.5 -53.5t-46 -81.5t-16 -102zM387 768q-25 0 -50 7.5t-46 24.5t-35 45t-18 69h63q6 -38 27.5 -59.5t58.5 -21.5q38 0 59.5 21.5t27.5 59.5h63q-4 -41 -18 -69t-35 -45t-46.5 -24.5t-50.5 -7.5z" />
    <glyph glyph-name="obreve" unicode="&#x14f;" horiz-adv-x="577" 
d="M39 244q0 59 18.5 106.5t52 80.5t79 51t99.5 18q57 0 103 -17.5t78.5 -50.5t50 -80.5t17.5 -107.5q0 -59 -18.5 -106.5t-51.5 -80.5t-79 -51t-100 -18q-57 0 -103 17.5t-78.5 50.5t-50 80.5t-17.5 107.5zM151 244q0 -77 37.5 -123t99.5 -46t99.5 46t37.5 123
q0 80 -37.5 124.5t-99.5 44.5t-99.5 -46t-37.5 -123zM288 577q-25 0 -50 7.5t-46 24.5t-35 45t-18 69h63q6 -38 27.5 -59.5t58.5 -21.5q38 0 59.5 21.5t27.5 59.5h63q-4 -41 -18 -69t-35 -45t-46.5 -24.5t-50.5 -7.5z" />
    <glyph glyph-name="Ohungarumlaut" unicode="&#x150;" horiz-adv-x="775" 
d="M44 344q0 77 24.5 142t69.5 112.5t108 74.5t141 27q76 0 139.5 -27t109 -74.5t70.5 -112.5t25 -142t-25 -142t-70.5 -112.5t-109 -74.5t-139.5 -27q-78 0 -141 27t-108 74.5t-69.5 112.5t-24.5 142zM161 344q0 -56 16 -102.5t46 -81t71.5 -53.5t92.5 -19t93 19.5t72 53.5
t46 81t16 102t-16 102t-46 81t-72 53.5t-93 19.5t-92.5 -19t-71.5 -53.5t-46 -81.5t-16 -102zM545 932h119l-146 -164h-75zM355 932h120l-146 -164h-76z" />
    <glyph glyph-name="ohungarumlaut" unicode="&#x151;" horiz-adv-x="577" 
d="M39 244q0 59 18.5 106.5t52 80.5t79 51t99.5 18q57 0 103 -17.5t78.5 -50.5t50 -80.5t17.5 -107.5q0 -59 -18.5 -106.5t-51.5 -80.5t-79 -51t-100 -18q-57 0 -103 17.5t-78.5 50.5t-50 80.5t-17.5 107.5zM151 244q0 -77 37.5 -123t99.5 -46t99.5 46t37.5 123
q0 80 -37.5 124.5t-99.5 44.5t-99.5 -46t-37.5 -123zM446 732h119l-146 -164h-75zM256 732h120l-146 -164h-76z" />
    <glyph glyph-name="OE" unicode="&#x152;" horiz-adv-x="1054" 
d="M44 344q0 75 23.5 138t69 109t114 71.5t158.5 25.5h585v-96h-371v-195h298v-93h-298v-208h380v-96h-594q-90 0 -158.5 25.5t-114 71.5t-69 109t-23.5 138zM161 344q0 -50 13.5 -95t43 -79t77 -54t116.5 -20h99v496h-99q-69 0 -116.5 -20t-77 -54t-43 -79t-13.5 -95z" />
    <glyph glyph-name="oe" unicode="&#x153;" horiz-adv-x="925" 
d="M38 244q0 59 18.5 106.5t52 80.5t79 51t99.5 18q65 0 113.5 -24t78.5 -68q30 44 76.5 68t106.5 24q51 0 93 -16t72 -46.5t46 -74.5t16 -101v-36h-358q3 -72 39.5 -112.5t95.5 -40.5q51 0 78 23.5t35 53.5h106q-5 -33 -22 -62.5t-45 -51.5t-66.5 -35t-86.5 -13
q-67 0 -114.5 23t-76.5 67q-30 -43 -78 -66.5t-109 -23.5q-57 0 -103 17.5t-78.5 50.5t-50 80.5t-17.5 107.5zM150 244q0 -77 37.5 -123t99.5 -46t99.5 46t37.5 123q0 80 -37.5 124.5t-99.5 44.5t-99.5 -46t-37.5 -123zM662 415q-48 0 -82 -31.5t-45 -85.5h244
q-6 60 -35.5 88.5t-81.5 28.5z" />
    <glyph glyph-name="Racute" unicode="&#x154;" horiz-adv-x="673" 
d="M84 688h278q121 0 184 -55t63 -154q0 -75 -37.5 -129.5t-110.5 -77.5l173 -272h-123l-165 259h-149v-259h-113v688zM197 594v-242h164q67 0 100.5 36.5t33.5 89.5q0 54 -34.5 85t-99.5 31h-164zM383 932h120l-146 -164h-76z" />
    <glyph glyph-name="racute" unicode="&#x155;" horiz-adv-x="377" 
d="M73 488h104v-71h3q18 39 50 61t79 22q15 0 32 -3.5t36 -16.5l-28 -96q-32 16 -60 16q-27 0 -47.5 -12.5t-34 -33.5t-20 -49.5t-6.5 -60.5v-244h-108v488zM291 732h120l-146 -164h-76z" />
    <glyph glyph-name="uni0156" unicode="&#x156;" horiz-adv-x="673" 
d="M84 688h278q121 0 184 -55t63 -154q0 -75 -37.5 -129.5t-110.5 -77.5l173 -272h-123l-165 259h-149v-259h-113v688zM197 594v-242h164q67 0 100.5 36.5t33.5 89.5q0 54 -34.5 85t-99.5 31h-164zM388 -64v-83l-43 -106h-47l30 94h-43v95h103z" />
    <glyph glyph-name="uni0157" unicode="&#x157;" horiz-adv-x="377" 
d="M73 488h104v-71h3q18 39 50 61t79 22q15 0 32 -3.5t36 -16.5l-28 -96q-32 16 -60 16q-27 0 -47.5 -12.5t-34 -33.5t-20 -49.5t-6.5 -60.5v-244h-108v488zM178 -64v-83l-43 -106h-47l30 94h-43v95h103z" />
    <glyph glyph-name="Rcaron" unicode="&#x158;" horiz-adv-x="673" 
d="M84 688h278q121 0 184 -55t63 -154q0 -75 -37.5 -129.5t-110.5 -77.5l173 -272h-123l-165 259h-149v-259h-113v688zM197 594v-242h164q67 0 100.5 36.5t33.5 89.5q0 54 -34.5 85t-99.5 31h-164zM147 932h95l77 -106l78 106h95l-128 -164h-89z" />
    <glyph glyph-name="rcaron" unicode="&#x159;" horiz-adv-x="377" 
d="M73 488h104v-71h3q18 39 50 61t79 22q15 0 32 -3.5t36 -16.5l-28 -96q-32 16 -60 16q-27 0 -47.5 -12.5t-34 -33.5t-20 -49.5t-6.5 -60.5v-244h-108v488zM55 732h95l77 -106l78 106h95l-128 -164h-89z" />
    <glyph glyph-name="Sacute" unicode="&#x15a;" horiz-adv-x="658" 
d="M165 204q0 -60 42.5 -94t117.5 -34q79 0 121.5 30.5t42.5 85.5q0 25 -11.5 42t-31.5 29t-46.5 19t-57.5 13l-45 8q-42 7 -83.5 18t-74.5 32t-53.5 55t-20.5 88q0 44 18.5 81.5t52 64.5t82 42.5t108.5 15.5q58 0 105.5 -14t81.5 -40t52.5 -64t18.5 -87h-111q0 59 -42 88
t-105 29q-32 0 -59 -6.5t-47 -20t-31.5 -33t-11.5 -45.5t12.5 -43.5t34 -29t51 -18.5t62.5 -13l45 -8q41 -7 81 -18.5t71.5 -33t51 -55.5t19.5 -87q0 -48 -18.5 -87t-54.5 -67t-88 -43.5t-119 -15.5q-132 0 -202 57.5t-70 158.5h112zM390 932h120l-146 -164h-76z" />
    <glyph glyph-name="sacute" unicode="&#x15b;" horiz-adv-x="509" 
d="M141 146q0 -22 9 -37.5t24 -25.5t34.5 -14.5t39.5 -4.5q55 0 80 18t25 54q0 27 -16.5 40.5t-53.5 19.5l-90 15q-27 4 -53 12.5t-46 24t-32.5 39t-12.5 58.5q0 37 15 66t42 48.5t63.5 30t79.5 10.5q42 0 78.5 -10t63.5 -29.5t42 -49t15 -68.5h-101q0 38 -27 59.5t-71 21.5
q-43 0 -69.5 -18t-26.5 -50q0 -25 17 -38.5t61 -21.5l90 -15q28 -5 53 -13.5t44.5 -24t31 -40t11.5 -60.5q0 -39 -15.5 -68.5t-43.5 -48.5t-67 -28.5t-87 -9.5q-97 0 -153.5 40t-56.5 118h103zM318 732h120l-146 -164h-76z" />
    <glyph glyph-name="Scircumflex" unicode="&#x15c;" horiz-adv-x="658" 
d="M165 204q0 -60 42.5 -94t117.5 -34q79 0 121.5 30.5t42.5 85.5q0 25 -11.5 42t-31.5 29t-46.5 19t-57.5 13l-45 8q-42 7 -83.5 18t-74.5 32t-53.5 55t-20.5 88q0 44 18.5 81.5t52 64.5t82 42.5t108.5 15.5q58 0 105.5 -14t81.5 -40t52.5 -64t18.5 -87h-111q0 59 -42 88
t-105 29q-32 0 -59 -6.5t-47 -20t-31.5 -33t-11.5 -45.5t12.5 -43.5t34 -29t51 -18.5t62.5 -13l45 -8q41 -7 81 -18.5t71.5 -33t51 -55.5t19.5 -87q0 -48 -18.5 -87t-54.5 -67t-88 -43.5t-119 -15.5q-132 0 -202 57.5t-70 158.5h112zM282 932h89l128 -164h-95l-78 106
l-77 -106h-95z" />
    <glyph glyph-name="scircumflex" unicode="&#x15d;" horiz-adv-x="509" 
d="M141 146q0 -22 9 -37.5t24 -25.5t34.5 -14.5t39.5 -4.5q55 0 80 18t25 54q0 27 -16.5 40.5t-53.5 19.5l-90 15q-27 4 -53 12.5t-46 24t-32.5 39t-12.5 58.5q0 37 15 66t42 48.5t63.5 30t79.5 10.5q42 0 78.5 -10t63.5 -29.5t42 -49t15 -68.5h-101q0 38 -27 59.5t-71 21.5
q-43 0 -69.5 -18t-26.5 -50q0 -25 17 -38.5t61 -21.5l90 -15q28 -5 53 -13.5t44.5 -24t31 -40t11.5 -60.5q0 -39 -15.5 -68.5t-43.5 -48.5t-67 -28.5t-87 -9.5q-97 0 -153.5 40t-56.5 118h103zM210 732h89l128 -164h-95l-78 106l-77 -106h-95z" />
    <glyph glyph-name="uni015E" unicode="&#x15e;" horiz-adv-x="658" 
d="M303 -11q-121 5 -185.5 61.5t-64.5 153.5h112q0 -60 41.5 -94t118.5 -34q78 0 121 30.5t43 85.5q0 25 -12 42.5t-32 29t-46.5 19t-56.5 12.5l-45 8q-42 7 -83.5 18t-74.5 32t-53.5 55t-20.5 88q0 44 18.5 81.5t52 64.5t82 42.5t108.5 15.5q58 0 105.5 -14t81.5 -40
t52.5 -64t18.5 -87h-111q0 59 -42 88t-105 29q-32 0 -59 -6.5t-47 -20t-31.5 -33t-11.5 -45.5t13 -43.5t35 -29t51 -18.5t61 -13l45 -8q41 -7 81 -18.5t71.5 -33t51 -55.5t19.5 -87q0 -93 -68 -150.5t-194 -62.5v-25q45 -2 68.5 -27t23.5 -60q0 -42 -28.5 -69t-88.5 -27h-61
v59h53q23 0 36 7.5t13 30.5q0 20 -13 28.5t-36 8.5h-33z" />
    <glyph glyph-name="uni015F" unicode="&#x15f;" horiz-adv-x="503" 
d="M222 -11q-84 4 -134 43t-50 114h103q0 -22 9 -37.5t24 -25.5t33.5 -14.5t38.5 -4.5q57 0 82 19t25 53q0 27 -16.5 40t-53.5 19l-90 15q-28 5 -54 13.5t-46 24t-32 39t-12 58.5q0 37 15 66t42 48.5t63.5 30t79.5 10.5q42 0 78.5 -10t63.5 -29.5t42 -49t15 -68.5h-101
q0 38 -27 59.5t-71 21.5q-43 0 -69.5 -18t-26.5 -50q0 -25 17 -38.5t61 -21.5l90 -15q29 -5 54.5 -13.5t44.5 -24t30 -39t11 -58.5q0 -76 -53.5 -115t-144.5 -42v-26q45 -2 68.5 -27t23.5 -60q0 -42 -28.5 -69t-88.5 -27h-61v59h53q23 0 36 7.5t13 30.5q0 20 -13 28.5
t-36 8.5h-33z" />
    <glyph glyph-name="Scaron" unicode="&#x160;" horiz-adv-x="658" 
d="M165 204q0 -60 42.5 -94t117.5 -34q79 0 121.5 30.5t42.5 85.5q0 25 -11.5 42t-31.5 29t-46.5 19t-57.5 13l-45 8q-42 7 -83.5 18t-74.5 32t-53.5 55t-20.5 88q0 44 18.5 81.5t52 64.5t82 42.5t108.5 15.5q58 0 105.5 -14t81.5 -40t52.5 -64t18.5 -87h-111q0 59 -42 88
t-105 29q-32 0 -59 -6.5t-47 -20t-31.5 -33t-11.5 -45.5t12.5 -43.5t34 -29t51 -18.5t62.5 -13l45 -8q41 -7 81 -18.5t71.5 -33t51 -55.5t19.5 -87q0 -48 -18.5 -87t-54.5 -67t-88 -43.5t-119 -15.5q-132 0 -202 57.5t-70 158.5h112zM154 932h95l77 -106l78 106h95
l-128 -164h-89z" />
    <glyph glyph-name="scaron" unicode="&#x161;" horiz-adv-x="509" 
d="M141 146q0 -22 9 -37.5t24 -25.5t34.5 -14.5t39.5 -4.5q55 0 80 18t25 54q0 27 -16.5 40.5t-53.5 19.5l-90 15q-27 4 -53 12.5t-46 24t-32.5 39t-12.5 58.5q0 37 15 66t42 48.5t63.5 30t79.5 10.5q42 0 78.5 -10t63.5 -29.5t42 -49t15 -68.5h-101q0 38 -27 59.5t-71 21.5
q-43 0 -69.5 -18t-26.5 -50q0 -25 17 -38.5t61 -21.5l90 -15q28 -5 53 -13.5t44.5 -24t31 -40t11.5 -60.5q0 -39 -15.5 -68.5t-43.5 -48.5t-67 -28.5t-87 -9.5q-97 0 -153.5 40t-56.5 118h103zM82 732h95l77 -106l78 106h95l-128 -164h-89z" />
    <glyph glyph-name="uni0162" unicode="&#x162;" horiz-adv-x="602" 
d="M8 688h586v-95h-237v-593h-113v593h-236v95zM285 0h36v-37q45 -2 68.5 -27t23.5 -60q0 -42 -28.5 -69t-88.5 -27h-61v59h53q23 0 36 7.5t13 30.5q0 20 -13 28.5t-36 8.5h-33z" />
    <glyph glyph-name="uni0163" unicode="&#x163;" horiz-adv-x="345" 
d="M88 404h-92v84h92v148h108v-148h125v-84h-125v-248q0 -35 15 -50.5t51 -15.5h59v-90h-73q-84 0 -122 35t-38 115v254zM183 0h36v-37q45 -2 68.5 -27t23.5 -60q0 -42 -28.5 -69t-88.5 -27h-61v59h53q23 0 36 7.5t13 30.5q0 20 -13 28.5t-36 8.5h-33z" />
    <glyph glyph-name="Tcaron" unicode="&#x164;" horiz-adv-x="602" 
d="M8 688h586v-95h-237v-593h-113v593h-236v95zM127 932h95l77 -106l78 106h95l-128 -164h-89z" />
    <glyph glyph-name="tcaron" unicode="&#x165;" horiz-adv-x="345" 
d="M88 404h-92v84h92v148h108v-148h125v-84h-125v-248q0 -35 15 -50.5t51 -15.5h59v-90h-73q-84 0 -122 35t-38 115v254zM287 639h-43v94h103v-83l-43 -105h-47z" />
    <glyph glyph-name="Tbar" unicode="&#x166;" horiz-adv-x="602" 
d="M8 688h586v-95h-237v-240h180v-75h-180v-278h-113v278h-179v75h179v240h-236v95z" />
    <glyph glyph-name="tbar" unicode="&#x167;" horiz-adv-x="345" 
d="M-4 285h92v119h-92v84h92v148h108v-148h125v-84h-125v-119h125v-65h-125v-64q0 -35 15 -50.5t51 -15.5h59v-90h-72q-85 0 -123 38t-38 118v64h-92v65z" />
    <glyph glyph-name="Utilde" unicode="&#x168;" horiz-adv-x="713" 
d="M70 688h113v-413q0 -90 42.5 -138.5t130.5 -48.5t130.5 48.5t42.5 138.5v413h113v-414q0 -78 -21 -132.5t-58.5 -88.5t-90.5 -49.5t-116 -15.5t-115.5 15.5t-90.5 49.5t-59 88.5t-21 132.5v414zM187 767q2 52 27 84.5t73 32.5q22 0 42 -7t38 -16t33.5 -16t29.5 -7
q20 0 29.5 15.5t12.5 32.5h54q-2 -52 -27 -84.5t-73 -32.5q-22 0 -42 7t-38 16t-34 16t-29 7q-20 0 -30 -15.5t-12 -32.5h-54z" />
    <glyph glyph-name="utilde" unicode="&#x169;" horiz-adv-x="577" 
d="M65 488h108v-282q0 -73 28.5 -101.5t75.5 -28.5q52 0 85.5 42t33.5 118v252h108v-488h-103v71h-4q-42 -83 -148 -83q-37 0 -70 10.5t-58.5 34.5t-40.5 63t-15 96v296zM121 591q2 52 27 84.5t73 32.5q22 0 42 -7t38 -16t33.5 -16t29.5 -7q20 0 29.5 15.5t12.5 32.5h54
q-2 -52 -27 -84.5t-73 -32.5q-22 0 -42 7t-38 16t-34 16t-29 7q-20 0 -30 -15.5t-12 -32.5h-54z" />
    <glyph glyph-name="Umacron" unicode="&#x16a;" horiz-adv-x="713" 
d="M70 688h113v-413q0 -90 42.5 -138.5t130.5 -48.5t130.5 48.5t42.5 138.5v413h113v-414q0 -78 -21 -132.5t-58.5 -88.5t-90.5 -49.5t-116 -15.5t-115.5 15.5t-90.5 49.5t-59 88.5t-21 132.5v414zM211 853h287v-78h-287v78z" />
    <glyph glyph-name="umacron" unicode="&#x16b;" horiz-adv-x="577" 
d="M65 488h108v-282q0 -73 28.5 -101.5t75.5 -28.5q52 0 85.5 42t33.5 118v252h108v-488h-103v71h-4q-42 -83 -148 -83q-37 0 -70 10.5t-58.5 34.5t-40.5 63t-15 96v296zM145 689h287v-78h-287v78z" />
    <glyph glyph-name="Ubreve" unicode="&#x16c;" horiz-adv-x="713" 
d="M70 688h113v-413q0 -90 42.5 -138.5t130.5 -48.5t130.5 48.5t42.5 138.5v413h113v-414q0 -78 -21 -132.5t-58.5 -88.5t-90.5 -49.5t-116 -15.5t-115.5 15.5t-90.5 49.5t-59 88.5t-21 132.5v414zM356 768q-25 0 -50 7.5t-46 24.5t-35 45t-18 69h63q6 -38 27.5 -59.5
t58.5 -21.5q38 0 59.5 21.5t27.5 59.5h63q-4 -41 -18 -69t-35 -45t-46.5 -24.5t-50.5 -7.5z" />
    <glyph glyph-name="ubreve" unicode="&#x16d;" horiz-adv-x="577" 
d="M65 488h108v-282q0 -73 28.5 -101.5t75.5 -28.5q52 0 85.5 42t33.5 118v252h108v-488h-103v71h-4q-42 -83 -148 -83q-37 0 -70 10.5t-58.5 34.5t-40.5 63t-15 96v296zM290 577q-25 0 -50 7.5t-46 24.5t-35 45t-18 69h63q6 -38 27.5 -59.5t58.5 -21.5q38 0 59.5 21.5
t27.5 59.5h63q-4 -41 -18 -69t-35 -45t-46.5 -24.5t-50.5 -7.5z" />
    <glyph glyph-name="Uring" unicode="&#x16e;" horiz-adv-x="713" 
d="M70 688h113v-413q0 -90 42.5 -138.5t130.5 -48.5t130.5 48.5t42.5 138.5v413h113v-414q0 -78 -21 -132.5t-58.5 -88.5t-90.5 -49.5t-116 -15.5t-115.5 15.5t-90.5 49.5t-59 88.5t-21 132.5v414zM356 759q-21 0 -39.5 7.5t-33 20.5t-22.5 31t-8 40t8.5 40.5t22.5 31.5
t32.5 20t39.5 7t40 -7t33 -20t22.5 -31.5t8.5 -40.5q0 -44 -30.5 -71.5t-73.5 -27.5zM356 808q21 0 36 14.5t15 35.5q0 22 -15 36t-36 14q-20 0 -35 -14t-15 -36q0 -21 15 -35.5t35 -14.5z" />
    <glyph glyph-name="uring" unicode="&#x16f;" horiz-adv-x="577" 
d="M65 488h108v-282q0 -73 28.5 -101.5t75.5 -28.5q52 0 85.5 42t33.5 118v252h108v-488h-103v71h-4q-42 -83 -148 -83q-37 0 -70 10.5t-58.5 34.5t-40.5 63t-15 96v296zM290 559q-21 0 -39.5 7.5t-33 20.5t-22.5 31t-8 40t8.5 40.5t22.5 31.5t32.5 20t39.5 7t40 -7t33 -20
t22.5 -31.5t8.5 -40.5q0 -44 -30.5 -71.5t-73.5 -27.5zM290 608q21 0 36 14.5t15 35.5q0 22 -15 36t-36 14q-20 0 -35 -14t-15 -36q0 -21 15 -35.5t35 -14.5z" />
    <glyph glyph-name="Uhungarumlaut" unicode="&#x170;" horiz-adv-x="713" 
d="M70 688h113v-413q0 -90 42.5 -138.5t130.5 -48.5t130.5 48.5t42.5 138.5v413h113v-414q0 -78 -21 -132.5t-58.5 -88.5t-90.5 -49.5t-116 -15.5t-115.5 15.5t-90.5 49.5t-59 88.5t-21 132.5v414zM514 932h119l-146 -164h-75zM324 932h120l-146 -164h-76z" />
    <glyph glyph-name="uhungarumlaut" unicode="&#x171;" horiz-adv-x="577" 
d="M65 488h108v-282q0 -73 28.5 -101.5t75.5 -28.5q52 0 85.5 42t33.5 118v252h108v-488h-103v71h-4q-42 -83 -148 -83q-37 0 -70 10.5t-58.5 34.5t-40.5 63t-15 96v296zM448 732h119l-146 -164h-75zM258 732h120l-146 -164h-76z" />
    <glyph glyph-name="Uogonek" unicode="&#x172;" horiz-adv-x="713" 
d="M482 -220q-51 0 -78.5 21t-27.5 65q0 36 20 66.5t54 65.5q-22 -5 -45.5 -7.5t-48.5 -2.5q-63 0 -115.5 15.5t-90.5 49.5t-59 88.5t-21 132.5v414h113v-413q0 -90 42.5 -138.5t130.5 -48.5t130.5 48.5t42.5 138.5v413h113v-414q0 -73 -18 -125t-50 -86l-54 -63
q-32 -36 -50.5 -64t-18.5 -50q0 -39 49 -39h20v-67h-38z" />
    <glyph glyph-name="uogonek" unicode="&#x173;" horiz-adv-x="577" 
d="M466 -220q-51 0 -78 21t-27 65q0 37 21 66.5t58 67.5h-39v71h-4q-42 -83 -148 -83q-37 0 -70 10.5t-58.5 34.5t-40.5 63t-15 96v296h108v-282q0 -73 28.5 -101.5t75.5 -28.5q54 0 86.5 43t32.5 115v254h108v-488q-32 -36 -50 -64t-18 -50q0 -39 48 -39h20v-67h-38z" />
    <glyph glyph-name="Wcircumflex" unicode="&#x174;" horiz-adv-x="957" 
d="M11 688h120l135 -568h4l149 568h126l151 -568h4l130 568h116l-177 -688h-141l-146 551h-4l-146 -551h-141zM436 932h89l128 -164h-95l-78 106l-77 -106h-95z" />
    <glyph glyph-name="wcircumflex" unicode="&#x175;" horiz-adv-x="750" 
d="M5 488h110l95 -379h4l105 379h115l106 -379h4l94 379h107l-141 -488h-126l-101 378h-4l-101 -378h-126zM331 732h89l128 -164h-95l-78 106l-77 -106h-95z" />
    <glyph glyph-name="Ycircumflex" unicode="&#x176;" horiz-adv-x="637" 
d="M260 266l-249 422h128l178 -310h4l185 310h119l-252 -417v-271h-113v266zM274 932h89l128 -164h-95l-78 106l-77 -106h-95z" />
    <glyph glyph-name="ycircumflex" unicode="&#x177;" horiz-adv-x="493" 
d="M4 488h118l127 -376h4l127 376h109l-201 -556q-11 -30 -26.5 -58.5t-38 -51t-53 -36.5t-69.5 -14h-54v89h32q84 0 118 95l15 44h-26zM202 732h89l128 -164h-95l-78 106l-77 -106h-95z" />
    <glyph glyph-name="Ydieresis" unicode="&#x178;" horiz-adv-x="637" 
d="M260 266l-249 422h128l178 -310h4l185 310h119l-252 -417v-271h-113v266zM372 872h102v-104h-102v104zM162 872h103v-104h-103v104z" />
    <glyph glyph-name="Zacute" unicode="&#x179;" horiz-adv-x="598" 
d="M52 688h511v-69l-383 -525h380v-94h-525v69l383 525h-366v94zM363 932h120l-146 -164h-76z" />
    <glyph glyph-name="zacute" unicode="&#x17a;" horiz-adv-x="461" 
d="M32 488h393v-67l-251 -336h255v-85h-394v61l256 342h-259v85zM294 732h120l-146 -164h-76z" />
    <glyph glyph-name="Zdotaccent" unicode="&#x17b;" horiz-adv-x="598" 
d="M52 688h511v-69l-383 -525h380v-94h-525v69l383 525h-366v94zM248 872h103v-104h-103v104z" />
    <glyph glyph-name="zdotaccent" unicode="&#x17c;" horiz-adv-x="461" 
d="M32 488h393v-67l-251 -336h255v-85h-394v61l256 342h-259v85zM179 704h103v-104h-103v104z" />
    <glyph glyph-name="Zcaron" unicode="&#x17d;" horiz-adv-x="598" 
d="M52 688h511v-69l-383 -525h380v-94h-525v69l383 525h-366v94zM127 932h95l77 -106l78 106h95l-128 -164h-89z" />
    <glyph glyph-name="zcaron" unicode="&#x17e;" horiz-adv-x="461" 
d="M32 488h393v-67l-251 -336h255v-85h-394v61l256 342h-259v85zM58 732h95l77 -106l78 106h95l-128 -164h-89z" />
    <glyph glyph-name="longs" unicode="&#x17f;" horiz-adv-x="325" 
d="M95 404h-92v84h92v73q0 85 43 128t137 43h61v-88h-53q-45 0 -62.5 -21t-17.5 -66v-557h-108v404z" />
    <glyph glyph-name="florin" unicode="&#x192;" horiz-adv-x="568" 
d="M83 357h126l18 171q10 92 56 132t117 40t109 -36.5t33 -119.5l-3 -42h-95l3 38q2 37 -9 57t-40 20t-43.5 -22.5t-19.5 -66.5l-18 -171h148v-72h-156l-31 -305q-10 -92 -56.5 -132t-117.5 -40t-108.5 36.5t-32.5 119.5l3 42h95l-3 -38q-2 -37 9 -57t40 -20t43.5 22.5
t19.5 66.5l31 305h-118v72z" />
    <glyph glyph-name="AEacute" unicode="&#x1fc;" horiz-adv-x="1091" 
d="M508 688h523v-96h-370v-195h296v-93h-296v-208h379v-96h-492v157h-296l-113 -157h-128zM318 250h230v317h-4zM670 932h120l-146 -164h-76z" />
    <glyph glyph-name="aeacute" unicode="&#x1fd;" horiz-adv-x="856" 
d="M64 333q3 45 21 76.5t46 51.5t64 29.5t75 9.5q118 0 165 -67q29 32 69 49.5t94 17.5q49 0 90 -16t70 -46.5t45.5 -74.5t16.5 -101v-36h-347q4 -73 38.5 -113t90.5 -40q26 0 44.5 6.5t31 17t20 24.5t11.5 29h106q-5 -33 -22.5 -62.5t-45 -51.5t-64.5 -35t-82 -13
q-68 0 -115.5 24.5t-76.5 70.5q-18 -28 -40.5 -46.5t-48 -29t-53 -14.5t-53.5 -4q-84 0 -126.5 38.5t-42.5 100.5q0 63 38.5 99.5t124.5 50.5l95 16q39 6 51 12.5t12 23.5q0 38 -22.5 63.5t-73.5 25.5q-42 0 -71 -21t-32 -65h-103zM236 70q26 0 49.5 7.5t41.5 23.5
t28.5 40.5t10.5 59.5v48q-14 -18 -50 -23l-84 -15q-42 -6 -60.5 -24.5t-18.5 -47.5q0 -32 22 -50.5t61 -18.5zM598 416q-48 0 -79 -31.5t-42 -86.5h231q-5 57 -32.5 87.5t-77.5 30.5zM486 732h120l-146 -164h-76z" />
    <glyph glyph-name="Oslashacute" unicode="&#x1fe;" horiz-adv-x="775" 
d="M139 89q-46 48 -70.5 113t-24.5 142t25 142t70 112.5t108 74.5t140 27q57 0 107 -16t92 -45l49 61h83l-83 -103q45 -48 70.5 -112.5t25.5 -140.5q0 -77 -25.5 -142t-71.5 -112.5t-109 -74.5t-138 -27q-58 0 -108 15.5t-91 43.5l-49 -59h-82zM614 344q0 49 -13 91.5
t-37 75.5l-309 -381q56 -42 132 -42q51 0 93 19.5t72 53.5t46 81t16 102zM161 344q0 -50 13 -92.5t36 -74.5l309 380q-27 20 -60 31.5t-72 11.5q-51 0 -92.5 -19t-71.5 -53.5t-46 -81.5t-16 -102zM451 932h120l-146 -164h-76z" />
    <glyph glyph-name="oslashacute" unicode="&#x1ff;" horiz-adv-x="575" 
d="M103 60q-65 68 -65 184q0 58 18.5 105.5t51.5 81t79 51.5t100 18q43 0 79.5 -10t65.5 -29l32 39h70l-61 -74q30 -33 47 -79t17 -103q0 -59 -18.5 -106t-51.5 -80.5t-79 -51.5t-101 -18q-84 0 -142 38l-31 -38h-69zM150 244q0 -59 23 -99l196 239q-34 29 -82 29
q-62 0 -99.5 -46t-37.5 -123zM424 244q0 57 -21 96l-195 -238q31 -27 79 -27q62 0 99.5 46t37.5 123zM351 732h120l-146 -164h-76z" />
    <glyph glyph-name="uni0218" unicode="&#x218;" horiz-adv-x="658" 
d="M165 204q0 -60 42.5 -94t117.5 -34q79 0 121.5 30.5t42.5 85.5q0 25 -11.5 42t-31.5 29t-46.5 19t-57.5 13l-45 8q-42 7 -83.5 18t-74.5 32t-53.5 55t-20.5 88q0 44 18.5 81.5t52 64.5t82 42.5t108.5 15.5q58 0 105.5 -14t81.5 -40t52.5 -64t18.5 -87h-111q0 59 -42 88
t-105 29q-32 0 -59 -6.5t-47 -20t-31.5 -33t-11.5 -45.5t12.5 -43.5t34 -29t51 -18.5t62.5 -13l45 -8q41 -7 81 -18.5t71.5 -33t51 -55.5t19.5 -87q0 -48 -18.5 -87t-54.5 -67t-88 -43.5t-119 -15.5q-132 0 -202 57.5t-70 158.5h112zM377 -64v-83l-43 -106h-47l30 94h-43v95
h103z" />
    <glyph glyph-name="uni0219" unicode="&#x219;" horiz-adv-x="509" 
d="M141 146q0 -22 9 -37.5t24 -25.5t34.5 -14.5t39.5 -4.5q55 0 80 18t25 54q0 27 -16.5 40.5t-53.5 19.5l-90 15q-27 4 -53 12.5t-46 24t-32.5 39t-12.5 58.5q0 37 15 66t42 48.5t63.5 30t79.5 10.5q42 0 78.5 -10t63.5 -29.5t42 -49t15 -68.5h-101q0 38 -27 59.5t-71 21.5
q-43 0 -69.5 -18t-26.5 -50q0 -25 17 -38.5t61 -21.5l90 -15q28 -5 53 -13.5t44.5 -24t31 -40t11.5 -60.5q0 -39 -15.5 -68.5t-43.5 -48.5t-67 -28.5t-87 -9.5q-97 0 -153.5 40t-56.5 118h103zM300 -64v-83l-43 -106h-47l30 94h-43v95h103z" />
    <glyph glyph-name="uni021A" unicode="&#x21a;" horiz-adv-x="602" 
d="M8 688h586v-95h-237v-593h-113v593h-236v95zM354 -64v-83l-43 -106h-47l30 94h-43v95h103z" />
    <glyph glyph-name="uni021B" unicode="&#x21b;" horiz-adv-x="345" 
d="M88 404h-92v84h92v148h108v-148h125v-84h-125v-248q0 -35 15 -50.5t51 -15.5h59v-90h-73q-84 0 -122 35t-38 115v254zM251 -64v-83l-43 -106h-47l30 94h-43v95h103z" />
    <glyph glyph-name="dotlessj" unicode="&#x237;" horiz-adv-x="255" 
d="M73 488h108v-559q0 -34 -7.5 -61.5t-25.5 -47t-47.5 -30t-72.5 -10.5h-37v90h25q32 0 44.5 16.5t12.5 53.5v548z" />
    <glyph glyph-name="circumflex" unicode="&#x2c6;" horiz-adv-x="573" 
d="M242 732h89l128 -164h-95l-78 106l-77 -106h-95z" />
    <glyph glyph-name="caron" unicode="&#x2c7;" horiz-adv-x="573" 
d="M114 732h95l77 -106l78 106h95l-128 -164h-89z" />
    <glyph glyph-name="uni02C9" unicode="&#x2c9;" horiz-adv-x="573" 
d="M141 689h287v-78h-287v78z" />
    <glyph glyph-name="breve" unicode="&#x2d8;" horiz-adv-x="573" 
d="M286 577q-25 0 -50 7.5t-46 24.5t-35 45t-18 69h63q6 -38 27.5 -59.5t58.5 -21.5q38 0 59.5 21.5t27.5 59.5h63q-4 -41 -18 -69t-35 -45t-46.5 -24.5t-50.5 -7.5z" />
    <glyph glyph-name="dotaccent" unicode="&#x2d9;" horiz-adv-x="573" 
d="M235 704h103v-104h-103v104z" />
    <glyph glyph-name="ring" unicode="&#x2da;" horiz-adv-x="573" 
d="M286 559q-21 0 -39.5 7.5t-33 20.5t-22.5 31t-8 40t8.5 40.5t22.5 31.5t32.5 20t39.5 7t40 -7t33 -20t22.5 -31.5t8.5 -40.5q0 -44 -30.5 -71.5t-73.5 -27.5zM286 608q21 0 36 14.5t15 35.5q0 22 -15 36t-36 14q-20 0 -35 -14t-15 -36q0 -21 15 -35.5t35 -14.5z" />
    <glyph glyph-name="ogonek" unicode="&#x2db;" horiz-adv-x="573" 
d="M303 -220q-51 0 -78.5 21t-27.5 65q0 37 21 66.5t58 67.5h65q-32 -36 -50.5 -64t-18.5 -50q0 -39 49 -39h20v-67h-38z" />
    <glyph glyph-name="tilde" unicode="&#x2dc;" horiz-adv-x="573" 
d="M117 591q2 52 27 84.5t73 32.5q22 0 42 -7t38 -16t33.5 -16t29.5 -7q20 0 29.5 15.5t12.5 32.5h54q-2 -52 -27 -84.5t-73 -32.5q-22 0 -42 7t-38 16t-34 16t-29 7q-20 0 -30 -15.5t-12 -32.5h-54z" />
    <glyph glyph-name="hungarumlaut" unicode="&#x2dd;" horiz-adv-x="573" 
d="M444 732h119l-146 -164h-75zM254 732h120l-146 -164h-76z" />
    <glyph glyph-name="uni0326" unicode="&#x326;" horiz-adv-x="0" 
d="M-242 -64v-83l-43 -106h-47l30 94h-43v95h103z" />
    <glyph glyph-name="uni0394" unicode="&#x394;" horiz-adv-x="652" 
d="M264 688h124l244 -688h-611zM322 576l-165 -486h332l-163 486h-4z" />
    <glyph glyph-name="uni03A9" unicode="&#x3a9;" horiz-adv-x="696" 
d="M404 222q25 7 49.5 23t44.5 40.5t32.5 57t12.5 73.5q0 44 -14.5 80.5t-40 62t-61.5 39.5t-79 14t-79 -14t-61.5 -39.5t-40 -62t-14.5 -80.5q0 -41 12.5 -73.5t32.5 -57t44.5 -40.5t49.5 -23v-222h-236v86h141v85q-68 31 -111.5 94.5t-43.5 151.5q0 60 22 111.5t62 89.5
t96.5 60t125.5 22t125.5 -22t96.5 -60t62 -89.5t22 -111.5q0 -44 -11.5 -82t-32.5 -69t-49.5 -55t-61.5 -40v-85h141v-86h-236v222z" />
    <glyph glyph-name="uni03BC" unicode="&#x3bc;" horiz-adv-x="582" 
d="M168 11q6 -48 9 -84.5t3 -77.5v-69h-109v708h109v-282q0 -73 27 -101.5t76 -28.5q54 0 86.5 43t32.5 115v254h108v-488h-103v71h-4q-42 -83 -147 -83q-47 0 -85 23h-3z" />
    <glyph glyph-name="pi" unicode="&#x3c0;" horiz-adv-x="599" 
d="M79 488h441v-488h-109v400h-223v-400h-109v488z" />
    <glyph glyph-name="Wgrave" unicode="&#x1e80;" horiz-adv-x="957" 
d="M11 688h120l135 -568h4l149 568h126l151 -568h4l130 568h116l-177 -688h-141l-146 551h-4l-146 -551h-141zM297 932h120l102 -164h-76z" />
    <glyph glyph-name="wgrave" unicode="&#x1e81;" horiz-adv-x="750" 
d="M5 488h110l95 -379h4l105 379h115l106 -379h4l94 379h107l-141 -488h-126l-101 378h-4l-101 -378h-126zM192 732h120l102 -164h-76z" />
    <glyph glyph-name="Wacute" unicode="&#x1e82;" horiz-adv-x="957" 
d="M11 688h120l135 -568h4l149 568h126l151 -568h4l130 568h116l-177 -688h-141l-146 551h-4l-146 -551h-141zM544 932h120l-146 -164h-76z" />
    <glyph glyph-name="wacute" unicode="&#x1e83;" horiz-adv-x="750" 
d="M5 488h110l95 -379h4l105 379h115l106 -379h4l94 379h107l-141 -488h-126l-101 378h-4l-101 -378h-126zM439 732h120l-146 -164h-76z" />
    <glyph glyph-name="Wdieresis" unicode="&#x1e84;" horiz-adv-x="957" 
d="M11 688h120l135 -568h4l149 568h126l151 -568h4l130 568h116l-177 -688h-141l-146 551h-4l-146 -551h-141zM534 872h102v-104h-102v104zM324 872h103v-104h-103v104z" />
    <glyph glyph-name="wdieresis" unicode="&#x1e85;" horiz-adv-x="750" 
d="M5 488h110l95 -379h4l105 379h115l106 -379h4l94 379h107l-141 -488h-126l-101 378h-4l-101 -378h-126zM429 704h102v-104h-102v104zM219 704h103v-104h-103v104z" />
    <glyph glyph-name="Ygrave" unicode="&#x1ef2;" horiz-adv-x="637" 
d="M260 266l-249 422h128l178 -310h4l185 310h119l-252 -417v-271h-113v266zM135 932h120l102 -164h-76z" />
    <glyph glyph-name="ygrave" unicode="&#x1ef3;" horiz-adv-x="493" 
d="M4 488h118l127 -376h4l127 376h109l-201 -556q-11 -30 -26.5 -58.5t-38 -51t-53 -36.5t-69.5 -14h-54v89h32q84 0 118 95l15 44h-26zM63 732h120l102 -164h-76z" />
    <glyph glyph-name="uni2007" unicode="&#x2007;" horiz-adv-x="568" 
 />
    <glyph glyph-name="uni2008" unicode="&#x2008;" horiz-adv-x="267" 
 />
    <glyph glyph-name="uni200B" unicode="&#x200b;" horiz-adv-x="0" 
 />
    <glyph glyph-name="endash" unicode="&#x2013;" horiz-adv-x="556" 
d="M56 299h444v-94h-444v94z" />
    <glyph glyph-name="emdash" unicode="&#x2014;" horiz-adv-x="840" 
d="M56 299h728v-94h-728v94z" />
    <glyph glyph-name="quoteleft" unicode="&#x2018;" horiz-adv-x="255" 
d="M69 531l43 157h54l-30 -149h50v-118h-117v110z" />
    <glyph glyph-name="quoteright" unicode="&#x2019;" horiz-adv-x="255" 
d="M120 570h-51v118h117v-110l-43 -157h-54z" />
    <glyph glyph-name="quotesinglbase" unicode="&#x201a;" horiz-adv-x="255" 
d="M69 0v118h117v-110l-43 -157h-54l31 149h-51z" />
    <glyph glyph-name="quotedblleft" unicode="&#x201c;" horiz-adv-x="448" 
d="M69 531l43 157h54l-30 -149h50v-118h-117v110zM262 531l43 157h54l-30 -149h50v-118h-117v110z" />
    <glyph glyph-name="quotedblright" unicode="&#x201d;" horiz-adv-x="448" 
d="M120 570h-51v118h117v-110l-43 -157h-54zM313 570h-51v118h117v-110l-43 -157h-54z" />
    <glyph glyph-name="quotedblbase" unicode="&#x201e;" horiz-adv-x="448" 
d="M69 0v118h117v-110l-43 -157h-54l31 149h-51zM262 0v118h117v-110l-43 -157h-54l31 149h-51z" />
    <glyph glyph-name="dagger" unicode="&#x2020;" horiz-adv-x="455" 
d="M44 520h136v168h95v-168h136v-82h-136v-438h-95v438h-136v82z" />
    <glyph glyph-name="daggerdbl" unicode="&#x2021;" horiz-adv-x="455" 
d="M44 526h136v162h95v-162h136v-83h-136v-202h136v-83h-136v-158h-95v158h-136v83h136v202h-136v83z" />
    <glyph glyph-name="bullet" unicode="&#x2022;" horiz-adv-x="488" 
d="M244 80q-36 0 -67.5 13t-55 36.5t-36.5 55t-13 67.5t13 67.5t36.5 55t55 36.5t67.5 13t67.5 -13t55 -36.5t36.5 -55t13 -67.5t-13 -67.5t-36.5 -55t-55 -36.5t-67.5 -13z" />
    <glyph glyph-name="ellipsis" unicode="&#x2026;" horiz-adv-x="813" 
d="M619 122h122v-122h-122v122zM346 122h122v-122h-122v122zM72 122h123v-122h-123v122z" />
    <glyph glyph-name="perthousand" unicode="&#x2030;" horiz-adv-x="1152" 
d="M180 336q-40 0 -69 14t-48 38t-28.5 57t-9.5 71t9.5 71t28.5 57t48 38t69 14t69 -14t48 -38t28 -57t9 -71t-9 -71t-28 -57t-48 -38t-69 -14zM180 404q33 0 50 29t17 83t-16.5 83t-50.5 29t-51 -29t-17 -83t17.5 -83t50.5 -29zM533 700h75l-348 -712h-75zM614 -8
q-40 0 -69 14t-48 38t-28.5 57t-9.5 71t9.5 71t28.5 57t48 38t69 14t69 -14t48 -38t28 -57t9 -71t-9 -71t-28 -57t-48 -38t-69 -14zM614 60q33 0 50 29t17 83t-16.5 83t-50.5 29t-51 -29t-17 -83t17.5 -83t50.5 -29zM973 -8q-40 0 -69 14t-48 38t-28.5 57t-9.5 71t9.5 71
t28.5 57t48 38t69 14t69 -14t48 -38t28 -57t9 -71t-9 -71t-28 -57t-48 -38t-69 -14zM973 60q33 0 50 29t17 83t-16.5 83t-50.5 29t-51 -29t-17 -83t17.5 -83t50.5 -29z" />
    <glyph glyph-name="guilsinglleft" unicode="&#x2039;" horiz-adv-x="333" 
d="M50 252l144 204h89l-114 -204l114 -204h-89z" />
    <glyph glyph-name="guilsinglright" unicode="&#x203a;" horiz-adv-x="333" 
d="M164 252l-114 204h89l144 -204l-144 -204h-89z" />
    <glyph glyph-name="fraction" unicode="&#x2044;" horiz-adv-x="75" 
d="M174 700h75l-348 -712h-75z" />
    <glyph glyph-name="uni2070" unicode="&#x2070;" 
d="M180 488q-40 0 -69 14t-48 38t-28.5 57t-9.5 71t9.5 71t28.5 57t48 38t69 14t69 -14t48 -38t28 -57t9 -71t-9 -71t-28 -57t-48 -38t-69 -14zM180 556q33 0 50 29t17 83t-16.5 83t-50.5 29t-51 -29t-17 -83t17.5 -83t50.5 -29z" />
    <glyph glyph-name="uni2071" unicode="&#x2071;" horiz-adv-x="183" 
d="M43 1012h97v-89h-97v89zM46 840h91v-344h-91v344z" />
    <glyph glyph-name="uni2074" unicode="&#x2074;" 
d="M22 609l188 232h75v-217h47v-67h-47v-61h-88v61h-175v52zM197 624v107l-85 -107h85z" />
    <glyph glyph-name="uni2075" unicode="&#x2075;" 
d="M129 588q3 -16 16 -28.5t38 -12.5q23 0 39.5 14.5t16.5 43.5t-16.5 41.5t-39.5 12.5q-37 0 -52 -31l-82 7l13 205h244v-70h-169l-7 -78h4q8 12 27 19t42 7q25 0 47.5 -6t39 -19.5t26.5 -34.5t10 -52q0 -29 -11 -51t-30.5 -37t-45 -22.5t-53.5 -7.5q-72 0 -105 28.5
t-38 71.5h86z" />
    <glyph glyph-name="uni2076" unicode="&#x2076;" 
d="M232 745q-2 18 -14 30t-32 12q-12 0 -23 -4t-19.5 -15.5t-14.5 -31t-7 -50.5v-1q11 14 34 23.5t49 9.5q24 0 46 -6t38.5 -19.5t26 -34.5t9.5 -52q0 -29 -11 -51t-30 -37t-44.5 -22.5t-53.5 -7.5q-33 0 -61 9t-48 29t-31.5 53t-11.5 81q0 52 11.5 88t32 58t48.5 32t61 10
q65 0 94.5 -29t32.5 -74h-82zM183 659q-23 0 -39.5 -13t-16.5 -41v-1q0 -29 16.5 -43t39.5 -14t39.5 14.5t16.5 43.5t-16.5 41.5t-39.5 12.5z" />
    <glyph glyph-name="uni2077" unicode="&#x2077;" 
d="M225 765h-193v75h297v-54l-160 -290h-94z" />
    <glyph glyph-name="uni2078" unicode="&#x2078;" 
d="M28 587q0 34 19 56t49 28v4q-26 6 -41.5 26.5t-15.5 49.5q0 43 37.5 70t103.5 27q65 0 102.5 -27t37.5 -70q0 -29 -15.5 -49.5t-41.5 -26.5v-4q30 -6 49 -28t19 -56q0 -48 -39.5 -73.5t-111.5 -25.5t-112 25.5t-40 73.5zM117 596q0 -24 17.5 -36t45.5 -12q27 0 45 12
t18 36q0 25 -18 37t-45 12q-28 0 -45.5 -12t-17.5 -37zM124 745q0 -22 15 -33t41 -11t41 11t15 33q0 21 -15 32t-41 11t-41 -11t-15 -32z" />
    <glyph glyph-name="uni2079" unicode="&#x2079;" 
d="M123 591q1 -18 13.5 -30t37.5 -12q12 0 22.5 4t18 15.5t12.5 31t6 49.5v1q-8 -14 -30.5 -23.5t-48.5 -9.5t-48.5 6t-39 19.5t-26.5 34t-10 49.5q0 28 11 51t30 38.5t44.5 24t54.5 8.5q33 0 60.5 -9t48 -29t31.5 -53t11 -81q0 -53 -10.5 -88.5t-30 -58t-46.5 -32t-60 -9.5
q-68 0 -99 29t-34 74h82zM172 677q21 0 38.5 12.5t17.5 41.5v1q0 29 -16.5 43t-39.5 14q-22 0 -39 -14.5t-17 -43.5t17 -41.5t39 -12.5z" />
    <glyph glyph-name="uni207A" unicode="&#x207a;" 
d="M44 704h100v100h71v-100h100v-68h-100v-100h-71v100h-100v68z" />
    <glyph glyph-name="uni207B" unicode="&#x207b;" 
d="M44 704h271v-68h-271v68z" />
    <glyph glyph-name="uni207C" unicode="&#x207c;" 
d="M44 766h271v-68h-271v68zM44 641h271v-67h-271v67z" />
    <glyph glyph-name="uni207D" unicode="&#x207d;" horiz-adv-x="230" 
d="M140 424q-14 17 -28.5 43t-26 57.5t-18.5 68t-7 75.5t7 75.5t18.5 68t26 57.5t28.5 43h82q-13 -16 -27 -41.5t-26 -57.5t-19.5 -69t-7.5 -76t7.5 -76t19.5 -69t26 -57.5t27 -41.5h-82z" />
    <glyph glyph-name="uni207E" unicode="&#x207e;" horiz-adv-x="230" 
d="M8 424q13 16 27 41.5t26 57.5t19.5 69t7.5 76t-7.5 76t-19.5 69t-26 57.5t-27 41.5h82q14 -17 28.5 -43t26 -57.5t18.5 -68t7 -75.5t-7 -75.5t-18.5 -68t-26 -57.5t-28.5 -43h-82z" />
    <glyph glyph-name="uni207F" unicode="&#x207f;" horiz-adv-x="419" 
d="M49 840h87v-51h4q14 32 42 46t66 14q25 0 48 -7.5t40 -23.5t27.5 -42t10.5 -63v-217h-91v196q0 47 -18.5 65t-48.5 18q-32 0 -54 -24.5t-22 -72.5v-182h-91v344z" />
    <glyph glyph-name="uni2080" unicode="&#x2080;" 
d="M180 -159q-40 0 -69 14t-48 38t-28.5 57t-9.5 71t9.5 71t28.5 57t48 38t69 14t69 -14t48 -38t28 -57t9 -71t-9 -71t-28 -57t-48 -38t-69 -14zM180 -91q33 0 50 29t17 83t-16.5 83t-50.5 29t-51 -29t-17 -83t17.5 -83t50.5 -29z" />
    <glyph glyph-name="uni2081" unicode="&#x2081;" 
d="M39 107l145 86h54v-274h92v-70h-279v70h98v170l-74 -43z" />
    <glyph glyph-name="uni2082" unicode="&#x2082;" 
d="M30 -151q0 40 10 68t26.5 48t37 33.5t42.5 24.5l21 10q31 14 50 28t19 31q0 43 -55 43q-28 0 -44.5 -15t-18.5 -44h-84q1 33 13.5 57t33 39t46.5 22t55 7q64 0 102.5 -27.5t38.5 -78.5q0 -24 -8.5 -41.5t-23.5 -31t-35 -24.5t-42 -21l-21 -10q-26 -12 -42.5 -25
t-16.5 -23h188v-70h-292z" />
    <glyph glyph-name="uni2083" unicode="&#x2083;" 
d="M117 -46q0 -26 17 -38.5t46 -12.5q27 0 45 11t18 36q0 24 -18 36t-47 12h-24v56h24q27 0 42.5 11t15.5 33q0 20 -15 30.5t-41 10.5t-41 -12.5t-15 -34.5h-82q1 54 39.5 81.5t103.5 27.5q63 0 99 -27t36 -70q0 -29 -15.5 -50t-41.5 -27q30 -7 49 -30t19 -55
q0 -50 -39.5 -75.5t-111.5 -25.5q-66 0 -105.5 26t-40.5 87h83z" />
    <glyph glyph-name="uni2084" unicode="&#x2084;" 
d="M22 -38l188 232h75v-217h47v-67h-47v-61h-88v61h-175v52zM197 -23v107l-85 -107h85z" />
    <glyph glyph-name="uni2085" unicode="&#x2085;" 
d="M129 -59q3 -16 16 -28.5t38 -12.5q23 0 39.5 14.5t16.5 43.5t-16.5 41.5t-39.5 12.5q-37 0 -52 -31l-82 7l13 205h244v-70h-169l-7 -78h4q8 12 27 19t42 7q25 0 47.5 -6t39 -19.5t26.5 -34.5t10 -52q0 -29 -11 -51t-30.5 -37t-45 -22.5t-53.5 -7.5q-72 0 -105 28.5
t-38 71.5h86z" />
    <glyph glyph-name="uni2086" unicode="&#x2086;" 
d="M232 98q-2 18 -14 30t-32 12q-12 0 -23 -4t-19.5 -15.5t-14.5 -31t-7 -50.5v-1q11 14 34 23.5t49 9.5q24 0 46 -6t38.5 -19.5t26 -34.5t9.5 -52q0 -29 -11 -51t-30 -37t-44.5 -22.5t-53.5 -7.5q-33 0 -61 9t-48 29t-31.5 53t-11.5 81q0 52 11.5 88t32 58t48.5 32t61 10
q65 0 94.5 -29t32.5 -74h-82zM183 12q-23 0 -39.5 -13t-16.5 -41v-1q0 -29 16.5 -43t39.5 -14t39.5 14.5t16.5 43.5t-16.5 41.5t-39.5 12.5z" />
    <glyph glyph-name="uni2087" unicode="&#x2087;" 
d="M225 118h-193v75h297v-54l-160 -290h-94z" />
    <glyph glyph-name="uni2088" unicode="&#x2088;" 
d="M28 -60q0 34 19 56t49 28v4q-26 6 -41.5 26.5t-15.5 49.5q0 43 37.5 70t103.5 27q65 0 102.5 -27t37.5 -70q0 -29 -15.5 -49.5t-41.5 -26.5v-4q30 -6 49 -28t19 -56q0 -48 -39.5 -73.5t-111.5 -25.5t-112 25.5t-40 73.5zM117 -51q0 -24 17.5 -36t45.5 -12q27 0 45 12
t18 36q0 25 -18 37t-45 12q-28 0 -45.5 -12t-17.5 -37zM124 98q0 -22 15 -33t41 -11t41 11t15 33q0 21 -15 32t-41 11t-41 -11t-15 -32z" />
    <glyph glyph-name="uni2089" unicode="&#x2089;" 
d="M123 -56q1 -18 13.5 -30t37.5 -12q12 0 22.5 4t18 15.5t12.5 31t6 49.5v1q-8 -14 -30.5 -23.5t-48.5 -9.5t-48.5 6t-39 19.5t-26.5 34t-10 49.5q0 28 11 51t30 38.5t44.5 24t54.5 8.5q33 0 60.5 -9t48 -29t31.5 -53t11 -81q0 -53 -10.5 -88.5t-30 -58t-46.5 -32t-60 -9.5
q-68 0 -99 29t-34 74h82zM172 30q21 0 38.5 12.5t17.5 41.5v1q0 29 -16.5 43t-39.5 14q-22 0 -39 -14.5t-17 -43.5t17 -41.5t39 -12.5z" />
    <glyph glyph-name="uni208A" unicode="&#x208a;" 
d="M44 57h100v100h71v-100h100v-68h-100v-100h-71v100h-100v68z" />
    <glyph glyph-name="uni208B" unicode="&#x208b;" 
d="M44 57h271v-68h-271v68z" />
    <glyph glyph-name="uni208C" unicode="&#x208c;" 
d="M44 119h271v-68h-271v68zM44 -6h271v-67h-271v67z" />
    <glyph glyph-name="uni208D" unicode="&#x208d;" horiz-adv-x="230" 
d="M140 -223q-14 17 -28.5 43t-26 57.5t-18.5 68t-7 75.5t7 75.5t18.5 68t26 57.5t28.5 43h82q-13 -16 -27 -41.5t-26 -57.5t-19.5 -69t-7.5 -76t7.5 -76t19.5 -69t26 -57.5t27 -41.5h-82z" />
    <glyph glyph-name="uni208E" unicode="&#x208e;" horiz-adv-x="230" 
d="M8 -223q13 16 27 41.5t26 57.5t19.5 69t7.5 76t-7.5 76t-19.5 69t-26 57.5t-27 41.5h82q14 -17 28.5 -43t26 -57.5t18.5 -68t7 -75.5t-7 -75.5t-18.5 -68t-26 -57.5t-28.5 -43h-82z" />
    <glyph glyph-name="uni2090" unicode="&#x2090;" horiz-adv-x="396" 
d="M35 -61q0 48 27.5 73.5t87.5 33.5l65 8q28 4 36 9t8 19q0 22 -14 38t-45 16q-27 0 -45 -13t-20 -42h-85q2 32 15 55t33 37.5t46.5 21t55.5 6.5q72 0 111 -31t39 -96v-225h-88v41h-3q-14 -23 -40.5 -36t-68.5 -13q-56 0 -85.5 27t-29.5 71zM259 16q-9 -13 -33 -16l-50 -6
q-28 -4 -39 -16.5t-11 -29.5q0 -21 14 -31t39 -10q32 0 56 19.5t24 63.5v26z" />
    <glyph glyph-name="uni2091" unicode="&#x2091;" horiz-adv-x="408" 
d="M31 20q0 40 13 73.5t36.5 57.5t56 37t71.5 13q76 0 122.5 -45t46.5 -128v-24h-253q4 -48 27 -70.5t61 -22.5q34 0 50.5 13t21.5 31h86q-8 -49 -50 -81t-111 -32q-82 0 -130 46.5t-48 131.5zM208 132q-66 0 -81 -71h154q-9 71 -73 71z" />
    <glyph glyph-name="uni2092" unicode="&#x2092;" horiz-adv-x="424" 
d="M31 21q0 41 13 74.5t36.5 57t57 36.5t74.5 13q85 0 133 -49t48 -132t-49.5 -131.5t-131.5 -48.5q-85 0 -133 48.5t-48 131.5zM125 21q0 -49 23.5 -79t63.5 -30t63.5 30t23.5 79q0 50 -23.5 79.5t-63.5 29.5t-63.5 -29.5t-23.5 -79.5z" />
    <glyph glyph-name="uni2093" unicode="&#x2093;" horiz-adv-x="350" 
d="M127 20l-120 173h103l67 -102l69 102h98l-122 -169l124 -175h-103l-70 106l-72 -106h-97z" />
    <glyph glyph-name="uni2095" unicode="&#x2095;" horiz-adv-x="419" 
d="M49 365h91v-109q0 -17 -0.5 -46.5t-3.5 -67.5h4q14 32 42 46t66 14q25 0 48 -7.5t40 -23.5t27.5 -42t10.5 -63v-217h-91v196q0 47 -18.5 65t-48.5 18q-34 0 -55 -26t-21 -72v-181h-91v516z" />
    <glyph glyph-name="uni2096" unicode="&#x2096;" horiz-adv-x="387" 
d="M49 365h92v-311l126 139h103l-128 -137l141 -207h-105l-96 142l-41 -44v-98h-92v516z" />
    <glyph glyph-name="uni2097" unicode="&#x2097;" horiz-adv-x="190" 
d="M49 365h91v-516h-91v516z" />
    <glyph glyph-name="uni2098" unicode="&#x2098;" horiz-adv-x="635" 
d="M49 193h87v-51h4q15 32 40.5 46t63.5 14q35 0 64.5 -16t44.5 -52q18 38 47.5 53t68.5 15q24 0 45.5 -7t38.5 -22.5t27 -40.5t10 -62v-221h-91v201q0 43 -16 60.5t-45 17.5q-32 0 -52.5 -24.5t-20.5 -72.5v-182h-91v200q0 43 -16 61t-45 18t-51 -23t-22 -74v-182h-91v344z
" />
    <glyph glyph-name="uni2099" unicode="&#x2099;" horiz-adv-x="419" 
d="M49 193h87v-51h4q14 32 42 46t66 14q25 0 48 -7.5t40 -23.5t27.5 -42t10.5 -63v-217h-91v196q0 47 -18.5 65t-48.5 18q-32 0 -54 -24.5t-22 -72.5v-182h-91v344z" />
    <glyph glyph-name="uni209A" unicode="&#x209a;" horiz-adv-x="435" 
d="M140 -306h-91v499h87v-53h4q14 32 43.5 47t71.5 15q30 0 57.5 -11.5t47.5 -34t32 -55.5t12 -77t-13 -78.5t-34.5 -57.5t-49.5 -35t-59 -12q-80 0 -108 61h-4q3 -39 3.5 -66.5t0.5 -45.5v-96zM310 24q0 50 -23 78t-61 28t-61.5 -28t-24.5 -76v-5q0 -51 24 -80t62 -29
t61 30.5t23 81.5z" />
    <glyph glyph-name="uni209B" unicode="&#x209b;" horiz-adv-x="379" 
d="M115 -46q2 -26 22.5 -39t52.5 -13q30 0 48.5 10t18.5 30t-15.5 27t-38.5 12l-60 12q-49 8 -77.5 30.5t-28.5 69.5q0 53 43 81t110 28q65 0 106.5 -26.5t44.5 -80.5h-85q-2 24 -20 34.5t-44 10.5q-31 0 -48 -9.5t-17 -27.5q0 -17 12.5 -25t40.5 -13l61 -12q22 -4 42 -10.5
t34 -18t22.5 -28.5t8.5 -43q0 -28 -12 -49t-33.5 -35t-50.5 -21t-63 -7q-69 0 -112 27t-47 86h85z" />
    <glyph glyph-name="uni209C" unicode="&#x209c;" horiz-adv-x="261" 
d="M70 120h-62v73h62v104h92v-104h82v-73h-82v-143q0 -27 9 -39t35 -12h38v-77h-49q-69 0 -97 27t-28 91v153z" />
    <glyph glyph-name="Euro" unicode="&#x20ac;" horiz-adv-x="568" 
d="M30 450h53q9 55 28.5 101t50.5 79t73.5 51.5t97.5 18.5q49 0 86.5 -14.5t64.5 -41.5t44 -64.5t25 -82.5h-103q-14 57 -40 85t-74 28q-57 0 -92 -41.5t-49 -118.5h194l-18 -61h-183v-45v-36h179l-18 -62h-155q12 -81 46 -124.5t93 -43.5q44 0 70 24t41 73h104
q-19 -87 -71.5 -137t-146.5 -50q-56 0 -98.5 19t-73 53.5t-49 81.5t-27.5 104h-89l18 62h65q-1 8 -1 17.5v17.5v23.5t2 22.5h-65z" />
    <glyph glyph-name="uni2113" unicode="&#x2113;" horiz-adv-x="412" 
d="M129 26q-21 23 -29.5 57.5t-8.5 81.5v74l-2 1l-59 -41l-12 24l73 61v136q0 54 5 93.5t14.5 68t23 48.5t30.5 36q20 18 41 25.5t44 7.5q48 0 74.5 -34t26.5 -94q0 -50 -19 -92t-47 -76.5t-59 -62t-56 -46.5v-109q0 -41 7.5 -67.5t20 -42t29 -22t34.5 -6.5q35 0 63.5 21
t54.5 59l22 -16q-24 -57 -67 -90t-102 -33q-35 0 -60 10t-42 28zM171 342q23 20 45 45t39 54t27 62t10 69q0 46 -14.5 68.5t-40.5 22.5q-32 0 -50 -40.5t-18 -138.5z" />
    <glyph glyph-name="uni2116" unicode="&#x2116;" horiz-adv-x="1213" 
d="M81 688h107l360 -498h4l-4 498h113v-688h-107l-360 496h-4l4 -496h-113v688zM792 516q0 41 13 74.5t37 57t57 36.5t74 13q85 0 133 -49t48 -132t-49.5 -131.5t-131.5 -48.5q-85 0 -133 48.5t-48 131.5zM887 516q0 -49 23 -79t63 -30q41 0 64 30t23 79q0 50 -23 79.5
t-64 29.5q-40 0 -63 -29.5t-23 -79.5zM792 70h362v-70h-362v70zM792 245h362v-70h-362v70z" />
    <glyph glyph-name="trademark" unicode="&#x2122;" horiz-adv-x="816" 
d="M363 688h114l91 -235h4l91 235h115v-344h-82l4 241h-4l-93 -241h-65l-93 241h-4l4 -241h-82v344zM4 688h314v-69h-115v-275h-82v275h-117v69z" />
    <glyph glyph-name="Omega" unicode="&#x2126;" horiz-adv-x="696" 
d="M404 222q25 7 49.5 23t44.5 40.5t32.5 57t12.5 73.5q0 44 -14.5 80.5t-40 62t-61.5 39.5t-79 14t-79 -14t-61.5 -39.5t-40 -62t-14.5 -80.5q0 -41 12.5 -73.5t32.5 -57t44.5 -40.5t49.5 -23v-222h-236v86h141v85q-68 31 -111.5 94.5t-43.5 151.5q0 60 22 111.5t62 89.5
t96.5 60t125.5 22t125.5 -22t96.5 -60t62 -89.5t22 -111.5q0 -44 -11.5 -82t-32.5 -69t-49.5 -55t-61.5 -40v-85h141v-86h-236v222z" />
    <glyph glyph-name="estimated" unicode="&#x212e;" horiz-adv-x="850" 
d="M184 113q45 -48 107.5 -75.5t135.5 -27.5q77 0 142.5 31t112.5 86h58q-54 -63 -136 -101t-178 -38q-82 0 -154.5 28t-126.5 76t-85 113t-31 139t31 139t85 113t126.5 76t154.5 28t154 -28t126 -76t85 -113t31 -139v-10h-641q-7 0 -7 -4v-194q0 -11 10 -23zM673 355
q4 0 4 6v193q0 14 -10 24q-46 47 -108 73.5t-132 26.5q-72 0 -134.5 -28t-107.5 -75q-11 -11 -11 -26v-188q0 -6 7 -6h492z" />
    <glyph glyph-name="onethird" unicode="&#x2153;" horiz-adv-x="793" 
d="M39 602l145 86h54v-274h92v-70h-279v70h98v170l-74 -43zM553 700h75l-348 -712h-75zM551 105q0 -26 17 -38.5t46 -12.5q27 0 45 11t18 36q0 24 -18 36t-47 12h-24v56h24q27 0 42.5 11t15.5 33q0 20 -15 30.5t-41 10.5t-41 -12.5t-15 -34.5h-82q1 54 39.5 81.5t103.5 27.5
q63 0 99 -27t36 -70q0 -29 -15.5 -50t-41.5 -27q30 -7 49 -30t19 -55q0 -50 -39.5 -75.5t-111.5 -25.5q-66 0 -105.5 26t-40.5 87h83z" />
    <glyph glyph-name="twothirds" unicode="&#x2154;" horiz-adv-x="793" 
d="M30 344q0 40 10 68t26.5 48t37 33.5t42.5 24.5l21 10q31 14 50 28t19 31q0 43 -55 43q-28 0 -44.5 -15t-18.5 -44h-84q1 33 13.5 57t33 39t46.5 22t55 7q64 0 102.5 -27.5t38.5 -78.5q0 -24 -8.5 -41.5t-23.5 -31t-35 -24.5t-42 -21l-21 -10q-26 -12 -42.5 -25t-16.5 -23
h188v-70h-292zM553 700h75l-348 -712h-75zM551 105q0 -26 17 -38.5t46 -12.5q27 0 45 11t18 36q0 24 -18 36t-47 12h-24v56h24q27 0 42.5 11t15.5 33q0 20 -15 30.5t-41 10.5t-41 -12.5t-15 -34.5h-82q1 54 39.5 81.5t103.5 27.5q63 0 99 -27t36 -70q0 -29 -15.5 -50
t-41.5 -27q30 -7 49 -30t19 -55q0 -50 -39.5 -75.5t-111.5 -25.5q-66 0 -105.5 26t-40.5 87h83z" />
    <glyph glyph-name="uni2155" unicode="&#x2155;" horiz-adv-x="793" 
d="M39 602l145 86h54v-274h92v-70h-279v70h98v170l-74 -43zM549 700h75l-348 -712h-75zM563 92q3 -16 16 -28.5t38 -12.5q23 0 39.5 14.5t16.5 43.5t-16.5 41.5t-39.5 12.5q-37 0 -52 -31l-82 7l13 205h244v-70h-169l-7 -78h4q8 12 27 19t42 7q25 0 47.5 -6t39 -19.5
t26.5 -34.5t10 -52q0 -29 -11 -51t-30.5 -37t-45 -22.5t-53.5 -7.5q-72 0 -105 28.5t-38 71.5h86z" />
    <glyph glyph-name="uni2156" unicode="&#x2156;" horiz-adv-x="793" 
d="M30 344q0 40 10 68t26.5 48t37 33.5t42.5 24.5l21 10q31 14 50 28t19 31q0 43 -55 43q-28 0 -44.5 -15t-18.5 -44h-84q1 33 13.5 57t33 39t46.5 22t55 7q64 0 102.5 -27.5t38.5 -78.5q0 -24 -8.5 -41.5t-23.5 -31t-35 -24.5t-42 -21l-21 -10q-26 -12 -42.5 -25t-16.5 -23
h188v-70h-292zM545 700h75l-348 -712h-75zM563 92q3 -16 16 -28.5t38 -12.5q23 0 39.5 14.5t16.5 43.5t-16.5 41.5t-39.5 12.5q-37 0 -52 -31l-82 7l13 205h244v-70h-169l-7 -78h4q8 12 27 19t42 7q25 0 47.5 -6t39 -19.5t26.5 -34.5t10 -52q0 -29 -11 -51t-30.5 -37
t-45 -22.5t-53.5 -7.5q-72 0 -105 28.5t-38 71.5h86z" />
    <glyph glyph-name="uni2157" unicode="&#x2157;" horiz-adv-x="793" 
d="M117 449q0 -26 17 -38.5t46 -12.5q27 0 45 11t18 36q0 24 -18 36t-47 12h-24v56h24q27 0 42.5 11t15.5 33q0 20 -15 30.5t-41 10.5t-41 -12.5t-15 -34.5h-82q1 54 39.5 81.5t103.5 27.5q63 0 99 -27t36 -70q0 -29 -15.5 -50t-41.5 -27q30 -7 49 -30t19 -55
q0 -50 -39.5 -75.5t-111.5 -25.5q-66 0 -105.5 26t-40.5 87h83zM533 700h75l-348 -712h-75zM563 92q3 -16 16 -28.5t38 -12.5q23 0 39.5 14.5t16.5 43.5t-16.5 41.5t-39.5 12.5q-37 0 -52 -31l-82 7l13 205h244v-70h-169l-7 -78h4q8 12 27 19t42 7q25 0 47.5 -6t39 -19.5
t26.5 -34.5t10 -52q0 -29 -11 -51t-30.5 -37t-45 -22.5t-53.5 -7.5q-72 0 -105 28.5t-38 71.5h86z" />
    <glyph glyph-name="uni2158" unicode="&#x2158;" horiz-adv-x="793" 
d="M22 457l188 232h75v-217h47v-67h-47v-61h-88v61h-175v52zM197 472v107l-85 -107h85zM533 700h75l-348 -712h-75zM563 92q3 -16 16 -28.5t38 -12.5q23 0 39.5 14.5t16.5 43.5t-16.5 41.5t-39.5 12.5q-37 0 -52 -31l-82 7l13 205h244v-70h-169l-7 -78h4q8 12 27 19t42 7
q25 0 47.5 -6t39 -19.5t26.5 -34.5t10 -52q0 -29 -11 -51t-30.5 -37t-45 -22.5t-53.5 -7.5q-72 0 -105 28.5t-38 71.5h86z" />
    <glyph glyph-name="uni2159" unicode="&#x2159;" horiz-adv-x="793" 
d="M39 602l145 86h54v-274h92v-70h-279v70h98v170l-74 -43zM553 700h75l-348 -712h-75zM666 249q-2 18 -14 30t-32 12q-12 0 -23 -4t-19.5 -15.5t-14.5 -31t-7 -50.5v-1q11 14 34 23.5t49 9.5q24 0 46 -6t38.5 -19.5t26 -34.5t9.5 -52q0 -29 -11 -51t-30 -37t-44.5 -22.5
t-53.5 -7.5q-33 0 -61 9t-48 29t-31.5 53t-11.5 81q0 52 11.5 88t32 58t48.5 32t61 10q65 0 94.5 -29t32.5 -74h-82zM617 163q-23 0 -39.5 -13t-16.5 -41v-1q0 -29 16.5 -43t39.5 -14t39.5 14.5t16.5 43.5t-16.5 41.5t-39.5 12.5z" />
    <glyph glyph-name="uni215A" unicode="&#x215a;" horiz-adv-x="793" 
d="M129 436q3 -16 16 -28.5t38 -12.5q23 0 39.5 14.5t16.5 43.5t-16.5 41.5t-39.5 12.5q-37 0 -52 -31l-82 7l13 205h244v-70h-169l-7 -78h4q8 12 27 19t42 7q25 0 47.5 -6t39 -19.5t26.5 -34.5t10 -52q0 -29 -11 -51t-30.5 -37t-45 -22.5t-53.5 -7.5q-72 0 -105 28.5
t-38 71.5h86zM533 700h75l-348 -712h-75zM666 249q-2 18 -14 30t-32 12q-12 0 -23 -4t-19.5 -15.5t-14.5 -31t-7 -50.5v-1q11 14 34 23.5t49 9.5q24 0 46 -6t38.5 -19.5t26 -34.5t9.5 -52q0 -29 -11 -51t-30 -37t-44.5 -22.5t-53.5 -7.5q-33 0 -61 9t-48 29t-31.5 53
t-11.5 81q0 52 11.5 88t32 58t48.5 32t61 10q65 0 94.5 -29t32.5 -74h-82zM617 163q-23 0 -39.5 -13t-16.5 -41v-1q0 -29 16.5 -43t39.5 -14t39.5 14.5t16.5 43.5t-16.5 41.5t-39.5 12.5z" />
    <glyph glyph-name="oneeighth" unicode="&#x215b;" horiz-adv-x="793" 
d="M39 602l145 86h54v-274h92v-70h-279v70h98v170l-74 -43zM553 700h75l-348 -712h-75zM462 91q0 34 19 56t49 28v4q-26 6 -41.5 26.5t-15.5 49.5q0 43 37.5 70t103.5 27q65 0 102.5 -27t37.5 -70q0 -29 -15.5 -49.5t-41.5 -26.5v-4q30 -6 49 -28t19 -56q0 -48 -39.5 -73.5
t-111.5 -25.5t-112 25.5t-40 73.5zM551 100q0 -24 17.5 -36t45.5 -12q27 0 45 12t18 36q0 25 -18 37t-45 12q-28 0 -45.5 -12t-17.5 -37zM558 249q0 -22 15 -33t41 -11t41 11t15 33q0 21 -15 32t-41 11t-41 -11t-15 -32z" />
    <glyph glyph-name="threeeighths" unicode="&#x215c;" horiz-adv-x="793" 
d="M117 449q0 -26 17 -38.5t46 -12.5q27 0 45 11t18 36q0 24 -18 36t-47 12h-24v56h24q27 0 42.5 11t15.5 33q0 20 -15 30.5t-41 10.5t-41 -12.5t-15 -34.5h-82q1 54 39.5 81.5t103.5 27.5q63 0 99 -27t36 -70q0 -29 -15.5 -50t-41.5 -27q30 -7 49 -30t19 -55
q0 -50 -39.5 -75.5t-111.5 -25.5q-66 0 -105.5 26t-40.5 87h83zM533 700h75l-348 -712h-75zM462 91q0 34 19 56t49 28v4q-26 6 -41.5 26.5t-15.5 49.5q0 43 37.5 70t103.5 27q65 0 102.5 -27t37.5 -70q0 -29 -15.5 -49.5t-41.5 -26.5v-4q30 -6 49 -28t19 -56
q0 -48 -39.5 -73.5t-111.5 -25.5t-112 25.5t-40 73.5zM551 100q0 -24 17.5 -36t45.5 -12q27 0 45 12t18 36q0 25 -18 37t-45 12q-28 0 -45.5 -12t-17.5 -37zM558 249q0 -22 15 -33t41 -11t41 11t15 33q0 21 -15 32t-41 11t-41 -11t-15 -32z" />
    <glyph glyph-name="fiveeighths" unicode="&#x215d;" horiz-adv-x="793" 
d="M129 436q3 -16 16 -28.5t38 -12.5q23 0 39.5 14.5t16.5 43.5t-16.5 41.5t-39.5 12.5q-37 0 -52 -31l-82 7l13 205h244v-70h-169l-7 -78h4q8 12 27 19t42 7q25 0 47.5 -6t39 -19.5t26.5 -34.5t10 -52q0 -29 -11 -51t-30.5 -37t-45 -22.5t-53.5 -7.5q-72 0 -105 28.5
t-38 71.5h86zM533 700h75l-348 -712h-75zM462 91q0 34 19 56t49 28v4q-26 6 -41.5 26.5t-15.5 49.5q0 43 37.5 70t103.5 27q65 0 102.5 -27t37.5 -70q0 -29 -15.5 -49.5t-41.5 -26.5v-4q30 -6 49 -28t19 -56q0 -48 -39.5 -73.5t-111.5 -25.5t-112 25.5t-40 73.5zM551 100
q0 -24 17.5 -36t45.5 -12q27 0 45 12t18 36q0 25 -18 37t-45 12q-28 0 -45.5 -12t-17.5 -37zM558 249q0 -22 15 -33t41 -11t41 11t15 33q0 21 -15 32t-41 11t-41 -11t-15 -32z" />
    <glyph glyph-name="seveneighths" unicode="&#x215e;" horiz-adv-x="793" 
d="M225 613h-193v75h297v-54l-160 -290h-94zM505 700h75l-348 -712h-75zM462 91q0 34 19 56t49 28v4q-26 6 -41.5 26.5t-15.5 49.5q0 43 37.5 70t103.5 27q65 0 102.5 -27t37.5 -70q0 -29 -15.5 -49.5t-41.5 -26.5v-4q30 -6 49 -28t19 -56q0 -48 -39.5 -73.5t-111.5 -25.5
t-112 25.5t-40 73.5zM551 100q0 -24 17.5 -36t45.5 -12q27 0 45 12t18 36q0 25 -18 37t-45 12q-28 0 -45.5 -12t-17.5 -37zM558 249q0 -22 15 -33t41 -11t41 11t15 33q0 21 -15 32t-41 11t-41 -11t-15 -32z" />
    <glyph glyph-name="arrowleft" unicode="&#x2190;" horiz-adv-x="660" 
d="M278 2l-250 250l250 250l57 -52l-163 -161q48 3 94 3.5t71 0.5h295v-82h-295q-25 0 -71 0.5t-94 3.5l163 -161z" />
    <glyph glyph-name="arrowup" unicode="&#x2191;" horiz-adv-x="660" 
d="M82 304l250 250l251 -250l-53 -57l-161 163q3 -48 3.5 -94.5t0.5 -70.5v-295h-82v295q0 24 0.5 70.5t3.5 94.5l-161 -163z" />
    <glyph glyph-name="arrowright" unicode="&#x2192;" horiz-adv-x="660" 
d="M325 54l162 161q-24 -2 -48 -2.5t-45.5 -1t-40 -0.5h-30.5h-295v82h295h30.5t40 -0.5t45.5 -1.5l48 -2l-162 161l57 52l250 -250l-250 -250z" />
    <glyph glyph-name="arrowdown" unicode="&#x2193;" horiz-adv-x="660" 
d="M580 200l-250 -250l-250 250l52 57l161 -163q-3 48 -3.5 94t-0.5 71v295h82v-295q0 -25 -0.5 -71t-3.5 -94l161 163z" />
    <glyph glyph-name="uni2196" unicode="&#x2196;" horiz-adv-x="660" 
d="M458 482v-75h-225l35.5 -32.5l33 -31.5l28.5 -28l22 -22l207 -208l-56 -60l-208 210l-22 21.5l-28.5 28.5l-32 34l-32.5 36v-227h-76v354h354z" />
    <glyph glyph-name="uni2197" unicode="&#x2197;" horiz-adv-x="660" 
d="M205 482h354v-354h-75v227l-33 -36l-32 -34t-28 -28.5l-22 -21.5l-208 -210l-57 60l208 208l21.5 22l28 28l33 31.5l35.5 32.5h-225v75z" />
    <glyph glyph-name="uni2198" unicode="&#x2198;" horiz-adv-x="660" 
d="M205 101h225q-37 32 -69 64l-49 50l-208 208l57 59l208 -209l22 -22l28 -28.5l32 -33.5l33 -36v226h75v-354h-354v76z" />
    <glyph glyph-name="uni2199" unicode="&#x2199;" horiz-adv-x="660" 
d="M458 101v-76h-354v354h76v-226l32.5 36l32 33.5l28.5 28.5l22 22l208 209l56 -59l-207 -208l-50 -50t-69 -64h225z" />
    <glyph glyph-name="partialdiff" unicode="&#x2202;" horiz-adv-x="568" 
d="M18 193q0 59 19.5 105t52.5 77.5t76.5 48t91.5 16.5q53 0 96 -21t60 -57q1 11 1.5 20.5t0.5 20.5q0 58 -10.5 98t-28 64.5t-40 35.5t-47.5 11q-54 0 -82 -28t-37 -71h-106q9 42 27.5 76t47 59t68 38.5t90.5 13.5q45 0 86 -16.5t72.5 -52t50.5 -92t19 -137.5
q0 -119 -25.5 -198.5t-67 -127.5t-95 -68t-108.5 -20q-42 0 -80.5 13.5t-68 40t-46.5 64.5t-17 87zM244 76q29 0 55 12t45.5 32.5t31 48t11.5 59.5q0 57 -31.5 90.5t-86.5 33.5q-29 0 -54.5 -10.5t-45 -30.5t-30.5 -49t-11 -66q0 -57 33 -88.5t83 -31.5z" />
    <glyph glyph-name="Delta" unicode="&#x2206;" horiz-adv-x="652" 
d="M264 688h124l244 -688h-611zM322 576l-165 -486h332l-163 486h-4z" />
    <glyph glyph-name="product" unicode="&#x220f;" horiz-adv-x="732" 
d="M87 688h558v-688h-108v598h-341v-598h-109v688z" />
    <glyph glyph-name="summation" unicode="&#x2211;" horiz-adv-x="539" 
d="M19 53l223 286l-215 289v60h476v-89h-331l191 -254l-202 -256h354v-89h-496v53z" />
    <glyph glyph-name="minus" unicode="&#x2212;" horiz-adv-x="568" 
d="M57 298h454v-88h-454v88z" />
    <glyph glyph-name="uni2215" unicode="&#x2215;" horiz-adv-x="75" 
d="M174 700h75l-348 -712h-75z" />
    <glyph glyph-name="uni2219" unicode="&#x2219;" horiz-adv-x="273" 
d="M72 314h129v-124h-129v124z" />
    <glyph glyph-name="radical" unicode="&#x221a;" horiz-adv-x="598" 
d="M27 380l154 49l120 -311h4l198 570h105l-243 -688h-120l-130 320l-88 -28v88z" />
    <glyph glyph-name="infinity" unicode="&#x221e;" horiz-adv-x="708" 
d="M190 88q-37 0 -67.5 12t-52 34t-33.5 52.5t-12 66.5t12 66.5t33.5 52.5t52 34t67.5 12q51 0 93.5 -29.5t72.5 -72.5q31 43 72 72.5t90 29.5q37 0 67 -12t52 -34t34 -52.5t12 -66.5t-12 -66.5t-34 -52.5t-52 -34t-67 -12q-51 0 -93.5 29t-72.5 72q-32 -43 -72.5 -72
t-89.5 -29zM187 168q19 0 36 8t32 20.5t27.5 27.5t22.5 29q-10 14 -22.5 29t-27.5 27.5t-32 20.5t-36 8q-36 0 -57 -25.5t-21 -59.5t21 -59.5t57 -25.5zM403 253q10 -14 22.5 -29t27.5 -27.5t32 -20.5t36 -8q36 0 57 25.5t21 59.5t-21 59.5t-57 25.5q-19 0 -36 -8t-32 -20.5
t-27.5 -27.5t-22.5 -29z" />
    <glyph glyph-name="integral" unicode="&#x222b;" horiz-adv-x="364" 
d="M56 -96q36 0 55 13t27 36t8 54t-2 68l-30 498q-3 53 1.5 99t24 80t57 53.5t98.5 19.5h40v-88h-29q-36 0 -55 -13t-27 -36t-8 -54t2 -68l30 -498q3 -52 -2 -98t-24.5 -80t-56.5 -54t-98 -20h-40v88h29z" />
    <glyph glyph-name="approxequal" unicode="&#x2248;" horiz-adv-x="568" 
d="M52 282q0 43 11 73.5t29.5 50.5t42.5 29.5t50 9.5q34 0 61 -11.5t50 -25l43.5 -25t41.5 -11.5q24 0 37 18t13 57h86q0 -42 -11 -73t-29 -51t-41.5 -29.5t-48.5 -9.5q-34 0 -61.5 12t-51 26l-44.5 26t-42 12q-50 0 -50 -78h-86zM52 64q0 42 11 73t29.5 51t42.5 29.5
t50 9.5q34 0 61 -11.5t50 -25l43.5 -25t41.5 -11.5q24 0 37 18t13 57h86q0 -43 -11 -73.5t-29 -50.5t-41.5 -29.5t-48.5 -9.5q-34 0 -61.5 12t-51 26l-44.5 26t-42 12q-50 0 -50 -78h-86z" />
    <glyph glyph-name="notequal" unicode="&#x2260;" horiz-adv-x="568" 
d="M56 404h261l74 138l70 -38l-54 -100h105v-88h-152l-66 -124h218v-88h-265l-74 -138l-70 38l53 100h-100v88h147l67 124h-214v88z" />
    <glyph glyph-name="lessequal" unicode="&#x2264;" horiz-adv-x="568" 
d="M72 413l424 175v-95l-318 -123l318 -124v-98l-424 176v89zM72 88h424v-88h-424v88z" />
    <glyph glyph-name="greaterequal" unicode="&#x2265;" horiz-adv-x="568" 
d="M496 323l-424 -175v95l318 123l-318 124v98l424 -175v-90zM72 88h424v-88h-424v88z" />
    <glyph glyph-name="uni25A0" unicode="&#x25a0;" horiz-adv-x="688" 
d="M0 688h688v-688h-688v688z" />
    <glyph glyph-name="uni25A1" unicode="&#x25a1;" horiz-adv-x="688" 
d="M0 688h688v-688h-688v688zM592 90v508h-496v-508h496z" />
    <glyph glyph-name="uni25AF" unicode="&#x25af;" horiz-adv-x="712" 
d="M0 720h712v-720h-712v720zM358 313l126 -129l52 52l-127 130l127 130l-52 52l-126 -129l-126 129l-52 -52l126 -130l-126 -130l52 -52z" />
    <glyph glyph-name="uni25B6" unicode="&#x25b6;" horiz-adv-x="502" 
d="M44 500l446 -256l-446 -256v512z" />
    <glyph glyph-name="uni25B7" unicode="&#x25b7;" horiz-adv-x="502" 
d="M44 500l446 -256l-446 -256v512zM334 244l-204 113v-226z" />
    <glyph glyph-name="uni25C0" unicode="&#x25c0;" horiz-adv-x="502" 
d="M458 500v-512l-446 256z" />
    <glyph glyph-name="uni25C1" unicode="&#x25c1;" horiz-adv-x="502" 
d="M458 500v-512l-446 256zM372 131v226l-204 -113z" />
    <glyph glyph-name="lozenge" unicode="&#x25ca;" horiz-adv-x="653" 
d="M30 344l246 344h101l246 -344l-246 -344h-101zM323 599l-178 -253l181 -257h4l178 252l-180 258h-5z" />
    <glyph glyph-name="circle" unicode="&#x25cb;" horiz-adv-x="552" 
d="M22 244q0 54 19.5 100.5t54 81t80.5 54.5t100 20t100 -19t80.5 -53.5t54 -81.5t19.5 -102q0 -54 -19.5 -101t-54 -81.5t-80.5 -54t-100 -19.5t-100 19t-80.5 53.5t-54 81t-19.5 102.5zM117 244q0 -37 12 -68.5t33.5 -54t50.5 -35.5t63 -13q36 0 65 13t50 35.5t32.5 54
t11.5 68.5t-12 68.5t-33.5 54t-50.5 35.5t-63 13q-36 0 -65 -13t-50 -35.5t-32.5 -54t-11.5 -68.5z" />
    <glyph glyph-name="H18533" unicode="&#x25cf;" horiz-adv-x="552" 
d="M22 244q0 54 19.5 100.5t54 81t80.5 54.5t100 20t100 -19t80.5 -53.5t54 -81.5t19.5 -102q0 -54 -19.5 -101t-54 -81.5t-80.5 -54t-100 -19.5t-100 19t-80.5 53.5t-54 81t-19.5 102.5z" />
    <glyph glyph-name="uni25FB" unicode="&#x25fb;" horiz-adv-x="488" 
d="M0 488h488v-488h-488v488zM396 85v318h-304v-318h304z" />
    <glyph glyph-name="uni25FC" unicode="&#x25fc;" horiz-adv-x="488" 
d="M0 488h488v-488h-488v488z" />
    <glyph glyph-name="uni2605" unicode="&#x2605;" horiz-adv-x="546" 
d="M174 196l-162 108l5 16l195 -9l53 189h16l52 -189l196 9l5 -16l-163 -108l69 -183l-14 -10l-153 121l-153 -121l-14 10z" />
    <glyph glyph-name="uniFB00" unicode="&#xfb00;" horiz-adv-x="631" 
d="M95 404h-92v84h92v73q0 85 43 128t137 43h50v-88h-41q-46 0 -63.5 -21t-17.5 -66v-69h199v73q0 85 43 128t136 43h61v-88h-52q-45 0 -62.5 -21t-17.5 -66v-69h116v-84h-116v-404h-108v404h-199v-404h-108v404z" />
    <glyph glyph-name="fi" unicode="&#xfb01;" horiz-adv-x="583" 
d="M402 404h-199v-404h-108v404h-92v84h92v73q0 85 43 128t137 43h50v-88h-41q-46 0 -63.5 -21t-17.5 -66v-69h307v-488h-108v404zM398 732h116v-110h-116v110z" />
    <glyph glyph-name="fl" unicode="&#xfb02;" horiz-adv-x="583" 
d="M95 404h-92v84h92v73q0 85 43 128t137 43h235v-732h-108v644h-118q-46 0 -63.5 -21t-17.5 -66v-69h103v-84h-103v-404h-108v404z" />
    <glyph glyph-name="uniFB03" unicode="&#xfb03;" horiz-adv-x="889" 
d="M402 404h-199v-404h-108v404h-92v84h92v73q0 85 43 128t137 43h56v-88h-47q-46 0 -63.5 -21t-17.5 -66v-69h199v73q0 85 43 128t136 43h51v-88h-42q-45 0 -62.5 -21t-17.5 -66v-69h306v-488h-108v404h-198v-404h-108v404zM704 732h116v-110h-116v110z" />
    <glyph glyph-name="uniFB04" unicode="&#xfb04;" horiz-adv-x="889" 
d="M402 404h-199v-404h-108v404h-92v84h92v73q0 85 43 128t137 43h50v-88h-41q-46 0 -63.5 -21t-17.5 -66v-69h199v73q0 85 43 128t136 43h235v-732h-108v644h-118q-45 0 -62.5 -21t-17.5 -66v-69h121v-84h-121v-404h-108v404z" />
    <glyph glyph-name="uniFEFF" unicode="&#xfeff;" horiz-adv-x="0" 
 />
    <glyph glyph-name="i.latn_TRK" horiz-adv-x="255" 
d="M69 732h116v-110h-116v110zM73 488h108v-488h-108v488z" />
    <glyph glyph-name="Ldot.latn_CAT" horiz-adv-x="561" 
d="M84 688h113v-591h333v-97h-446v688zM319 413h103v-104h-103v104z" />
    <glyph glyph-name="ldot.latn_CAT" horiz-adv-x="351" 
d="M73 732h108v-732h-108v732zM255 385h103v-104h-103v104z" />
    <glyph glyph-name="dollar.subs" 
d="M110 -51q2 -22 21.5 -35.5t48.5 -13.5q62 0 62 43q0 20 -19 29t-49 14l-21 4q-21 4 -42 9.5t-37.5 16.5t-26.5 29t-10 46q0 42 28 70.5t80 36.5v55h69v-55q48 -8 75.5 -34t30.5 -68h-85q-3 24 -18.5 34.5t-36.5 10.5q-24 0 -41.5 -10t-17.5 -31t21.5 -29.5t50.5 -14.5
l21 -4q20 -4 40.5 -10t37 -17.5t26.5 -29t10 -44.5q0 -46 -29 -74t-85 -34v-62h-69v62q-55 7 -85.5 34.5t-31.5 71.5h82z" />
    <glyph glyph-name="comma.subs" horiz-adv-x="193" 
d="M50 -53h93v-94l-29 -120h-47l23 116h-40v98z" />
    <glyph glyph-name="hyphen.subs" horiz-adv-x="282" 
d="M35 60h211v-74h-211v74z" />
    <glyph glyph-name="period.subs" horiz-adv-x="193" 
d="M50 -53h93v-98h-93v98z" />
    <glyph glyph-name="b.subs" horiz-adv-x="435" 
d="M49 365h91v-110q0 -17 -0.5 -47t-3.5 -68h4q14 31 43.5 46.5t71.5 15.5q30 0 57.5 -11.5t47.5 -34t32 -55.5t12 -77t-13 -78.5t-34.5 -57.5t-49.5 -35t-59 -12q-80 0 -108 61h-4v-53h-87v516zM140 21q0 -51 24 -80t62 -29t61 30.5t23 81.5q0 50 -23 78t-61 28t-61.5 -28
t-24.5 -76v-5z" />
    <glyph glyph-name="c.subs" horiz-adv-x="399" 
d="M31 21q0 39 12.5 72t35.5 57.5t56.5 38t75.5 13.5q37 0 66 -10.5t49.5 -28t32 -41.5t13.5 -51h-89q-4 23 -21 40.5t-51 17.5q-21 0 -37 -8.5t-27 -23.5t-16.5 -34.5t-5.5 -41.5q0 -46 21.5 -77t61.5 -31q36 0 53 18t22 40h89q-5 -54 -47 -92t-117 -38q-42 0 -75 13.5
t-55.5 37.5t-34.5 57t-12 72z" />
    <glyph glyph-name="d.subs" horiz-adv-x="434" 
d="M31 18q0 44 13 78.5t34.5 58t50 35.5t58.5 12q43 0 68.5 -15t40.5 -47h3q-3 38 -3.5 68t-0.5 47v110h91v-516h-87v53h-3q-15 -32 -44 -46.5t-71 -14.5q-30 0 -57.5 11.5t-48 33.5t-32.5 55t-12 77zM125 18q0 -50 23.5 -78t61.5 -28t61.5 29t23.5 80v5q-2 48 -25.5 76
t-59.5 28q-38 0 -61.5 -30.5t-23.5 -81.5z" />
    <glyph glyph-name="f.subs" horiz-adv-x="255" 
d="M75 120h-66v73h66v41q0 69 30 100t99 31h54v-76h-39q-29 0 -40.5 -12.5t-11.5 -43.5v-40h79v-73h-79v-271h-92v271z" />
    <glyph glyph-name="g.subs" horiz-adv-x="435" 
d="M128 -191q2 -26 23 -40t55 -14q47 0 70 27.5t23 89.5v30h-3q-15 -32 -44 -46.5t-71 -14.5q-30 0 -57.5 11.5t-48 33.5t-32.5 55t-12 77t13 78.5t34.5 58t50 35.5t58.5 12q79 0 109 -62h3v53h87v-322q0 -51 -13 -86t-37 -56.5t-57.5 -31t-74.5 -9.5q-72 0 -115.5 30
t-46.5 91h86zM125 18q0 -50 23.5 -78t61.5 -28t61.5 29t23.5 80v4q-2 48 -25.5 76.5t-59.5 28.5q-38 0 -61.5 -30.5t-23.5 -81.5z" />
    <glyph glyph-name="i.subs" horiz-adv-x="183" 
d="M43 365h97v-89h-97v89zM46 193h91v-344h-91v344z" />
    <glyph glyph-name="j.subs" horiz-adv-x="183" 
d="M43 365h97v-89h-97v89zM46 193h91v-375q0 -30 -5.5 -53t-19 -39t-36.5 -24t-58 -8h-32v76h20q23 0 31.5 13t8.5 39v371z" />
    <glyph glyph-name="q.subs" horiz-adv-x="435" 
d="M295 -210q0 18 0.5 45.5t3.5 66.5h-3q-14 -32 -43.5 -46.5t-71.5 -14.5q-30 0 -57.5 11.5t-48 33.5t-32.5 55t-12 77t13 78.5t34.5 58t49.5 35.5t58 12q82 0 110 -62h3v53h87v-499h-91v96zM125 18q0 -50 23.5 -78t61.5 -28t61.5 29t23.5 80t-23.5 80t-61.5 29
t-61.5 -30.5t-23.5 -81.5z" />
    <glyph glyph-name="r.subs" horiz-adv-x="283" 
d="M49 193h88v-65h3q12 31 33.5 52.5t56.5 21.5q11 0 23 -3t25 -12l-18 -83q-12 7 -22.5 9.5t-20.5 2.5q-20 0 -34 -9.5t-23.5 -25.5t-14 -37t-4.5 -44v-151h-92v344z" />
    <glyph glyph-name="u.subs" horiz-adv-x="419" 
d="M45 193h91v-196q0 -47 19 -65t48 -18q32 0 54 24.5t22 74.5v180h91v-344h-87v51h-3q-15 -32 -42.5 -45.5t-65.5 -13.5q-26 0 -49 7t-40 23t-27.5 42t-10.5 63v217z" />
    <glyph glyph-name="v.subs" horiz-adv-x="371" 
d="M4 193h102l82 -253l85 253h94l-124 -344h-110z" />
    <glyph glyph-name="w.subs" horiz-adv-x="551" 
d="M4 193h92l68 -255l67 255h91l67 -256l69 256h89l-103 -344h-102l-67 247l-67 -247h-102z" />
    <glyph glyph-name="y.subs" horiz-adv-x="371" 
d="M4 193h102l82 -253l85 253h94l-137 -383q-8 -23 -20 -44t-29 -37t-40 -25.5t-53 -9.5h-41v76h21q30 0 51 13t32 45l7 21h-26z" />
    <glyph glyph-name="z.subs" horiz-adv-x="340" 
d="M24 193h289v-57l-167 -213h170v-74h-291v54l169 216h-170v74z" />
    <glyph glyph-name="cent.subs" 
d="M34 20q0 51 30 86t87 43v52h70v-53q50 -8 74.5 -37t27.5 -65h-85q-3 17 -15 30t-37 13q-29 0 -45.5 -18.5t-16.5 -50.5t16.5 -50.5t45.5 -18.5q25 0 37 13t15 30h85q-3 -37 -27.5 -66t-74.5 -37v-50h-70v50q-57 8 -87 43t-30 86z" />
    <glyph glyph-name="Euro.subs" 
d="M19 6h31v15v15h-28l8 31h24q9 58 46 96t107 38q64 0 95 -34t40 -88h-85q-5 26 -16.5 40.5t-34.5 14.5q-51 0 -62 -67h85l-8 -31h-80v-15v-15h70l-8 -31h-59q10 -67 62 -67q21 0 33 13t18 39h85q-10 -54 -41.5 -86.5t-93.5 -32.5q-71 0 -107.5 37.5t-46.5 96.5h-42z" />
    <glyph glyph-name="dollar.sups" 
d="M110 596q2 -22 21.5 -35.5t48.5 -13.5q62 0 62 43q0 20 -19 29t-49 14l-21 4q-21 4 -42 9.5t-37.5 16.5t-26.5 29t-10 46q0 42 28 70.5t80 36.5v55h69v-55q48 -8 75.5 -34t30.5 -68h-85q-3 24 -18.5 34.5t-36.5 10.5q-24 0 -41.5 -10t-17.5 -31t21.5 -29.5t50.5 -14.5
l21 -4q20 -4 40.5 -10t37 -17.5t26.5 -29t10 -44.5q0 -46 -29 -74t-85 -34v-62h-69v62q-55 7 -85.5 34.5t-31.5 71.5h82z" />
    <glyph glyph-name="comma.sups" horiz-adv-x="193" 
d="M50 594h93v-94l-29 -120h-47l23 116h-40v98z" />
    <glyph glyph-name="hyphen.sups" horiz-adv-x="282" 
d="M35 707h211v-74h-211v74z" />
    <glyph glyph-name="period.sups" horiz-adv-x="193" 
d="M50 594h93v-98h-93v98z" />
    <glyph glyph-name="a.sups" horiz-adv-x="396" 
d="M35 586q0 48 27.5 73.5t87.5 33.5l65 8q28 4 36 9t8 19q0 22 -14 38t-45 16q-27 0 -45 -13t-20 -42h-85q2 32 15 55t33 37.5t46.5 21t55.5 6.5q72 0 111 -31t39 -96v-225h-88v41h-3q-14 -23 -40.5 -36t-68.5 -13q-56 0 -85.5 27t-29.5 71zM259 663q-9 -13 -33 -16l-50 -6
q-28 -4 -39 -16.5t-11 -29.5q0 -21 14 -31t39 -10q32 0 56 19.5t24 63.5v26z" />
    <glyph glyph-name="b.sups" horiz-adv-x="435" 
d="M49 1012h91v-110q0 -17 -0.5 -47t-3.5 -68h4q14 31 43.5 46.5t71.5 15.5q30 0 57.5 -11.5t47.5 -34t32 -55.5t12 -77t-13 -78.5t-34.5 -57.5t-49.5 -35t-59 -12q-80 0 -108 61h-4v-53h-87v516zM140 668q0 -51 24 -80t62 -29t61 30.5t23 81.5q0 50 -23 78t-61 28
t-61.5 -28t-24.5 -76v-5z" />
    <glyph glyph-name="c.sups" horiz-adv-x="399" 
d="M31 668q0 39 12.5 72t35.5 57.5t56.5 38t75.5 13.5q37 0 66 -10.5t49.5 -28t32 -41.5t13.5 -51h-89q-4 23 -21 40.5t-51 17.5q-21 0 -37 -8.5t-27 -23.5t-16.5 -34.5t-5.5 -41.5q0 -46 21.5 -77t61.5 -31q36 0 53 18t22 40h89q-5 -54 -47 -92t-117 -38q-42 0 -75 13.5
t-55.5 37.5t-34.5 57t-12 72z" />
    <glyph glyph-name="d.sups" horiz-adv-x="434" 
d="M31 665q0 44 13 78.5t34.5 58t50 35.5t58.5 12q43 0 68.5 -15t40.5 -47h3q-3 38 -3.5 68t-0.5 47v110h91v-516h-87v53h-3q-15 -32 -44 -46.5t-71 -14.5q-30 0 -57.5 11.5t-48 33.5t-32.5 55t-12 77zM125 665q0 -50 23.5 -78t61.5 -28t61.5 29t23.5 80v5q-2 48 -25.5 76
t-59.5 28q-38 0 -61.5 -30.5t-23.5 -81.5z" />
    <glyph glyph-name="e.sups" horiz-adv-x="408" 
d="M31 667q0 40 13 73.5t36.5 57.5t56 37t71.5 13q76 0 122.5 -45t46.5 -128v-24h-253q4 -48 27 -70.5t61 -22.5q34 0 50.5 13t21.5 31h86q-8 -49 -50 -81t-111 -32q-82 0 -130 46.5t-48 131.5zM208 779q-66 0 -81 -71h154q-9 71 -73 71z" />
    <glyph glyph-name="f.sups" horiz-adv-x="255" 
d="M75 767h-66v73h66v41q0 69 30 100t99 31h54v-76h-39q-29 0 -40.5 -12.5t-11.5 -43.5v-40h79v-73h-79v-271h-92v271z" />
    <glyph glyph-name="g.sups" horiz-adv-x="435" 
d="M128 456q2 -26 23 -40t55 -14q47 0 70 27.5t23 89.5v30h-3q-15 -32 -44 -46.5t-71 -14.5q-30 0 -57.5 11.5t-48 33.5t-32.5 55t-12 77t13 78.5t34.5 58t50 35.5t58.5 12q79 0 109 -62h3v53h87v-322q0 -51 -13 -86t-37 -56.5t-57.5 -31t-74.5 -9.5q-72 0 -115.5 30
t-46.5 91h86zM125 665q0 -50 23.5 -78t61.5 -28t61.5 29t23.5 80v4q-2 48 -25.5 76.5t-59.5 28.5q-38 0 -61.5 -30.5t-23.5 -81.5z" />
    <glyph glyph-name="h.sups" horiz-adv-x="419" 
d="M49 1012h91v-109q0 -17 -0.5 -46.5t-3.5 -67.5h4q14 32 42 46t66 14q25 0 48 -7.5t40 -23.5t27.5 -42t10.5 -63v-217h-91v196q0 47 -18.5 65t-48.5 18q-34 0 -55 -26t-21 -72v-181h-91v516z" />
    <glyph glyph-name="j.sups" horiz-adv-x="183" 
d="M43 1012h97v-89h-97v89zM46 840h91v-375q0 -30 -5.5 -53t-19 -39t-36.5 -24t-58 -8h-32v76h20q23 0 31.5 13t8.5 39v371z" />
    <glyph glyph-name="k.sups" horiz-adv-x="387" 
d="M49 1012h92v-311l126 139h103l-128 -137l141 -207h-105l-96 142l-41 -44v-98h-92v516z" />
    <glyph glyph-name="l.sups" horiz-adv-x="190" 
d="M49 1012h91v-516h-91v516z" />
    <glyph glyph-name="m.sups" horiz-adv-x="635" 
d="M49 840h87v-51h4q15 32 40.5 46t63.5 14q35 0 64.5 -16t44.5 -52q18 38 47.5 53t68.5 15q24 0 45.5 -7t38.5 -22.5t27 -40.5t10 -62v-221h-91v201q0 43 -16 60.5t-45 17.5q-32 0 -52.5 -24.5t-20.5 -72.5v-182h-91v200q0 43 -16 61t-45 18t-51 -23t-22 -74v-182h-91v344z
" />
    <glyph glyph-name="o.sups" horiz-adv-x="424" 
d="M31 668q0 41 13 74.5t36.5 57t57 36.5t74.5 13q85 0 133 -49t48 -132t-49.5 -131.5t-131.5 -48.5q-85 0 -133 48.5t-48 131.5zM125 668q0 -49 23.5 -79t63.5 -30t63.5 30t23.5 79q0 50 -23.5 79.5t-63.5 29.5t-63.5 -29.5t-23.5 -79.5z" />
    <glyph glyph-name="p.sups" horiz-adv-x="435" 
d="M140 341h-91v499h87v-53h4q14 32 43.5 47t71.5 15q30 0 57.5 -11.5t47.5 -34t32 -55.5t12 -77t-13 -78.5t-34.5 -57.5t-49.5 -35t-59 -12q-80 0 -108 61h-4q3 -39 3.5 -66.5t0.5 -45.5v-96zM310 671q0 50 -23 78t-61 28t-61.5 -28t-24.5 -76v-5q0 -51 24 -80t62 -29
t61 30.5t23 81.5z" />
    <glyph glyph-name="q.sups" horiz-adv-x="435" 
d="M295 437q0 18 0.5 45.5t3.5 66.5h-3q-14 -32 -43.5 -46.5t-71.5 -14.5q-30 0 -57.5 11.5t-48 33.5t-32.5 55t-12 77t13 78.5t34.5 58t49.5 35.5t58 12q82 0 110 -62h3v53h87v-499h-91v96zM125 665q0 -50 23.5 -78t61.5 -28t61.5 29t23.5 80t-23.5 80t-61.5 29
t-61.5 -30.5t-23.5 -81.5z" />
    <glyph glyph-name="r.sups" horiz-adv-x="283" 
d="M49 840h88v-65h3q12 31 33.5 52.5t56.5 21.5q11 0 23 -3t25 -12l-18 -83q-12 7 -22.5 9.5t-20.5 2.5q-20 0 -34 -9.5t-23.5 -25.5t-14 -37t-4.5 -44v-151h-92v344z" />
    <glyph glyph-name="s.sups" horiz-adv-x="379" 
d="M115 601q2 -26 22.5 -39t52.5 -13q30 0 48.5 10t18.5 30t-15.5 27t-38.5 12l-60 12q-49 8 -77.5 30.5t-28.5 69.5q0 53 43 81t110 28q65 0 106.5 -26.5t44.5 -80.5h-85q-2 24 -20 34.5t-44 10.5q-31 0 -48 -9.5t-17 -27.5q0 -17 12.5 -25t40.5 -13l61 -12q22 -4 42 -10.5
t34 -18t22.5 -28.5t8.5 -43q0 -28 -12 -49t-33.5 -35t-50.5 -21t-63 -7q-69 0 -112 27t-47 86h85z" />
    <glyph glyph-name="t.sups" horiz-adv-x="261" 
d="M70 767h-62v73h62v104h92v-104h82v-73h-82v-143q0 -27 9 -39t35 -12h38v-77h-49q-69 0 -97 27t-28 91v153z" />
    <glyph glyph-name="u.sups" horiz-adv-x="419" 
d="M45 840h91v-196q0 -47 19 -65t48 -18q32 0 54 24.5t22 74.5v180h91v-344h-87v51h-3q-15 -32 -42.5 -45.5t-65.5 -13.5q-26 0 -49 7t-40 23t-27.5 42t-10.5 63v217z" />
    <glyph glyph-name="v.sups" horiz-adv-x="371" 
d="M4 840h102l82 -253l85 253h94l-124 -344h-110z" />
    <glyph glyph-name="w.sups" horiz-adv-x="551" 
d="M4 840h92l68 -255l67 255h91l67 -256l69 256h89l-103 -344h-102l-67 247l-67 -247h-102z" />
    <glyph glyph-name="x.sups" horiz-adv-x="350" 
d="M127 667l-120 173h103l67 -102l69 102h98l-122 -169l124 -175h-103l-70 106l-72 -106h-97z" />
    <glyph glyph-name="y.sups" horiz-adv-x="371" 
d="M4 840h102l82 -253l85 253h94l-137 -383q-8 -23 -20 -44t-29 -37t-40 -25.5t-53 -9.5h-41v76h21q30 0 51 13t32 45l7 21h-26z" />
    <glyph glyph-name="z.sups" horiz-adv-x="340" 
d="M24 840h289v-57l-167 -213h170v-74h-291v54l169 216h-170v74z" />
    <glyph glyph-name="cent.sups" 
d="M34 667q0 51 30 86t87 43v52h70v-53q50 -8 74.5 -37t27.5 -65h-85q-3 17 -15 30t-37 13q-29 0 -45.5 -18.5t-16.5 -50.5t16.5 -50.5t45.5 -18.5q25 0 37 13t15 30h85q-3 -37 -27.5 -66t-74.5 -37v-50h-70v50q-57 8 -87 43t-30 86z" />
    <glyph glyph-name="Euro.sups" 
d="M19 653h31v15v15h-28l8 31h24q9 58 46 96t107 38q64 0 95 -34t40 -88h-85q-5 26 -16.5 40.5t-34.5 14.5q-51 0 -62 -67h85l-8 -31h-80v-15v-15h70l-8 -31h-59q10 -67 62 -67q21 0 33 13t18 39h85q-10 -54 -41.5 -86.5t-93.5 -32.5q-71 0 -107.5 37.5t-46.5 96.5h-42z" />
    <glyph glyph-name="dollar.numr" 
d="M110 444q2 -22 21.5 -35.5t48.5 -13.5q62 0 62 43q0 20 -19 29t-49 14l-21 4q-21 4 -42 9.5t-37.5 16.5t-26.5 29t-10 46q0 42 28 70.5t80 36.5v55h69v-55q48 -8 75.5 -34t30.5 -68h-85q-3 24 -18.5 34.5t-36.5 10.5q-24 0 -41.5 -10t-17.5 -31t21.5 -29.5t50.5 -14.5
l21 -4q20 -4 40.5 -10t37 -17.5t26.5 -29t10 -44.5q0 -46 -29 -74t-85 -34v-62h-69v62q-55 7 -85.5 34.5t-31.5 71.5h82z" />
    <glyph glyph-name="parenleft.numr" horiz-adv-x="230" 
d="M140 272q-14 17 -28.5 43t-26 57.5t-18.5 68t-7 75.5t7 75.5t18.5 68t26 57.5t28.5 43h82q-13 -16 -27 -41.5t-26 -57.5t-19.5 -69t-7.5 -76t7.5 -76t19.5 -69t26 -57.5t27 -41.5h-82z" />
    <glyph glyph-name="parenright.numr" horiz-adv-x="230" 
d="M8 272q13 16 27 41.5t26 57.5t19.5 69t7.5 76t-7.5 76t-19.5 69t-26 57.5t-27 41.5h82q14 -17 28.5 -43t26 -57.5t18.5 -68t7 -75.5t-7 -75.5t-18.5 -68t-26 -57.5t-28.5 -43h-82z" />
    <glyph glyph-name="plus.numr" 
d="M44 552h100v100h71v-100h100v-68h-100v-100h-71v100h-100v68z" />
    <glyph glyph-name="comma.numr" horiz-adv-x="193" 
d="M50 442h93v-94l-29 -120h-47l23 116h-40v98z" />
    <glyph glyph-name="hyphen.numr" horiz-adv-x="282" 
d="M35 555h211v-74h-211v74z" />
    <glyph glyph-name="period.numr" horiz-adv-x="193" 
d="M50 442h93v-98h-93v98z" />
    <glyph glyph-name="zero.numr" 
d="M180 336q-40 0 -69 14t-48 38t-28.5 57t-9.5 71t9.5 71t28.5 57t48 38t69 14t69 -14t48 -38t28 -57t9 -71t-9 -71t-28 -57t-48 -38t-69 -14zM180 404q33 0 50 29t17 83t-16.5 83t-50.5 29t-51 -29t-17 -83t17.5 -83t50.5 -29z" />
    <glyph glyph-name="one.numr" 
d="M39 602l145 86h54v-274h92v-70h-279v70h98v170l-74 -43z" />
    <glyph glyph-name="two.numr" 
d="M30 344q0 40 10 68t26.5 48t37 33.5t42.5 24.5l21 10q31 14 50 28t19 31q0 43 -55 43q-28 0 -44.5 -15t-18.5 -44h-84q1 33 13.5 57t33 39t46.5 22t55 7q64 0 102.5 -27.5t38.5 -78.5q0 -24 -8.5 -41.5t-23.5 -31t-35 -24.5t-42 -21l-21 -10q-26 -12 -42.5 -25t-16.5 -23
h188v-70h-292z" />
    <glyph glyph-name="three.numr" 
d="M117 449q0 -26 17 -38.5t46 -12.5q27 0 45 11t18 36q0 24 -18 36t-47 12h-24v56h24q27 0 42.5 11t15.5 33q0 20 -15 30.5t-41 10.5t-41 -12.5t-15 -34.5h-82q1 54 39.5 81.5t103.5 27.5q63 0 99 -27t36 -70q0 -29 -15.5 -50t-41.5 -27q30 -7 49 -30t19 -55
q0 -50 -39.5 -75.5t-111.5 -25.5q-66 0 -105.5 26t-40.5 87h83z" />
    <glyph glyph-name="four.numr" 
d="M22 457l188 232h75v-217h47v-67h-47v-61h-88v61h-175v52zM197 472v107l-85 -107h85z" />
    <glyph glyph-name="five.numr" 
d="M129 436q3 -16 16 -28.5t38 -12.5q23 0 39.5 14.5t16.5 43.5t-16.5 41.5t-39.5 12.5q-37 0 -52 -31l-82 7l13 205h244v-70h-169l-7 -78h4q8 12 27 19t42 7q25 0 47.5 -6t39 -19.5t26.5 -34.5t10 -52q0 -29 -11 -51t-30.5 -37t-45 -22.5t-53.5 -7.5q-72 0 -105 28.5
t-38 71.5h86z" />
    <glyph glyph-name="six.numr" 
d="M232 593q-2 18 -14 30t-32 12q-12 0 -23 -4t-19.5 -15.5t-14.5 -31t-7 -50.5v-1q11 14 34 23.5t49 9.5q24 0 46 -6t38.5 -19.5t26 -34.5t9.5 -52q0 -29 -11 -51t-30 -37t-44.5 -22.5t-53.5 -7.5q-33 0 -61 9t-48 29t-31.5 53t-11.5 81q0 52 11.5 88t32 58t48.5 32t61 10
q65 0 94.5 -29t32.5 -74h-82zM183 507q-23 0 -39.5 -13t-16.5 -41v-1q0 -29 16.5 -43t39.5 -14t39.5 14.5t16.5 43.5t-16.5 41.5t-39.5 12.5z" />
    <glyph glyph-name="seven.numr" 
d="M225 613h-193v75h297v-54l-160 -290h-94z" />
    <glyph glyph-name="eight.numr" 
d="M28 435q0 34 19 56t49 28v4q-26 6 -41.5 26.5t-15.5 49.5q0 43 37.5 70t103.5 27q65 0 102.5 -27t37.5 -70q0 -29 -15.5 -49.5t-41.5 -26.5v-4q30 -6 49 -28t19 -56q0 -48 -39.5 -73.5t-111.5 -25.5t-112 25.5t-40 73.5zM117 444q0 -24 17.5 -36t45.5 -12q27 0 45 12
t18 36q0 25 -18 37t-45 12q-28 0 -45.5 -12t-17.5 -37zM124 593q0 -22 15 -33t41 -11t41 11t15 33q0 21 -15 32t-41 11t-41 -11t-15 -32z" />
    <glyph glyph-name="nine.numr" 
d="M123 439q1 -18 13.5 -30t37.5 -12q12 0 22.5 4t18 15.5t12.5 31t6 49.5v1q-8 -14 -30.5 -23.5t-48.5 -9.5t-48.5 6t-39 19.5t-26.5 34t-10 49.5q0 28 11 51t30 38.5t44.5 24t54.5 8.5q33 0 60.5 -9t48 -29t31.5 -53t11 -81q0 -53 -10.5 -88.5t-30 -58t-46.5 -32t-60 -9.5
q-68 0 -99 29t-34 74h82zM172 525q21 0 38.5 12.5t17.5 41.5v1q0 29 -16.5 43t-39.5 14q-22 0 -39 -14.5t-17 -43.5t17 -41.5t39 -12.5z" />
    <glyph glyph-name="equal.numr" 
d="M44 614h271v-68h-271v68zM44 489h271v-67h-271v67z" />
    <glyph glyph-name="a.numr" horiz-adv-x="396" 
d="M35 434q0 48 27.5 73.5t87.5 33.5l65 8q28 4 36 9t8 19q0 22 -14 38t-45 16q-27 0 -45 -13t-20 -42h-85q2 32 15 55t33 37.5t46.5 21t55.5 6.5q72 0 111 -31t39 -96v-225h-88v41h-3q-14 -23 -40.5 -36t-68.5 -13q-56 0 -85.5 27t-29.5 71zM259 511q-9 -13 -33 -16l-50 -6
q-28 -4 -39 -16.5t-11 -29.5q0 -21 14 -31t39 -10q32 0 56 19.5t24 63.5v26z" />
    <glyph glyph-name="b.numr" horiz-adv-x="435" 
d="M49 860h91v-110q0 -17 -0.5 -47t-3.5 -68h4q14 31 43.5 46.5t71.5 15.5q30 0 57.5 -11.5t47.5 -34t32 -55.5t12 -77t-13 -78.5t-34.5 -57.5t-49.5 -35t-59 -12q-80 0 -108 61h-4v-53h-87v516zM140 516q0 -51 24 -80t62 -29t61 30.5t23 81.5q0 50 -23 78t-61 28t-61.5 -28
t-24.5 -76v-5z" />
    <glyph glyph-name="c.numr" horiz-adv-x="399" 
d="M31 516q0 39 12.5 72t35.5 57.5t56.5 38t75.5 13.5q37 0 66 -10.5t49.5 -28t32 -41.5t13.5 -51h-89q-4 23 -21 40.5t-51 17.5q-21 0 -37 -8.5t-27 -23.5t-16.5 -34.5t-5.5 -41.5q0 -46 21.5 -77t61.5 -31q36 0 53 18t22 40h89q-5 -54 -47 -92t-117 -38q-42 0 -75 13.5
t-55.5 37.5t-34.5 57t-12 72z" />
    <glyph glyph-name="d.numr" horiz-adv-x="434" 
d="M31 513q0 44 13 78.5t34.5 58t50 35.5t58.5 12q43 0 68.5 -15t40.5 -47h3q-3 38 -3.5 68t-0.5 47v110h91v-516h-87v53h-3q-15 -32 -44 -46.5t-71 -14.5q-30 0 -57.5 11.5t-48 33.5t-32.5 55t-12 77zM125 513q0 -50 23.5 -78t61.5 -28t61.5 29t23.5 80v5q-2 48 -25.5 76
t-59.5 28q-38 0 -61.5 -30.5t-23.5 -81.5z" />
    <glyph glyph-name="e.numr" horiz-adv-x="408" 
d="M31 515q0 40 13 73.5t36.5 57.5t56 37t71.5 13q76 0 122.5 -45t46.5 -128v-24h-253q4 -48 27 -70.5t61 -22.5q34 0 50.5 13t21.5 31h86q-8 -49 -50 -81t-111 -32q-82 0 -130 46.5t-48 131.5zM208 627q-66 0 -81 -71h154q-9 71 -73 71z" />
    <glyph glyph-name="f.numr" horiz-adv-x="255" 
d="M75 615h-66v73h66v41q0 69 30 100t99 31h54v-76h-39q-29 0 -40.5 -12.5t-11.5 -43.5v-40h79v-73h-79v-271h-92v271z" />
    <glyph glyph-name="g.numr" horiz-adv-x="435" 
d="M128 304q2 -26 23 -40t55 -14q47 0 70 27.5t23 89.5v30h-3q-15 -32 -44 -46.5t-71 -14.5q-30 0 -57.5 11.5t-48 33.5t-32.5 55t-12 77t13 78.5t34.5 58t50 35.5t58.5 12q79 0 109 -62h3v53h87v-322q0 -51 -13 -86t-37 -56.5t-57.5 -31t-74.5 -9.5q-72 0 -115.5 30
t-46.5 91h86zM125 513q0 -50 23.5 -78t61.5 -28t61.5 29t23.5 80v4q-2 48 -25.5 76.5t-59.5 28.5q-38 0 -61.5 -30.5t-23.5 -81.5z" />
    <glyph glyph-name="h.numr" horiz-adv-x="419" 
d="M49 860h91v-109q0 -17 -0.5 -46.5t-3.5 -67.5h4q14 32 42 46t66 14q25 0 48 -7.5t40 -23.5t27.5 -42t10.5 -63v-217h-91v196q0 47 -18.5 65t-48.5 18q-34 0 -55 -26t-21 -72v-181h-91v516z" />
    <glyph glyph-name="i.numr" horiz-adv-x="183" 
d="M43 860h97v-89h-97v89zM46 688h91v-344h-91v344z" />
    <glyph glyph-name="j.numr" horiz-adv-x="183" 
d="M43 860h97v-89h-97v89zM46 688h91v-375q0 -30 -5.5 -53t-19 -39t-36.5 -24t-58 -8h-32v76h20q23 0 31.5 13t8.5 39v371z" />
    <glyph glyph-name="k.numr" horiz-adv-x="387" 
d="M49 860h92v-311l126 139h103l-128 -137l141 -207h-105l-96 142l-41 -44v-98h-92v516z" />
    <glyph glyph-name="l.numr" horiz-adv-x="190" 
d="M49 860h91v-516h-91v516z" />
    <glyph glyph-name="m.numr" horiz-adv-x="635" 
d="M49 688h87v-51h4q15 32 40.5 46t63.5 14q35 0 64.5 -16t44.5 -52q18 38 47.5 53t68.5 15q24 0 45.5 -7t38.5 -22.5t27 -40.5t10 -62v-221h-91v201q0 43 -16 60.5t-45 17.5q-32 0 -52.5 -24.5t-20.5 -72.5v-182h-91v200q0 43 -16 61t-45 18t-51 -23t-22 -74v-182h-91v344z
" />
    <glyph glyph-name="n.numr" horiz-adv-x="419" 
d="M49 688h87v-51h4q14 32 42 46t66 14q25 0 48 -7.5t40 -23.5t27.5 -42t10.5 -63v-217h-91v196q0 47 -18.5 65t-48.5 18q-32 0 -54 -24.5t-22 -72.5v-182h-91v344z" />
    <glyph glyph-name="o.numr" horiz-adv-x="424" 
d="M31 516q0 41 13 74.5t36.5 57t57 36.5t74.5 13q85 0 133 -49t48 -132t-49.5 -131.5t-131.5 -48.5q-85 0 -133 48.5t-48 131.5zM125 516q0 -49 23.5 -79t63.5 -30t63.5 30t23.5 79q0 50 -23.5 79.5t-63.5 29.5t-63.5 -29.5t-23.5 -79.5z" />
    <glyph glyph-name="p.numr" horiz-adv-x="435" 
d="M140 189h-91v499h87v-53h4q14 32 43.5 47t71.5 15q30 0 57.5 -11.5t47.5 -34t32 -55.5t12 -77t-13 -78.5t-34.5 -57.5t-49.5 -35t-59 -12q-80 0 -108 61h-4q3 -39 3.5 -66.5t0.5 -45.5v-96zM310 519q0 50 -23 78t-61 28t-61.5 -28t-24.5 -76v-5q0 -51 24 -80t62 -29
t61 30.5t23 81.5z" />
    <glyph glyph-name="q.numr" horiz-adv-x="435" 
d="M295 285q0 18 0.5 45.5t3.5 66.5h-3q-14 -32 -43.5 -46.5t-71.5 -14.5q-30 0 -57.5 11.5t-48 33.5t-32.5 55t-12 77t13 78.5t34.5 58t49.5 35.5t58 12q82 0 110 -62h3v53h87v-499h-91v96zM125 513q0 -50 23.5 -78t61.5 -28t61.5 29t23.5 80t-23.5 80t-61.5 29
t-61.5 -30.5t-23.5 -81.5z" />
    <glyph glyph-name="r.numr" horiz-adv-x="283" 
d="M49 688h88v-65h3q12 31 33.5 52.5t56.5 21.5q11 0 23 -3t25 -12l-18 -83q-12 7 -22.5 9.5t-20.5 2.5q-20 0 -34 -9.5t-23.5 -25.5t-14 -37t-4.5 -44v-151h-92v344z" />
    <glyph glyph-name="s.numr" horiz-adv-x="379" 
d="M115 449q2 -26 22.5 -39t52.5 -13q30 0 48.5 10t18.5 30t-15.5 27t-38.5 12l-60 12q-49 8 -77.5 30.5t-28.5 69.5q0 53 43 81t110 28q65 0 106.5 -26.5t44.5 -80.5h-85q-2 24 -20 34.5t-44 10.5q-31 0 -48 -9.5t-17 -27.5q0 -17 12.5 -25t40.5 -13l61 -12q22 -4 42 -10.5
t34 -18t22.5 -28.5t8.5 -43q0 -28 -12 -49t-33.5 -35t-50.5 -21t-63 -7q-69 0 -112 27t-47 86h85z" />
    <glyph glyph-name="t.numr" horiz-adv-x="261" 
d="M70 615h-62v73h62v104h92v-104h82v-73h-82v-143q0 -27 9 -39t35 -12h38v-77h-49q-69 0 -97 27t-28 91v153z" />
    <glyph glyph-name="u.numr" horiz-adv-x="419" 
d="M45 688h91v-196q0 -47 19 -65t48 -18q32 0 54 24.5t22 74.5v180h91v-344h-87v51h-3q-15 -32 -42.5 -45.5t-65.5 -13.5q-26 0 -49 7t-40 23t-27.5 42t-10.5 63v217z" />
    <glyph glyph-name="v.numr" horiz-adv-x="371" 
d="M4 688h102l82 -253l85 253h94l-124 -344h-110z" />
    <glyph glyph-name="w.numr" horiz-adv-x="551" 
d="M4 688h92l68 -255l67 255h91l67 -256l69 256h89l-103 -344h-102l-67 247l-67 -247h-102z" />
    <glyph glyph-name="x.numr" horiz-adv-x="350" 
d="M127 515l-120 173h103l67 -102l69 102h98l-122 -169l124 -175h-103l-70 106l-72 -106h-97z" />
    <glyph glyph-name="y.numr" horiz-adv-x="371" 
d="M4 688h102l82 -253l85 253h94l-137 -383q-8 -23 -20 -44t-29 -37t-40 -25.5t-53 -9.5h-41v76h21q30 0 51 13t32 45l7 21h-26z" />
    <glyph glyph-name="z.numr" horiz-adv-x="340" 
d="M24 688h289v-57l-167 -213h170v-74h-291v54l169 216h-170v74z" />
    <glyph glyph-name="cent.numr" 
d="M34 515q0 51 30 86t87 43v52h70v-53q50 -8 74.5 -37t27.5 -65h-85q-3 17 -15 30t-37 13q-29 0 -45.5 -18.5t-16.5 -50.5t16.5 -50.5t45.5 -18.5q25 0 37 13t15 30h85q-3 -37 -27.5 -66t-74.5 -37v-50h-70v50q-57 8 -87 43t-30 86z" />
    <glyph glyph-name="Euro.numr" 
d="M19 501h31v15v15h-28l8 31h24q9 58 46 96t107 38q64 0 95 -34t40 -88h-85q-5 26 -16.5 40.5t-34.5 14.5q-51 0 -62 -67h85l-8 -31h-80v-15v-15h70l-8 -31h-59q10 -67 62 -67q21 0 33 13t18 39h85q-10 -54 -41.5 -86.5t-93.5 -32.5q-71 0 -107.5 37.5t-46.5 96.5h-42z" />
    <glyph glyph-name="minus.numr" 
d="M44 552h271v-68h-271v68z" />
    <glyph glyph-name="dollar.dnom" 
d="M110 100q2 -22 21.5 -35.5t48.5 -13.5q62 0 62 43q0 20 -19 29t-49 14l-21 4q-21 4 -42 9.5t-37.5 16.5t-26.5 29t-10 46q0 42 28 70.5t80 36.5v55h69v-55q48 -8 75.5 -34t30.5 -68h-85q-3 24 -18.5 34.5t-36.5 10.5q-24 0 -41.5 -10t-17.5 -31t21.5 -29.5t50.5 -14.5
l21 -4q20 -4 40.5 -10t37 -17.5t26.5 -29t10 -44.5q0 -46 -29 -74t-85 -34v-62h-69v62q-55 7 -85.5 34.5t-31.5 71.5h82z" />
    <glyph glyph-name="parenleft.dnom" horiz-adv-x="230" 
d="M140 -72q-14 17 -28.5 43t-26 57.5t-18.5 68t-7 75.5t7 75.5t18.5 68t26 57.5t28.5 43h82q-13 -16 -27 -41.5t-26 -57.5t-19.5 -69t-7.5 -76t7.5 -76t19.5 -69t26 -57.5t27 -41.5h-82z" />
    <glyph glyph-name="parenright.dnom" horiz-adv-x="230" 
d="M8 -72q13 16 27 41.5t26 57.5t19.5 69t7.5 76t-7.5 76t-19.5 69t-26 57.5t-27 41.5h82q14 -17 28.5 -43t26 -57.5t18.5 -68t7 -75.5t-7 -75.5t-18.5 -68t-26 -57.5t-28.5 -43h-82z" />
    <glyph glyph-name="plus.dnom" 
d="M44 208h100v100h71v-100h100v-68h-100v-100h-71v100h-100v68z" />
    <glyph glyph-name="comma.dnom" horiz-adv-x="193" 
d="M50 98h93v-94l-29 -120h-47l23 116h-40v98z" />
    <glyph glyph-name="hyphen.dnom" horiz-adv-x="282" 
d="M35 211h211v-74h-211v74z" />
    <glyph glyph-name="period.dnom" horiz-adv-x="193" 
d="M50 98h93v-98h-93v98z" />
    <glyph glyph-name="zero.dnom" 
d="M180 -8q-40 0 -69 14t-48 38t-28.5 57t-9.5 71t9.5 71t28.5 57t48 38t69 14t69 -14t48 -38t28 -57t9 -71t-9 -71t-28 -57t-48 -38t-69 -14zM180 60q33 0 50 29t17 83t-16.5 83t-50.5 29t-51 -29t-17 -83t17.5 -83t50.5 -29z" />
    <glyph glyph-name="one.dnom" 
d="M39 258l145 86h54v-274h92v-70h-279v70h98v170l-74 -43z" />
    <glyph glyph-name="two.dnom" 
d="M30 0q0 40 10 68t26.5 48t37 33.5t42.5 24.5l21 10q31 14 50 28t19 31q0 43 -55 43q-28 0 -44.5 -15t-18.5 -44h-84q1 33 13.5 57t33 39t46.5 22t55 7q64 0 102.5 -27.5t38.5 -78.5q0 -24 -8.5 -41.5t-23.5 -31t-35 -24.5t-42 -21l-21 -10q-26 -12 -42.5 -25t-16.5 -23
h188v-70h-292z" />
    <glyph glyph-name="three.dnom" 
d="M117 105q0 -26 17 -38.5t46 -12.5q27 0 45 11t18 36q0 24 -18 36t-47 12h-24v56h24q27 0 42.5 11t15.5 33q0 20 -15 30.5t-41 10.5t-41 -12.5t-15 -34.5h-82q1 54 39.5 81.5t103.5 27.5q63 0 99 -27t36 -70q0 -29 -15.5 -50t-41.5 -27q30 -7 49 -30t19 -55
q0 -50 -39.5 -75.5t-111.5 -25.5q-66 0 -105.5 26t-40.5 87h83z" />
    <glyph glyph-name="four.dnom" 
d="M22 113l188 232h75v-217h47v-67h-47v-61h-88v61h-175v52zM197 128v107l-85 -107h85z" />
    <glyph glyph-name="five.dnom" 
d="M129 92q3 -16 16 -28.5t38 -12.5q23 0 39.5 14.5t16.5 43.5t-16.5 41.5t-39.5 12.5q-37 0 -52 -31l-82 7l13 205h244v-70h-169l-7 -78h4q8 12 27 19t42 7q25 0 47.5 -6t39 -19.5t26.5 -34.5t10 -52q0 -29 -11 -51t-30.5 -37t-45 -22.5t-53.5 -7.5q-72 0 -105 28.5
t-38 71.5h86z" />
    <glyph glyph-name="six.dnom" 
d="M232 249q-2 18 -14 30t-32 12q-12 0 -23 -4t-19.5 -15.5t-14.5 -31t-7 -50.5v-1q11 14 34 23.5t49 9.5q24 0 46 -6t38.5 -19.5t26 -34.5t9.5 -52q0 -29 -11 -51t-30 -37t-44.5 -22.5t-53.5 -7.5q-33 0 -61 9t-48 29t-31.5 53t-11.5 81q0 52 11.5 88t32 58t48.5 32t61 10
q65 0 94.5 -29t32.5 -74h-82zM183 163q-23 0 -39.5 -13t-16.5 -41v-1q0 -29 16.5 -43t39.5 -14t39.5 14.5t16.5 43.5t-16.5 41.5t-39.5 12.5z" />
    <glyph glyph-name="seven.dnom" 
d="M225 269h-193v75h297v-54l-160 -290h-94z" />
    <glyph glyph-name="eight.dnom" 
d="M28 91q0 34 19 56t49 28v4q-26 6 -41.5 26.5t-15.5 49.5q0 43 37.5 70t103.5 27q65 0 102.5 -27t37.5 -70q0 -29 -15.5 -49.5t-41.5 -26.5v-4q30 -6 49 -28t19 -56q0 -48 -39.5 -73.5t-111.5 -25.5t-112 25.5t-40 73.5zM117 100q0 -24 17.5 -36t45.5 -12q27 0 45 12
t18 36q0 25 -18 37t-45 12q-28 0 -45.5 -12t-17.5 -37zM124 249q0 -22 15 -33t41 -11t41 11t15 33q0 21 -15 32t-41 11t-41 -11t-15 -32z" />
    <glyph glyph-name="nine.dnom" 
d="M123 95q1 -18 13.5 -30t37.5 -12q12 0 22.5 4t18 15.5t12.5 31t6 49.5v1q-8 -14 -30.5 -23.5t-48.5 -9.5t-48.5 6t-39 19.5t-26.5 34t-10 49.5q0 28 11 51t30 38.5t44.5 24t54.5 8.5q33 0 60.5 -9t48 -29t31.5 -53t11 -81q0 -53 -10.5 -88.5t-30 -58t-46.5 -32t-60 -9.5
q-68 0 -99 29t-34 74h82zM172 181q21 0 38.5 12.5t17.5 41.5v1q0 29 -16.5 43t-39.5 14q-22 0 -39 -14.5t-17 -43.5t17 -41.5t39 -12.5z" />
    <glyph glyph-name="equal.dnom" 
d="M44 270h271v-68h-271v68zM44 145h271v-67h-271v67z" />
    <glyph glyph-name="a.dnom" horiz-adv-x="396" 
d="M35 90q0 48 27.5 73.5t87.5 33.5l65 8q28 4 36 9t8 19q0 22 -14 38t-45 16q-27 0 -45 -13t-20 -42h-85q2 32 15 55t33 37.5t46.5 21t55.5 6.5q72 0 111 -31t39 -96v-225h-88v41h-3q-14 -23 -40.5 -36t-68.5 -13q-56 0 -85.5 27t-29.5 71zM259 167q-9 -13 -33 -16l-50 -6
q-28 -4 -39 -16.5t-11 -29.5q0 -21 14 -31t39 -10q32 0 56 19.5t24 63.5v26z" />
    <glyph glyph-name="b.dnom" horiz-adv-x="435" 
d="M49 516h91v-110q0 -17 -0.5 -47t-3.5 -68h4q14 31 43.5 46.5t71.5 15.5q30 0 57.5 -11.5t47.5 -34t32 -55.5t12 -77t-13 -78.5t-34.5 -57.5t-49.5 -35t-59 -12q-80 0 -108 61h-4v-53h-87v516zM140 172q0 -51 24 -80t62 -29t61 30.5t23 81.5q0 50 -23 78t-61 28t-61.5 -28
t-24.5 -76v-5z" />
    <glyph glyph-name="c.dnom" horiz-adv-x="399" 
d="M31 172q0 39 12.5 72t35.5 57.5t56.5 38t75.5 13.5q37 0 66 -10.5t49.5 -28t32 -41.5t13.5 -51h-89q-4 23 -21 40.5t-51 17.5q-21 0 -37 -8.5t-27 -23.5t-16.5 -34.5t-5.5 -41.5q0 -46 21.5 -77t61.5 -31q36 0 53 18t22 40h89q-5 -54 -47 -92t-117 -38q-42 0 -75 13.5
t-55.5 37.5t-34.5 57t-12 72z" />
    <glyph glyph-name="d.dnom" horiz-adv-x="434" 
d="M31 169q0 44 13 78.5t34.5 58t50 35.5t58.5 12q43 0 68.5 -15t40.5 -47h3q-3 38 -3.5 68t-0.5 47v110h91v-516h-87v53h-3q-15 -32 -44 -46.5t-71 -14.5q-30 0 -57.5 11.5t-48 33.5t-32.5 55t-12 77zM125 169q0 -50 23.5 -78t61.5 -28t61.5 29t23.5 80v5q-2 48 -25.5 76
t-59.5 28q-38 0 -61.5 -30.5t-23.5 -81.5z" />
    <glyph glyph-name="e.dnom" horiz-adv-x="408" 
d="M31 171q0 40 13 73.5t36.5 57.5t56 37t71.5 13q76 0 122.5 -45t46.5 -128v-24h-253q4 -48 27 -70.5t61 -22.5q34 0 50.5 13t21.5 31h86q-8 -49 -50 -81t-111 -32q-82 0 -130 46.5t-48 131.5zM208 283q-66 0 -81 -71h154q-9 71 -73 71z" />
    <glyph glyph-name="f.dnom" horiz-adv-x="255" 
d="M75 271h-66v73h66v41q0 69 30 100t99 31h54v-76h-39q-29 0 -40.5 -12.5t-11.5 -43.5v-40h79v-73h-79v-271h-92v271z" />
    <glyph glyph-name="g.dnom" horiz-adv-x="435" 
d="M128 -40q2 -26 23 -40t55 -14q47 0 70 27.5t23 89.5v30h-3q-15 -32 -44 -46.5t-71 -14.5q-30 0 -57.5 11.5t-48 33.5t-32.5 55t-12 77t13 78.5t34.5 58t50 35.5t58.5 12q79 0 109 -62h3v53h87v-322q0 -51 -13 -86t-37 -56.5t-57.5 -31t-74.5 -9.5q-72 0 -115.5 30
t-46.5 91h86zM125 169q0 -50 23.5 -78t61.5 -28t61.5 29t23.5 80v4q-2 48 -25.5 76.5t-59.5 28.5q-38 0 -61.5 -30.5t-23.5 -81.5z" />
    <glyph glyph-name="h.dnom" horiz-adv-x="419" 
d="M49 516h91v-109q0 -17 -0.5 -46.5t-3.5 -67.5h4q14 32 42 46t66 14q25 0 48 -7.5t40 -23.5t27.5 -42t10.5 -63v-217h-91v196q0 47 -18.5 65t-48.5 18q-34 0 -55 -26t-21 -72v-181h-91v516z" />
    <glyph glyph-name="i.dnom" horiz-adv-x="183" 
d="M43 516h97v-89h-97v89zM46 344h91v-344h-91v344z" />
    <glyph glyph-name="j.dnom" horiz-adv-x="183" 
d="M43 516h97v-89h-97v89zM46 344h91v-375q0 -30 -5.5 -53t-19 -39t-36.5 -24t-58 -8h-32v76h20q23 0 31.5 13t8.5 39v371z" />
    <glyph glyph-name="k.dnom" horiz-adv-x="387" 
d="M49 516h92v-311l126 139h103l-128 -137l141 -207h-105l-96 142l-41 -44v-98h-92v516z" />
    <glyph glyph-name="l.dnom" horiz-adv-x="190" 
d="M49 516h91v-516h-91v516z" />
    <glyph glyph-name="m.dnom" horiz-adv-x="635" 
d="M49 344h87v-51h4q15 32 40.5 46t63.5 14q35 0 64.5 -16t44.5 -52q18 38 47.5 53t68.5 15q24 0 45.5 -7t38.5 -22.5t27 -40.5t10 -62v-221h-91v201q0 43 -16 60.5t-45 17.5q-32 0 -52.5 -24.5t-20.5 -72.5v-182h-91v200q0 43 -16 61t-45 18t-51 -23t-22 -74v-182h-91v344z
" />
    <glyph glyph-name="n.dnom" horiz-adv-x="419" 
d="M49 344h87v-51h4q14 32 42 46t66 14q25 0 48 -7.5t40 -23.5t27.5 -42t10.5 -63v-217h-91v196q0 47 -18.5 65t-48.5 18q-32 0 -54 -24.5t-22 -72.5v-182h-91v344z" />
    <glyph glyph-name="o.dnom" horiz-adv-x="424" 
d="M31 172q0 41 13 74.5t36.5 57t57 36.5t74.5 13q85 0 133 -49t48 -132t-49.5 -131.5t-131.5 -48.5q-85 0 -133 48.5t-48 131.5zM125 172q0 -49 23.5 -79t63.5 -30t63.5 30t23.5 79q0 50 -23.5 79.5t-63.5 29.5t-63.5 -29.5t-23.5 -79.5z" />
    <glyph glyph-name="p.dnom" horiz-adv-x="435" 
d="M140 -155h-91v499h87v-53h4q14 32 43.5 47t71.5 15q30 0 57.5 -11.5t47.5 -34t32 -55.5t12 -77t-13 -78.5t-34.5 -57.5t-49.5 -35t-59 -12q-80 0 -108 61h-4q3 -39 3.5 -66.5t0.5 -45.5v-96zM310 175q0 50 -23 78t-61 28t-61.5 -28t-24.5 -76v-5q0 -51 24 -80t62 -29
t61 30.5t23 81.5z" />
    <glyph glyph-name="q.dnom" horiz-adv-x="435" 
d="M295 -59q0 18 0.5 45.5t3.5 66.5h-3q-14 -32 -43.5 -46.5t-71.5 -14.5q-30 0 -57.5 11.5t-48 33.5t-32.5 55t-12 77t13 78.5t34.5 58t49.5 35.5t58 12q82 0 110 -62h3v53h87v-499h-91v96zM125 169q0 -50 23.5 -78t61.5 -28t61.5 29t23.5 80t-23.5 80t-61.5 29
t-61.5 -30.5t-23.5 -81.5z" />
    <glyph glyph-name="r.dnom" horiz-adv-x="283" 
d="M49 344h88v-65h3q12 31 33.5 52.5t56.5 21.5q11 0 23 -3t25 -12l-18 -83q-12 7 -22.5 9.5t-20.5 2.5q-20 0 -34 -9.5t-23.5 -25.5t-14 -37t-4.5 -44v-151h-92v344z" />
    <glyph glyph-name="s.dnom" horiz-adv-x="379" 
d="M115 105q2 -26 22.5 -39t52.5 -13q30 0 48.5 10t18.5 30t-15.5 27t-38.5 12l-60 12q-49 8 -77.5 30.5t-28.5 69.5q0 53 43 81t110 28q65 0 106.5 -26.5t44.5 -80.5h-85q-2 24 -20 34.5t-44 10.5q-31 0 -48 -9.5t-17 -27.5q0 -17 12.5 -25t40.5 -13l61 -12q22 -4 42 -10.5
t34 -18t22.5 -28.5t8.5 -43q0 -28 -12 -49t-33.5 -35t-50.5 -21t-63 -7q-69 0 -112 27t-47 86h85z" />
    <glyph glyph-name="t.dnom" horiz-adv-x="261" 
d="M70 271h-62v73h62v104h92v-104h82v-73h-82v-143q0 -27 9 -39t35 -12h38v-77h-49q-69 0 -97 27t-28 91v153z" />
    <glyph glyph-name="u.dnom" horiz-adv-x="419" 
d="M45 344h91v-196q0 -47 19 -65t48 -18q32 0 54 24.5t22 74.5v180h91v-344h-87v51h-3q-15 -32 -42.5 -45.5t-65.5 -13.5q-26 0 -49 7t-40 23t-27.5 42t-10.5 63v217z" />
    <glyph glyph-name="v.dnom" horiz-adv-x="371" 
d="M4 344h102l82 -253l85 253h94l-124 -344h-110z" />
    <glyph glyph-name="w.dnom" horiz-adv-x="551" 
d="M4 344h92l68 -255l67 255h91l67 -256l69 256h89l-103 -344h-102l-67 247l-67 -247h-102z" />
    <glyph glyph-name="x.dnom" horiz-adv-x="350" 
d="M127 171l-120 173h103l67 -102l69 102h98l-122 -169l124 -175h-103l-70 106l-72 -106h-97z" />
    <glyph glyph-name="y.dnom" horiz-adv-x="371" 
d="M4 344h102l82 -253l85 253h94l-137 -383q-8 -23 -20 -44t-29 -37t-40 -25.5t-53 -9.5h-41v76h21q30 0 51 13t32 45l7 21h-26z" />
    <glyph glyph-name="z.dnom" horiz-adv-x="340" 
d="M24 344h289v-57l-167 -213h170v-74h-291v54l169 216h-170v74z" />
    <glyph glyph-name="cent.dnom" 
d="M34 171q0 51 30 86t87 43v52h70v-53q50 -8 74.5 -37t27.5 -65h-85q-3 17 -15 30t-37 13q-29 0 -45.5 -18.5t-16.5 -50.5t16.5 -50.5t45.5 -18.5q25 0 37 13t15 30h85q-3 -37 -27.5 -66t-74.5 -37v-50h-70v50q-57 8 -87 43t-30 86z" />
    <glyph glyph-name="Euro.dnom" 
d="M19 157h31v15v15h-28l8 31h24q9 58 46 96t107 38q64 0 95 -34t40 -88h-85q-5 26 -16.5 40.5t-34.5 14.5q-51 0 -62 -67h85l-8 -31h-80v-15v-15h70l-8 -31h-59q10 -67 62 -67q21 0 33 13t18 39h85q-10 -54 -41.5 -86.5t-93.5 -32.5q-71 0 -107.5 37.5t-46.5 96.5h-42z" />
    <glyph glyph-name="minus.dnom" 
d="M44 208h271v-68h-271v68z" />
    <glyph glyph-name="space.frac" horiz-adv-x="75" 
d="M174 700h75l-348 -712h-75z" />
    <glyph glyph-name="zero.osf" horiz-adv-x="597" 
d="M38 244q0 56 19 103t53.5 81t82 53t105.5 19q60 0 108.5 -19t82.5 -53t52 -81t18 -103t-19 -103t-53.5 -81t-82.5 -53t-106 -19q-60 0 -108 19t-82 53t-52 81t-18 103zM149 244q0 -39 11.5 -70t31.5 -52.5t47 -33.5t59 -12t59.5 12t47.5 33.5t31.5 52.5t11.5 70
q0 40 -11.5 71t-31.5 52.5t-47.5 33t-59.5 11.5t-59 -12t-47 -33.5t-31.5 -52.5t-11.5 -70z" />
    <glyph glyph-name="one.osf" horiz-adv-x="365" 
d="M12 355l195 133h76v-488h-108v354l-117 -79z" />
    <glyph glyph-name="two.osf" horiz-adv-x="508" 
d="M37 0q0 55 13 94t35.5 67t53.5 46t67 32l55 22l39 15t31 16.5t20 22t7 31.5q0 12 -4.5 24.5t-16 23t-30.5 17.5t-48 7q-106 0 -115 -105h-101q1 52 21 88t50.5 58t69 31.5t76.5 9.5q94 0 149.5 -41.5t55.5 -112.5q0 -38 -13 -63t-34 -42.5t-48 -29t-56 -22.5l-56 -21
q-40 -15 -66.5 -35.5t-27.5 -46.5h300v-86h-427z" />
    <glyph glyph-name="three.osf" horiz-adv-x="541" 
d="M125 8q0 -66 38 -99.5t98 -33.5t98 31.5t38 86.5q0 54 -38.5 86t-97.5 32h-51v89h51q49 0 82 30.5t33 79.5t-33 76t-82 27t-82 -28t-33 -87h-99q0 47 15.5 84.5t44 63.5t67.5 40t87 14q49 0 89.5 -13.5t69 -38t44 -59t15.5 -75.5q0 -25 -8 -49.5t-22 -45t-32.5 -36.5
t-39.5 -23v-4q28 -7 51.5 -22.5t40.5 -37.5t27 -49t10 -58q0 -48 -19 -85.5t-52 -63t-77.5 -39t-96.5 -13.5q-54 0 -98.5 13.5t-76 41t-49 68.5t-17.5 97h105z" />
    <glyph glyph-name="four.osf" horiz-adv-x="552" 
d="M22 73l328 419h90v-402h94v-90h-94v-200h-108v200h-310v73zM332 90v249l-200 -249h200z" />
    <glyph glyph-name="five.osf" horiz-adv-x="521" 
d="M138 -16q3 -20 12 -39t24.5 -34.5t38.5 -25t54 -9.5q25 0 48.5 9t41.5 26t28.5 42.5t10.5 58.5q0 34 -10 60t-27.5 44t-40.5 27t-48 9q-42 0 -69 -18t-49 -46l-97 6l22 394h388v-93h-292l-11 -199h4q20 19 50 31.5t73 12.5q42 0 81 -14t69 -41.5t48 -68.5t18 -96
q0 -58 -19.5 -101.5t-52.5 -72.5t-75.5 -43.5t-88.5 -14.5q-109 0 -169.5 53.5t-68.5 142.5h107z" />
    <glyph glyph-name="six.osf" horiz-adv-x="571" 
d="M42 325q0 103 19.5 174.5t54.5 116t83 64.5t104 20q53 0 91.5 -14t64 -38.5t39.5 -59.5t19 -77h-106q-3 22 -9.5 40.5t-19 32t-32 21t-47.5 7.5q-32 0 -58.5 -12.5t-46 -41.5t-31 -77t-13.5 -120v-3q20 38 63.5 60t97.5 22q46 0 85.5 -15t69 -43.5t46.5 -70t17 -94.5
q0 -56 -19.5 -98.5t-52 -71.5t-75.5 -44t-89 -15q-53 0 -99.5 17t-81 56t-54.5 103.5t-20 160.5zM297 352q-60 0 -95.5 -38t-35.5 -99v-3q1 -59 36 -97.5t92 -38.5t94 36.5t37 103.5q0 30 -10 55t-27 43t-40.5 28t-50.5 10z" />
    <glyph glyph-name="seven.osf" horiz-adv-x="475" 
d="M342 392h-326v96h443v-71l-285 -617h-112z" />
    <glyph glyph-name="eight.osf" horiz-adv-x="563" 
d="M34 185q0 64 33 110.5t93 62.5q-21 7 -39.5 23t-32 36.5t-21 45t-7.5 50.5q0 42 15.5 76t44.5 59t69 38.5t90 13.5q49 0 89.5 -13.5t69.5 -38.5t44.5 -59t15.5 -76q0 -26 -7.5 -50.5t-21 -45t-32 -36.5t-39.5 -23q60 -16 93 -62.5t33 -110.5q0 -94 -65.5 -145.5
t-179.5 -51.5t-179.5 51.5t-65.5 145.5zM144 193q0 -57 35.5 -87.5t99.5 -30.5t99.5 30.5t35.5 87.5q0 54 -36 86t-99 32t-99 -32t-36 -86zM279 400q49 0 82.5 29.5t33.5 80.5q0 50 -33.5 78t-82.5 28t-82.5 -28t-33.5 -78q0 -51 33.5 -80.5t82.5 -29.5z" />
    <glyph glyph-name="nine.osf" horiz-adv-x="565" 
d="M520 166q0 -105 -18.5 -177.5t-52 -117t-80.5 -64t-104 -19.5q-108 0 -162 52.5t-58 136.5h106q2 -22 9 -40.5t20.5 -32t34.5 -21t50 -7.5q33 0 58.5 12.5t43.5 41.5t28.5 77t12.5 119v3q-20 -37 -63 -59t-97 -22q-46 0 -86 15t-69.5 43.5t-46.5 70t-17 94.5
q0 55 19.5 98t52.5 72t75.5 44t88.5 15q54 0 100.5 -16.5t81 -55t54 -102.5t19.5 -160zM265 136q60 0 95.5 37.5t35.5 99.5v3q-1 59 -36 97.5t-92 38.5t-94 -36.5t-37 -103.5q0 -30 10 -55t27.5 -43t40.5 -28t50 -10z" />
    <glyph glyph-name="dollar.lf" horiz-adv-x="540" 
d="M134 194q4 -59 40.5 -89t90.5 -30q58 0 92 27.5t34 81.5q0 24 -9 40.5t-24 29t-35.5 21t-43.5 16.5l-85 26q-27 8 -54.5 22t-49.5 36.5t-36 54.5t-14 76q0 38 13 70t36.5 56.5t56 41t71.5 22.5v108h95v-108q71 -13 119.5 -60.5t53.5 -123.5h-107q-7 54 -39.5 77t-74.5 23
q-22 0 -42.5 -5.5t-36 -17t-25 -29.5t-9.5 -43q0 -23 7 -39.5t20 -28.5t32.5 -21t45.5 -17l84 -26q78 -24 120 -69.5t42 -121.5q0 -85 -51.5 -138t-138.5 -65v-111h-95v111q-87 11 -137 64t-53 139h107z" />
    <glyph glyph-name="zero.lf" horiz-adv-x="591" 
d="M295 -12q-67 0 -115 28t-78.5 76t-45 113t-14.5 139t14.5 139t45 113t78.5 76t115 28t115.5 -28t79 -76t45 -113t14.5 -139t-14.5 -139t-45 -113t-79 -76t-115.5 -28zM295 81q70 0 105.5 67.5t35.5 195.5t-35.5 195.5t-105.5 67.5q-72 0 -106.5 -67.5t-34.5 -195.5
t35.5 -195.5t105.5 -67.5z" />
    <glyph glyph-name="one.lf" horiz-adv-x="364" 
d="M14 555l195 133h76v-688h-108v554l-116 -79z" />
    <glyph glyph-name="two.lf" horiz-adv-x="539" 
d="M37 0q2 59 12 103.5t29.5 80t49 64.5t70.5 56l72 48l47 33t35.5 31.5t22.5 36.5t8 47q0 20 -5.5 40t-18.5 35.5t-34 25t-52 9.5q-117 0 -128 -129h-102q3 62 23 104t51.5 67.5t72 36.5t84.5 11q49 0 89.5 -13t69.5 -38t44.5 -61.5t15.5 -82.5q0 -44 -12.5 -76.5
t-33.5 -58t-48.5 -46t-57.5 -40.5l-72 -48q-35 -24 -55 -43.5t-31.5 -37t-15.5 -33.5t-5 -32h336v-90h-461z" />
    <glyph glyph-name="three.lf" horiz-adv-x="556" 
d="M137 208q0 -66 38.5 -99.5t98.5 -33.5t98 31.5t38 86.5q0 27 -10.5 48.5t-28.5 37t-43 24t-54 8.5h-52v89h52q48 0 81 30.5t33 79.5t-33 76t-81 27q-49 0 -82 -28t-33 -87h-100q0 47 15.5 84.5t44 63.5t68 40t87.5 14q49 0 89 -13.5t68.5 -38t44.5 -59t16 -75.5
q0 -25 -8 -49.5t-22 -45t-32.5 -36.5t-39.5 -23v-4q28 -7 51.5 -22.5t40.5 -37.5t27 -49t10 -58q0 -48 -19 -85.5t-52 -63t-78 -39t-96 -13.5q-54 0 -98.5 13.5t-76.5 41t-49.5 68.5t-17.5 97h105z" />
    <glyph glyph-name="four.lf" horiz-adv-x="562" 
d="M19 234l328 454h90v-437h94v-90h-94v-161h-108v161h-310v73zM329 251v275l-202 -275h202z" />
    <glyph glyph-name="five.lf" horiz-adv-x="540" 
d="M138 184q3 -20 12 -39t24.5 -34.5t38.5 -25t54 -9.5q25 0 48.5 9t41.5 26t28.5 42.5t10.5 58.5q0 34 -10 60t-27.5 44t-40.5 27t-48 9q-42 0 -69 -18t-49 -46l-97 6l22 394h388v-93h-292l-11 -199h4q20 19 50 31.5t73 12.5q42 0 81 -14t69 -41.5t48 -68.5t18 -96
q0 -58 -19.5 -101.5t-52.5 -72.5t-75.5 -43.5t-88.5 -14.5q-109 0 -169.5 53.5t-68.5 142.5h107z" />
    <glyph glyph-name="six.lf" horiz-adv-x="571" 
d="M42 325q0 103 19.5 174.5t54.5 116t83 64.5t104 20q53 0 91.5 -14t64 -38.5t39.5 -59t19 -76.5h-106q-3 21 -9.5 39.5t-19 32t-32 21t-47.5 7.5q-32 0 -58.5 -12.5t-46 -41.5t-31 -77t-13.5 -120v-3q20 38 63.5 60t97.5 22q46 0 85.5 -15t69 -43.5t46.5 -70t17 -94.5
q0 -56 -19.5 -98.5t-52 -71.5t-75.5 -44t-89 -15q-53 0 -99.5 17t-81 56t-54.5 103.5t-20 160.5zM297 352q-60 0 -95.5 -38t-35.5 -99v-3q1 -59 36 -97.5t92 -38.5t94 36.5t37 103.5q0 30 -10 55t-27 43t-40.5 28t-50.5 10z" />
    <glyph glyph-name="seven.lf" horiz-adv-x="475" 
d="M345 592h-326v96h443v-71l-285 -617h-112z" />
    <glyph glyph-name="eight.lf" horiz-adv-x="569" 
d="M37 185q0 64 33 110.5t93 62.5q-21 7 -39.5 23t-32 36.5t-21 45t-7.5 50.5q0 42 15.5 76t44.5 59t69 38.5t90 13.5q49 0 89.5 -13.5t69.5 -38.5t44.5 -59t15.5 -76q0 -26 -7.5 -50.5t-21 -45t-32 -36.5t-39.5 -23q60 -16 93 -62.5t33 -110.5q0 -94 -65.5 -145.5
t-179.5 -51.5t-179.5 51.5t-65.5 145.5zM147 193q0 -57 35.5 -87.5t99.5 -30.5t99.5 30.5t35.5 87.5q0 54 -36 86t-99 32t-99 -32t-36 -86zM282 400q49 0 82.5 29.5t33.5 80.5q0 50 -33.5 78t-82.5 28t-82.5 -28t-33.5 -78q0 -51 33.5 -80.5t82.5 -29.5z" />
    <glyph glyph-name="nine.lf" horiz-adv-x="571" 
d="M522 366q0 -105 -18.5 -177.5t-52.5 -117t-80.5 -64t-103.5 -19.5q-54 0 -94 14t-67.5 38.5t-42 59t-16.5 76.5h106q5 -43 30 -71.5t84 -28.5q33 0 58.5 12t43.5 41t28.5 77t12.5 120v3q-20 -37 -63 -59t-97 -22q-46 0 -86 15t-69.5 43.5t-46.5 70t-17 94.5q0 55 19.5 98
t52.5 72t75.5 44t88.5 15q54 0 100.5 -16.5t81 -55t54 -102.5t19.5 -160zM267 336q60 0 95.5 37.5t35.5 99.5v3q-1 59 -36 97.5t-92 38.5t-94 -36.5t-37 -103.5q0 -30 10 -55t27.5 -43t40.5 -28t50 -10z" />
    <glyph glyph-name="cent.lf" horiz-adv-x="535" 
d="M234 95q-92 15 -143.5 81t-51.5 172q0 52 14.5 95.5t40.5 76t63 53.5t81 28v99h95v-100q77 -14 120 -63t51 -121h-107q-7 45 -34 73t-81 28q-29 0 -53 -12t-41 -34.5t-27 -53.5t-10 -69t10 -69t27 -53.5t41 -34.5t53 -12q54 0 81 28t34 73h107q-8 -74 -51.5 -123.5
t-123.5 -61.5v-107h-95v107z" />
    <glyph glyph-name="sterling.lf" horiz-adv-x="564" 
d="M51 390h83q-11 32 -19 64.5t-8 67.5q0 81 52 129.5t142 48.5q85 0 132.5 -47t52.5 -136h-99q-9 101 -88 101q-35 0 -60.5 -22.5t-25.5 -65.5q0 -37 10.5 -71t22.5 -69h160v-68h-137q5 -21 8.5 -41.5t3.5 -42.5q0 -52 -14 -102l69 -42.5t65 -19.5q29 0 45.5 21t18.5 75h87
q-2 -36 -9.5 -69t-25 -58t-45.5 -40t-70 -15q-46 0 -87 24.5t-79 52.5q-21 -35 -54 -56t-78 -21q-51 0 -81.5 26.5t-30.5 71.5q0 53 33.5 81.5t86.5 28.5q17 0 33 -4t33 -10q0 7 0.5 14.5t0.5 13.5q0 29 -6.5 56.5t-14.5 55.5h-107v68zM105 46q25 0 39.5 19.5t22.5 48.5
q-15 9 -30.5 15t-30.5 6q-20 0 -33 -12.5t-13 -32.5q0 -19 11 -31.5t34 -12.5z" />
    <glyph glyph-name="currency.lf" horiz-adv-x="484" 
d="M43 194l59 60q-12 19 -20 41.5t-8 48.5t8.5 49t21.5 42l-60 60l51 50l59 -61q20 11 42 17.5t47 6.5q24 0 46 -6.5t42 -17.5l60 61l51 -50l-60 -60q13 -19 21.5 -42t8.5 -49t-8.5 -48.5t-20.5 -41.5l60 -60l-51 -50l-60 60q-38 -24 -89 -24q-25 0 -48 6t-41 18l-60 -60z
M243 250q38 0 64 25.5t26 68.5t-26 68.5t-64 25.5t-64 -25.5t-26 -68.5t26 -68.5t64 -25.5z" />
    <glyph glyph-name="yen.lf" horiz-adv-x="547" 
d="M73 302h145v2l-221 384h124l153 -279h4l154 279h115l-221 -385v-1h145v-61h-145v-71h145v-61h-145v-109h-108v109h-145v61h145v71h-145v61z" />
    <glyph glyph-name="florin.lf" horiz-adv-x="503" 
d="M43 357h126l18 171q10 92 56 132t117 40t109 -36.5t33 -119.5l-3 -42h-95l3 38q2 37 -9 57t-40 20t-43.5 -22.5t-19.5 -66.5l-18 -171h148v-72h-156l-31 -305q-10 -92 -56.5 -132t-117.5 -40t-108.5 36.5t-32.5 119.5l3 42h95l-3 -38q-2 -37 9 -57t40 -20t43.5 22.5
t19.5 66.5l31 305h-118v72z" />
    <glyph glyph-name="Euro.lf" horiz-adv-x="614" 
d="M49 451h55q10 55 32 100.5t54.5 78.5t76.5 51.5t99 18.5q105 0 162.5 -53t71.5 -153h-104q-12 63 -43 91t-83 28q-58 0 -98 -42t-56 -120h191l-17 -61h-182q-2 -11 -2 -23v-23v-18.5t1 -18.5h179l-18 -62h-154q14 -82 53.5 -126t98.5 -44q49 0 80.5 23.5t44.5 80.5h104
q-17 -94 -74.5 -142.5t-157.5 -48.5q-58 0 -102.5 19t-77 53t-52.5 81.5t-29 103.5h-90l18 62h65q-1 8 -1 18.5v18.5v23t2 23h-65z" />
    <glyph glyph-name="zero.tosf" horiz-adv-x="568" 
d="M38 244q0 56 17.5 103t50 81t77.5 53t101 19q58 0 103.5 -19t77 -53t48.5 -81t17 -103t-17.5 -103t-50 -81t-78 -53t-100.5 -19q-58 0 -103.5 19t-77 53t-48.5 81t-17 103zM149 244q0 -78 37.5 -123t97.5 -45q30 0 55 12t42.5 34t27.5 53t10 69q0 80 -37.5 124t-97.5 44
t-97.5 -45t-37.5 -123z" />
    <glyph glyph-name="one.tosf" horiz-adv-x="568" 
d="M71 341l211 147h75v-401h167v-87h-455v87h182v272l-134 -93z" />
    <glyph glyph-name="two.tosf" horiz-adv-x="568" 
d="M54 0q0 55 13.5 94.5t37 67.5t55.5 46.5t68 30.5l62 22q22 7 41 14t33.5 16t23 22t8.5 33q0 13 -5.5 25.5t-18.5 23t-34 17t-52 6.5q-59 0 -91.5 -26.5t-37.5 -78.5h-101q1 52 22 88t53.5 58t73 31.5t81.5 9.5q49 0 89 -10.5t68.5 -30t44 -47.5t15.5 -63q0 -40 -14 -66.5
t-37 -44t-51.5 -29t-58.5 -21.5l-61 -21q-42 -14 -70 -33.5t-33 -47.5h327v-86h-451z" />
    <glyph glyph-name="three.tosf" horiz-adv-x="568" 
d="M144 8q0 -69 37.5 -100.5t94.5 -31.5q60 0 96 30t36 88q0 28 -10.5 50t-28.5 37t-42 22.5t-51 7.5h-53v89h53q47 0 80 29.5t33 80.5q0 49 -33 75.5t-80 26.5t-80 -28t-33 -86h-98q0 47 15.5 84.5t43.5 63.5t67 40t85 14q48 0 87.5 -13.5t68 -38t44.5 -59t16 -75.5
q0 -56 -29.5 -96.5t-70.5 -56.5q54 -16 90 -60.5t36 -115.5q0 -47 -18 -83.5t-50 -62t-76.5 -38.5t-97.5 -13t-97 13t-75.5 40t-48.5 68.5t-17 98.5h106z" />
    <glyph glyph-name="four.tosf" horiz-adv-x="568" 
d="M28 73l328 419h90v-402h94v-90h-94v-200h-108v200h-310v73zM338 90v249l-200 -249h200z" />
    <glyph glyph-name="five.tosf" horiz-adv-x="568" 
d="M160 -16q3 -20 12 -39.5t25 -34.5t39 -24.5t55 -9.5q25 0 49 9t42 26t29 43t11 59q0 66 -37.5 102.5t-93.5 36.5q-39 0 -67 -18t-51 -47l-99 8l21 393h396v-93h-299l-11 -197h4q20 18 51 30t73 12q46 0 86.5 -15t70.5 -43t47 -69t17 -93q0 -59 -20 -102.5t-53 -72.5
t-76 -43t-90 -14q-109 0 -170 53.5t-69 142.5h108z" />
    <glyph glyph-name="six.tosf" horiz-adv-x="568" 
d="M40 328q0 104 21.5 175t57.5 115t84 63t101 19t91.5 -13.5t64 -38t39.5 -59t17 -75.5h-107q-3 21 -8.5 38.5t-17.5 31t-31.5 21t-48.5 7.5t-55.5 -13t-46.5 -42.5t-33 -77.5t-15 -118v-2q10 19 27.5 34t39 25.5t46.5 16t51 5.5q45 0 84 -15t68.5 -43.5t46 -70t16.5 -94.5
q0 -56 -19.5 -98.5t-52.5 -71.5t-75.5 -44t-88.5 -15q-53 0 -99.5 17.5t-81 57.5t-55 105t-20.5 160zM299 352q-29 0 -53.5 -10.5t-42.5 -28.5t-28 -43t-10 -55v-1q0 -30 9.5 -55.5t26.5 -43.5t40 -28.5t51 -10.5q56 0 93.5 36t37.5 104q0 31 -10 56t-26.5 43t-39.5 27.5
t-48 9.5z" />
    <glyph glyph-name="seven.tosf" horiz-adv-x="568" 
d="M411 392h-363v96h480v-71l-285 -617h-112z" />
    <glyph glyph-name="eight.tosf" horiz-adv-x="568" 
d="M39 185q0 64 33 110.5t93 62.5q-21 7 -39.5 23t-32 36.5t-21 45t-7.5 50.5q0 42 15.5 76t44.5 59t69 38.5t90 13.5q49 0 89.5 -13.5t69.5 -38.5t44.5 -59t15.5 -76q0 -26 -7.5 -50.5t-21 -45t-32 -36.5t-39.5 -23q60 -16 93 -62.5t33 -110.5q0 -94 -65.5 -145.5
t-179.5 -51.5t-179.5 51.5t-65.5 145.5zM149 193q0 -57 35.5 -87.5t99.5 -30.5t99.5 30.5t35.5 87.5q0 54 -36 86t-99 32t-99 -32t-36 -86zM284 400q49 0 82.5 29.5t33.5 80.5q0 50 -33.5 78t-82.5 28t-82.5 -28t-33.5 -78q0 -51 33.5 -80.5t82.5 -29.5z" />
    <glyph glyph-name="nine.tosf" horiz-adv-x="568" 
d="M527 160q0 -104 -18.5 -175t-52 -115t-81 -63t-104.5 -19q-54 0 -93.5 13.5t-66.5 38t-41.5 59t-18.5 75.5h107q3 -20 9.5 -37.5t19.5 -31t34 -21.5t51 -8q34 0 59.5 13t43.5 42.5t27.5 77.5t11.5 118v1q-10 -18 -27 -33t-39 -25.5t-47 -16t-50 -5.5q-45 0 -84.5 15
t-69 43.5t-46 70t-16.5 94.5q0 55 19.5 98t52.5 72t75.5 44t88.5 15q52 0 99 -17.5t81.5 -57.5t55 -105t20.5 -160zM268 136q29 0 53.5 10.5t42.5 28.5t28.5 43t10.5 55v1q0 30 -10 55.5t-27 43.5t-40.5 28.5t-50.5 10.5t-50.5 -9t-41.5 -27t-28.5 -44t-10.5 -60
q0 -31 10 -56t26.5 -43t39 -27.5t48.5 -9.5z" />
    <glyph glyph-name="uni2007.tosf" horiz-adv-x="568" 
 />
    <glyph glyph-name="exclam.sc" horiz-adv-x="280" 
d="M81 378v142h118v-142l-29 -220h-60zM86 102h108v-102h-108v102z" />
    <glyph glyph-name="quotedbl.sc" horiz-adv-x="411" 
d="M61 430v91h103v-91l-17 -176h-69zM247 430v91h103v-91l-17 -176h-69z" />
    <glyph glyph-name="numbersign.sc" horiz-adv-x="521" 
d="M43 409h101l20 111h84l-20 -111h131l20 111h84l-20 -111h77v-72h-90l-25 -145h87v-73h-100l-21 -119h-84l21 119h-131l-21 -119h-84l21 119h-77v73h90l25 145h-88v72zM190 192h131l25 145h-131z" />
    <glyph glyph-name="dollar.sc" horiz-adv-x="504" 
d="M142 150q1 -38 30.5 -61t74.5 -23q46 0 72.5 18.5t26.5 53.5q0 32 -22.5 46.5t-63.5 25.5l-69 18q-23 6 -47.5 15.5t-44.5 26.5t-33 42.5t-13 62.5q0 60 39.5 101.5t111.5 52.5v87h88v-87q63 -11 102.5 -49.5t43.5 -98.5h-100q-6 36 -30.5 54.5t-59.5 18.5q-36 0 -62 -16
t-26 -49q0 -29 20 -44t62 -27l69 -18q67 -17 105 -51t38 -99q0 -67 -43.5 -108.5t-118.5 -50.5v-91h-88v91q-77 9 -118.5 51t-43.5 108h100z" />
    <glyph glyph-name="percent.sc" horiz-adv-x="600" 
d="M136 254q-61 0 -89 38t-28 98t28 98t89 38t89 -38t28 -98t-28 -98t-89 -38zM136 309q47 0 47 81q0 82 -47 82q-48 0 -48 -82q0 -81 48 -81zM419 529h60l-298 -538h-59zM464 -6q-60 0 -88 38t-28 98t28 98t88 38q61 0 89 -38t28 -98t-28 -98t-89 -38zM464 49q48 0 48 81
q0 82 -48 82q-47 0 -47 -82q0 -81 47 -81z" />
    <glyph glyph-name="ampersand.sc" horiz-adv-x="596" 
d="M43 138q0 28 10 50.5t27 40t39 31t46 24.5q-16 18 -26.5 32.5t-17 27.5t-9 26t-2.5 27q0 25 9.5 49t29.5 42.5t50.5 29.5t71.5 11q79 0 117 -34t38 -90q0 -27 -10.5 -47.5t-27.5 -36.5t-39.5 -28.5t-46.5 -23.5l125 -117q20 39 20 94v14h89v-15q0 -35 -10 -75.5
t-35 -76.5l101 -93h-120l-39 36q-32 -22 -73.5 -35t-96.5 -13q-109 0 -164.5 40.5t-55.5 109.5zM265 67q60 0 104 26l-151 138q-30 -16 -50.5 -35.5t-20.5 -49.5q0 -37 33 -58t85 -21zM202 400q0 -18 10.5 -36t36.5 -44q35 16 60 34t25 47q0 25 -16 41t-51 16
q-30 0 -47.5 -16.5t-17.5 -41.5z" />
    <glyph glyph-name="quotesingle.sc" horiz-adv-x="225" 
d="M61 430v91h103v-91l-17 -176h-69z" />
    <glyph glyph-name="parenleft.sc" horiz-adv-x="306" 
d="M198 -92q-19 25 -39.5 62.5t-37.5 83.5t-28 98.5t-11 107.5t11 108t28 98.5t37.5 83t39.5 62.5h93q-18 -24 -38 -61.5t-36.5 -84t-27.5 -99t-11 -107.5q0 -54 11 -107t27.5 -99.5t36.5 -84t38 -61.5h-93z" />
    <glyph glyph-name="parenright.sc" horiz-adv-x="306" 
d="M15 -92q18 24 38 61.5t36.5 84t27.5 99.5t11 107q0 55 -11 107.5t-27.5 99t-36.5 84t-38 61.5h94q19 -25 39.5 -62.5t37.5 -83t28 -98.5t11 -108t-11 -107.5t-28 -98.5t-37.5 -83.5t-39.5 -62.5h-94z" />
    <glyph glyph-name="asterisk.sc" horiz-adv-x="463" 
d="M273 529l-15 -128l116 55l26 -80l-127 -25l88 -93l-67 -49l-63 112l-62 -112l-67 49l86 94l-124 24l25 80l116 -54l-15 127h83z" />
    <glyph glyph-name="plus.sc" horiz-adv-x="504" 
d="M61 306h145v149h92v-149h145v-88h-145v-148h-92v148h-145v88z" />
    <glyph glyph-name="hyphen.sc" horiz-adv-x="396" 
d="M56 311h284v-94h-284v94z" />
    <glyph glyph-name="slash.sc" horiz-adv-x="336" 
d="M238 532h92l-232 -544h-92z" />
    <glyph glyph-name="zero.sc" horiz-adv-x="504" 
d="M252 -12q-57 0 -98 21.5t-66.5 58t-37.5 86t-12 106.5t12 106.5t37.5 86t66.5 58t98 21.5t98 -21.5t66.5 -58t37.5 -86t12 -106.5t-12 -106.5t-37.5 -86t-66.5 -58t-98 -21.5zM252 72q52 0 77 48.5t25 139.5q0 92 -24 140t-78 48q-53 0 -77.5 -48t-24.5 -140
q0 -91 25 -139.5t77 -48.5z" />
    <glyph glyph-name="one.sc" horiz-adv-x="504" 
d="M62 397l194 123h72v-435h131v-85h-377v85h139v308l-116 -71z" />
    <glyph glyph-name="two.sc" horiz-adv-x="504" 
d="M50 0q1 48 10 84.5t26 64.5t42 50t59 41l69 38l36 22t27 21.5t16.5 24.5t5.5 30q0 28 -21 50t-67 22q-90 0 -96 -89h-99q2 48 18.5 81t43.5 53.5t61.5 29.5t72.5 9q85 0 137.5 -39.5t52.5 -111.5q0 -31 -8.5 -55t-24 -43t-37.5 -35t-49 -32l-69 -38q-26 -15 -42.5 -27.5
t-26 -23t-13.5 -21t-5 -21.5h280v-85h-399z" />
    <glyph glyph-name="three.sc" horiz-adv-x="504" 
d="M147 155q0 -48 30 -69t74 -21q45 0 73.5 20t28.5 65q0 40 -28.5 61t-72.5 21h-41v75h42q37 0 61.5 20t24.5 54q0 35 -23 54t-65 19q-36 0 -63 -19.5t-27 -58.5h-93q0 36 14 65t38.5 49.5t58.5 31t74 10.5q88 0 138 -40t50 -108q0 -38 -21 -69t-58 -43q45 -14 70.5 -45
t25.5 -86q0 -38 -16 -66.5t-44 -47.5t-66 -29t-83 -10q-93 0 -146.5 39.5t-53.5 127.5h98z" />
    <glyph glyph-name="four.sc" horiz-adv-x="504" 
d="M27 176l274 344h89v-329h79v-83h-79v-108h-106v108h-257v68zM284 191v193l-152 -193h152z" />
    <glyph glyph-name="five.sc" horiz-adv-x="504" 
d="M153 138q5 -29 28 -49.5t71 -20.5q43 0 71 25t28 71q0 44 -27.5 68.5t-68.5 24.5q-35 0 -55.5 -14.5t-36.5 -35.5l-100 10l17 303h344v-88h-252l-8 -134h4q16 14 40.5 25.5t66.5 11.5q34 0 67 -10.5t58 -31.5t40.5 -53t15.5 -75q0 -44 -16.5 -77t-44.5 -55t-65 -33.5
t-77 -11.5q-97 0 -147.5 40.5t-58.5 109.5h106z" />
    <glyph glyph-name="six.sc" horiz-adv-x="504" 
d="M268 452q-22 0 -41.5 -8t-34.5 -27.5t-25 -52t-13 -82.5v-2q17 26 52.5 40.5t73.5 14.5q36 0 69 -10.5t58 -31.5t39.5 -53t14.5 -75t-16.5 -76t-44 -55.5t-63.5 -34t-76 -11.5q-47 0 -86.5 13.5t-68.5 44t-45.5 80t-16.5 122.5q0 79 18 133.5t49 88t71.5 48t85.5 14.5
t78.5 -11t55.5 -31.5t34.5 -48t15.5 -60.5h-102q-5 30 -22.5 50.5t-59.5 20.5zM260 254q-42 0 -69 -24t-27 -69v-1q0 -41 27 -65t69 -24q43 0 69.5 24.5t26.5 68.5q0 42 -26.5 66t-69.5 24z" />
    <glyph glyph-name="seven.sc" horiz-adv-x="504" 
d="M343 426h-297v94h417v-63l-236 -457h-114z" />
    <glyph glyph-name="eight.sc" horiz-adv-x="504" 
d="M65 384q0 68 50.5 108t136.5 40t136.5 -40t50.5 -108q0 -38 -20.5 -68t-58.5 -42v-4q45 -14 73.5 -48t28.5 -82q0 -38 -15.5 -66t-43.5 -47.5t-66.5 -29t-84.5 -9.5t-84.5 9.5t-66.5 29t-43.5 47.5t-15.5 66q0 48 28.5 82t73.5 48v4q-38 12 -58.5 42t-20.5 68zM149 147
q0 -39 29 -61t74 -22t74 22t29 61q0 41 -29.5 63t-73.5 22t-73.5 -22t-29.5 -63zM163 382q0 -36 25.5 -55.5t63.5 -19.5t63.5 19.5t25.5 55.5q0 35 -25.5 55t-63.5 20t-63.5 -20t-25.5 -55z" />
    <glyph glyph-name="nine.sc" horiz-adv-x="504" 
d="M242 68q22 0 40.5 8t32.5 27.5t22.5 52t10.5 82.5v1q-17 -26 -52 -40t-73 -14q-36 0 -69 10t-58 31t-39.5 53t-14.5 76q0 43 16.5 76t44 55.5t63.5 34t76 11.5q46 0 86 -13.5t69 -44t45.5 -80t16.5 -122.5q0 -80 -17 -134t-47 -87.5t-69.5 -48t-84.5 -14.5
q-90 0 -136.5 42.5t-53.5 108.5h102q5 -29 26 -50t63 -21zM243 266q43 0 69.5 23.5t26.5 69.5v1q-1 43 -27.5 66t-68.5 23q-43 0 -68 -24.5t-25 -68.5q0 -42 25 -66t68 -24z" />
    <glyph glyph-name="less.sc" horiz-adv-x="504" 
d="M432 64l-360 156v87l360 156v-93l-260 -107l260 -106v-93z" />
    <glyph glyph-name="equal.sc" horiz-adv-x="504" 
d="M61 392h382v-87h-382v87zM61 218h382v-87h-382v87z" />
    <glyph glyph-name="greater.sc" horiz-adv-x="504" 
d="M72 463l360 -156v-87l-360 -156v93l259 106l-259 107v93z" />
    <glyph glyph-name="question.sc" horiz-adv-x="473" 
d="M181 176q0 52 23.5 81t51.5 47l24 16q20 14 33.5 28.5t13.5 36.5q0 29 -23.5 47.5t-65.5 18.5q-53 0 -78.5 -26t-25.5 -64h-100q0 34 12 65t37 54.5t63.5 37.5t90.5 14q90 0 143 -36.5t53 -103.5q0 -44 -20.5 -71t-47.5 -45l-24 -16q-24 -17 -42.5 -35t-18.5 -46v-21h-99
v18zM178 102h105v-102h-105v102z" />
    <glyph glyph-name="at.sc" horiz-adv-x="840" 
d="M237 96q0 46 31.5 76.5t98.5 38.5l71 8q30 4 40.5 9.5t10.5 19.5q0 29 -18 46.5t-53 17.5q-31 0 -50.5 -16t-22.5 -47h-89q3 35 17.5 60t36.5 40.5t50 22.5t58 7q79 0 122 -35t43 -104v-115q0 -42 15 -58.5t44 -16.5q31 0 56 35.5t25 118.5q0 62 -22.5 111t-62 83.5
t-94.5 52.5t-120 18q-71 0 -128 -22.5t-96.5 -62t-61 -93t-21.5 -115.5q0 -63 21 -115.5t59.5 -91t93 -60t122.5 -21.5q49 0 90.5 11t70.5 39h90q-42 -54 -107 -83.5t-144 -29.5q-82 0 -149.5 27.5t-115.5 74.5t-74 111t-26 138t26.5 139t75.5 113t118.5 76t155.5 28
q80 0 147.5 -23.5t116.5 -67t76.5 -104t27.5 -133.5q0 -57 -14 -97.5t-37 -67t-54 -38.5t-65 -12q-39 0 -69 14t-46 47q-20 -32 -54 -46.5t-85 -14.5q-64 0 -97.5 30t-33.5 77zM489 178q-11 -12 -39 -15l-58 -7q-31 -3 -44 -17.5t-13 -32.5q0 -22 16.5 -36.5t45.5 -14.5
q17 0 33.5 5t29.5 16t21 28t8 40v34z" />
    <glyph glyph-name="bracketleft.sc" horiz-adv-x="303" 
d="M82 612h206v-81h-113v-542h113v-81h-206v704z" />
    <glyph glyph-name="backslash.sc" horiz-adv-x="336" 
d="M6 532h92l232 -544h-92z" />
    <glyph glyph-name="bracketright.sc" horiz-adv-x="303" 
d="M128 -11v542h-113v81h207v-704h-207v81h113z" />
    <glyph glyph-name="a.sc" horiz-adv-x="547" 
d="M211 520h128l201 -520h-114l-42 115h-226l-42 -115h-109zM271 417l-82 -219h165l-79 219h-4z" />
    <glyph glyph-name="b.sc" horiz-adv-x="595" 
d="M84 520h262q89 0 132.5 -36t43.5 -100q0 -17 -4.5 -34t-14.5 -31.5t-25.5 -25.5t-36.5 -17q48 -8 76.5 -43t28.5 -81q0 -66 -47 -109t-136 -43h-279v520zM193 226v-141h158q42 0 62.5 20t20.5 53q0 31 -21.5 49.5t-61.5 18.5h-158zM193 435v-126h142q38 0 57 19t19 49
q0 26 -17.5 42t-58.5 16h-142z" />
    <glyph glyph-name="c.sc" horiz-adv-x="591" 
d="M41 260q0 59 19.5 109t55 86t85.5 56.5t112 20.5q49 0 90.5 -13.5t73 -39t52 -61.5t28.5 -80h-107q-12 48 -45 74t-90 26q-38 0 -68 -13t-51 -36.5t-32 -56.5t-11 -72q0 -38 11 -70.5t32 -56.5t51 -37.5t68 -13.5q58 0 89.5 26t45.5 74h107q-8 -44 -28 -79.5t-51.5 -61
t-73.5 -39.5t-93 -14q-63 0 -113 21.5t-85 58t-53.5 86t-18.5 106.5z" />
    <glyph glyph-name="d.sc" horiz-adv-x="612" 
d="M84 520h208q67 0 119 -19.5t87.5 -54t54 -82t18.5 -104.5q0 -56 -18.5 -103.5t-54 -82.5t-87.5 -54.5t-119 -19.5h-208v520zM193 431v-342h93q47 0 80 14t53.5 37.5t29.5 54.5t9 65t-9 65t-29.5 54.5t-53.5 37.5t-80 14h-93z" />
    <glyph glyph-name="e.sc" horiz-adv-x="544" 
d="M84 520h398v-87h-289v-127h234v-84h-234v-135h298v-87h-407v520z" />
    <glyph glyph-name="f.sc" horiz-adv-x="515" 
d="M84 520h391v-87h-282v-148h225v-85h-225v-200h-109v520z" />
    <glyph glyph-name="g.sc" horiz-adv-x="646" 
d="M329 279h243v-279h-72l-8 58h-3q-27 -34 -68.5 -52t-101.5 -18q-62 0 -112.5 21t-86.5 58t-55.5 86t-19.5 106q0 59 20 109t57 86.5t89 57t116 20.5q106 0 168.5 -48.5t76.5 -128.5h-109q-10 38 -42 61t-94 23q-39 0 -70.5 -13t-53.5 -37t-34 -57t-12 -72t11.5 -72
t33.5 -57t53.5 -37.5t70.5 -13.5q29 0 55.5 7.5t47 21.5t33 35.5t13.5 50.5v3h-146v81z" />
    <glyph glyph-name="h.sc" horiz-adv-x="640" 
d="M84 520h109v-213h254v213h109v-520h-109v217h-254v-217h-109v520z" />
    <glyph glyph-name="i.sc" horiz-adv-x="277" 
d="M84 520h109v-520h-109v520z" />
    <glyph glyph-name="j.sc" horiz-adv-x="464" 
d="M39 181h104v-26q0 -42 20 -60t52 -18t52 19t20 62v362h108v-351q0 -95 -49 -138t-131 -43q-80 0 -128 40t-48 130v23z" />
    <glyph glyph-name="k.sc" horiz-adv-x="580" 
d="M84 520h109v-254l236 254h126l-217 -228l231 -292h-127l-174 219l-75 -78v-141h-109v520z" />
    <glyph glyph-name="l.sc" horiz-adv-x="478" 
d="M84 520h109v-426h263v-94h-372v520z" />
    <glyph glyph-name="m.sc" horiz-adv-x="784" 
d="M84 520h143l165 -378h2l168 378h137v-520h-107l8 371h-3l-167 -371h-78l-165 371h-4l9 -371h-108v520z" />
    <glyph glyph-name="n.sc" horiz-adv-x="640" 
d="M84 520h96l267 -347h4l-4 347h109v-520h-95l-268 347h-4l4 -347h-109v520z" />
    <glyph glyph-name="o.sc" horiz-adv-x="641" 
d="M41 260q0 58 20.5 108t58 86.5t88.5 57t113 20.5q61 0 112.5 -20.5t88.5 -57t57.5 -86.5t20.5 -108q0 -59 -20.5 -108.5t-57.5 -86t-88.5 -57t-112.5 -20.5t-112.5 20.5t-88.5 57t-58 86t-21 108.5zM153 260q0 -39 12 -71.5t34 -56t53 -37t69 -13.5q37 0 68 13t53 37
t34 56.5t12 71.5t-12 71.5t-34 56t-53 37t-68 13.5q-38 0 -69 -13t-53 -37t-34 -56.5t-12 -71.5z" />
    <glyph glyph-name="p.sc" horiz-adv-x="565" 
d="M84 520h246q47 0 83 -13t60.5 -36.5t37 -55.5t12.5 -70q0 -39 -12.5 -71t-37 -55.5t-60.5 -36.5t-83 -13h-137v-169h-109v520zM193 433v-177h129q46 0 69 24.5t23 63.5t-23 64t-69 25h-129z" />
    <glyph glyph-name="q.sc" horiz-adv-x="641" 
d="M41 260q0 58 20.5 108t58 86.5t88.5 57t113 20.5q61 0 112.5 -20.5t88.5 -57t57.5 -86.5t20.5 -108q0 -60 -21 -109.5t-59 -86.5l102 -103l-70 -65l-112 115q-26 -11 -56.5 -17t-62.5 -6q-61 0 -112.5 20.5t-88.5 57t-58 86t-21 108.5zM153 260q0 -39 12 -71.5t34 -56
t53 -37t69 -13.5q37 0 68 13t53 37t34 56.5t12 71.5t-12 71.5t-34 56t-53 37t-68 13.5q-38 0 -69 -13t-53 -37t-34 -56.5t-12 -71.5z" />
    <glyph glyph-name="r.sc" horiz-adv-x="585" 
d="M84 520h249q94 0 142 -43.5t48 -120.5q0 -59 -29 -100t-85 -58l138 -198h-120l-126 188h-108v-188h-109v520zM193 433v-159h133q45 0 66.5 22t21.5 59q0 36 -22.5 57t-65.5 21h-133z" />
    </font>
</defs>
</svg>
