<?xml version="1.0" standalone="no"?>
<!DOCTYPE svg PUBLIC "-//W3C//DTD SVG 1.1//EN" "http://www.w3.org/Graphics/SVG/1.1/DTD/svg11.dtd" >
<svg>
<metadata>
Created by FontForge 20090622 at Sun Jun 19 16:20:46 2016
 By deploy user
&#194;&#169; Copyright (c) 2010. All rights reserved. Fakt is a design by Thomas Thiemich, published by OurType. www.ourtype.com
</metadata>
<defs>
<font id="FaktPro-BlondItalic" horiz-adv-x="352" >
  <font-face 
    font-family="Fakt Pro Bln Ita"
    font-weight="350"
    font-style="italic"
    font-stretch="normal"
    units-per-em="1000"
    panose-1="2 0 0 0 0 0 0 0 0 0"
    ascent="748"
    descent="-252"
    x-height="488"
    cap-height="688"
    bbox="-217 -312 1158 1012"
    underline-thickness="50"
    underline-position="-50"
    unicode-range="U+0020-U+FB04"
  />
<missing-glyph horiz-adv-x="712" 
d="M0 0v720h712v-720h-712zM232 184l126 129l126 -129l52 52l-127 130l127 130l-52 52l-126 -129l-126 129l-52 -52l126 -130l-126 -130z" />
    <glyph glyph-name="ff" unicode="ff" horiz-adv-x="580" 
d="M31 433l9 55h98l15 86q27 158 182 158h41l-9 -59h-35q-48 0 -75 -24t-36 -78l-14 -83h218l15 86q27 158 182 158h50l-9 -59h-44q-48 0 -75 -24t-36 -78l-14 -83h122l-9 -55h-123l-73 -433h-68l73 433h-219l-73 -433h-68l73 433h-98z" />
    <glyph glyph-name="fi" unicode="fi" horiz-adv-x="535" 
d="M343 0l73 433h-219l-73 -433h-68l73 433h-98l9 55h98l15 86q27 158 182 158h41l-9 -59h-35q-48 0 -75 -24t-36 -78l-14 -83h287l-83 -488h-68zM448 636l16 96h73l-15 -96h-74z" />
    <glyph glyph-name="fl" unicode="fl" horiz-adv-x="535" 
d="M31 433l9 55h98l15 86q27 158 182 158h200l-124 -732h-68l114 673h-125q-48 0 -75 -24t-36 -78l-14 -83h108l-9 -55h-109l-73 -433h-68l73 433h-98z" />
    <glyph glyph-name="ffi" unicode="ffi" horiz-adv-x="822" 
d="M630 0l73 433h-219l-73 -433h-68l73 433h-219l-73 -433h-68l73 433h-98l9 55h98l15 86q27 158 182 158h41l-9 -59h-35q-48 0 -75 -24t-36 -78l-14 -83h218l15 86q27 158 182 158h41l-9 -59h-35q-48 0 -75 -24t-36 -78l-14 -83h287l-83 -488h-68zM735 636l16 96h73
l-15 -96h-74z" />
    <glyph glyph-name="ffl" unicode="ffl" horiz-adv-x="822" 
d="M31 433l9 55h98l15 86q27 158 182 158h41l-9 -59h-35q-48 0 -75 -24t-36 -78l-14 -83h218l15 86q27 158 182 158h200l-124 -732h-68l114 673h-125q-48 0 -75 -24t-36 -78l-14 -83h108l-9 -55h-109l-73 -433h-68l73 433h-219l-73 -433h-68l73 433h-98z" />
    <glyph glyph-name="f_b" unicode="fb" horiz-adv-x="883" 
d="M342 0l114 673h-124q-48 0 -75 -24t-36 -78l-14 -83h108l-9 -55h-109l-73 -433h-68l73 433h-98l9 55h98l15 86q27 158 182 158h199l-27 -158q-19 -108 -31 -159h3q31 40 76.5 62t95.5 22q86 0 137.5 -56t51.5 -148q0 -133 -74.5 -219.5t-181.5 -86.5q-59 0 -102.5 27
t-57.5 71h-2l-15 -87h-65zM450 199q0 -70 35 -110.5t97 -40.5q83 0 135 72.5t52 168.5q0 69 -35.5 110t-97.5 41q-83 0 -134.5 -72.5t-51.5 -168.5z" />
    <glyph glyph-name="f_h" unicode="fh" horiz-adv-x="868" 
d="M31 433l9 55h98l15 86q27 158 182 158h200l-26 -152q-2 -14 -9 -52l-12.5 -69.5t-9.5 -49.5h3q57 90 167 90q81 0 124.5 -50.5t26.5 -151.5l-51 -297h-68l49 290q25 150 -99 150q-61 0 -110.5 -49t-64.5 -137l-44 -254h-68l114 673h-125q-48 0 -75 -24t-36 -78l-14 -83
h108l-9 -55h-109l-73 -433h-68l73 433h-98z" />
    <glyph glyph-name="f_j" unicode="fj" horiz-adv-x="535" 
d="M226 -161h27q33 0 50.5 18t24.5 59l88 517h-219l-73 -433h-68l73 433h-98l9 55h98l15 86q27 158 182 158h41l-9 -59h-35q-48 0 -75 -24t-36 -78l-14 -83h287l-100 -584q-21 -124 -147 -124h-30zM448 636l16 96h73l-15 -96h-74z" />
    <glyph glyph-name="f_k" unicode="fk" horiz-adv-x="803" 
d="M31 433l9 55h98l15 86q27 158 182 158h200l-85 -503l280 259h84l-220 -201l152 -287h-75l-128 241l-108 -99l-24 -142h-68l114 673h-125q-48 0 -75 -24t-36 -78l-14 -83h108l-9 -55h-109l-73 -433h-68l73 433h-98z" />
    <glyph glyph-name="f_t" unicode="ft" horiz-adv-x="601" 
d="M358 140l49 293h-210l-73 -433h-68l73 433h-98l9 55h98l15 86q27 158 182 158h50l-9 -59h-44q-48 0 -75 -24t-36 -78l-14 -83h210l25 148h68l-25 -148h132l-9 -55h-132l-49 -289q-7 -45 6 -65t53 -20h62l-10 -59h-67q-138 0 -113 140z" />
    <glyph glyph-name="f_f_b" unicode="ffb" horiz-adv-x="1170" 
d="M630 0l114 673h-125q-48 0 -75 -24t-36 -78l-14 -83h108l-9 -55h-109l-73 -433h-68l73 433h-219l-73 -433h-68l73 433h-98l9 55h98l15 86q27 158 182 158h41l-9 -59h-35q-48 0 -75 -24t-36 -78l-14 -83h218l15 86q27 158 182 158h200l-27 -158q-19 -108 -31 -159h3
q31 40 76.5 62t95.5 22q86 0 137.5 -56t51.5 -148q0 -133 -74.5 -219.5t-181.5 -86.5q-59 0 -102.5 27t-57.5 71h-2l-15 -87h-65zM738 199q0 -70 35 -110.5t97 -40.5q83 0 135 72.5t52 168.5q0 69 -35.5 110t-97.5 41q-83 0 -134.5 -72.5t-51.5 -168.5z" />
    <glyph glyph-name="f_f_h" unicode="ffh" horiz-adv-x="1155" 
d="M31 433l9 55h98l15 86q27 158 182 158h41l-9 -59h-35q-48 0 -75 -24t-36 -78l-14 -83h218l15 86q27 158 182 158h200l-26 -153q-28 -156 -32 -171h4q56 91 167 91q81 0 124.5 -50.5t26.5 -151.5l-51 -297h-68l49 290q25 150 -99 150q-63 0 -112 -51.5t-64 -137.5
l-43 -251h-68l114 673h-125q-48 0 -75 -24t-36 -78l-14 -83h108l-9 -55h-109l-73 -433h-68l73 433h-219l-73 -433h-68l73 433h-98z" />
    <glyph glyph-name="f_f_j" unicode="ffj" horiz-adv-x="822" 
d="M513 -161h27q33 0 50.5 18t24.5 59l88 517h-219l-73 -433h-68l73 433h-219l-73 -433h-68l73 433h-98l9 55h98l15 86q27 158 182 158h41l-9 -59h-35q-48 0 -75 -24t-36 -78l-14 -83h218l15 86q27 158 182 158h41l-9 -59h-35q-48 0 -75 -24t-36 -78l-14 -83h287l-100 -584
q-21 -124 -148 -124h-30zM735 636l16 96h73l-15 -96h-74z" />
    <glyph glyph-name="f_f_k" unicode="ffk" horiz-adv-x="1090" 
d="M31 433l9 55h98l15 86q27 158 182 158h41l-9 -59h-35q-48 0 -75 -24t-36 -78l-14 -83h218l15 86q27 158 182 158h200l-85 -503l280 259h84l-220 -201l152 -287h-75l-128 241l-108 -99l-24 -142h-68l114 673h-125q-48 0 -75 -24t-36 -78l-14 -83h108l-9 -55h-109l-73 -433
h-68l73 433h-219l-73 -433h-68l73 433h-98z" />
    <glyph glyph-name="f_f_t" unicode="fft" horiz-adv-x="888" 
d="M644 140l50 293h-210l-73 -433h-68l73 433h-219l-73 -433h-68l73 433h-98l9 55h98l15 86q27 158 182 158h41l-9 -59h-35q-48 0 -75 -24t-36 -78l-14 -83h218l15 86q27 158 182 158h50l-9 -59h-44q-48 0 -75 -24t-36 -78l-14 -83h209l26 148h68l-25 -148h132l-9 -55h-132
l-49 -289q-8 -45 5 -65t54 -20h61l-8 -59h-67q-138 0 -115 140z" />
    <glyph glyph-name=".notdef" horiz-adv-x="712" 
d="M0 0v720h712v-720h-712zM232 184l126 129l126 -129l52 52l-127 130l127 130l-52 52l-126 -129l-126 129l-52 -52l126 -130l-126 -130z" />
    <glyph glyph-name=".null" horiz-adv-x="0" 
 />
    <glyph glyph-name="nonmarkingreturn" horiz-adv-x="333" 
 />
    <glyph glyph-name="space" unicode=" " horiz-adv-x="216" 
 />
    <glyph glyph-name="exclam" unicode="!" horiz-adv-x="256" 
d="M96 189l33 315l32 184h79l-31 -184l-75 -315h-38zM43 0l17 102h80l-17 -102h-80z" />
    <glyph glyph-name="quotedbl" unicode="&#x22;" horiz-adv-x="384" 
d="M288 436l17 165l14 87h68l-15 -87l-40 -165h-44zM112 436l17 165l14 87h68l-15 -87l-40 -165h-44z" />
    <glyph glyph-name="numbersign" unicode="#" horiz-adv-x="606" 
d="M74 465v53h126l30 170h62l-30 -170h165l30 170h62l-30 -170h110v-53h-119l-42 -237h118v-53h-127l-30 -175h-62l30 175h-165l-30 -175h-62l30 175h-109v53h118l42 237h-117zM253 465l-42 -237h165l42 237h-165z" />
    <glyph glyph-name="dollar" unicode="$" horiz-adv-x="568" 
d="M31 188h68q-7 -71 33 -107t114 -36q78 0 128.5 41.5t50.5 112.5q0 42 -25.5 68.5t-77.5 42.5l-93 29q-130 41 -130 156q0 84 59 139.5t155 63.5l18 106h68l-18 -108q73 -11 116.5 -57.5t39.5 -118.5h-68q1 59 -36 91t-100 32q-71 0 -117 -36.5t-46 -103.5
q0 -42 24.5 -64.5t79.5 -40.5l93 -30q129 -41 129 -160q0 -94 -65 -152t-168 -66l-18 -110h-67l18 112q-82 9 -126.5 59.5t-38.5 136.5z" />
    <glyph glyph-name="percent" unicode="%" horiz-adv-x="764" 
d="M187 336q-59 0 -89.5 35.5t-30.5 95.5q0 23 5 51q14 79 58.5 128.5t114.5 49.5q59 0 89 -35.5t30 -95.5q0 -28 -4 -51q-14 -79 -58.5 -128.5t-114.5 -49.5zM543 -8q-59 0 -89.5 35.5t-30.5 95.5q0 23 5 51q14 79 58.5 128.5t114.5 49.5q59 0 89 -35.5t30 -95.5
q0 -28 -4 -51q-14 -79 -58.5 -128.5t-114.5 -49.5zM135 -12l470 712h53l-470 -712h-53zM549 39q41 0 69 34.5t39 96.5q4 23 4 48q0 87 -67 87q-41 0 -68.5 -34.5t-38.5 -96.5q-5 -28 -5 -49q0 -86 67 -86zM193 383q41 0 69 34.5t39 96.5q4 23 4 48q0 87 -66 87
q-42 0 -69.5 -34.5t-38.5 -96.5q-5 -28 -5 -49q0 -86 67 -86z" />
    <glyph glyph-name="ampersand" unicode="&#x26;" horiz-adv-x="697" 
d="M32 161q0 44 16 80t47.5 62t62 43.5t76.5 36.5q-67 88 -67 147q0 72 52 120.5t144 48.5q73 0 118 -38t45 -97q0 -39 -15.5 -70t-47.5 -54.5t-60 -38t-75 -33.5l163 -202q50 71 69 178h61q-23 -133 -92 -225l97 -119h-77l-61 74q-92 -85 -232 -85q-103 0 -163.5 48
t-60.5 124zM258 45q117 0 193 73l-185 225q-80 -34 -123 -73t-43 -102q0 -55 43.5 -89t114.5 -34zM232 536q0 -45 64 -128q81 34 123 67t42 86q0 38 -28 61.5t-77 23.5q-59 0 -91.5 -31.5t-32.5 -78.5z" />
    <glyph glyph-name="quotesingle" unicode="'" horiz-adv-x="208" 
d="M112 436l17 165l14 87h68l-15 -87l-40 -165h-44z" />
    <glyph glyph-name="parenleft" unicode="(" horiz-adv-x="275" 
d="M19 137q0 309 257 607h62q-38 -43 -77 -100.5t-81.5 -136.5t-69 -176.5t-26.5 -190.5q0 -109 27.5 -207.5t61.5 -160.5h-59q-95 167 -95 365z" />
    <glyph glyph-name="parenright" unicode=")" horiz-adv-x="275" 
d="M-1 -228h-62q38 43 77 100.5t81.5 136.5t69 176.5t26.5 190.5q0 109 -27.5 207.5t-61.5 160.5h59q95 -167 95 -365q0 -309 -257 -607z" />
    <glyph glyph-name="asterisk" unicode="*" horiz-adv-x="450" 
d="M327 696l-37 -140l138 56l9 -53l-143 -32l74 -104l-50 -32l-50 117l-93 -117l-39 32l108 106l-128 30l25 53l119 -55l11 139h56z" />
    <glyph glyph-name="plus" unicode="+" horiz-adv-x="568" 
d="M51 224l9 59h196l33 197h62l-33 -197h195l-9 -59h-196l-33 -196h-62l33 196h-195z" />
    <glyph glyph-name="comma" unicode="," horiz-adv-x="244" 
d="M35 0l19 112h86l-19 -106l-69 -162h-41l60 156h-36z" />
    <glyph glyph-name="hyphen" unicode="-" horiz-adv-x="396" 
d="M54 222l9 61h276l-9 -61h-276z" />
    <glyph glyph-name="period" unicode="." horiz-adv-x="244" 
d="M35 0l19 112h86l-20 -112h-85z" />
    <glyph glyph-name="slash" unicode="/" horiz-adv-x="401" 
d="M-27 -12l422 712h62l-423 -712h-61z" />
    <glyph glyph-name="zero" unicode="0" horiz-adv-x="568" 
d="M239 -11q-96 0 -142 63t-46 173q0 60 10 119q26 160 101.5 257.5t194.5 97.5q96 0 142 -63t46 -173q0 -60 -10 -119q-26 -160 -101.5 -257.5t-194.5 -97.5zM247 51q84 0 139 77t78 216q10 60 10 116q0 177 -125 177q-84 0 -139 -77t-78 -216q-10 -60 -10 -116
q0 -177 125 -177z" />
    <glyph glyph-name="one" unicode="1" horiz-adv-x="568" 
d="M140 483l-28 53l247 152h52l-107 -629h174l-9 -59h-423l9 59h181l91 539z" />
    <glyph glyph-name="two" unicode="2" horiz-adv-x="568" 
d="M23 0q23 112 69 174.5t139 115.5l86 50q44 25 63 37.5t47 36.5t39 51t11 63q0 49 -33.5 80.5t-93.5 31.5q-143 0 -179 -155h-62q21 114 88 164t156 50q86 0 139 -43t53 -121q0 -46 -14.5 -83t-43.5 -64.5t-55 -45.5t-64 -40q-7 -4 -11 -6l-87 -50q-84 -48 -116 -88.5
t-46 -98.5h372l-9 -59h-448z" />
    <glyph glyph-name="three" unicode="3" horiz-adv-x="568" 
d="M37 205h65q-12 -72 25 -114.5t119 -42.5q80 0 134 42t54 120q0 52 -40 84.5t-104 32.5h-51l12 58h52q68 0 115.5 42t47.5 105q0 51 -34 79.5t-89 28.5q-65 0 -110 -34.5t-57 -103.5h-64q16 93 80 145t160 52q80 0 129.5 -43.5t49.5 -114.5q0 -64 -43 -116t-99 -65v-4
q51 -12 82 -51t31 -92q0 -107 -73.5 -165.5t-188.5 -58.5q-108 0 -163.5 57t-39.5 159z" />
    <glyph glyph-name="four" unicode="4" horiz-adv-x="568" 
d="M20 182l9 49l415 458h55l-76 -448h104l-9 -59h-105l-30 -182h-68l30 182h-325zM107 241h248l56 332z" />
    <glyph glyph-name="five" unicode="5" horiz-adv-x="568" 
d="M251 -11q-94 0 -150.5 50.5t-57.5 140.5h68q1 -55 36.5 -93.5t106.5 -38.5q56 0 100.5 28t67.5 77q20 43 20 95q0 61 -38 97t-96 36q-90 0 -161 -80l-63 3l84 384h381l-9 -62h-319l-57 -245h3q59 59 156 59q84 0 137 -50t53 -136q0 -52 -18 -101q-29 -76 -95.5 -120
t-148.5 -44z" />
    <glyph glyph-name="six" unicode="6" horiz-adv-x="568" 
d="M56 218q0 63 6 99q29 186 111.5 284t201.5 98q88 0 137 -46.5t45 -136.5h-68q3 60 -30 92t-91 32q-87 0 -148 -82.5t-86 -234.5q24 53 78.5 85t122.5 32q86 0 138 -50.5t52 -134.5q0 -44 -13 -88q-26 -82 -94.5 -130t-157.5 -48q-92 0 -148 55.5t-56 173.5zM129 180
q0 -64 39 -98t98 -34q57 0 103.5 32.5t68.5 86.5q16 38 16 82q0 60 -37 96t-97 36q-78 0 -134.5 -56.5t-56.5 -144.5z" />
    <glyph glyph-name="seven" unicode="7" horiz-adv-x="568" 
d="M111 0l393 626h-386l9 62h466l-9 -49l-399 -639h-74z" />
    <glyph glyph-name="eight" unicode="8" horiz-adv-x="568" 
d="M31 159q0 71 50.5 126t125.5 72v4q-41 12 -66 48.5t-25 85.5q0 87 69.5 145.5t167.5 58.5q86 0 135.5 -44t49.5 -120q0 -60 -42.5 -110t-101.5 -65v-3q52 -12 83.5 -51.5t31.5 -93.5q0 -101 -78 -162t-191 -61q-96 0 -152.5 46.5t-56.5 123.5zM99 165q0 -53 41 -85
t106 -32q80 0 137.5 44t57.5 117q0 53 -40.5 85.5t-106.5 32.5q-81 0 -138 -44.5t-57 -117.5zM307 385q70 0 118 42t48 105q0 51 -34.5 81t-91.5 30q-68 0 -117 -41t-49 -107q0 -49 33.5 -79.5t92.5 -30.5z" />
    <glyph glyph-name="nine" unicode="9" horiz-adv-x="568" 
d="M220 -11q-88 0 -137 46.5t-45 136.5h68q-4 -60 29.5 -92t91.5 -32q86 0 147.5 82.5t86.5 234.5q-25 -53 -79 -85t-122 -32q-86 0 -138 50.5t-52 134.5q0 44 13 88q25 81 94 129.5t158 48.5q93 0 148.5 -55.5t55.5 -173.5q0 -56 -6 -99q-27 -185 -111 -283.5t-202 -98.5z
M466 508q0 57 -37.5 94.5t-99.5 37.5q-57 0 -103.5 -32.5t-68.5 -86.5q-16 -38 -16 -82q0 -60 36.5 -96t96.5 -36q79 0 135.5 56.5t56.5 144.5z" />
    <glyph glyph-name="colon" unicode=":" horiz-adv-x="244" 
d="M100 376l19 112h85l-19 -112h-85zM35 0l19 112h86l-20 -112h-85z" />
    <glyph glyph-name="semicolon" unicode=";" horiz-adv-x="244" 
d="M100 376l19 112h85l-19 -112h-85zM35 0l19 112h86l-19 -106l-69 -162h-41l60 156h-36z" />
    <glyph glyph-name="less" unicode="&#x3c;" horiz-adv-x="568" 
d="M67 228l9 56l453 183l-9 -65l-379 -148l328 -147l-12 -62z" />
    <glyph glyph-name="equal" unicode="=" horiz-adv-x="568" 
d="M68 329l9 59h453l-9 -59h-453zM35 120l9 59h453l-9 -59h-453z" />
    <glyph glyph-name="greater" unicode="&#x3e;" horiz-adv-x="568" 
d="M98 405l12 62l390 -183l-9 -56l-453 -183l9 65l378 147z" />
    <glyph glyph-name="question" unicode="?" horiz-adv-x="485" 
d="M193 196l4 28q8 52 34 90.5t58 61.5l62.5 44t51 51t20.5 70q0 43 -32.5 71t-82.5 28q-68 0 -111 -38t-54 -109h-65q11 92 73.5 149t162.5 57q78 0 129 -41t51 -111q0 -37 -11.5 -66.5t-30 -50t-41.5 -38l-46.5 -34t-44 -34.5t-35.5 -43.5t-20 -56.5l-4 -28h-68zM163 0
l16 102h79l-16 -102h-79z" />
    <glyph glyph-name="at" unicode="@" horiz-adv-x="1032" 
d="M283 117q0 133 172 154l107 13q76 10 80 43q7 54 -18.5 85t-82.5 31q-115 0 -141 -107h-65q16 76 70.5 119.5t141.5 43.5q88 0 132 -48.5t27 -141.5l-27 -158q-3 -21 -3 -37q0 -75 75 -75q58 0 100 50t58.5 110.5t16.5 115.5q0 162 -101.5 248t-260.5 86
q-194 0 -326.5 -139.5t-132.5 -347.5q0 -148 92.5 -244t243.5 -96q149 0 246 87h76q-129 -137 -331 -137q-174 0 -281.5 109t-107.5 275q0 152 68.5 276.5t190 195.5t272.5 71q181 0 297.5 -100.5t116.5 -277.5q0 -57 -15.5 -114t-44.5 -106.5t-78.5 -80.5t-110.5 -31
q-50 0 -85.5 23t-41.5 72q-64 -95 -183 -95q-68 0 -107 35.5t-39 92.5zM621 210l9 52q-14 -19 -59 -24l-107 -14q-113 -14 -113 -101q0 -36 24 -57t67 -21q68 0 116.5 40.5t62.5 124.5z" />
    <glyph glyph-name="A" unicode="A" horiz-adv-x="631" 
d="M-29 0l372 688h86l143 -688h-74l-39 198h-309l-106 -198h-73zM377 614h-3l-191 -355h264z" />
    <glyph glyph-name="B" unicode="B" horiz-adv-x="658" 
d="M47 0l119 688h276q186 0 186 -137q0 -67 -38 -118t-108 -69l-1 -3q56 -10 87.5 -45.5t31.5 -85.5q0 -99 -73 -164.5t-188 -65.5h-292zM397 327h-223l-46 -265h221q81 0 131 45.5t50 115.5q0 47 -34 75.5t-99 28.5zM430 626h-204l-41 -237h207q73 0 118.5 42t45.5 105
q0 90 -126 90z" />
    <glyph glyph-name="C" unicode="C" horiz-adv-x="708" 
d="M55 272q0 181 108 304t272 123q115 0 185.5 -60.5t78.5 -162.5h-72q-29 160 -201 160q-127 0 -212.5 -105t-85.5 -250q0 -102 57.5 -165.5t157.5 -63.5q86 0 143.5 40.5t96.5 119.5h72q-40 -105 -121 -164t-201 -59q-127 0 -202.5 80t-75.5 203z" />
    <glyph glyph-name="D" unicode="D" horiz-adv-x="696" 
d="M47 0l116 688h193q149 0 231 -79t82 -207q0 -178 -116 -290t-312 -112h-194zM350 626h-127l-95 -564h119q159 0 253.5 94.5t94.5 242.5q0 102 -61 164.5t-184 62.5z" />
    <glyph glyph-name="E" unicode="E" horiz-adv-x="606" 
d="M47 0l116 688h459l-9 -62h-390l-41 -245h311l-9 -61h-312l-44 -258h395l-9 -62h-467z" />
    <glyph glyph-name="F" unicode="F" horiz-adv-x="570" 
d="M47 0l116 688h454l-9 -62h-385l-45 -263h311l-9 -61h-312l-50 -302h-71z" />
    <glyph glyph-name="G" unicode="G" horiz-adv-x="754" 
d="M585 0l7 107h-3q-92 -118 -256 -118q-125 0 -201.5 80.5t-76.5 203.5q0 183 112.5 304.5t278.5 121.5q122 0 191 -58.5t74 -154.5h-73q-7 66 -56.5 108t-144.5 42q-131 0 -220.5 -104t-89.5 -251q0 -101 59 -165t159 -64q95 0 172 57t94 155l6 35h-229l9 61h297l-62 -360
h-47z" />
    <glyph glyph-name="H" unicode="H" horiz-adv-x="716" 
d="M47 0l116 688h71l-52 -308h392l52 308h71l-116 -688h-71l53 318h-392l-53 -318h-71z" />
    <glyph glyph-name="I" unicode="I" horiz-adv-x="253" 
d="M47 0l116 688h71l-116 -688h-71z" />
    <glyph glyph-name="J" unicode="J" horiz-adv-x="513" 
d="M199 -11q-94 0 -139 49.5t-26 154.5l6 35h71l-7 -35q-25 -142 99 -142q122 0 148 148l84 489h71l-84 -489q-36 -210 -223 -210z" />
    <glyph glyph-name="K" unicode="K" horiz-adv-x="649" 
d="M46 0l117 688h71l-67 -393l432 393h86l-329 -300l224 -388h-77l-198 341l-154 -140l-34 -201h-71z" />
    <glyph glyph-name="L" unicode="L" horiz-adv-x="541" 
d="M47 0l116 688h71l-106 -626h350l-9 -62h-422z" />
    <glyph glyph-name="M" unicode="M" horiz-adv-x="887" 
d="M47 0l116 688h85l164 -593h2l362 593h92l-116 -688h-71l100 566h-3l-348 -566h-63l-155 563h-3l-91 -563h-71z" />
    <glyph glyph-name="N" unicode="N" horiz-adv-x="723" 
d="M47 0l116 688h64l308 -568h3l95 568h71l-116 -688h-65l-308 568h-2l-95 -568h-71z" />
    <glyph glyph-name="O" unicode="O" horiz-adv-x="754" 
d="M56 277q0 179 113 300.5t276 121.5q126 0 204 -81.5t78 -206.5q0 -179 -113.5 -300.5t-277.5 -121.5q-125 0 -202.5 81.5t-77.5 206.5zM129 280q0 -102 58 -165t159 -63q128 0 218.5 104t90.5 252q0 102 -59 165t-160 63q-128 0 -217.5 -103.5t-89.5 -252.5z" />
    <glyph glyph-name="P" unicode="P" horiz-adv-x="626" 
d="M47 0l116 688h257q96 0 148.5 -51t52.5 -131q0 -115 -76.5 -185.5t-201.5 -70.5h-183l-42 -250h-71zM411 626h-188l-53 -314h182q89 0 142 53t53 135q0 55 -35.5 90.5t-100.5 35.5z" />
    <glyph glyph-name="Q" unicode="Q" horiz-adv-x="754" 
d="M56 278q0 178 113.5 299.5t275.5 121.5q126 0 203.5 -81.5t77.5 -207.5q0 -106 -43 -195.5t-117 -146.5l106 -135l-58 -49l-111 144q-80 -39 -167 -39q-125 0 -202.5 82t-77.5 207zM129 281q0 -102 58.5 -165.5t158.5 -63.5q127 0 217.5 103.5t90.5 251.5
q0 102 -59 165.5t-159 63.5q-127 0 -217 -103.5t-90 -251.5z" />
    <glyph glyph-name="R" unicode="R" horiz-adv-x="645" 
d="M47 0l116 688h257q101 0 152.5 -43.5t51.5 -122.5q0 -93 -56 -156.5t-150 -79.5l137 -286h-76l-132 281h-182l-47 -281h-71zM414 626h-191l-47 -283h193q83 0 132 48.5t49 124.5q0 51 -35.5 80.5t-100.5 29.5z" />
    <glyph glyph-name="S" unicode="S" horiz-adv-x="638" 
d="M48 192h67q-12 -68 34 -106t140 -38q93 0 147.5 37.5t54.5 105.5q0 25 -9.5 44.5t-22.5 32t-36.5 22.5t-43 15.5t-50.5 12.5l-35 8q-39 9 -66.5 19.5t-55 29.5t-42 50.5t-14.5 74.5q0 90 73 144.5t197 54.5q113 0 173.5 -50.5t45.5 -139.5h-67q10 62 -34 96.5t-126 34.5
q-85 0 -137.5 -35t-52.5 -96q0 -29 11.5 -50.5t35.5 -35t46.5 -21t58.5 -15.5l35 -8q42 -9 70.5 -19.5t59 -30t45.5 -52t15 -77.5q0 -99 -75.5 -155t-205.5 -56q-127 0 -190.5 56t-45.5 147z" />
    <glyph glyph-name="T" unicode="T" horiz-adv-x="579" 
d="M68 628l12 60h563l-12 -60h-244l-106 -628h-71l106 628h-248z" />
    <glyph glyph-name="U" unicode="U" horiz-adv-x="690" 
d="M77 271l72 417h71l-72 -417q-37 -217 158 -217q96 0 157 56t79 161l72 417h71l-72 -417q-25 -144 -107 -213t-206 -69q-125 0 -186 70t-37 212z" />
    <glyph glyph-name="V" unicode="V" horiz-adv-x="609" 
d="M219 0l-137 688h74l115 -614h3l325 614h72l-369 -688h-83z" />
    <glyph glyph-name="W" unicode="W" horiz-adv-x="918" 
d="M152 0l-64 688h68l54 -614h3l275 614h88l68 -614h3l262 614h68l-296 -688h-94l-68 607h-3l-271 -607h-93z" />
    <glyph glyph-name="X" unicode="X" horiz-adv-x="585" 
d="M-36 0l301 354l-174 334h77l146 -284l240 284h77l-288 -338l184 -350h-77l-156 300l-253 -300h-77z" />
    <glyph glyph-name="Y" unicode="Y" horiz-adv-x="594" 
d="M213 0l51 286l-173 402h74l145 -341h3l265 341h75l-319 -407l-50 -281h-71z" />
    <glyph glyph-name="Z" unicode="Z" horiz-adv-x="575" 
d="M117 628l12 60h478l-6 -46l-509 -582h407l-12 -60h-494l6 46l509 582h-391z" />
    <glyph glyph-name="bracketleft" unicode="[" horiz-adv-x="318" 
d="M78 -172h147l-9 -56h-209l168 972h208l-9 -56h-147z" />
    <glyph glyph-name="backslash" unicode="\" horiz-adv-x="401" 
d="M277 -12l-184 712h59l184 -712h-59z" />
    <glyph glyph-name="bracketright" unicode="]" horiz-adv-x="318" 
d="M-56 -172h147l149 860h-147l9 56h209l-168 -972h-208z" />
    <glyph glyph-name="asciicircum" unicode="^" horiz-adv-x="568" 
d="M71 352l251 336h68l131 -336h-70l-105 278l-201 -278h-74z" />
    <glyph glyph-name="underscore" unicode="_" horiz-adv-x="500" 
d="M-59 -72h500l-9 -53h-500z" />
    <glyph glyph-name="grave" unicode="`" horiz-adv-x="550" 
d="M307 568l-108 164h74l78 -164h-44z" />
    <glyph glyph-name="a" unicode="a" horiz-adv-x="517" 
d="M29 117q0 133 172 154l107 13q75 10 80 43q7 53 -19 84.5t-84 31.5q-114 0 -139 -107h-65q15 76 69 119.5t141 43.5q89 0 133.5 -49t27.5 -147l-52 -303h-65l13 81h-2q-52 -92 -170 -92q-69 0 -108 35.5t-39 92.5zM97 123q0 -36 24 -57t66 -21q68 0 117 40t63 123l10 58
q-15 -22 -60 -28l-107 -14q-113 -14 -113 -101z" />
    <glyph glyph-name="b" unicode="b" horiz-adv-x="576" 
d="M36 0l124 732h68l-27 -158q-19 -108 -31 -159h3q31 40 76.5 62t95.5 22q86 0 137.5 -56t51.5 -148q0 -133 -74.5 -219.5t-181.5 -86.5q-59 0 -102.5 27t-57.5 71h-2l-15 -87h-65zM144 199q0 -70 35 -110.5t97 -40.5q83 0 135 72.5t52 168.5q0 69 -35.5 110t-97.5 41
q-83 0 -134.5 -72.5t-51.5 -168.5z" />
    <glyph glyph-name="c" unicode="c" horiz-adv-x="509" 
d="M35 196q0 35 8 75q21 99 88.5 163.5t169.5 64.5q78 0 129 -44.5t53 -127.5h-68q-3 51 -35.5 82t-87.5 31q-66 0 -113.5 -46.5t-64.5 -122.5q-8 -35 -8 -72q0 -69 35.5 -110t98.5 -41q50 0 88.5 31.5t60.5 81.5h68q-25 -79 -84.5 -125.5t-145.5 -46.5q-91 0 -141.5 58.5
t-50.5 148.5z" />
    <glyph glyph-name="d" unicode="d" horiz-adv-x="576" 
d="M35 193q0 133 74.5 219.5t180.5 86.5q64 0 105.5 -26.5t55.5 -72.5h2q3 29 30 190l25 142h68l-124 -732h-66l12 71h-3q-62 -82 -171 -82q-86 0 -137.5 56t-51.5 148zM106 199q0 -69 35.5 -110t97.5 -41q83 0 134.5 72.5t51.5 168.5q0 70 -35 110.5t-97 40.5
q-83 0 -135 -72.5t-52 -168.5z" />
    <glyph glyph-name="e" unicode="e" horiz-adv-x="517" 
d="M35 199q0 36 8 74q20 102 90.5 164t163.5 62q104 0 154.5 -73.5t23.5 -186.5h-367q-2 -13 -2 -40q0 -69 36 -110t99 -41q49 0 88.5 27t59.5 73h68q-28 -75 -86.5 -117t-141.5 -42q-89 0 -141.5 58t-52.5 152zM292 440q-60 0 -107 -40.5t-67 -109.5h294q0 4 0.5 12t0.5 11
q-1 62 -33 94.5t-88 32.5z" />
    <glyph glyph-name="f" unicode="f" horiz-adv-x="296" 
d="M31 433l9 55h98l15 86q27 158 182 158h53l-9 -59h-47q-48 0 -75 -24t-36 -78l-14 -83h122l-9 -55h-123l-73 -433h-68l73 433h-98z" />
    <glyph glyph-name="g" unicode="g" horiz-adv-x="576" 
d="M9 -60h64q-10 -52 26 -82t101 -30q155 0 186 175l13 72h-3q-62 -86 -172 -86q-86 0 -137.5 56t-51.5 148q0 133 74.5 219.5t180.5 86.5q64 0 105.5 -26.5t55.5 -72.5h2l15 88h66l-81 -485q-21 -122 -86.5 -176.5t-172.5 -54.5q-93 0 -146 45.5t-39 122.5zM106 199
q0 -69 35.5 -110t97.5 -41q83 0 134.5 72.5t51.5 168.5q0 70 -35 110.5t-97 40.5q-83 0 -135 -72.5t-52 -168.5z" />
    <glyph glyph-name="h" unicode="h" horiz-adv-x="561" 
d="M36 0l124 732h68l-26 -153q-2 -14 -9 -52l-12.5 -69.5t-9.5 -49.5h3q56 91 167 91q81 0 124.5 -50.5t26.5 -151.5l-51 -297h-68l49 290q25 150 -99 150q-62 0 -111 -49.5t-65 -140.5l-43 -250h-68z" />
    <glyph glyph-name="i" unicode="i" horiz-adv-x="228" 
d="M141 636l16 96h73l-15 -96h-74zM36 0l84 488h67l-83 -488h-68z" />
    <glyph glyph-name="j" unicode="j" horiz-adv-x="228" 
d="M141 636l16 96h73l-15 -96h-74zM21 -84l99 572h67l-100 -584q-21 -124 -147 -124h-30l9 59h27q33 0 50.5 18t24.5 59z" />
    <glyph glyph-name="k" unicode="k" horiz-adv-x="496" 
d="M36 0l124 732h68l-85 -503l280 259h84l-220 -201l152 -287h-75l-127 242l-109 -100l-24 -142h-68z" />
    <glyph glyph-name="l" unicode="l" horiz-adv-x="228" 
d="M36 0l124 732h68l-124 -732h-68z" />
    <glyph glyph-name="m" unicode="m" horiz-adv-x="866" 
d="M36 0l84 488h64l-14 -80h4q56 91 159 91q55 0 93.5 -27t50.5 -80q62 107 176 107q78 0 119.5 -50.5t24.5 -151.5l-52 -297h-68l50 290q25 150 -92 150q-58 0 -105 -50.5t-62 -138.5l-43 -251h-68l49 290q25 150 -91 150q-59 0 -106 -51.5t-62 -137.5l-43 -251h-68z" />
    <glyph glyph-name="n" unicode="n" horiz-adv-x="561" 
d="M36 0l84 488h65l-15 -84h1q57 95 170 95q81 0 124.5 -50.5t26.5 -151.5l-51 -297h-68l49 290q25 150 -99 150q-61 0 -110.5 -50t-65.5 -140l-43 -250h-68z" />
    <glyph glyph-name="o" unicode="o" horiz-adv-x="550" 
d="M35 196q0 26 5 58q17 104 88.5 174.5t177.5 70.5q92 0 146.5 -56.5t54.5 -150.5q0 -26 -5 -58q-17 -104 -88 -174.5t-178 -70.5q-92 0 -146.5 56.5t-54.5 150.5zM106 199q0 -69 37 -110t99 -41q69 0 121.5 51.5t67.5 134.5q5 21 5 55q0 69 -37 110t-99 41
q-69 0 -121.5 -51.5t-67.5 -134.5q-5 -21 -5 -55z" />
    <glyph glyph-name="p" unicode="p" horiz-adv-x="576" 
d="M91 -80l-24 -140h-67l119 708h65l-14 -74h2q30 40 76.5 62.5t96.5 22.5q86 0 137.5 -56t51.5 -148q0 -133 -74.5 -219.5t-180.5 -86.5q-58 0 -101 26t-59 69h-2q-5 -37 -26 -164zM276 48q83 0 135 72.5t52 168.5q0 69 -35.5 110t-97.5 41q-83 0 -134.5 -72.5
t-51.5 -168.5q0 -70 35 -110.5t97 -40.5z" />
    <glyph glyph-name="q" unicode="q" horiz-adv-x="573" 
d="M345 -220l20 114q22 131 33 177h-3q-62 -82 -171 -82q-86 0 -137.5 56t-51.5 148q0 133 74.5 219.5t180.5 86.5q64 0 105.5 -26.5t55.5 -72.5h2l15 88h65l-120 -708h-68zM239 48q83 0 134.5 72.5t51.5 168.5q0 70 -35 110.5t-97 40.5q-83 0 -135 -72.5t-52 -168.5
q0 -69 35.5 -110t97.5 -41z" />
    <glyph glyph-name="r" unicode="r" horiz-adv-x="356" 
d="M36 0l84 488h64l-14 -80h3q49 91 143 91q43 0 68 -20l-31 -61q-27 16 -60 16q-56 0 -94.5 -53.5t-52.5 -133.5l-42 -247h-68z" />
    <glyph glyph-name="s" unicode="s" horiz-adv-x="481" 
d="M19 138h65q-8 -50 26 -73t96 -23q69 0 105 24t36 69q0 21 -9.5 36.5t-30.5 25t-37.5 14t-47.5 10.5l-21 4q-62 12 -97.5 39t-35.5 87q0 69 54 108.5t141 39.5q91 0 140 -36t36 -108h-64q7 45 -24 68t-91 23q-57 0 -92 -23.5t-35 -65.5q0 -25 17 -42t38 -24t57 -14l20 -4
q33 -6 55 -13.5t46.5 -21.5t36.5 -38.5t12 -58.5q0 -74 -56 -113t-156 -39q-93 0 -144.5 38.5t-39.5 110.5z" />
    <glyph glyph-name="t" unicode="t" horiz-adv-x="315" 
d="M26 433l9 55h96l25 148h68l-25 -148h132l-9 -55h-132l-49 -290q-7 -44 6 -64t53 -20h61l-9 -59h-66q-139 0 -114 140l49 293h-95z" />
    <glyph glyph-name="u" unicode="u" horiz-adv-x="553" 
d="M211 -11q-81 0 -124.5 50.5t-26.5 151.5l51 297h68l-49 -290q-25 -150 99 -150q60 0 107 47t62 131l47 262h68l-84 -488h-65l15 83h-3q-55 -94 -165 -94z" />
    <glyph glyph-name="v" unicode="v" horiz-adv-x="463" 
d="M153 0l-105 488h70l84 -414h3l218 414h69l-262 -488h-77z" />
    <glyph glyph-name="w" unicode="w" horiz-adv-x="711" 
d="M103 0l-55 488h67l46 -417h3l187 417h84l48 -417h3l189 417h67l-226 -488h-87l-48 411h-3l-184 -411h-91z" />
    <glyph glyph-name="x" unicode="x" horiz-adv-x="449" 
d="M-30 0l214 247l-124 241h74l96 -192l164 192h74l-210 -244l123 -244h-73l-96 195l-168 -195h-74z" />
    <glyph glyph-name="y" unicode="y" horiz-adv-x="463" 
d="M-36 -167h27q82 0 136 104l27 53l-106 498h70l84 -414h3l218 414h69l-308 -571q-36 -68 -81 -105.5t-112 -37.5h-39z" />
    <glyph glyph-name="z" unicode="z" horiz-adv-x="433" 
d="M63 433l9 55h367l-9 -46l-340 -387h279l-9 -55h-367l6 40l344 393h-280z" />
    <glyph glyph-name="braceleft" unicode="{" horiz-adv-x="364" 
d="M82 -78l31 182q12 72 -2 100.5t-83 33.5l6 47q65 4 94 31.5t40 96.5l31 181q13 75 53 112.5t119 37.5h52l-8 -53h-47q-93 0 -108 -97l-30 -181q-12 -72 -39.5 -103.5t-86.5 -46.5v-3q53 -18 68 -51.5t3 -104.5l-31 -182q-8 -51 9.5 -74t65.5 -23h46l-9 -53h-49
q-79 0 -108 38t-17 112z" />
    <glyph glyph-name="bar" unicode="|" horiz-adv-x="256" 
d="M10 -240l171 1000h62l-171 -1000h-62z" />
    <glyph glyph-name="braceright" unicode="}" horiz-adv-x="364" 
d="M101 -78l31 188q12 71 40 103t86 47v3q-53 18 -68 51.5t-2 104.5l29 175q8 50 -9.5 73.5t-65.5 23.5h-46l9 53h49q79 0 108 -38t17 -112l-29 -175q-7 -43 -6.5 -71.5t21.5 -44t70 -18.5l-7 -47q-65 -4 -93.5 -31.5t-40.5 -96.5l-32 -188q-13 -75 -53.5 -112.5
t-119.5 -37.5h-52l9 53h46q92 0 109 97z" />
    <glyph glyph-name="asciitilde" unicode="~" horiz-adv-x="568" 
d="M48 186q12 70 49 106.5t89 36.5q39 0 74 -20.5t65 -41t56 -20.5q62 0 76 84h59q-12 -70 -49 -106.5t-89 -36.5q-39 0 -74 20.5t-65 41t-56 20.5q-62 0 -76 -84h-59z" />
    <glyph glyph-name="uni00A0" unicode="&#xa0;" horiz-adv-x="216" 
 />
    <glyph glyph-name="exclamdown" unicode="&#xa1;" horiz-adv-x="256" 
d="M111 386l17 102h79l-17 -102h-79zM42 -16l74 315h39l-34 -315l-31 -184h-80z" />
    <glyph glyph-name="cent" unicode="&#xa2;" horiz-adv-x="568" 
d="M214 -12l18 108q-72 12 -117.5 63t-45.5 136q0 123 67.5 209.5t178.5 96.5l16 99h68l-16 -100q65 -11 105 -55t44 -117h-65q-5 59 -40 89t-90 30q-69 0 -121.5 -48t-68.5 -130q-7 -29 -7 -68q0 -73 40 -112.5t101 -39.5q58 0 100.5 30.5t63.5 85.5h65q-20 -74 -79 -119
t-132 -52l-17 -106h-68z" />
    <glyph glyph-name="sterling" unicode="&#xa3;" horiz-adv-x="568" 
d="M77 333l6 48h91q-13 63 -13 102q0 99 56.5 157.5t150.5 58.5q83 0 123.5 -47t32.5 -128h-65q7 50 -17.5 84.5t-79.5 34.5q-59 0 -96 -39.5t-37 -111.5q0 -37 16 -111h172l-6 -48h-156q6 -44 6 -67q0 -74 -32 -144q3 -3 14.5 -12l15.5 -12l14 -11t15.5 -11t14.5 -9
t15.5 -8t15 -5.5t17 -4.5t16.5 -1q75 0 102 116h59q-9 -35 -19 -61t-28.5 -54.5t-48 -44t-68.5 -15.5q-22 0 -42 6t-46 24t-33.5 24t-38.5 33q-58 -87 -139 -87q-43 0 -67.5 22.5t-24.5 58.5q0 51 34 82.5t88 31.5q41 0 84 -26q14 51 14 90q0 38 -10 85h-106zM71 30
q55 0 91 81q-41 29 -73 29q-29 0 -48 -18.5t-19 -44.5q0 -47 49 -47z" />
    <glyph glyph-name="currency" unicode="&#xa4;" horiz-adv-x="568" 
d="M108 145l-32 38l71 61q-17 32 -17 71q0 73 53 129l-49 60l41 33l49 -59q48 30 100 30q55 0 93 -32l71 62l32 -37l-72 -62q18 -31 18 -70q0 -73 -54 -130l50 -59l-40 -33l-50 59q-46 -30 -100 -30q-55 0 -93 31zM278 226q54 0 93 41t39 99q0 42 -25.5 67t-66.5 25
q-54 0 -93 -41t-39 -99q0 -42 25.5 -67t66.5 -25z" />
    <glyph glyph-name="yen" unicode="&#xa5;" horiz-adv-x="568" 
d="M89 257l9 44h158l-164 387h74l134 -321h3l244 321h74l-297 -387h163l-9 -44h-161l-15 -88h162l-9 -44h-160l-21 -125h-68l21 125h-161l9 44h159l15 88h-160z" />
    <glyph glyph-name="brokenbar" unicode="&#xa6;" horiz-adv-x="256" 
d="M109 336l60 352h62l-60 -352h-62zM25 -164l60 352h62l-60 -352h-62z" />
    <glyph glyph-name="section" unicode="&#xa7;" horiz-adv-x="560" 
d="M8 -72h65q-4 -49 33.5 -76t93.5 -27q72 0 113.5 32t41.5 86q0 37 -23 58.5t-67 35.5l-85 28q-66 22 -97.5 58.5t-31.5 94.5q0 61 43 108t113 70q-81 40 -81 122q0 83 64 132.5t162 49.5q83 0 139 -38t50 -118h-65q4 49 -33.5 76t-93.5 27q-72 0 -113.5 -32t-41.5 -86
q0 -37 23 -58.5t67 -35.5l85 -28q66 -22 97.5 -58.5t31.5 -94.5q0 -61 -42.5 -108t-113.5 -70q81 -41 81 -122q0 -83 -64 -132.5t-162 -49.5q-83 0 -139 38t-50 118zM336 352l-59 19q-70 -11 -114 -52.5t-44 -94.5q0 -40 23 -64t71 -40l59 -19q69 11 113.5 52t44.5 95
q0 40 -23 64t-71 40z" />
    <glyph glyph-name="dieresis" unicode="&#xa8;" horiz-adv-x="550" 
d="M400 605l16 90h67l-15 -90h-68zM203 605l15 90h68l-15 -90h-68z" />
    <glyph glyph-name="copyright" unicode="&#xa9;" horiz-adv-x="775" 
d="M53 348q0 151 99 251t251 100q149 0 249.5 -100.5t100.5 -250.5q0 -151 -99.5 -255t-250.5 -104t-250.5 104t-99.5 255zM109 348q0 -131 83 -221.5t211 -90.5q127 0 210.5 91t83.5 221q0 129 -82.5 215t-211.5 86t-211.5 -85.5t-82.5 -215.5zM234 348q0 75 46.5 125.5
t122.5 50.5q60 0 99 -31.5t49 -83.5h-54q-19 68 -94 68q-50 0 -81.5 -37.5t-31.5 -91.5t31.5 -91.5t81.5 -37.5q75 0 94 68h54q-10 -52 -49 -83.5t-99 -31.5q-76 0 -122.5 50.5t-46.5 125.5z" />
    <glyph glyph-name="ordfeminine" unicode="&#xaa;" horiz-adv-x="421" 
d="M319 344l10 60h-4q-43 -67 -125 -67q-57 0 -94 38.5t-37 102.5q0 98 55.5 157.5t128.5 59.5q41 0 70.5 -19.5t39.5 -53.5v1h2l11 65h61l-59 -344h-59zM218 387q51 0 89 47t38 116q0 44 -23 69.5t-61 25.5q-51 0 -89 -46.5t-38 -117.5q0 -44 22.5 -69t61.5 -25z" />
    <glyph glyph-name="guillemotleft" unicode="&#xab;" horiz-adv-x="505" 
d="M358 48l-113 204l181 204h56l-163 -210l95 -198h-56zM164 48l-113 204l181 204h57l-164 -210l95 -198h-56z" />
    <glyph glyph-name="logicalnot" unicode="&#xac;" horiz-adv-x="568" 
d="M52 224l11 59h452l-44 -255h-62l34 196h-391z" />
    <glyph glyph-name="uni00AD" unicode="&#xad;" horiz-adv-x="396" 
d="M54 222l9 61h276l-9 -61h-276z" />
    <glyph glyph-name="registered" unicode="&#xae;" horiz-adv-x="775" 
d="M53 348q0 151 99 251t251 100q149 0 249.5 -100.5t100.5 -250.5q0 -151 -99.5 -255t-250.5 -104t-250.5 104t-99.5 255zM109 348q0 -131 83 -221.5t211 -90.5q127 0 210.5 91t83.5 221q0 129 -82.5 215t-211.5 86t-211.5 -85.5t-82.5 -215.5zM268 176v344h157
q59 0 91 -28t32 -77q0 -36 -22.5 -64t-58.5 -39l90 -136h-61l-83 130h-89v-130h-56zM423 473h-99v-119h99q34 0 51.5 16.5t17.5 44.5q0 27 -18 42.5t-51 15.5z" />
    <glyph glyph-name="macron" unicode="&#xaf;" horiz-adv-x="550" 
d="M197 623l10 53h276l-10 -53h-276z" />
    <glyph glyph-name="degree" unicode="&#xb0;" horiz-adv-x="356" 
d="M212 428q-54 0 -87.5 33t-33.5 82q0 66 45.5 111t110.5 45q53 0 87 -33t34 -82q0 -66 -45.5 -111t-110.5 -45zM215 478q40 0 68.5 28.5t28.5 71.5q0 31 -18.5 51t-49.5 20q-40 0 -68.5 -29t-28.5 -71q0 -31 18.5 -51t49.5 -20z" />
    <glyph glyph-name="plusminus" unicode="&#xb1;" horiz-adv-x="568" 
d="M64 305l9 59h196l30 181h62l-30 -181h195l-9 -59h-196l-29 -180h-62l29 180h-195zM9 0l9 59h454l-9 -59h-454z" />
    <glyph glyph-name="twosuperior" unicode="&#xb2;" 
d="M78 496q11 65 45 99.5t92 62.5l30 14q60 30 74 47q12 14 12 32q0 22 -18 35.5t-49 13.5q-35 0 -59 -19.5t-32 -56.5h-53q12 63 52.5 93t96.5 30q53 0 85.5 -24.5t32.5 -65.5q0 -14 -3.5 -26t-7 -20.5t-13.5 -18.5l-15 -15t-20 -13.5l-19.5 -11t-22.5 -11l-22 -10.5
l-31 -15q-74 -35 -80 -70h204l-6 -50h-273z" />
    <glyph glyph-name="threesuperior" unicode="&#xb3;" 
d="M92 598h56q-5 -35 16.5 -50t58.5 -15q40 0 66.5 18t26.5 52q0 25 -20.5 38t-54.5 13h-28l6 41h28q37 0 61 16t24 46q0 22 -18.5 34t-49.5 12q-75 0 -82 -62h-53q4 49 42 78t98 29q55 0 88.5 -24t33.5 -61q0 -32 -21 -55.5t-55 -31.5v-3q28 -6 44 -24.5t16 -45.5
q0 -54 -43 -84.5t-115 -30.5q-60 0 -97.5 27t-27.5 83z" />
    <glyph glyph-name="acute" unicode="&#xb4;" horiz-adv-x="550" 
d="M303 568l134 164h81l-165 -164h-50z" />
    <glyph glyph-name="mu" unicode="&#xb5;" horiz-adv-x="561" 
d="M372 0l15 81h-5q-55 -92 -164 -92q-83 0 -115 50q-5 -79 -23 -177l-14 -82h-68l121 708h68l-49 -290q-25 -150 99 -150q61 0 108 48t63 137l45 255h68l-84 -488h-65z" />
    <glyph glyph-name="paragraph" unicode="&#xb6;" horiz-adv-x="605" 
d="M390 0l116 688h68l-116 -688h-68zM227 0l44 262q-91 5 -140.5 50.5t-49.5 120.5q0 113 79.5 184t203.5 71h47l-116 -688h-68z" />
    <glyph glyph-name="periodcentered" unicode="&#xb7;" horiz-adv-x="244" 
d="M68 198l19 108h85l-19 -108h-85z" />
    <glyph glyph-name="cedilla" unicode="&#xb8;" horiz-adv-x="550" 
d="M175 -78l43 78h26l-14 -40q38 -2 58.5 -21t20.5 -49q0 -48 -34 -77t-93 -29h-53l9 44h47q32 0 50.5 15t18.5 41q0 38 -54 38h-25z" />
    <glyph glyph-name="onesuperior" unicode="&#xb9;" 
d="M150 716l-19 43l148 81h38l-49 -294h96l-6 -50h-263l6 50h108l37 220z" />
    <glyph glyph-name="ordmasculine" unicode="&#xba;" horiz-adv-x="409" 
d="M216 337q-67 0 -106.5 38t-39.5 103q0 96 59 156.5t143 60.5q67 0 106.5 -38t39.5 -103q0 -96 -59 -156.5t-143 -60.5zM222 387q54 0 92.5 47t38.5 117q0 44 -22.5 69t-64.5 25q-54 0 -92.5 -47t-38.5 -117q0 -44 22.5 -69t64.5 -25z" />
    <glyph glyph-name="guillemotright" unicode="&#xbb;" horiz-adv-x="505" 
d="M212 48l163 210l-94 198h56l112 -204l-180 -204h-57zM18 48l164 210l-95 198h56l112 -204l-180 -204h-57z" />
    <glyph glyph-name="onequarter" unicode="&#xbc;" horiz-adv-x="764" 
d="M408 73l6 38l230 234h50l-37 -225h52l-8 -47h-52l-12 -73h-59l12 73h-182zM155 -12l470 712h53l-470 -712h-53zM122 564l-19 43l148 81h38l-49 -294h96l-6 -50h-263l6 50h108l37 220zM479 120h119l25 147z" />
    <glyph glyph-name="onehalf" unicode="&#xbd;" horiz-adv-x="764" 
d="M406 0q11 65 45 99.5t92 62.5l30 14q60 30 74 47q12 14 12 32q0 22 -18 35.5t-49 13.5q-74 0 -92 -76h-52q12 63 52.5 93t96.5 30q53 0 85.5 -24.5t32.5 -65.5q0 -14 -3.5 -26t-7 -20.5t-13.5 -18.5l-15 -15t-20 -13.5l-19.5 -11t-22.5 -11l-22 -10.5l-31 -15
q-74 -35 -80 -70h204l-6 -50h-273zM144 -12l470 712h53l-470 -712h-53zM122 564l-19 43l148 81h38l-49 -294h96l-6 -50h-263l6 50h108l37 220z" />
    <glyph glyph-name="threequarters" unicode="&#xbe;" horiz-adv-x="764" 
d="M408 73l6 38l230 234h50l-37 -225h52l-8 -47h-52l-12 -73h-59l12 73h-182zM64 446h56q-5 -35 16.5 -50t58.5 -15q40 0 66.5 18t26.5 52q0 25 -20.5 38t-54.5 13h-28l6 41h28q37 0 61 16t24 46q0 22 -18.5 34t-49.5 12q-75 0 -82 -62h-53q4 49 42 78t98 29q55 0 88.5 -24
t33.5 -61q0 -32 -21 -55.5t-55 -31.5v-3q28 -6 44 -24.5t16 -45.5q0 -54 -43 -84.5t-115 -30.5q-60 0 -97.5 27t-27.5 83zM147 -12l470 712h53l-470 -712h-53zM479 120h119l25 147z" />
    <glyph glyph-name="questiondown" unicode="&#xbf;" horiz-adv-x="485" 
d="M223 386l15 102h79l-15 -102h-79zM-13 -59q0 50 21 87t52.5 61t64 46t58.5 54.5t32 74.5l4 28h68l-4 -28q-8 -52 -34 -90.5t-58 -61.5l-62.5 -44t-51 -51t-20.5 -70q0 -43 32.5 -71t82.5 -28q68 0 111 38t55 109h64q-10 -92 -73 -149t-163 -57q-78 0 -128.5 41t-50.5 111
z" />
    <glyph glyph-name="Agrave" unicode="&#xc0;" horiz-adv-x="631" 
d="M-29 0l372 688h86l143 -688h-74l-39 198h-309l-106 -198h-73zM377 614h-3l-191 -355h264zM378 768l-108 164h74l78 -164h-44z" />
    <glyph glyph-name="Aacute" unicode="&#xc1;" horiz-adv-x="631" 
d="M-29 0l372 688h86l143 -688h-74l-39 198h-309l-106 -198h-73zM377 614h-3l-191 -355h264zM374 768l134 164h81l-165 -164h-50z" />
    <glyph glyph-name="Acircumflex" unicode="&#xc2;" horiz-adv-x="631" 
d="M-29 0l372 688h86l143 -688h-74l-39 198h-309l-106 -198h-73zM377 614h-3l-191 -355h264zM239 768l157 164h62l99 -164h-65l-72 121l-113 -121h-68z" />
    <glyph glyph-name="Atilde" unicode="&#xc3;" horiz-adv-x="631" 
d="M-29 0l372 688h86l143 -688h-74l-39 198h-309l-106 -198h-73zM377 614h-3l-191 -355h264zM247 768q10 44 36.5 71.5t65.5 27.5q30 0 70.5 -25.5t56.5 -25.5q38 0 55 52h40q-10 -43 -36 -71t-66 -28q-30 0 -70 25.5t-56 25.5q-38 0 -55 -52h-41z" />
    <glyph glyph-name="Adieresis" unicode="&#xc4;" horiz-adv-x="631" 
d="M-29 0l372 688h86l143 -688h-74l-39 198h-309l-106 -198h-73zM377 614h-3l-191 -355h264zM464 768l16 90h68l-16 -90h-68zM267 768l16 90h68l-16 -90h-68z" />
    <glyph glyph-name="Aring" unicode="&#xc5;" horiz-adv-x="631" 
d="M-29 0l372 688h86l143 -688h-74l-39 198h-309l-106 -198h-73zM377 614h-3l-191 -355h264zM401 765q-37 0 -61 21.5t-24 56.5q0 48 32.5 78t76.5 30q37 0 61 -21.5t24 -56.5q0 -48 -32.5 -78t-76.5 -30zM403 800q28 0 47.5 20t19.5 51q0 21 -13 33t-34 12q-29 0 -48.5 -20
t-19.5 -51q0 -20 13 -32.5t35 -12.5z" />
    <glyph glyph-name="AE" unicode="&#xc6;" horiz-adv-x="1048" 
d="M-33 0l617 688h480l-9 -62h-387l-41 -245h308l-9 -61h-309l-44 -258h392l-9 -62h-464l27 163h-323l-146 -163h-83zM592 606l-341 -381h279l64 381h-2z" />
    <glyph glyph-name="Ccedilla" unicode="&#xc7;" horiz-adv-x="708" 
d="M277 -78l37 68q-119 6 -189 84.5t-70 197.5q0 181 108 304t272 123q115 0 185.5 -60.5t78.5 -162.5h-72q-29 160 -201 160q-127 0 -212.5 -105t-85.5 -250q0 -102 57.5 -165.5t157.5 -63.5q86 0 143.5 40.5t96.5 119.5h72q-39 -103 -118 -162t-195 -61l-10 -29
q38 -2 58.5 -21t20.5 -49q0 -48 -34 -77t-93 -29h-53l9 44h47q32 0 50.5 15t18.5 41q0 38 -54 38h-25z" />
    <glyph glyph-name="Egrave" unicode="&#xc8;" horiz-adv-x="606" 
d="M47 0l116 688h459l-9 -62h-390l-41 -245h311l-9 -61h-312l-44 -258h395l-9 -62h-467zM383 768l-108 164h74l78 -164h-44z" />
    <glyph glyph-name="Eacute" unicode="&#xc9;" horiz-adv-x="606" 
d="M47 0l116 688h459l-9 -62h-390l-41 -245h311l-9 -61h-312l-44 -258h395l-9 -62h-467zM379 768l134 164h81l-165 -164h-50z" />
    <glyph glyph-name="Ecircumflex" unicode="&#xca;" horiz-adv-x="606" 
d="M47 0l116 688h459l-9 -62h-390l-41 -245h311l-9 -61h-312l-44 -258h395l-9 -62h-467zM244 768l157 164h62l99 -164h-65l-72 121l-113 -121h-68z" />
    <glyph glyph-name="Edieresis" unicode="&#xcb;" horiz-adv-x="606" 
d="M47 0l116 688h459l-9 -62h-390l-41 -245h311l-9 -61h-312l-44 -258h395l-9 -62h-467zM469 768l16 90h68l-16 -90h-68zM272 768l16 90h68l-16 -90h-68z" />
    <glyph glyph-name="Igrave" unicode="&#xcc;" horiz-adv-x="253" 
d="M47 0l116 688h71l-116 -688h-71zM189 768l-108 164h74l78 -164h-44z" />
    <glyph glyph-name="Iacute" unicode="&#xcd;" horiz-adv-x="253" 
d="M47 0l116 688h71l-116 -688h-71zM185 768l134 164h81l-165 -164h-50z" />
    <glyph glyph-name="Icircumflex" unicode="&#xce;" horiz-adv-x="253" 
d="M47 0l116 688h71l-116 -688h-71zM50 768l157 164h62l99 -164h-65l-72 121l-113 -121h-68z" />
    <glyph glyph-name="Idieresis" unicode="&#xcf;" horiz-adv-x="253" 
d="M47 0l116 688h71l-116 -688h-71zM275 768l16 90h68l-16 -90h-68zM78 768l16 90h68l-16 -90h-68z" />
    <glyph glyph-name="Eth" unicode="&#xd0;" horiz-adv-x="696" 
d="M13 316l10 59h87l53 313h193q149 0 231 -78.5t82 -204.5q0 -180 -116.5 -292.5t-314.5 -112.5h-191l53 316h-87zM350 626h-127l-42 -251h161l-9 -59h-162l-43 -254h122q159 0 252 94t93 243q0 102 -61 164.5t-184 62.5z" />
    <glyph glyph-name="Ntilde" unicode="&#xd1;" horiz-adv-x="723" 
d="M47 0l116 688h64l308 -568h3l95 568h71l-116 -688h-65l-308 568h-2l-95 -568h-71zM295 768q10 44 36.5 71.5t65.5 27.5q30 0 70.5 -25.5t56.5 -25.5q38 0 55 52h40q-10 -43 -36 -71t-66 -28q-30 0 -70 25.5t-56 25.5q-38 0 -55 -52h-41z" />
    <glyph glyph-name="Ograve" unicode="&#xd2;" horiz-adv-x="754" 
d="M56 277q0 179 113 300.5t276 121.5q126 0 204 -81.5t78 -206.5q0 -179 -113.5 -300.5t-277.5 -121.5q-125 0 -202.5 81.5t-77.5 206.5zM129 280q0 -102 58 -165t159 -63q128 0 218.5 104t90.5 252q0 102 -59 165t-160 63q-128 0 -217.5 -103.5t-89.5 -252.5zM439 768
l-108 164h74l78 -164h-44z" />
    <glyph glyph-name="Oacute" unicode="&#xd3;" horiz-adv-x="754" 
d="M56 277q0 179 113 300.5t276 121.5q126 0 204 -81.5t78 -206.5q0 -179 -113.5 -300.5t-277.5 -121.5q-125 0 -202.5 81.5t-77.5 206.5zM129 280q0 -102 58 -165t159 -63q128 0 218.5 104t90.5 252q0 102 -59 165t-160 63q-128 0 -217.5 -103.5t-89.5 -252.5zM435 768
l134 164h81l-165 -164h-50z" />
    <glyph glyph-name="Ocircumflex" unicode="&#xd4;" horiz-adv-x="754" 
d="M56 277q0 179 113 300.5t276 121.5q126 0 204 -81.5t78 -206.5q0 -179 -113.5 -300.5t-277.5 -121.5q-125 0 -202.5 81.5t-77.5 206.5zM129 280q0 -102 58 -165t159 -63q128 0 218.5 104t90.5 252q0 102 -59 165t-160 63q-128 0 -217.5 -103.5t-89.5 -252.5zM300 768
l157 164h62l99 -164h-65l-72 121l-113 -121h-68z" />
    <glyph glyph-name="Otilde" unicode="&#xd5;" horiz-adv-x="754" 
d="M56 277q0 179 113 300.5t276 121.5q126 0 204 -81.5t78 -206.5q0 -179 -113.5 -300.5t-277.5 -121.5q-125 0 -202.5 81.5t-77.5 206.5zM129 280q0 -102 58 -165t159 -63q128 0 218.5 104t90.5 252q0 102 -59 165t-160 63q-128 0 -217.5 -103.5t-89.5 -252.5zM308 768
q10 44 36.5 71.5t65.5 27.5q30 0 70.5 -25.5t56.5 -25.5q38 0 55 52h40q-10 -43 -36 -71t-66 -28q-30 0 -70 25.5t-56 25.5q-38 0 -55 -52h-41z" />
    <glyph glyph-name="Odieresis" unicode="&#xd6;" horiz-adv-x="754" 
d="M56 277q0 179 113 300.5t276 121.5q126 0 204 -81.5t78 -206.5q0 -179 -113.5 -300.5t-277.5 -121.5q-125 0 -202.5 81.5t-77.5 206.5zM129 280q0 -102 58 -165t159 -63q128 0 218.5 104t90.5 252q0 102 -59 165t-160 63q-128 0 -217.5 -103.5t-89.5 -252.5zM525 768
l16 90h68l-16 -90h-68zM328 768l16 90h68l-16 -90h-68z" />
    <glyph glyph-name="multiply" unicode="&#xd7;" horiz-adv-x="568" 
d="M86 48l-36 43l191 165l-132 162l47 41l132 -163l189 163l36 -43l-189 -163l133 -162l-47 -41l-133 163z" />
    <glyph glyph-name="Oslash" unicode="&#xd8;" horiz-adv-x="754" 
d="M56 277q0 179 113 300.5t276 121.5q116 0 194 -72l72 73h60l-103 -105q58 -77 58 -184q0 -179 -113.5 -300.5t-276.5 -121.5q-117 0 -194 72l-71 -73h-60l103 105q-58 77 -58 184zM654 408q0 79 -37 136l-426 -434q58 -58 154 -58q128 0 218.5 104t90.5 252zM128 280
q0 -80 36 -136l426 433q-59 59 -154 59q-128 0 -218 -104t-90 -252z" />
    <glyph glyph-name="Ugrave" unicode="&#xd9;" horiz-adv-x="690" 
d="M77 271l72 417h71l-72 -417q-37 -217 158 -217q96 0 157 56t79 161l72 417h71l-72 -417q-25 -144 -107 -213t-206 -69q-125 0 -186 70t-37 212zM409 768l-108 164h74l78 -164h-44z" />
    <glyph glyph-name="Uacute" unicode="&#xda;" horiz-adv-x="690" 
d="M77 271l72 417h71l-72 -417q-37 -217 158 -217q96 0 157 56t79 161l72 417h71l-72 -417q-25 -144 -107 -213t-206 -69q-125 0 -186 70t-37 212zM405 768l134 164h81l-165 -164h-50z" />
    <glyph glyph-name="Ucircumflex" unicode="&#xdb;" horiz-adv-x="690" 
d="M77 271l72 417h71l-72 -417q-37 -217 158 -217q96 0 157 56t79 161l72 417h71l-72 -417q-25 -144 -107 -213t-206 -69q-125 0 -186 70t-37 212zM270 768l157 164h62l99 -164h-65l-72 121l-113 -121h-68z" />
    <glyph glyph-name="Udieresis" unicode="&#xdc;" horiz-adv-x="690" 
d="M77 271l72 417h71l-72 -417q-37 -217 158 -217q96 0 157 56t79 161l72 417h71l-72 -417q-25 -144 -107 -213t-206 -69q-125 0 -186 70t-37 212zM495 768l16 90h68l-16 -90h-68zM298 768l16 90h68l-16 -90h-68z" />
    <glyph glyph-name="Yacute" unicode="&#xdd;" horiz-adv-x="594" 
d="M213 0l51 286l-173 402h74l145 -341h3l265 341h75l-319 -407l-50 -281h-71zM360 768l134 164h81l-165 -164h-50z" />
    <glyph glyph-name="Thorn" unicode="&#xde;" horiz-adv-x="626" 
d="M47 0l116 688h71l-19 -115h185q98 0 151 -50.5t53 -131.5q0 -115 -76.5 -185.5t-201.5 -70.5h-185l-23 -135h-71zM394 511h-190l-53 -314h184q89 0 142 53t53 135q0 56 -35.5 91t-100.5 35z" />
    <glyph glyph-name="germandbls" unicode="&#xdf;" horiz-adv-x="553" 
d="M36 0l88 511q20 117 83 174.5t156 57.5q76 0 117 -34t41 -86q0 -31 -10.5 -58t-26.5 -44.5t-34.5 -34.5l-34.5 -30.5t-26.5 -30.5t-10.5 -35q0 -22 21 -44.5t45.5 -39.5t45.5 -49t21 -71q0 -92 -62.5 -139t-153.5 -47h-85l9 56h79q59 0 100.5 30.5t41.5 90.5
q0 31 -20 56.5t-43.5 40.5t-43.5 42t-20 62q0 33 14.5 60t35.5 46t42.5 36.5t36 41t14.5 50.5q0 33 -24.5 54t-74.5 21q-136 0 -165 -176l-88 -511h-68z" />
    <glyph glyph-name="agrave" unicode="&#xe0;" horiz-adv-x="517" 
d="M29 117q0 133 172 154l107 13q75 10 80 43q7 53 -19 84.5t-84 31.5q-114 0 -139 -107h-65q15 76 69 119.5t141 43.5q89 0 133.5 -49t27.5 -147l-52 -303h-65l13 81h-2q-52 -92 -170 -92q-69 0 -108 35.5t-39 92.5zM97 123q0 -36 24 -57t66 -21q68 0 117 40t63 123l10 58
q-15 -22 -60 -28l-107 -14q-113 -14 -113 -101zM289 568l-108 164h74l78 -164h-44z" />
    <glyph glyph-name="aacute" unicode="&#xe1;" horiz-adv-x="517" 
d="M29 117q0 133 172 154l107 13q75 10 80 43q7 53 -19 84.5t-84 31.5q-114 0 -139 -107h-65q15 76 69 119.5t141 43.5q89 0 133.5 -49t27.5 -147l-52 -303h-65l13 81h-2q-52 -92 -170 -92q-69 0 -108 35.5t-39 92.5zM97 123q0 -36 24 -57t66 -21q68 0 117 40t63 123l10 58
q-15 -22 -60 -28l-107 -14q-113 -14 -113 -101zM277 568l134 164h81l-165 -164h-50z" />
    <glyph glyph-name="acircumflex" unicode="&#xe2;" horiz-adv-x="517" 
d="M29 117q0 133 172 154l107 13q75 10 80 43q7 53 -19 84.5t-84 31.5q-114 0 -139 -107h-65q15 76 69 119.5t141 43.5q89 0 133.5 -49t27.5 -147l-52 -303h-65l13 81h-2q-52 -92 -170 -92q-69 0 -108 35.5t-39 92.5zM97 123q0 -36 24 -57t66 -21q68 0 117 40t63 123l10 58
q-15 -22 -60 -28l-107 -14q-113 -14 -113 -101zM142 568l157 164h62l99 -164h-65l-72 121l-113 -121h-68z" />
    <glyph glyph-name="atilde" unicode="&#xe3;" horiz-adv-x="517" 
d="M29 117q0 133 172 154l107 13q75 10 80 43q7 53 -19 84.5t-84 31.5q-114 0 -139 -107h-65q15 76 69 119.5t141 43.5q89 0 133.5 -49t27.5 -147l-52 -303h-65l13 81h-2q-52 -92 -170 -92q-69 0 -108 35.5t-39 92.5zM97 123q0 -36 24 -57t66 -21q68 0 117 40t63 123l10 58
q-15 -22 -60 -28l-107 -14q-113 -14 -113 -101zM154 600q11 44 36.5 71.5t65.5 27.5q30 0 70 -25.5t56 -25.5q40 0 55 52h41q-10 -43 -36 -71t-66 -28q-30 0 -70 25.5t-56 25.5q-38 0 -55 -52h-41z" />
    <glyph glyph-name="adieresis" unicode="&#xe4;" horiz-adv-x="517" 
d="M29 117q0 133 172 154l107 13q75 10 80 43q7 53 -19 84.5t-84 31.5q-114 0 -139 -107h-65q15 76 69 119.5t141 43.5q89 0 133.5 -49t27.5 -147l-52 -303h-65l13 81h-2q-52 -92 -170 -92q-69 0 -108 35.5t-39 92.5zM97 123q0 -36 24 -57t66 -21q68 0 117 40t63 123l10 58
q-15 -22 -60 -28l-107 -14q-113 -14 -113 -101zM374 605l16 90h67l-15 -90h-68zM177 605l15 90h68l-15 -90h-68z" />
    <glyph glyph-name="aring" unicode="&#xe5;" horiz-adv-x="517" 
d="M29 117q0 133 172 154l107 13q75 10 80 43q7 53 -19 84.5t-84 31.5q-114 0 -139 -107h-65q15 76 69 119.5t141 43.5q89 0 133.5 -49t27.5 -147l-52 -303h-65l13 81h-2q-52 -92 -170 -92q-69 0 -108 35.5t-39 92.5zM97 123q0 -36 24 -57t66 -21q68 0 117 40t63 123l10 58
q-15 -22 -60 -28l-107 -14q-113 -14 -113 -101zM304 565q-37 0 -61 21.5t-24 56.5q0 48 32.5 78t76.5 30q37 0 61 -21.5t24 -56.5q0 -48 -32.5 -78t-76.5 -30zM306 600q28 0 47.5 20t19.5 51q0 21 -13 33t-34 12q-29 0 -48.5 -20t-19.5 -51q0 -20 13 -32.5t35 -12.5z" />
    <glyph glyph-name="ae" unicode="&#xe6;" horiz-adv-x="845" 
d="M81 336q16 76 70.5 119.5t140.5 43.5q121 0 154 -85q71 85 182 85q104 0 153 -73.5t23 -186.5h-362q-2 -13 -2 -40q0 -70 35 -110.5t97 -40.5q49 0 86.5 26.5t58.5 73.5h68q-28 -75 -85 -117t-140 -42q-133 0 -172 121q-66 -121 -212 -121q-69 0 -108 35t-39 93
q0 133 172 154l107 13q40 6 59 15t21 28q7 54 -18.5 85t-82.5 31q-115 0 -141 -107h-65zM187 45q69 0 117.5 40.5t62.5 121.5l10 57q-13 -19 -60 -26l-107 -14q-113 -14 -113 -101q0 -35 24 -56.5t66 -21.5zM622 440q-59 0 -105 -40.5t-65 -109.5h288q1 9 1 27
q-1 61 -32.5 92t-86.5 31z" />
    <glyph glyph-name="ccedilla" unicode="&#xe7;" horiz-adv-x="509" 
d="M170 -78l37 68q-82 7 -127 64t-45 142q0 35 8 75q21 99 88.5 163.5t169.5 64.5q78 0 129 -44.5t53 -127.5h-68q-3 51 -35.5 82t-87.5 31q-66 0 -113.5 -46.5t-64.5 -122.5q-8 -35 -8 -72q0 -69 35.5 -110t98.5 -41q50 0 88.5 31.5t60.5 81.5h68q-25 -77 -82 -123.5
t-140 -48.5l-10 -29q38 -2 58.5 -21t20.5 -49q0 -48 -34 -77t-93 -29h-53l9 44h47q32 0 50.5 15t18.5 41q0 38 -54 38h-25z" />
    <glyph glyph-name="egrave" unicode="&#xe8;" horiz-adv-x="517" 
d="M35 199q0 36 8 74q20 102 90.5 164t163.5 62q104 0 154.5 -73.5t23.5 -186.5h-367q-2 -13 -2 -40q0 -69 36 -110t99 -41q49 0 88.5 27t59.5 73h68q-28 -75 -86.5 -117t-141.5 -42q-89 0 -141.5 58t-52.5 152zM292 440q-60 0 -107 -40.5t-67 -109.5h294q0 4 0.5 12t0.5 11
q-1 62 -33 94.5t-88 32.5zM290 568l-108 164h74l78 -164h-44z" />
    <glyph glyph-name="eacute" unicode="&#xe9;" horiz-adv-x="517" 
d="M35 199q0 36 8 74q20 102 90.5 164t163.5 62q104 0 154.5 -73.5t23.5 -186.5h-367q-2 -13 -2 -40q0 -69 36 -110t99 -41q49 0 88.5 27t59.5 73h68q-28 -75 -86.5 -117t-141.5 -42q-89 0 -141.5 58t-52.5 152zM292 440q-60 0 -107 -40.5t-67 -109.5h294q0 4 0.5 12t0.5 11
q-1 62 -33 94.5t-88 32.5zM286 568l134 164h81l-165 -164h-50z" />
    <glyph glyph-name="ecircumflex" unicode="&#xea;" horiz-adv-x="517" 
d="M35 199q0 36 8 74q20 102 90.5 164t163.5 62q104 0 154.5 -73.5t23.5 -186.5h-367q-2 -13 -2 -40q0 -69 36 -110t99 -41q49 0 88.5 27t59.5 73h68q-28 -75 -86.5 -117t-141.5 -42q-89 0 -141.5 58t-52.5 152zM292 440q-60 0 -107 -40.5t-67 -109.5h294q0 4 0.5 12t0.5 11
q-1 62 -33 94.5t-88 32.5zM151 568l157 164h62l99 -164h-65l-72 121l-113 -121h-68z" />
    <glyph glyph-name="edieresis" unicode="&#xeb;" horiz-adv-x="517" 
d="M35 199q0 36 8 74q20 102 90.5 164t163.5 62q104 0 154.5 -73.5t23.5 -186.5h-367q-2 -13 -2 -40q0 -69 36 -110t99 -41q49 0 88.5 27t59.5 73h68q-28 -75 -86.5 -117t-141.5 -42q-89 0 -141.5 58t-52.5 152zM292 440q-60 0 -107 -40.5t-67 -109.5h294q0 4 0.5 12t0.5 11
q-1 62 -33 94.5t-88 32.5zM383 605l16 90h67l-15 -90h-68zM186 605l15 90h68l-15 -90h-68z" />
    <glyph glyph-name="igrave" unicode="&#xec;" horiz-adv-x="228" 
d="M36 0l84 488h67l-83 -488h-68zM146 568l-108 164h74l78 -164h-44z" />
    <glyph glyph-name="iacute" unicode="&#xed;" horiz-adv-x="228" 
d="M36 0l84 488h67l-83 -488h-68zM142 568l134 164h81l-165 -164h-50z" />
    <glyph glyph-name="icircumflex" unicode="&#xee;" horiz-adv-x="228" 
d="M36 0l84 488h67l-83 -488h-68zM7 568l157 164h62l99 -164h-65l-72 121l-113 -121h-68z" />
    <glyph glyph-name="idieresis" unicode="&#xef;" horiz-adv-x="228" 
d="M36 0l84 488h67l-83 -488h-68zM239 605l16 90h67l-15 -90h-68zM42 605l15 90h68l-15 -90h-68z" />
    <glyph glyph-name="eth" unicode="&#xf0;" horiz-adv-x="560" 
d="M260 533l-25 38l97 66q-49 32 -126 57l25 50q95 -30 155 -71l99 67l25 -37l-86 -59q101 -92 101 -256q0 -90 -25 -184q-27 -99 -97 -157t-172 -58q-90 0 -143.5 55t-53.5 141q0 119 79.5 200.5t190.5 81.5q48 0 90 -22t59 -62h3q4 146 -85 225zM105 188q0 -64 36 -102
t99 -38q83 0 141 67t58 153q0 64 -37.5 102t-100.5 38q-83 0 -139.5 -67t-56.5 -153z" />
    <glyph glyph-name="ntilde" unicode="&#xf1;" horiz-adv-x="561" 
d="M36 0l84 488h65l-15 -84h1q57 95 170 95q81 0 124.5 -50.5t26.5 -151.5l-51 -297h-68l49 290q25 150 -99 150q-61 0 -110.5 -50t-65.5 -140l-43 -250h-68zM186 600q11 44 36.5 71.5t65.5 27.5q30 0 70 -25.5t56 -25.5q40 0 55 52h41q-10 -43 -36 -71t-66 -28
q-30 0 -70 25.5t-56 25.5q-38 0 -55 -52h-41z" />
    <glyph glyph-name="ograve" unicode="&#xf2;" horiz-adv-x="550" 
d="M35 196q0 26 5 58q17 104 88.5 174.5t177.5 70.5q92 0 146.5 -56.5t54.5 -150.5q0 -26 -5 -58q-17 -104 -88 -174.5t-178 -70.5q-92 0 -146.5 56.5t-54.5 150.5zM106 199q0 -69 37 -110t99 -41q69 0 121.5 51.5t67.5 134.5q5 21 5 55q0 69 -37 110t-99 41
q-69 0 -121.5 -51.5t-67.5 -134.5q-5 -21 -5 -55zM303 568l-108 164h74l78 -164h-44z" />
    <glyph glyph-name="oacute" unicode="&#xf3;" horiz-adv-x="550" 
d="M35 196q0 26 5 58q17 104 88.5 174.5t177.5 70.5q92 0 146.5 -56.5t54.5 -150.5q0 -26 -5 -58q-17 -104 -88 -174.5t-178 -70.5q-92 0 -146.5 56.5t-54.5 150.5zM106 199q0 -69 37 -110t99 -41q69 0 121.5 51.5t67.5 134.5q5 21 5 55q0 69 -37 110t-99 41
q-69 0 -121.5 -51.5t-67.5 -134.5q-5 -21 -5 -55zM299 568l134 164h81l-165 -164h-50z" />
    <glyph glyph-name="ocircumflex" unicode="&#xf4;" horiz-adv-x="550" 
d="M35 196q0 26 5 58q17 104 88.5 174.5t177.5 70.5q92 0 146.5 -56.5t54.5 -150.5q0 -26 -5 -58q-17 -104 -88 -174.5t-178 -70.5q-92 0 -146.5 56.5t-54.5 150.5zM106 199q0 -69 37 -110t99 -41q69 0 121.5 51.5t67.5 134.5q5 21 5 55q0 69 -37 110t-99 41
q-69 0 -121.5 -51.5t-67.5 -134.5q-5 -21 -5 -55zM164 568l157 164h62l99 -164h-65l-72 121l-113 -121h-68z" />
    <glyph glyph-name="otilde" unicode="&#xf5;" horiz-adv-x="550" 
d="M35 196q0 26 5 58q17 104 88.5 174.5t177.5 70.5q92 0 146.5 -56.5t54.5 -150.5q0 -26 -5 -58q-17 -104 -88 -174.5t-178 -70.5q-92 0 -146.5 56.5t-54.5 150.5zM106 199q0 -69 37 -110t99 -41q69 0 121.5 51.5t67.5 134.5q5 21 5 55q0 69 -37 110t-99 41
q-69 0 -121.5 -51.5t-67.5 -134.5q-5 -21 -5 -55zM176 600q11 44 36.5 71.5t65.5 27.5q30 0 70 -25.5t56 -25.5q40 0 55 52h41q-10 -43 -36 -71t-66 -28q-30 0 -70 25.5t-56 25.5q-38 0 -55 -52h-41z" />
    <glyph glyph-name="odieresis" unicode="&#xf6;" horiz-adv-x="550" 
d="M35 196q0 26 5 58q17 104 88.5 174.5t177.5 70.5q92 0 146.5 -56.5t54.5 -150.5q0 -26 -5 -58q-17 -104 -88 -174.5t-178 -70.5q-92 0 -146.5 56.5t-54.5 150.5zM106 199q0 -69 37 -110t99 -41q69 0 121.5 51.5t67.5 134.5q5 21 5 55q0 69 -37 110t-99 41
q-69 0 -121.5 -51.5t-67.5 -134.5q-5 -21 -5 -55zM396 605l16 90h67l-15 -90h-68zM199 605l15 90h68l-15 -90h-68z" />
    <glyph glyph-name="divide" unicode="&#xf7;" horiz-adv-x="568" 
d="M267 380l16 98h74l-16 -98h-74zM51 224l9 59h453l-9 -59h-453zM207 27l16 98h74l-16 -98h-74z" />
    <glyph glyph-name="oslash" unicode="&#xf8;" horiz-adv-x="550" 
d="M35 193q0 28 5 61q18 110 92.5 177.5t176.5 67.5q84 0 138 -49l49 50h51l-76 -78q36 -53 36 -127q0 -28 -5 -61q-18 -110 -92.5 -177.5t-176.5 -67.5q-85 0 -138 48l-48 -49h-51l75 77q-36 53 -36 128zM106 199q0 -49 16 -82l277 283q-35 40 -97 40q-68 0 -122 -52
t-69 -134q-5 -21 -5 -55zM436 289q0 46 -17 80l-276 -283q35 -38 97 -38q68 0 122 52t69 134q5 21 5 55z" />
    <glyph glyph-name="ugrave" unicode="&#xf9;" horiz-adv-x="553" 
d="M211 -11q-81 0 -124.5 50.5t-26.5 151.5l51 297h68l-49 -290q-25 -150 99 -150q60 0 107 47t62 131l47 262h68l-84 -488h-65l15 83h-3q-55 -94 -165 -94zM304 568l-108 164h74l78 -164h-44z" />
    <glyph glyph-name="uacute" unicode="&#xfa;" horiz-adv-x="553" 
d="M211 -11q-81 0 -124.5 50.5t-26.5 151.5l51 297h68l-49 -290q-25 -150 99 -150q60 0 107 47t62 131l47 262h68l-84 -488h-65l15 83h-3q-55 -94 -165 -94zM300 568l134 164h81l-165 -164h-50z" />
    <glyph glyph-name="ucircumflex" unicode="&#xfb;" horiz-adv-x="553" 
d="M211 -11q-81 0 -124.5 50.5t-26.5 151.5l51 297h68l-49 -290q-25 -150 99 -150q60 0 107 47t62 131l47 262h68l-84 -488h-65l15 83h-3q-55 -94 -165 -94zM165 568l157 164h62l99 -164h-65l-72 121l-113 -121h-68z" />
    <glyph glyph-name="udieresis" unicode="&#xfc;" horiz-adv-x="553" 
d="M211 -11q-81 0 -124.5 50.5t-26.5 151.5l51 297h68l-49 -290q-25 -150 99 -150q60 0 107 47t62 131l47 262h68l-84 -488h-65l15 83h-3q-55 -94 -165 -94zM397 605l16 90h67l-15 -90h-68zM200 605l15 90h68l-15 -90h-68z" />
    <glyph glyph-name="yacute" unicode="&#xfd;" horiz-adv-x="463" 
d="M-36 -167h27q82 0 136 104l27 53l-106 498h70l84 -414h3l218 414h69l-308 -571q-36 -68 -81 -105.5t-112 -37.5h-39zM259 568l134 164h81l-165 -164h-50z" />
    <glyph glyph-name="thorn" unicode="&#xfe;" horiz-adv-x="576" 
d="M86 -101l-20 -119h-68l162 952h68l-24 -139q-23 -131 -34 -178h3q31 40 76.5 62t95.5 22q86 0 137.5 -56t51.5 -148q0 -133 -74.5 -219.5t-181.5 -86.5q-59 0 -102.5 27t-57.5 71h-2q-4 -40 -30 -188zM144 199q0 -70 35 -110.5t97 -40.5q83 0 135 72.5t52 168.5
q0 69 -35.5 110t-97.5 41q-83 0 -134.5 -72.5t-51.5 -168.5z" />
    <glyph glyph-name="ydieresis" unicode="&#xff;" horiz-adv-x="463" 
d="M-36 -167h27q82 0 136 104l27 53l-106 498h70l84 -414h3l218 414h69l-308 -571q-36 -68 -81 -105.5t-112 -37.5h-39zM356 605l16 90h67l-15 -90h-68zM159 605l15 90h68l-15 -90h-68z" />
    <glyph glyph-name="Amacron" unicode="&#x100;" horiz-adv-x="631" 
d="M-29 0l372 688h86l143 -688h-74l-39 198h-309l-106 -198h-73zM377 614h-3l-191 -355h264zM262 776l9 53h276l-9 -53h-276z" />
    <glyph glyph-name="amacron" unicode="&#x101;" horiz-adv-x="517" 
d="M29 117q0 133 172 154l107 13q75 10 80 43q7 53 -19 84.5t-84 31.5q-114 0 -139 -107h-65q15 76 69 119.5t141 43.5q89 0 133.5 -49t27.5 -147l-52 -303h-65l13 81h-2q-52 -92 -170 -92q-69 0 -108 35.5t-39 92.5zM97 123q0 -36 24 -57t66 -21q68 0 117 40t63 123l10 58
q-15 -22 -60 -28l-107 -14q-113 -14 -113 -101zM171 623l10 53h276l-10 -53h-276z" />
    <glyph glyph-name="Abreve" unicode="&#x102;" horiz-adv-x="631" 
d="M-29 0l372 688h86l143 -688h-74l-39 198h-309l-106 -198h-73zM377 614h-3l-191 -355h264zM402 768q-54 0 -87.5 32t-28.5 102h44q-2 -90 76 -90q77 0 111 90h44q-39 -134 -159 -134z" />
    <glyph glyph-name="abreve" unicode="&#x103;" horiz-adv-x="517" 
d="M29 117q0 133 172 154l107 13q75 10 80 43q7 53 -19 84.5t-84 31.5q-114 0 -139 -107h-65q15 76 69 119.5t141 43.5q89 0 133.5 -49t27.5 -147l-52 -303h-65l13 81h-2q-52 -92 -170 -92q-69 0 -108 35.5t-39 92.5zM97 123q0 -36 24 -57t66 -21q68 0 117 40t63 123l10 58
q-15 -22 -60 -28l-107 -14q-113 -14 -113 -101zM305 584q-54 0 -87 32t-29 102h44q-2 -90 75 -90q78 0 112 90h44q-39 -134 -159 -134z" />
    <glyph glyph-name="Aogonek" unicode="&#x104;" horiz-adv-x="631" 
d="M434 -144q0 40 26.5 73.5t72.5 70.5h-35l-39 198h-309l-106 -198h-73l372 688h86l143 -688q-82 -74 -82 -130q0 -39 52 -39h31l-10 -47h-39q-44 0 -67 19.5t-23 52.5zM377 614h-3l-191 -355h264z" />
    <glyph glyph-name="aogonek" unicode="&#x105;" horiz-adv-x="517" 
d="M265 -144q0 40 26.5 73.5t72.5 70.5h-29l13 81h-2q-52 -92 -170 -92q-69 0 -108 35.5t-39 92.5q0 133 172 154l107 13q75 10 80 43q7 53 -19 84.5t-84 31.5q-114 0 -139 -107h-65q15 76 69 119.5t141 43.5q89 0 133.5 -49t27.5 -147l-52 -303h3q-82 -74 -82 -130
q0 -39 52 -39h31l-10 -47h-39q-44 0 -67 19.5t-23 52.5zM97 123q0 -36 24 -57t66 -21q68 0 117 40t63 123l10 58q-15 -22 -60 -28l-107 -14q-113 -14 -113 -101z" />
    <glyph glyph-name="Cacute" unicode="&#x106;" horiz-adv-x="708" 
d="M55 272q0 181 108 304t272 123q115 0 185.5 -60.5t78.5 -162.5h-72q-29 160 -201 160q-127 0 -212.5 -105t-85.5 -250q0 -102 57.5 -165.5t157.5 -63.5q86 0 143.5 40.5t96.5 119.5h72q-40 -105 -121 -164t-201 -59q-127 0 -202.5 80t-75.5 203zM428 768l134 164h81
l-165 -164h-50z" />
    <glyph glyph-name="cacute" unicode="&#x107;" horiz-adv-x="509" 
d="M35 196q0 35 8 75q21 99 88.5 163.5t169.5 64.5q78 0 129 -44.5t53 -127.5h-68q-3 51 -35.5 82t-87.5 31q-66 0 -113.5 -46.5t-64.5 -122.5q-8 -35 -8 -72q0 -69 35.5 -110t98.5 -41q50 0 88.5 31.5t60.5 81.5h68q-25 -79 -84.5 -125.5t-145.5 -46.5q-91 0 -141.5 58.5
t-50.5 148.5zM291 568l134 164h81l-165 -164h-50z" />
    <glyph glyph-name="Ccircumflex" unicode="&#x108;" horiz-adv-x="708" 
d="M55 272q0 181 108 304t272 123q115 0 185.5 -60.5t78.5 -162.5h-72q-29 160 -201 160q-127 0 -212.5 -105t-85.5 -250q0 -102 57.5 -165.5t157.5 -63.5q86 0 143.5 40.5t96.5 119.5h72q-40 -105 -121 -164t-201 -59q-127 0 -202.5 80t-75.5 203zM293 768l157 164h62
l99 -164h-65l-72 121l-113 -121h-68z" />
    <glyph glyph-name="ccircumflex" unicode="&#x109;" horiz-adv-x="509" 
d="M35 196q0 35 8 75q21 99 88.5 163.5t169.5 64.5q78 0 129 -44.5t53 -127.5h-68q-3 51 -35.5 82t-87.5 31q-66 0 -113.5 -46.5t-64.5 -122.5q-8 -35 -8 -72q0 -69 35.5 -110t98.5 -41q50 0 88.5 31.5t60.5 81.5h68q-25 -79 -84.5 -125.5t-145.5 -46.5q-91 0 -141.5 58.5
t-50.5 148.5zM156 568l157 164h62l99 -164h-65l-72 121l-113 -121h-68z" />
    <glyph glyph-name="Cdotaccent" unicode="&#x10a;" horiz-adv-x="708" 
d="M55 272q0 181 108 304t272 123q115 0 185.5 -60.5t78.5 -162.5h-72q-29 160 -201 160q-127 0 -212.5 -105t-85.5 -250q0 -102 57.5 -165.5t157.5 -63.5q86 0 143.5 40.5t96.5 119.5h72q-40 -105 -121 -164t-201 -59q-127 0 -202.5 80t-75.5 203zM419 768l16 90h68
l-16 -90h-68z" />
    <glyph glyph-name="cdotaccent" unicode="&#x10b;" horiz-adv-x="509" 
d="M35 196q0 35 8 75q21 99 88.5 163.5t169.5 64.5q78 0 129 -44.5t53 -127.5h-68q-3 51 -35.5 82t-87.5 31q-66 0 -113.5 -46.5t-64.5 -122.5q-8 -35 -8 -72q0 -69 35.5 -110t98.5 -41q50 0 88.5 31.5t60.5 81.5h68q-25 -79 -84.5 -125.5t-145.5 -46.5q-91 0 -141.5 58.5
t-50.5 148.5zM289 605l15 90h68l-15 -90h-68z" />
    <glyph glyph-name="Ccaron" unicode="&#x10c;" horiz-adv-x="708" 
d="M55 272q0 181 108 304t272 123q115 0 185.5 -60.5t78.5 -162.5h-72q-29 160 -201 160q-127 0 -212.5 -105t-85.5 -250q0 -102 57.5 -165.5t157.5 -63.5q86 0 143.5 40.5t96.5 119.5h72q-40 -105 -121 -164t-201 -59q-127 0 -202.5 80t-75.5 203zM423 768l-101 164h65
l72 -121l113 121h68l-157 -164h-60z" />
    <glyph glyph-name="ccaron" unicode="&#x10d;" horiz-adv-x="509" 
d="M35 196q0 35 8 75q21 99 88.5 163.5t169.5 64.5q78 0 129 -44.5t53 -127.5h-68q-3 51 -35.5 82t-87.5 31q-66 0 -113.5 -46.5t-64.5 -122.5q-8 -35 -8 -72q0 -69 35.5 -110t98.5 -41q50 0 88.5 31.5t60.5 81.5h68q-25 -79 -84.5 -125.5t-145.5 -46.5q-91 0 -141.5 58.5
t-50.5 148.5zM286 568l-101 164h65l72 -121l113 121h68l-157 -164h-60z" />
    <glyph glyph-name="Dcaron" unicode="&#x10e;" horiz-adv-x="696" 
d="M47 0l116 688h193q149 0 231 -79t82 -207q0 -178 -116 -290t-312 -112h-194zM350 626h-127l-95 -564h119q159 0 253.5 94.5t94.5 242.5q0 102 -61 164.5t-184 62.5zM369 768l-101 164h65l72 -121l113 121h68l-157 -164h-60z" />
    <glyph glyph-name="dcaron" unicode="&#x10f;" horiz-adv-x="576" 
d="M35 193q0 133 74.5 219.5t180.5 86.5q64 0 105.5 -26.5t55.5 -72.5h2q3 29 30 190l25 142h68l-124 -732h-66l12 71h-3q-62 -82 -171 -82q-86 0 -137.5 56t-51.5 148zM106 199q0 -69 35.5 -110t97.5 -41q83 0 134.5 72.5t51.5 168.5q0 70 -35 110.5t-97 40.5
q-83 0 -135 -72.5t-52 -168.5zM628 528l48 115h-30l14 89h73l-14 -83l-57 -121h-34z" />
    <glyph glyph-name="Dcroat" unicode="&#x110;" horiz-adv-x="696" 
d="M13 316l10 59h87l53 313h193q149 0 231 -78.5t82 -204.5q0 -180 -116.5 -292.5t-314.5 -112.5h-191l53 316h-87zM350 626h-127l-42 -251h161l-9 -59h-162l-43 -254h122q159 0 252 94t93 243q0 102 -61 164.5t-184 62.5z" />
    <glyph glyph-name="dcroat" unicode="&#x111;" horiz-adv-x="576" 
d="M331 599l9 47h153l15 86h68l-15 -86h81l-8 -47h-81l-101 -599h-66l12 71h-3q-62 -82 -171 -82q-86 0 -137.5 56t-51.5 148q0 133 74.5 219.5t180.5 86.5q64 0 105.5 -26.5t55.5 -72.5h2q3 29 30 190l1 9h-153zM106 199q0 -69 35.5 -110t97.5 -41q83 0 134.5 72.5
t51.5 168.5q0 70 -35 110.5t-97 40.5q-83 0 -135 -72.5t-52 -168.5z" />
    <glyph glyph-name="Emacron" unicode="&#x112;" horiz-adv-x="606" 
d="M47 0l116 688h459l-9 -62h-390l-41 -245h311l-9 -61h-312l-44 -258h395l-9 -62h-467zM267 776l9 53h276l-9 -53h-276z" />
    <glyph glyph-name="emacron" unicode="&#x113;" horiz-adv-x="517" 
d="M35 199q0 36 8 74q20 102 90.5 164t163.5 62q104 0 154.5 -73.5t23.5 -186.5h-367q-2 -13 -2 -40q0 -69 36 -110t99 -41q49 0 88.5 27t59.5 73h68q-28 -75 -86.5 -117t-141.5 -42q-89 0 -141.5 58t-52.5 152zM292 440q-60 0 -107 -40.5t-67 -109.5h294q0 4 0.5 12t0.5 11
q-1 62 -33 94.5t-88 32.5zM180 623l10 53h276l-10 -53h-276z" />
    <glyph glyph-name="Ebreve" unicode="&#x114;" horiz-adv-x="606" 
d="M47 0l116 688h459l-9 -62h-390l-41 -245h311l-9 -61h-312l-44 -258h395l-9 -62h-467zM407 768q-54 0 -87.5 32t-28.5 102h44q-2 -90 76 -90q77 0 111 90h44q-39 -134 -159 -134z" />
    <glyph glyph-name="ebreve" unicode="&#x115;" horiz-adv-x="517" 
d="M35 199q0 36 8 74q20 102 90.5 164t163.5 62q104 0 154.5 -73.5t23.5 -186.5h-367q-2 -13 -2 -40q0 -69 36 -110t99 -41q49 0 88.5 27t59.5 73h68q-28 -75 -86.5 -117t-141.5 -42q-89 0 -141.5 58t-52.5 152zM292 440q-60 0 -107 -40.5t-67 -109.5h294q0 4 0.5 12t0.5 11
q-1 62 -33 94.5t-88 32.5zM314 584q-54 0 -87 32t-29 102h44q-2 -90 75 -90q78 0 112 90h44q-39 -134 -159 -134z" />
    <glyph glyph-name="Edotaccent" unicode="&#x116;" horiz-adv-x="606" 
d="M47 0l116 688h459l-9 -62h-390l-41 -245h311l-9 -61h-312l-44 -258h395l-9 -62h-467zM370 768l16 90h68l-16 -90h-68z" />
    <glyph glyph-name="edotaccent" unicode="&#x117;" horiz-adv-x="517" 
d="M35 199q0 36 8 74q20 102 90.5 164t163.5 62q104 0 154.5 -73.5t23.5 -186.5h-367q-2 -13 -2 -40q0 -69 36 -110t99 -41q49 0 88.5 27t59.5 73h68q-28 -75 -86.5 -117t-141.5 -42q-89 0 -141.5 58t-52.5 152zM292 440q-60 0 -107 -40.5t-67 -109.5h294q0 4 0.5 12t0.5 11
q-1 62 -33 94.5t-88 32.5zM284 605l15 90h68l-15 -90h-68z" />
    <glyph glyph-name="Eogonek" unicode="&#x118;" horiz-adv-x="606" 
d="M47 0l116 688h459l-9 -62h-390l-41 -245h311l-9 -61h-312l-44 -258h395l-9 -62q-82 -74 -82 -130q0 -39 52 -39h31l-10 -47h-39q-44 0 -67 19.5t-23 52.5q0 40 26.5 73.5t72.5 70.5h-428z" />
    <glyph glyph-name="eogonek" unicode="&#x119;" horiz-adv-x="517" 
d="M35 199q0 36 8 74q20 102 90.5 164t163.5 62q104 0 154.5 -73.5t23.5 -186.5h-367q-2 -13 -2 -40q0 -69 36 -110t99 -41q49 0 88.5 27t59.5 73h68q-32 -83 -108 -131q-54 -33 -94.5 -74t-40.5 -74q0 -38 54 -38h30l-7 -47h-40q-93 0 -93 71q0 65 100 136q-18 -2 -29 -2
q-89 0 -141.5 58t-52.5 152zM288 440q-57 0 -103.5 -41t-66.5 -109h294q0 4 0.5 12t0.5 11q-1 63 -34 95t-91 32z" />
    <glyph glyph-name="Ecaron" unicode="&#x11a;" horiz-adv-x="606" 
d="M47 0l116 688h459l-9 -62h-390l-41 -245h311l-9 -61h-312l-44 -258h395l-9 -62h-467zM374 768l-101 164h65l72 -121l113 121h68l-157 -164h-60z" />
    <glyph glyph-name="ecaron" unicode="&#x11b;" horiz-adv-x="517" 
d="M35 199q0 36 8 74q20 102 90.5 164t163.5 62q104 0 154.5 -73.5t23.5 -186.5h-367q-2 -13 -2 -40q0 -69 36 -110t99 -41q49 0 88.5 27t59.5 73h68q-28 -75 -86.5 -117t-141.5 -42q-89 0 -141.5 58t-52.5 152zM292 440q-60 0 -107 -40.5t-67 -109.5h294q0 4 0.5 12t0.5 11
q-1 62 -33 94.5t-88 32.5zM281 568l-101 164h65l72 -121l113 121h68l-157 -164h-60z" />
    <glyph glyph-name="Gcircumflex" unicode="&#x11c;" horiz-adv-x="754" 
d="M585 0l7 107h-3q-92 -118 -256 -118q-125 0 -201.5 80.5t-76.5 203.5q0 183 112.5 304.5t278.5 121.5q122 0 191 -58.5t74 -154.5h-73q-7 66 -56.5 108t-144.5 42q-131 0 -220.5 -104t-89.5 -251q0 -101 59 -165t159 -64q95 0 172 57t94 155l6 35h-229l9 61h297l-62 -360
h-47zM304 768l157 164h62l99 -164h-65l-72 121l-113 -121h-68z" />
    <glyph glyph-name="gcircumflex" unicode="&#x11d;" horiz-adv-x="576" 
d="M9 -60h64q-10 -52 26 -82t101 -30q155 0 186 175l13 72h-3q-62 -86 -172 -86q-86 0 -137.5 56t-51.5 148q0 133 74.5 219.5t180.5 86.5q64 0 105.5 -26.5t55.5 -72.5h2l15 88h66l-81 -485q-21 -122 -86.5 -176.5t-172.5 -54.5q-93 0 -146 45.5t-39 122.5zM106 199
q0 -69 35.5 -110t97.5 -41q83 0 134.5 72.5t51.5 168.5q0 70 -35 110.5t-97 40.5q-83 0 -135 -72.5t-52 -168.5zM150 568l157 164h62l99 -164h-65l-72 121l-113 -121h-68z" />
    <glyph glyph-name="Gbreve" unicode="&#x11e;" horiz-adv-x="754" 
d="M585 0l7 107h-3q-92 -118 -256 -118q-125 0 -201.5 80.5t-76.5 203.5q0 183 112.5 304.5t278.5 121.5q122 0 191 -58.5t74 -154.5h-73q-7 66 -56.5 108t-144.5 42q-131 0 -220.5 -104t-89.5 -251q0 -101 59 -165t159 -64q95 0 172 57t94 155l6 35h-229l9 61h297l-62 -360
h-47zM467 768q-54 0 -87.5 32t-28.5 102h44q-2 -90 76 -90q77 0 111 90h44q-39 -134 -159 -134z" />
    <glyph glyph-name="gbreve" unicode="&#x11f;" horiz-adv-x="576" 
d="M9 -60h64q-10 -52 26 -82t101 -30q155 0 186 175l13 72h-3q-62 -86 -172 -86q-86 0 -137.5 56t-51.5 148q0 133 74.5 219.5t180.5 86.5q64 0 105.5 -26.5t55.5 -72.5h2l15 88h66l-81 -485q-21 -122 -86.5 -176.5t-172.5 -54.5q-93 0 -146 45.5t-39 122.5zM106 199
q0 -69 35.5 -110t97.5 -41q83 0 134.5 72.5t51.5 168.5q0 70 -35 110.5t-97 40.5q-83 0 -135 -72.5t-52 -168.5zM313 584q-54 0 -87 32t-29 102h44q-2 -90 75 -90q78 0 112 90h44q-39 -134 -159 -134z" />
    <glyph glyph-name="Gdotaccent" unicode="&#x120;" horiz-adv-x="754" 
d="M585 0l7 107h-3q-92 -118 -256 -118q-125 0 -201.5 80.5t-76.5 203.5q0 183 112.5 304.5t278.5 121.5q122 0 191 -58.5t74 -154.5h-73q-7 66 -56.5 108t-144.5 42q-131 0 -220.5 -104t-89.5 -251q0 -101 59 -165t159 -64q95 0 172 57t94 155l6 35h-229l9 61h297l-62 -360
h-47zM430 768l16 90h68l-16 -90h-68z" />
    <glyph glyph-name="gdotaccent" unicode="&#x121;" horiz-adv-x="576" 
d="M9 -60h64q-10 -52 26 -82t101 -30q155 0 186 175l13 72h-3q-62 -86 -172 -86q-86 0 -137.5 56t-51.5 148q0 133 74.5 219.5t180.5 86.5q64 0 105.5 -26.5t55.5 -72.5h2l15 88h66l-81 -485q-21 -122 -86.5 -176.5t-172.5 -54.5q-93 0 -146 45.5t-39 122.5zM106 199
q0 -69 35.5 -110t97.5 -41q83 0 134.5 72.5t51.5 168.5q0 70 -35 110.5t-97 40.5q-83 0 -135 -72.5t-52 -168.5zM283 605l15 90h68l-15 -90h-68z" />
    <glyph glyph-name="Gcommaaccent" unicode="&#x122;" horiz-adv-x="754" 
d="M585 0l7 107h-3q-92 -118 -256 -118q-125 0 -201.5 80.5t-76.5 203.5q0 183 112.5 304.5t278.5 121.5q122 0 191 -58.5t74 -154.5h-73q-7 66 -56.5 108t-144.5 42q-131 0 -220.5 -104t-89.5 -251q0 -101 59 -165t159 -64q95 0 172 57t94 155l6 35h-229l9 61h297l-62 -360
h-47zM286 -66h68l-13 -74l-53 -103h-31l42 97h-27z" />
    <glyph glyph-name="gcommaaccent" unicode="&#x123;" horiz-adv-x="576" 
d="M9 -60h64q-10 -52 26 -82t101 -30q155 0 186 175l13 72h-3q-62 -86 -172 -86q-86 0 -137.5 56t-51.5 148q0 133 74.5 219.5t180.5 86.5q64 0 105.5 -26.5t55.5 -72.5h2l15 88h66l-81 -485q-21 -122 -86.5 -176.5t-172.5 -54.5q-93 0 -146 45.5t-39 122.5zM106 199
q0 -69 35.5 -110t97.5 -41q83 0 134.5 72.5t51.5 168.5q0 70 -35 110.5t-97 40.5q-83 0 -135 -72.5t-52 -168.5zM275 568l13 74l53 103h31l-43 -97h28l-14 -80h-68z" />
    <glyph glyph-name="Hcircumflex" unicode="&#x124;" horiz-adv-x="716" 
d="M47 0l116 688h71l-52 -308h392l52 308h71l-116 -688h-71l53 318h-392l-53 -318h-71zM283 768l157 164h62l99 -164h-65l-72 121l-113 -121h-68z" />
    <glyph glyph-name="hcircumflex" unicode="&#x125;" horiz-adv-x="561" 
d="M36 0l124 732h68l-26 -153q-2 -14 -9 -52l-12.5 -69.5t-9.5 -49.5h3q56 91 167 91q81 0 124.5 -50.5t26.5 -151.5l-51 -297h-68l49 290q25 150 -99 150q-62 0 -111 -49.5t-65 -140.5l-43 -250h-68zM44 812l157 164h62l99 -164h-65l-72 121l-113 -121h-68z" />
    <glyph glyph-name="Hbar" unicode="&#x126;" horiz-adv-x="716" 
d="M42 510l9 58h92l20 120h71l-20 -120h392l20 120h71l-20 -120h88l-9 -58h-89l-86 -510h-71l53 318h-392l-53 -318h-71l86 510h-91zM204 510l-22 -130h392l22 130h-392z" />
    <glyph glyph-name="hbar" unicode="&#x127;" horiz-adv-x="561" 
d="M57 599l9 47h79l15 86h68l-15 -86h156l-9 -47h-155l-3 -21q-2 -14 -9 -52l-12.5 -69.5t-9.5 -49.5h2q57 92 168 92q81 0 124.5 -50.5t26.5 -151.5l-51 -297h-68l49 290q25 150 -99 150q-61 0 -110.5 -49t-65.5 -139l-43 -252h-68l101 599h-80z" />
    <glyph glyph-name="Itilde" unicode="&#x128;" horiz-adv-x="253" 
d="M47 0l116 688h71l-116 -688h-71zM58 768q10 44 36.5 71.5t65.5 27.5q30 0 70.5 -25.5t56.5 -25.5q38 0 55 52h40q-10 -43 -36 -71t-66 -28q-30 0 -70 25.5t-56 25.5q-38 0 -55 -52h-41z" />
    <glyph glyph-name="itilde" unicode="&#x129;" horiz-adv-x="228" 
d="M36 0l84 488h67l-83 -488h-68zM19 600q11 44 36.5 71.5t65.5 27.5q30 0 70 -25.5t56 -25.5q40 0 55 52h41q-10 -43 -36 -71t-66 -28q-30 0 -70 25.5t-56 25.5q-38 0 -55 -52h-41z" />
    <glyph glyph-name="Imacron" unicode="&#x12a;" horiz-adv-x="253" 
d="M47 0l116 688h71l-116 -688h-71zM73 776l9 53h276l-9 -53h-276z" />
    <glyph glyph-name="imacron" unicode="&#x12b;" horiz-adv-x="228" 
d="M36 0l84 488h67l-83 -488h-68zM36 623l10 53h276l-10 -53h-276z" />
    <glyph glyph-name="Ibreve" unicode="&#x12c;" horiz-adv-x="253" 
d="M47 0l116 688h71l-116 -688h-71zM213 768q-54 0 -87.5 32t-28.5 102h44q-2 -90 76 -90q77 0 111 90h44q-39 -134 -159 -134z" />
    <glyph glyph-name="ibreve" unicode="&#x12d;" horiz-adv-x="228" 
d="M36 0l84 488h67l-83 -488h-68zM170 584q-54 0 -87 32t-29 102h44q-2 -90 75 -90q78 0 112 90h44q-39 -134 -159 -134z" />
    <glyph glyph-name="Iogonek" unicode="&#x12e;" horiz-adv-x="253" 
d="M47 0l116 688h71l-116 -688q-82 -74 -82 -130q0 -39 52 -39h31l-10 -47h-39q-44 0 -67 19.5t-23 52.5q0 40 26.5 73.5t72.5 70.5h-32z" />
    <glyph glyph-name="iogonek" unicode="&#x12f;" horiz-adv-x="228" 
d="M36 0l84 488h67l-83 -488q-82 -74 -82 -130q0 -39 52 -39h31l-10 -47h-39q-44 0 -67 19.5t-23 52.5q0 40 26.5 73.5t72.5 70.5h-29zM141 636l16 96h73l-15 -96h-74z" />
    <glyph glyph-name="Idotaccent" unicode="&#x130;" horiz-adv-x="253" 
d="M47 0l116 688h71l-116 -688h-71zM176 768l16 90h68l-16 -90h-68z" />
    <glyph glyph-name="dotlessi" unicode="&#x131;" horiz-adv-x="228" 
d="M36 0l84 488h67l-83 -488h-68z" />
    <glyph glyph-name="IJ" unicode="&#x132;" horiz-adv-x="769" 
d="M289 193l7 35h71l-7 -35q-26 -142 98 -142q60 0 97.5 34.5t51.5 113.5l84 489h71l-84 -489q-19 -110 -74.5 -160t-145.5 -50q-95 0 -141.5 49.5t-27.5 154.5zM47 0l116 688h71l-116 -688h-71z" />
    <glyph glyph-name="ij" unicode="&#x133;" horiz-adv-x="456" 
d="M369 636l15 96h74l-16 -96h-73zM141 636l16 96h73l-15 -96h-74zM146 -161h27q33 0 50.5 18t24.5 59l99 572h67l-100 -584q-21 -124 -147 -124h-30zM36 0l84 488h67l-83 -488h-68z" />
    <glyph glyph-name="Jcircumflex" unicode="&#x134;" horiz-adv-x="513" 
d="M199 -11q-94 0 -139 49.5t-26 154.5l6 35h71l-7 -35q-25 -142 99 -142q122 0 148 148l84 489h71l-84 -489q-36 -210 -223 -210zM325 768l157 164h62l99 -164h-65l-72 121l-113 -121h-68z" />
    <glyph glyph-name="jcircumflex" unicode="&#x135;" horiz-adv-x="228" 
d="M21 -84l99 572h67l-100 -584q-21 -124 -147 -124h-30l9 59h27q33 0 50.5 18t24.5 59zM7 568l157 164h62l99 -164h-65l-72 121l-113 -121h-68z" />
    <glyph glyph-name="Kcommaaccent" unicode="&#x136;" horiz-adv-x="649" 
d="M46 0l117 688h71l-67 -393l432 393h86l-329 -300l224 -388h-77l-198 341l-154 -140l-34 -201h-71zM260 -66h68l-13 -74l-53 -103h-31l42 97h-27z" />
    <glyph glyph-name="kcommaaccent" unicode="&#x137;" horiz-adv-x="496" 
d="M36 0l124 732h68l-85 -503l280 259h84l-220 -201l152 -287h-75l-127 242l-109 -100l-24 -142h-68zM185 -66h68l-13 -74l-53 -103h-31l42 97h-27z" />
    <glyph glyph-name="Lacute" unicode="&#x139;" horiz-adv-x="541" 
d="M47 0l116 688h71l-106 -626h350l-9 -62h-422zM185 768l134 164h81l-165 -164h-50z" />
    <glyph glyph-name="lacute" unicode="&#x13a;" horiz-adv-x="228" 
d="M36 0l124 732h68l-124 -732h-68zM182 812l134 164h81l-165 -164h-50z" />
    <glyph glyph-name="Lcommaaccent" unicode="&#x13b;" horiz-adv-x="541" 
d="M47 0l116 688h71l-106 -626h350l-9 -62h-422zM214 -66h68l-13 -74l-53 -103h-31l42 97h-27z" />
    <glyph glyph-name="lcommaaccent" unicode="&#x13c;" horiz-adv-x="228" 
d="M36 0l124 732h68l-124 -732h-68zM24 -66h68l-13 -74l-53 -103h-31l42 97h-27z" />
    <glyph glyph-name="Lcaron" unicode="&#x13d;" horiz-adv-x="541" 
d="M47 0l116 688h71l-106 -626h350l-9 -62h-422zM365 484l48 115h-30l14 89h74l-14 -83l-58 -121h-34z" />
    <glyph glyph-name="lcaron" unicode="&#x13e;" horiz-adv-x="228" 
d="M280 528l48 115h-30l14 89h73l-14 -83l-57 -121h-34zM36 0l124 732h68l-124 -732h-68z" />
    <glyph glyph-name="Ldot" unicode="&#x13f;" horiz-adv-x="541" 
d="M47 0l116 688h71l-106 -626h350l-9 -62h-422zM309 304l15 96h74l-15 -96h-74z" />
    <glyph glyph-name="ldot" unicode="&#x140;" horiz-adv-x="290" 
d="M36 0l124 732h68l-124 -732h-68zM230 292l15 96h73l-15 -96h-73z" />
    <glyph glyph-name="Lslash" unicode="&#x141;" horiz-adv-x="541" 
d="M0 196v59l101 65l62 368h71l-54 -317l161 103v-58l-171 -111l-42 -243h350l-9 -62h-422l43 254z" />
    <glyph glyph-name="lslash" unicode="&#x142;" horiz-adv-x="228" 
d="M9 229v53l88 76l63 374h68l-52 -309l76 65v-53l-87 -76l-61 -359h-68l50 294z" />
    <glyph glyph-name="Nacute" unicode="&#x143;" horiz-adv-x="723" 
d="M47 0l116 688h64l308 -568h3l95 568h71l-116 -688h-65l-308 568h-2l-95 -568h-71zM422 768l134 164h81l-165 -164h-50z" />
    <glyph glyph-name="nacute" unicode="&#x144;" horiz-adv-x="561" 
d="M36 0l84 488h65l-15 -84h1q57 95 170 95q81 0 124.5 -50.5t26.5 -151.5l-51 -297h-68l49 290q25 150 -99 150q-61 0 -110.5 -50t-65.5 -140l-43 -250h-68zM309 568l134 164h81l-165 -164h-50z" />
    <glyph glyph-name="Ncommaaccent" unicode="&#x145;" horiz-adv-x="723" 
d="M47 0l116 688h64l308 -568h3l95 568h71l-116 -688h-65l-308 568h-2l-95 -568h-71zM268 -66h68l-13 -74l-53 -103h-31l42 97h-27z" />
    <glyph glyph-name="ncommaaccent" unicode="&#x146;" horiz-adv-x="561" 
d="M36 0l84 488h65l-15 -84h1q57 95 170 95q81 0 124.5 -50.5t26.5 -151.5l-51 -297h-68l49 290q25 150 -99 150q-61 0 -110.5 -50t-65.5 -140l-43 -250h-68zM191 -66h68l-13 -74l-53 -103h-31l42 97h-27z" />
    <glyph glyph-name="Ncaron" unicode="&#x147;" horiz-adv-x="723" 
d="M47 0l116 688h64l308 -568h3l95 568h71l-116 -688h-65l-308 568h-2l-95 -568h-71zM417 768l-101 164h65l72 -121l113 121h68l-157 -164h-60z" />
    <glyph glyph-name="ncaron" unicode="&#x148;" horiz-adv-x="561" 
d="M36 0l84 488h65l-15 -84h1q57 95 170 95q81 0 124.5 -50.5t26.5 -151.5l-51 -297h-68l49 290q25 150 -99 150q-61 0 -110.5 -50t-65.5 -140l-43 -250h-68zM304 568l-101 164h65l72 -121l113 121h68l-157 -164h-60z" />
    <glyph glyph-name="napostrophe" unicode="&#x149;" horiz-adv-x="561" 
d="M36 0l84 488h65l-15 -84h1q57 95 170 95q81 0 124.5 -50.5t26.5 -151.5l-51 -297h-68l49 290q25 150 -99 150q-61 0 -110.5 -50t-65.5 -140l-43 -250h-68zM127 568l43 97h-28l14 80h68l-13 -74l-53 -103h-31z" />
    <glyph glyph-name="Eng" unicode="&#x14a;" horiz-adv-x="723" 
d="M704 688l-124 -736q-15 -94 -64 -133t-130 -39h-48l12 65h45q49 0 77 26.5t38 86.5l8 46l-303 569h-3l-94 -573h-71l116 688h67l305 -573h1l97 573h71z" />
    <glyph glyph-name="eng" unicode="&#x14b;" horiz-adv-x="561" 
d="M255 -161h28q33 0 50.5 18t24.5 59l64 374q25 150 -99 150q-62 0 -111 -50t-65 -143l-43 -247h-68l84 488h64l-14 -80h4q56 91 167 91q81 0 124.5 -50.5t26.5 -151.5l-68 -393q-21 -124 -147 -124h-30z" />
    <glyph glyph-name="Omacron" unicode="&#x14c;" horiz-adv-x="754" 
d="M56 277q0 179 113 300.5t276 121.5q126 0 204 -81.5t78 -206.5q0 -179 -113.5 -300.5t-277.5 -121.5q-125 0 -202.5 81.5t-77.5 206.5zM129 280q0 -102 58 -165t159 -63q128 0 218.5 104t90.5 252q0 102 -59 165t-160 63q-128 0 -217.5 -103.5t-89.5 -252.5zM323 776
l9 53h276l-9 -53h-276z" />
    <glyph glyph-name="omacron" unicode="&#x14d;" horiz-adv-x="550" 
d="M35 196q0 26 5 58q17 104 88.5 174.5t177.5 70.5q92 0 146.5 -56.5t54.5 -150.5q0 -26 -5 -58q-17 -104 -88 -174.5t-178 -70.5q-92 0 -146.5 56.5t-54.5 150.5zM106 199q0 -69 37 -110t99 -41q69 0 121.5 51.5t67.5 134.5q5 21 5 55q0 69 -37 110t-99 41
q-69 0 -121.5 -51.5t-67.5 -134.5q-5 -21 -5 -55zM193 623l10 53h276l-10 -53h-276z" />
    <glyph glyph-name="Obreve" unicode="&#x14e;" horiz-adv-x="754" 
d="M56 277q0 179 113 300.5t276 121.5q126 0 204 -81.5t78 -206.5q0 -179 -113.5 -300.5t-277.5 -121.5q-125 0 -202.5 81.5t-77.5 206.5zM129 280q0 -102 58 -165t159 -63q128 0 218.5 104t90.5 252q0 102 -59 165t-160 63q-128 0 -217.5 -103.5t-89.5 -252.5zM463 768
q-54 0 -87.5 32t-28.5 102h44q-2 -90 76 -90q77 0 111 90h44q-39 -134 -159 -134z" />
    <glyph glyph-name="obreve" unicode="&#x14f;" horiz-adv-x="550" 
d="M35 196q0 26 5 58q17 104 88.5 174.5t177.5 70.5q92 0 146.5 -56.5t54.5 -150.5q0 -26 -5 -58q-17 -104 -88 -174.5t-178 -70.5q-92 0 -146.5 56.5t-54.5 150.5zM106 199q0 -69 37 -110t99 -41q69 0 121.5 51.5t67.5 134.5q5 21 5 55q0 69 -37 110t-99 41
q-69 0 -121.5 -51.5t-67.5 -134.5q-5 -21 -5 -55zM327 584q-54 0 -87 32t-29 102h44q-2 -90 75 -90q78 0 112 90h44q-39 -134 -159 -134z" />
    <glyph glyph-name="Ohungarumlaut" unicode="&#x150;" horiz-adv-x="754" 
d="M56 277q0 179 113 300.5t276 121.5q126 0 204 -81.5t78 -206.5q0 -179 -113.5 -300.5t-277.5 -121.5q-125 0 -202.5 81.5t-77.5 206.5zM129 280q0 -102 58 -165t159 -63q128 0 218.5 104t90.5 252q0 102 -59 165t-160 63q-128 0 -217.5 -103.5t-89.5 -252.5zM521 768
l134 164h80l-164 -164h-50zM344 768l134 164h80l-164 -164h-50z" />
    <glyph glyph-name="ohungarumlaut" unicode="&#x151;" horiz-adv-x="550" 
d="M35 196q0 26 5 58q17 104 88.5 174.5t177.5 70.5q92 0 146.5 -56.5t54.5 -150.5q0 -26 -5 -58q-17 -104 -88 -174.5t-178 -70.5q-92 0 -146.5 56.5t-54.5 150.5zM106 199q0 -69 37 -110t99 -41q69 0 121.5 51.5t67.5 134.5q5 21 5 55q0 69 -37 110t-99 41
q-69 0 -121.5 -51.5t-67.5 -134.5q-5 -21 -5 -55zM385 568l134 164h80l-164 -164h-50zM208 568l134 164h80l-164 -164h-50z" />
    <glyph glyph-name="OE" unicode="&#x152;" horiz-adv-x="1034" 
d="M55 280q0 182 116 295t312 113h567l-9 -62h-387l-41 -245h308l-9 -61h-309l-44 -258h392l-9 -62h-577q-147 0 -228.5 78t-81.5 202zM129 289q0 -102 61 -164.5t184 -62.5h114l95 564h-109q-159 0 -252 -94t-93 -243z" />
    <glyph glyph-name="oe" unicode="&#x153;" horiz-adv-x="911" 
d="M35 193q0 28 5 61q18 109 93 177t176 68q66 0 111 -30t66 -84q35 54 88.5 84t116.5 30q104 0 154 -73.5t24 -186.5h-367q-2 -13 -2 -40q0 -69 36 -110t99 -41q49 0 88.5 27t59.5 73h68q-28 -75 -86.5 -117t-141.5 -42q-134 0 -175 119q-37 -56 -92.5 -87.5t-122.5 -31.5
q-91 0 -144.5 55.5t-53.5 148.5zM106 199q0 -69 35.5 -110t98.5 -41q69 0 122.5 52t68.5 134q5 21 5 55q0 69 -35.5 110t-98.5 41q-69 0 -122.5 -52t-68.5 -134q-5 -21 -5 -55zM682 440q-58 0 -104.5 -41t-65.5 -109h294q0 4 0.5 12t0.5 11q-1 63 -34 95t-91 32z" />
    <glyph glyph-name="Racute" unicode="&#x154;" horiz-adv-x="645" 
d="M47 0l116 688h257q101 0 152.5 -43.5t51.5 -122.5q0 -93 -56 -156.5t-150 -79.5l137 -286h-76l-132 281h-182l-47 -281h-71zM414 626h-191l-47 -283h193q83 0 132 48.5t49 124.5q0 51 -35.5 80.5t-100.5 29.5zM363 768l134 164h81l-165 -164h-50z" />
    <glyph glyph-name="racute" unicode="&#x155;" horiz-adv-x="356" 
d="M36 0l84 488h64l-14 -80h3q49 91 143 91q43 0 68 -20l-31 -61q-27 16 -60 16q-56 0 -94.5 -53.5t-52.5 -133.5l-42 -247h-68zM238 568l134 164h81l-165 -164h-50z" />
    <glyph glyph-name="Rcommaaccent" unicode="&#x156;" horiz-adv-x="645" 
d="M47 0l116 688h257q101 0 152.5 -43.5t51.5 -122.5q0 -93 -56 -156.5t-150 -79.5l137 -286h-76l-132 281h-182l-47 -281h-71zM414 626h-191l-47 -283h193q83 0 132 48.5t49 124.5q0 51 -35.5 80.5t-100.5 29.5zM243 -67h68l-13 -74l-53 -103h-31l42 97h-27z" />
    <glyph glyph-name="rcommaaccent" unicode="&#x157;" horiz-adv-x="356" 
d="M36 0l84 488h64l-14 -80h3q49 91 143 91q43 0 68 -20l-31 -61q-27 16 -60 16q-56 0 -94.5 -53.5t-52.5 -133.5l-42 -247h-68zM24 -66h68l-13 -74l-53 -103h-31l42 97h-27z" />
    <glyph glyph-name="Rcaron" unicode="&#x158;" horiz-adv-x="645" 
d="M47 0l116 688h257q101 0 152.5 -43.5t51.5 -122.5q0 -93 -56 -156.5t-150 -79.5l137 -286h-76l-132 281h-182l-47 -281h-71zM414 626h-191l-47 -283h193q83 0 132 48.5t49 124.5q0 51 -35.5 80.5t-100.5 29.5zM358 768l-101 164h65l72 -121l113 121h68l-157 -164h-60z
" />
    <glyph glyph-name="rcaron" unicode="&#x159;" horiz-adv-x="356" 
d="M36 0l84 488h64l-14 -80h3q49 91 143 91q43 0 68 -20l-31 -61q-27 16 -60 16q-56 0 -94.5 -53.5t-52.5 -133.5l-42 -247h-68zM233 568l-101 164h65l72 -121l113 121h68l-157 -164h-60z" />
    <glyph glyph-name="Sacute" unicode="&#x15a;" horiz-adv-x="638" 
d="M48 192h67q-12 -68 34 -106t140 -38q93 0 147.5 37.5t54.5 105.5q0 25 -9.5 44.5t-22.5 32t-36.5 22.5t-43 15.5t-50.5 12.5l-35 8q-39 9 -66.5 19.5t-55 29.5t-42 50.5t-14.5 74.5q0 90 73 144.5t197 54.5q113 0 173.5 -50.5t45.5 -139.5h-67q10 62 -34 96.5t-126 34.5
q-85 0 -137.5 -35t-52.5 -96q0 -29 11.5 -50.5t35.5 -35t46.5 -21t58.5 -15.5l35 -8q42 -9 70.5 -19.5t59 -30t45.5 -52t15 -77.5q0 -99 -75.5 -155t-205.5 -56q-127 0 -190.5 56t-45.5 147zM369 768l134 164h81l-165 -164h-50z" />
    <glyph glyph-name="sacute" unicode="&#x15b;" horiz-adv-x="481" 
d="M19 138h65q-8 -50 26 -73t96 -23q69 0 105 24t36 69q0 21 -9.5 36.5t-30.5 25t-37.5 14t-47.5 10.5l-21 4q-62 12 -97.5 39t-35.5 87q0 69 54 108.5t141 39.5q91 0 140 -36t36 -108h-64q7 45 -24 68t-91 23q-57 0 -92 -23.5t-35 -65.5q0 -25 17 -42t38 -24t57 -14l20 -4
q33 -6 55 -13.5t46.5 -21.5t36.5 -38.5t12 -58.5q0 -74 -56 -113t-156 -39q-93 0 -144.5 38.5t-39.5 110.5zM251 568l134 164h81l-165 -164h-50z" />
    <glyph glyph-name="Scircumflex" unicode="&#x15c;" horiz-adv-x="638" 
d="M48 192h67q-12 -68 34 -106t140 -38q93 0 147.5 37.5t54.5 105.5q0 25 -9.5 44.5t-22.5 32t-36.5 22.5t-43 15.5t-50.5 12.5l-35 8q-39 9 -66.5 19.5t-55 29.5t-42 50.5t-14.5 74.5q0 90 73 144.5t197 54.5q113 0 173.5 -50.5t45.5 -139.5h-67q10 62 -34 96.5t-126 34.5
q-85 0 -137.5 -35t-52.5 -96q0 -29 11.5 -50.5t35.5 -35t46.5 -21t58.5 -15.5l35 -8q42 -9 70.5 -19.5t59 -30t45.5 -52t15 -77.5q0 -99 -75.5 -155t-205.5 -56q-127 0 -190.5 56t-45.5 147zM234 768l157 164h62l99 -164h-65l-72 121l-113 -121h-68z" />
    <glyph glyph-name="scircumflex" unicode="&#x15d;" horiz-adv-x="481" 
d="M19 138h65q-8 -50 26 -73t96 -23q69 0 105 24t36 69q0 21 -9.5 36.5t-30.5 25t-37.5 14t-47.5 10.5l-21 4q-62 12 -97.5 39t-35.5 87q0 69 54 108.5t141 39.5q91 0 140 -36t36 -108h-64q7 45 -24 68t-91 23q-57 0 -92 -23.5t-35 -65.5q0 -25 17 -42t38 -24t57 -14l20 -4
q33 -6 55 -13.5t46.5 -21.5t36.5 -38.5t12 -58.5q0 -74 -56 -113t-156 -39q-93 0 -144.5 38.5t-39.5 110.5zM116 568l157 164h62l99 -164h-65l-72 121l-113 -121h-68z" />
    <glyph glyph-name="Scedilla" unicode="&#x15e;" horiz-adv-x="638" 
d="M234 -78l37 67q-122 3 -181.5 58.5t-41.5 144.5h67q-12 -68 34 -106t140 -38q93 0 147.5 37.5t54.5 105.5q0 25 -9.5 44.5t-22.5 32t-36.5 22.5t-43 15.5t-50.5 12.5l-35 8q-39 9 -66.5 19.5t-55 29.5t-42 50.5t-14.5 74.5q0 90 73 144.5t197 54.5q113 0 173.5 -50.5
t45.5 -139.5h-67q10 62 -34 96.5t-126 34.5q-85 0 -137.5 -35t-52.5 -96q0 -29 11.5 -50.5t35.5 -35t46.5 -21t58.5 -15.5l35 -8q42 -9 70.5 -19.5t59 -30t45.5 -52t15 -77.5q0 -96 -71.5 -151.5t-194.5 -59.5l-10 -29q38 -2 58.5 -21t20.5 -49q0 -48 -34 -77t-93 -29h-53
l9 44h47q32 0 50.5 15t18.5 41q0 38 -54 38h-25z" />
    <glyph glyph-name="scedilla" unicode="&#x15f;" horiz-adv-x="481" 
d="M150 -78l37 68q-86 3 -133 41t-35 107h65q-8 -50 26 -73t96 -23q69 0 105 24t36 69q0 21 -9.5 36.5t-30.5 25t-37.5 14t-47.5 10.5l-21 4q-62 12 -97.5 39t-35.5 87q0 69 54 108.5t141 39.5q91 0 140 -36t36 -108h-64q7 45 -24 68t-91 23q-57 0 -92 -23.5t-35 -65.5
q0 -25 17 -42t38 -24t57 -14l20 -4q33 -6 55 -13.5t46.5 -21.5t36.5 -38.5t12 -58.5q0 -72 -52.5 -111t-147.5 -41l-10 -29q38 -2 58.5 -21t20.5 -49q0 -48 -34 -77t-93 -29h-53l9 44h47q32 0 50.5 15t18.5 41q0 38 -54 38h-25z" />
    <glyph glyph-name="Scaron" unicode="&#x160;" horiz-adv-x="638" 
d="M48 192h67q-12 -68 34 -106t140 -38q93 0 147.5 37.5t54.5 105.5q0 25 -9.5 44.5t-22.5 32t-36.5 22.5t-43 15.5t-50.5 12.5l-35 8q-39 9 -66.5 19.5t-55 29.5t-42 50.5t-14.5 74.5q0 90 73 144.5t197 54.5q113 0 173.5 -50.5t45.5 -139.5h-67q10 62 -34 96.5t-126 34.5
q-85 0 -137.5 -35t-52.5 -96q0 -29 11.5 -50.5t35.5 -35t46.5 -21t58.5 -15.5l35 -8q42 -9 70.5 -19.5t59 -30t45.5 -52t15 -77.5q0 -99 -75.5 -155t-205.5 -56q-127 0 -190.5 56t-45.5 147zM364 768l-101 164h65l72 -121l113 121h68l-157 -164h-60z" />
    <glyph glyph-name="scaron" unicode="&#x161;" horiz-adv-x="481" 
d="M19 138h65q-8 -50 26 -73t96 -23q69 0 105 24t36 69q0 21 -9.5 36.5t-30.5 25t-37.5 14t-47.5 10.5l-21 4q-62 12 -97.5 39t-35.5 87q0 69 54 108.5t141 39.5q91 0 140 -36t36 -108h-64q7 45 -24 68t-91 23q-57 0 -92 -23.5t-35 -65.5q0 -25 17 -42t38 -24t57 -14l20 -4
q33 -6 55 -13.5t46.5 -21.5t36.5 -38.5t12 -58.5q0 -74 -56 -113t-156 -39q-93 0 -144.5 38.5t-39.5 110.5zM246 568l-101 164h65l72 -121l113 121h68l-157 -164h-60z" />
    <glyph glyph-name="Tcommaaccent" unicode="&#x162;" horiz-adv-x="579" 
d="M191 -78l43 78h-24l106 628h-248l12 60h563l-12 -60h-244l-106 -628h-21l-14 -40q38 -2 58.5 -21t20.5 -49q0 -48 -34 -77t-93 -29h-53l9 44h47q32 0 50.5 15t18.5 41q0 38 -54 38h-25z" />
    <glyph glyph-name="tcommaaccent" unicode="&#x163;" horiz-adv-x="315" 
d="M97 -78l42 83q-87 20 -67 135l49 293h-95l9 55h96l25 148h68l-25 -148h132l-9 -55h-132l-49 -290q-7 -44 6 -64t53 -20h61l-9 -59h-66q-15 0 -22 1l-12 -41q39 -2 59.5 -21t20.5 -49q0 -48 -34 -77t-94 -29h-53l9 44h48q31 0 49.5 15t18.5 41q0 38 -54 38h-25z" />
    <glyph glyph-name="Tcaron" unicode="&#x164;" horiz-adv-x="579" 
d="M68 628l12 60h563l-12 -60h-244l-106 -628h-71l106 628h-248zM343 768l-101 164h65l72 -121l113 121h68l-157 -164h-60z" />
    <glyph glyph-name="tcaron" unicode="&#x165;" horiz-adv-x="315" 
d="M26 433l9 55h96l25 148h68l-25 -148h132l-9 -55h-132l-49 -289q-8 -45 5.5 -65t53.5 -20h62l-9 -59h-67q-137 0 -114 140l49 293h-95zM287 549l48 115h-30l14 89h74l-15 -83l-57 -121h-34z" />
    <glyph glyph-name="Tbar" unicode="&#x166;" horiz-adv-x="579" 
d="M68 628l12 60h563l-12 -60h-244l-46 -272h186l-9 -57h-187l-50 -299h-71l50 299h-182l9 57h183l46 272h-248z" />
    <glyph glyph-name="tbar" unicode="&#x167;" horiz-adv-x="315" 
d="M26 433l9 55h96l25 148h68l-25 -148h132l-9 -55h-132l-26 -154h129l-9 -47h-128l-15 -88q-7 -45 6 -65t53 -20h62l-9 -59h-67q-137 0 -114 140l15 92h-98l9 47h97l26 154h-95z" />
    <glyph glyph-name="Utilde" unicode="&#x168;" horiz-adv-x="690" 
d="M77 271l72 417h71l-72 -417q-37 -217 158 -217q96 0 157 56t79 161l72 417h71l-72 -417q-25 -144 -107 -213t-206 -69q-125 0 -186 70t-37 212zM278 768q10 44 36.5 71.5t65.5 27.5q30 0 70.5 -25.5t56.5 -25.5q38 0 55 52h40q-10 -43 -36 -71t-66 -28q-30 0 -70 25.5
t-56 25.5q-38 0 -55 -52h-41z" />
    <glyph glyph-name="utilde" unicode="&#x169;" horiz-adv-x="553" 
d="M211 -11q-81 0 -124.5 50.5t-26.5 151.5l51 297h68l-49 -290q-25 -150 99 -150q60 0 107 47t62 131l47 262h68l-84 -488h-65l15 83h-3q-55 -94 -165 -94zM177 600q11 44 36.5 71.5t65.5 27.5q30 0 70 -25.5t56 -25.5q40 0 55 52h41q-10 -43 -36 -71t-66 -28
q-30 0 -70 25.5t-56 25.5q-38 0 -55 -52h-41z" />
    <glyph glyph-name="Umacron" unicode="&#x16a;" horiz-adv-x="690" 
d="M77 271l72 417h71l-72 -417q-37 -217 158 -217q96 0 157 56t79 161l72 417h71l-72 -417q-25 -144 -107 -213t-206 -69q-125 0 -186 70t-37 212zM293 776l9 53h276l-9 -53h-276z" />
    <glyph glyph-name="umacron" unicode="&#x16b;" horiz-adv-x="553" 
d="M211 -11q-81 0 -124.5 50.5t-26.5 151.5l51 297h68l-49 -290q-25 -150 99 -150q60 0 107 47t62 131l47 262h68l-84 -488h-65l15 83h-3q-55 -94 -165 -94zM194 623l10 53h276l-10 -53h-276z" />
    <glyph glyph-name="Ubreve" unicode="&#x16c;" horiz-adv-x="690" 
d="M77 271l72 417h71l-72 -417q-37 -217 158 -217q96 0 157 56t79 161l72 417h71l-72 -417q-25 -144 -107 -213t-206 -69q-125 0 -186 70t-37 212zM433 768q-54 0 -87.5 32t-28.5 102h44q-2 -90 76 -90q77 0 111 90h44q-39 -134 -159 -134z" />
    <glyph glyph-name="ubreve" unicode="&#x16d;" horiz-adv-x="553" 
d="M211 -11q-81 0 -124.5 50.5t-26.5 151.5l51 297h68l-49 -290q-25 -150 99 -150q60 0 107 47t62 131l47 262h68l-84 -488h-65l15 83h-3q-55 -94 -165 -94zM328 584q-54 0 -87 32t-29 102h44q-2 -90 75 -90q78 0 112 90h44q-39 -134 -159 -134z" />
    <glyph glyph-name="Uring" unicode="&#x16e;" horiz-adv-x="690" 
d="M77 271l72 417h71l-72 -417q-37 -217 158 -217q96 0 157 56t79 161l72 417h71l-72 -417q-25 -144 -107 -213t-206 -69q-125 0 -186 70t-37 212zM432 765q-37 0 -61 21.5t-24 56.5q0 48 32.5 78t76.5 30q37 0 61 -21.5t24 -56.5q0 -48 -32.5 -78t-76.5 -30zM434 800
q28 0 47.5 20t19.5 51q0 21 -13 33t-34 12q-29 0 -48.5 -20t-19.5 -51q0 -20 13 -32.5t35 -12.5z" />
    <glyph glyph-name="uring" unicode="&#x16f;" horiz-adv-x="553" 
d="M211 -11q-81 0 -124.5 50.5t-26.5 151.5l51 297h68l-49 -290q-25 -150 99 -150q60 0 107 47t62 131l47 262h68l-84 -488h-65l15 83h-3q-55 -94 -165 -94zM327 565q-37 0 -61 21.5t-24 56.5q0 48 32.5 78t76.5 30q37 0 61 -21.5t24 -56.5q0 -48 -32.5 -78t-76.5 -30z
M329 600q28 0 47.5 20t19.5 51q0 21 -13 33t-34 12q-29 0 -48.5 -20t-19.5 -51q0 -20 13 -32.5t35 -12.5z" />
    <glyph glyph-name="Uhungarumlaut" unicode="&#x170;" horiz-adv-x="690" 
d="M77 271l72 417h71l-72 -417q-37 -217 158 -217q96 0 157 56t79 161l72 417h71l-72 -417q-25 -144 -107 -213t-206 -69q-125 0 -186 70t-37 212zM491 768l134 164h80l-164 -164h-50zM314 768l134 164h80l-164 -164h-50z" />
    <glyph glyph-name="uhungarumlaut" unicode="&#x171;" horiz-adv-x="553" 
d="M211 -11q-81 0 -124.5 50.5t-26.5 151.5l51 297h68l-49 -290q-25 -150 99 -150q60 0 107 47t62 131l47 262h68l-84 -488h-65l15 83h-3q-55 -94 -165 -94zM386 568l134 164h80l-164 -164h-50zM209 568l134 164h80l-164 -164h-50z" />
    <glyph glyph-name="Uogonek" unicode="&#x172;" horiz-adv-x="688" 
d="M77 271l72 417h71l-72 -417q-37 -217 158 -217q96 0 157 56t79 161l72 417h71l-72 -417q-31 -177 -155 -246q-151 -84 -151 -152q0 -42 55 -42h30l-8 -47h-40q-93 0 -93 73t105 136q-36 -4 -56 -4q-125 0 -186 70t-37 212z" />
    <glyph glyph-name="uogonek" unicode="&#x173;" horiz-adv-x="553" 
d="M291 -144q0 40 26.5 73.5t72.5 70.5h-26l15 83h-3q-55 -94 -165 -94q-81 0 -124.5 50.5t-26.5 151.5l51 297h68l-49 -290q-25 -150 99 -150q60 0 107 47t62 131l47 262h68l-84 -488q-82 -74 -82 -130q0 -39 52 -39h31l-10 -47h-39q-44 0 -67 19.5t-23 52.5z" />
    <glyph glyph-name="Wcircumflex" unicode="&#x174;" horiz-adv-x="918" 
d="M152 0l-64 688h68l54 -614h3l275 614h88l68 -614h3l262 614h68l-296 -688h-94l-68 607h-3l-271 -607h-93zM381 768l157 164h62l99 -164h-65l-72 121l-113 -121h-68z" />
    <glyph glyph-name="wcircumflex" unicode="&#x175;" horiz-adv-x="711" 
d="M103 0l-55 488h67l46 -417h3l187 417h84l48 -417h3l189 417h67l-226 -488h-87l-48 411h-3l-184 -411h-91zM241 568l157 164h62l99 -164h-65l-72 121l-113 -121h-68z" />
    <glyph glyph-name="Ycircumflex" unicode="&#x176;" horiz-adv-x="594" 
d="M213 0l51 286l-173 402h74l145 -341h3l265 341h75l-319 -407l-50 -281h-71zM225 768l157 164h62l99 -164h-65l-72 121l-113 -121h-68z" />
    <glyph glyph-name="ycircumflex" unicode="&#x177;" horiz-adv-x="463" 
d="M-36 -167h27q82 0 136 104l27 53l-106 498h70l84 -414h3l218 414h69l-308 -571q-36 -68 -81 -105.5t-112 -37.5h-39zM124 568l157 164h62l99 -164h-65l-72 121l-113 -121h-68z" />
    <glyph glyph-name="Ydieresis" unicode="&#x178;" horiz-adv-x="594" 
d="M213 0l51 286l-173 402h74l145 -341h3l265 341h75l-319 -407l-50 -281h-71zM450 768l16 90h68l-16 -90h-68zM253 768l16 90h68l-16 -90h-68z" />
    <glyph glyph-name="Zacute" unicode="&#x179;" horiz-adv-x="575" 
d="M117 628l12 60h478l-6 -46l-509 -582h407l-12 -60h-494l6 46l509 582h-391zM355 768l134 164h81l-165 -164h-50z" />
    <glyph glyph-name="zacute" unicode="&#x17a;" horiz-adv-x="433" 
d="M63 433l9 55h367l-9 -46l-340 -387h279l-9 -55h-367l6 40l344 393h-280zM243 568l134 164h81l-165 -164h-50z" />
    <glyph glyph-name="Zdotaccent" unicode="&#x17b;" horiz-adv-x="575" 
d="M117 628l12 60h478l-6 -46l-509 -582h407l-12 -60h-494l6 46l509 582h-391zM346 768l16 90h68l-16 -90h-68z" />
    <glyph glyph-name="zdotaccent" unicode="&#x17c;" horiz-adv-x="433" 
d="M63 433l9 55h367l-9 -46l-340 -387h279l-9 -55h-367l6 40l344 393h-280zM241 605l15 90h68l-15 -90h-68z" />
    <glyph glyph-name="Zcaron" unicode="&#x17d;" horiz-adv-x="575" 
d="M117 628l12 60h478l-6 -46l-509 -582h407l-12 -60h-494l6 46l509 582h-391zM350 768l-101 164h65l72 -121l113 121h68l-157 -164h-60z" />
    <glyph glyph-name="zcaron" unicode="&#x17e;" horiz-adv-x="433" 
d="M63 433l9 55h367l-9 -46l-340 -387h279l-9 -55h-367l6 40l344 393h-280zM238 568l-101 164h65l72 -121l113 121h68l-157 -164h-60z" />
    <glyph glyph-name="longs" unicode="&#x17f;" horiz-adv-x="288" 
d="M31 433l9 55h98l15 86q27 158 182 158h53l-12 -59h-44q-48 0 -75 -24t-36 -78l-97 -571h-68l73 433h-98z" />
    <glyph glyph-name="florin" unicode="&#x192;" horiz-adv-x="568" 
d="M108 305l6 50h127l32 181q15 82 58 122.5t107 40.5q140 0 114 -166l-4 -25h-62l4 25q18 110 -58 110q-73 0 -91 -107l-32 -181h156l-6 -50h-159l-59 -334q-29 -163 -165 -163q-140 0 -114 166l4 25h62l-4 -25q-17 -110 58 -110q73 0 91 107l59 334h-124z" />
    <glyph glyph-name="AEacute" unicode="&#x1fc;" horiz-adv-x="1048" 
d="M-33 0l617 688h480l-9 -62h-387l-41 -245h308l-9 -61h-309l-44 -258h392l-9 -62h-464l27 163h-323l-146 -163h-83zM592 606l-341 -381h279l64 381h-2zM634 768l134 164h81l-165 -164h-50z" />
    <glyph glyph-name="aeacute" unicode="&#x1fd;" horiz-adv-x="845" 
d="M81 336q16 76 70.5 119.5t140.5 43.5q121 0 154 -85q71 85 182 85q104 0 153 -73.5t23 -186.5h-362q-2 -13 -2 -40q0 -70 35 -110.5t97 -40.5q49 0 86.5 26.5t58.5 73.5h68q-28 -75 -85 -117t-140 -42q-133 0 -172 121q-66 -121 -212 -121q-69 0 -108 35t-39 93
q0 133 172 154l107 13q40 6 59 15t21 28q7 54 -18.5 85t-82.5 31q-115 0 -141 -107h-65zM187 45q69 0 117.5 40.5t62.5 121.5l10 57q-13 -19 -60 -26l-107 -14q-113 -14 -113 -101q0 -35 24 -56.5t66 -21.5zM622 440q-59 0 -105 -40.5t-65 -109.5h288q1 9 1 27
q-1 61 -32.5 92t-86.5 31zM442 568l134 164h81l-165 -164h-50z" />
    <glyph glyph-name="Oslashacute" unicode="&#x1fe;" horiz-adv-x="754" 
d="M56 277q0 179 113 300.5t276 121.5q116 0 194 -72l72 73h60l-103 -105q58 -77 58 -184q0 -179 -113.5 -300.5t-276.5 -121.5q-117 0 -194 72l-71 -73h-60l103 105q-58 77 -58 184zM654 408q0 79 -37 136l-426 -434q58 -58 154 -58q128 0 218.5 104t90.5 252zM128 280
q0 -80 36 -136l426 433q-59 59 -154 59q-128 0 -218 -104t-90 -252zM430 768l134 164h81l-165 -164h-50z" />
    <glyph glyph-name="oslashacute" unicode="&#x1ff;" horiz-adv-x="550" 
d="M35 193q0 28 5 61q18 110 92.5 177.5t176.5 67.5q84 0 138 -49l49 50h51l-76 -78q36 -53 36 -127q0 -28 -5 -61q-18 -110 -92.5 -177.5t-176.5 -67.5q-85 0 -138 48l-48 -49h-51l75 77q-36 53 -36 128zM106 199q0 -49 16 -82l277 283q-35 40 -97 40q-68 0 -122 -52
t-69 -134q-5 -21 -5 -55zM436 289q0 46 -17 80l-276 -283q35 -38 97 -38q68 0 122 52t69 134q5 21 5 55zM299 568l134 164h81l-165 -164h-50z" />
    <glyph glyph-name="Scommaaccent" unicode="&#x218;" horiz-adv-x="638" 
d="M48 192h67q-12 -68 34 -106t140 -38q93 0 147.5 37.5t54.5 105.5q0 25 -9.5 44.5t-22.5 32t-36.5 22.5t-43 15.5t-50.5 12.5l-35 8q-39 9 -66.5 19.5t-55 29.5t-42 50.5t-14.5 74.5q0 90 73 144.5t197 54.5q113 0 173.5 -50.5t45.5 -139.5h-67q10 62 -34 96.5t-126 34.5
q-85 0 -137.5 -35t-52.5 -96q0 -29 11.5 -50.5t35.5 -35t46.5 -21t58.5 -15.5l35 -8q42 -9 70.5 -19.5t59 -30t45.5 -52t15 -77.5q0 -99 -75.5 -155t-205.5 -56q-127 0 -190.5 56t-45.5 147zM244 -66h68l-13 -74l-53 -103h-31l42 97h-27z" />
    <glyph glyph-name="scommaaccent" unicode="&#x219;" horiz-adv-x="481" 
d="M19 138h65q-8 -50 26 -73t96 -23q69 0 105 24t36 69q0 21 -9.5 36.5t-30.5 25t-37.5 14t-47.5 10.5l-21 4q-62 12 -97.5 39t-35.5 87q0 69 54 108.5t141 39.5q91 0 140 -36t36 -108h-64q7 45 -24 68t-91 23q-57 0 -92 -23.5t-35 -65.5q0 -25 17 -42t38 -24t57 -14l20 -4
q33 -6 55 -13.5t46.5 -21.5t36.5 -38.5t12 -58.5q0 -74 -56 -113t-156 -39q-93 0 -144.5 38.5t-39.5 110.5zM160 -66h68l-13 -74l-53 -103h-31l42 97h-27z" />
    <glyph glyph-name="uni021A" unicode="&#x21a;" horiz-adv-x="579" 
d="M68 628l12 60h563l-12 -60h-244l-106 -628h-71l106 628h-248zM201 -66h68l-13 -74l-53 -103h-31l42 97h-27z" />
    <glyph glyph-name="uni021B" unicode="&#x21b;" horiz-adv-x="315" 
d="M26 433l9 55h96l25 148h68l-25 -148h132l-9 -55h-132l-49 -290q-7 -44 6 -64t53 -20h61l-9 -59h-66q-139 0 -114 140l49 293h-95zM112 -66h68l-13 -74l-53 -103h-31l42 97h-27z" />
    <glyph glyph-name="circumflex" unicode="&#x2c6;" horiz-adv-x="550" 
d="M168 568l157 164h62l99 -164h-65l-72 121l-113 -121h-68z" />
    <glyph glyph-name="caron" unicode="&#x2c7;" horiz-adv-x="550" 
d="M298 568l-101 164h65l72 -121l113 121h68l-157 -164h-60z" />
    <glyph glyph-name="uni02C9" unicode="&#x2c9;" horiz-adv-x="550" 
d="M197 623l10 53h276l-10 -53h-276z" />
    <glyph glyph-name="breve" unicode="&#x2d8;" horiz-adv-x="550" 
d="M331 584q-54 0 -87 32t-29 102h44q-2 -90 75 -90q78 0 112 90h44q-39 -134 -159 -134z" />
    <glyph glyph-name="dotaccent" unicode="&#x2d9;" horiz-adv-x="550" 
d="M301 605l15 90h68l-15 -90h-68z" />
    <glyph glyph-name="ring" unicode="&#x2da;" horiz-adv-x="550" 
d="M330 565q-37 0 -61 21.5t-24 56.5q0 48 32.5 78t76.5 30q37 0 61 -21.5t24 -56.5q0 -48 -32.5 -78t-76.5 -30zM332 600q28 0 47.5 20t19.5 51q0 21 -13 33t-34 12q-29 0 -48.5 -20t-19.5 -51q0 -20 13 -32.5t35 -12.5z" />
    <glyph glyph-name="ogonek" unicode="&#x2db;" horiz-adv-x="550" 
d="M127 -144q0 40 26.5 73.5t72.5 70.5h39q-82 -74 -82 -130q0 -39 52 -39h31l-10 -47h-39q-44 0 -67 19.5t-23 52.5z" />
    <glyph glyph-name="tilde" unicode="&#x2dc;" horiz-adv-x="550" 
d="M180 600q11 44 36.5 71.5t65.5 27.5q30 0 70 -25.5t56 -25.5q40 0 55 52h41q-10 -43 -36 -71t-66 -28q-30 0 -70 25.5t-56 25.5q-38 0 -55 -52h-41z" />
    <glyph glyph-name="hungarumlaut" unicode="&#x2dd;" horiz-adv-x="550" 
d="M389 568l134 164h80l-164 -164h-50zM212 568l134 164h80l-164 -164h-50z" />
    <glyph glyph-name="uni0394" unicode="&#x394;" horiz-adv-x="629" 
d="M-15 0l360 688h83l128 -688h-571zM373 612l-287 -553h388z" />
    <glyph glyph-name="uni03A9" unicode="&#x3a9;" horiz-adv-x="696" 
d="M369 0l34 200q71 19 133.5 89t62.5 173q0 80 -53 129t-138 49q-108 0 -183 -75.5t-75 -189.5q0 -69 37 -115t86 -60l-34 -200h-216l9 59h151l17 106q-55 28 -89.5 81.5t-34.5 125.5q0 137 99.5 232t241.5 95q114 0 185 -66t71 -168q0 -108 -62.5 -187t-151.5 -116
l-16 -103h151l-9 -59h-216z" />
    <glyph glyph-name="uni03BC" unicode="&#x3bc;" horiz-adv-x="561" 
d="M372 0l15 81h-5q-55 -92 -164 -92q-83 0 -115 50q-5 -79 -23 -177l-14 -82h-68l121 708h68l-49 -290q-25 -150 99 -150q61 0 108 48t63 137l45 255h68l-84 -488h-65z" />
    <glyph glyph-name="pi" unicode="&#x3c0;" horiz-adv-x="579" 
d="M42 0l84 488h407l-84 -488h-68l74 429h-271l-74 -429h-68z" />
    <glyph glyph-name="Wgrave" unicode="&#x1e80;" horiz-adv-x="918" 
d="M152 0l-64 688h68l54 -614h3l275 614h88l68 -614h3l262 614h68l-296 -688h-94l-68 607h-3l-271 -607h-93zM520 768l-108 164h74l78 -164h-44z" />
    <glyph glyph-name="wgrave" unicode="&#x1e81;" horiz-adv-x="711" 
d="M103 0l-55 488h67l46 -417h3l187 417h84l48 -417h3l189 417h67l-226 -488h-87l-48 411h-3l-184 -411h-91zM380 568l-108 164h74l78 -164h-44z" />
    <glyph glyph-name="Wacute" unicode="&#x1e82;" horiz-adv-x="918" 
d="M152 0l-64 688h68l54 -614h3l275 614h88l68 -614h3l262 614h68l-296 -688h-94l-68 607h-3l-271 -607h-93zM516 768l134 164h81l-165 -164h-50z" />
    <glyph glyph-name="wacute" unicode="&#x1e83;" horiz-adv-x="711" 
d="M103 0l-55 488h67l46 -417h3l187 417h84l48 -417h3l189 417h67l-226 -488h-87l-48 411h-3l-184 -411h-91zM376 568l134 164h81l-165 -164h-50z" />
    <glyph glyph-name="Wdieresis" unicode="&#x1e84;" horiz-adv-x="918" 
d="M152 0l-64 688h68l54 -614h3l275 614h88l68 -614h3l262 614h68l-296 -688h-94l-68 607h-3l-271 -607h-93zM606 768l16 90h68l-16 -90h-68zM409 768l16 90h68l-16 -90h-68z" />
    <glyph glyph-name="wdieresis" unicode="&#x1e85;" horiz-adv-x="711" 
d="M103 0l-55 488h67l46 -417h3l187 417h84l48 -417h3l189 417h67l-226 -488h-87l-48 411h-3l-184 -411h-91zM473 605l16 90h67l-15 -90h-68zM276 605l15 90h68l-15 -90h-68z" />
    <glyph glyph-name="Ygrave" unicode="&#x1ef2;" horiz-adv-x="594" 
d="M213 0l51 286l-173 402h74l145 -341h3l265 341h75l-319 -407l-50 -281h-71zM364 768l-108 164h74l78 -164h-44z" />
    <glyph glyph-name="ygrave" unicode="&#x1ef3;" horiz-adv-x="463" 
d="M-36 -167h27q82 0 136 104l27 53l-106 498h70l84 -414h3l218 414h69l-308 -571q-36 -68 -81 -105.5t-112 -37.5h-39zM263 568l-108 164h74l78 -164h-44z" />
    <glyph glyph-name="endash" unicode="&#x2013;" horiz-adv-x="556" 
d="M54 222l9 61h436l-9 -61h-436z" />
    <glyph glyph-name="emdash" unicode="&#x2014;" horiz-adv-x="840" 
d="M54 222l9 61h719l-9 -61h-719z" />
    <glyph glyph-name="quoteleft" unicode="&#x2018;" horiz-adv-x="231" 
d="M108 436l16 100l66 152h37l-56 -146h33l-17 -106h-79z" />
    <glyph glyph-name="quoteright" unicode="&#x2019;" horiz-adv-x="231" 
d="M107 436l56 146h-32l16 106h80l-16 -100l-66 -152h-38z" />
    <glyph glyph-name="quotesinglbase" unicode="&#x201a;" horiz-adv-x="231" 
d="M31 0l16 106h80l-16 -100l-66 -152h-38l56 146h-32z" />
    <glyph glyph-name="quotedblleft" unicode="&#x201c;" horiz-adv-x="403" 
d="M280 436l16 100l66 152h37l-56 -146h32l-16 -106h-79zM108 436l16 100l66 152h37l-56 -146h33l-17 -106h-79z" />
    <glyph glyph-name="quotedblright" unicode="&#x201d;" horiz-adv-x="403" 
d="M279 436l56 146h-32l16 106h80l-16 -100l-66 -152h-38zM107 436l56 146h-32l16 106h80l-16 -100l-66 -152h-38z" />
    <glyph glyph-name="quotedblbase" unicode="&#x201e;" horiz-adv-x="403" 
d="M203 0l16 106h80l-16 -100l-66 -152h-38l56 146h-32zM31 0l16 106h80l-16 -100l-66 -152h-38l56 146h-32z" />
    <glyph glyph-name="dagger" unicode="&#x2020;" horiz-adv-x="430" 
d="M78 457l9 56h139l30 175h62l-30 -175h141l-9 -56h-141l-77 -457h-62l77 457h-139z" />
    <glyph glyph-name="daggerdbl" unicode="&#x2021;" horiz-adv-x="430" 
d="M78 457l9 56h139l30 175h62l-30 -175h141l-9 -56h-141l-39 -229h141l-9 -56h-141l-29 -172h-62l29 172h-139l9 56h139l39 229h-139z" />
    <glyph glyph-name="bullet" unicode="&#x2022;" horiz-adv-x="488" 
d="M240 80q-73 0 -122.5 49.5t-49.5 122.5t49.5 122.5t122.5 49.5t122.5 -49.5t49.5 -122.5t-49.5 -122.5t-122.5 -49.5z" />
    <glyph glyph-name="ellipsis" unicode="&#x2026;" horiz-adv-x="719" 
d="M511 0l19 112h86l-20 -112h-85zM273 0l19 112h86l-19 -112h-86zM35 0l19 112h86l-20 -112h-85z" />
    <glyph glyph-name="perthousand" unicode="&#x2030;" horiz-adv-x="1116" 
d="M187 336q-59 0 -89.5 35.5t-30.5 95.5q0 23 5 51q14 79 58.5 128.5t114.5 49.5q59 0 89 -35.5t30 -95.5q0 -28 -4 -51q-14 -79 -58.5 -128.5t-114.5 -49.5zM543 -8q-59 0 -89.5 35.5t-30.5 95.5q0 23 5 51q14 79 58.5 128.5t114.5 49.5q59 0 89 -35.5t30 -95.5
q0 -28 -4 -51q-14 -79 -58.5 -128.5t-114.5 -49.5zM895 -8q-59 0 -89.5 35.5t-30.5 95.5q0 23 5 51q14 79 58.5 128.5t114.5 49.5q59 0 89 -35.5t30 -95.5q0 -28 -4 -51q-14 -79 -58.5 -128.5t-114.5 -49.5zM135 -12l470 712h53l-470 -712h-53zM901 39q41 0 69 34.5t39 96.5
q4 23 4 48q0 87 -67 87q-41 0 -68.5 -34.5t-38.5 -96.5q-5 -28 -5 -49q0 -86 67 -86zM549 39q41 0 69 34.5t39 96.5q4 23 4 48q0 87 -67 87q-41 0 -68.5 -34.5t-38.5 -96.5q-5 -28 -5 -49q0 -86 67 -86zM193 383q41 0 69 34.5t39 96.5q4 23 4 48q0 87 -66 87
q-42 0 -69.5 -34.5t-38.5 -96.5q-5 -28 -5 -49q0 -86 67 -86z" />
    <glyph glyph-name="guilsinglleft" unicode="&#x2039;" horiz-adv-x="311" 
d="M164 48l-113 204l181 204h57l-164 -210l95 -198h-56z" />
    <glyph glyph-name="guilsinglright" unicode="&#x203a;" horiz-adv-x="311" 
d="M18 48l164 210l-95 198h56l112 -204l-180 -204h-57z" />
    <glyph glyph-name="fraction" unicode="&#x2044;" horiz-adv-x="60" 
d="M-217 -12l470 712h53l-470 -712h-53z" />
    <glyph glyph-name="uni2070" unicode="&#x2070;" 
d="M215 488q-59 0 -89.5 35.5t-30.5 95.5q0 23 5 51q14 79 58.5 128.5t114.5 49.5q59 0 89 -35.5t30 -95.5q0 -28 -4 -51q-14 -79 -58.5 -128.5t-114.5 -49.5zM221 535q41 0 69 34.5t39 96.5q4 23 4 48q0 87 -66 87q-42 0 -69.5 -34.5t-38.5 -96.5q-5 -28 -5 -49
q0 -86 67 -86z" />
    <glyph glyph-name="uni2074" unicode="&#x2074;" 
d="M80 569l6 38l230 234h50l-37 -225h52l-8 -47h-52l-12 -73h-59l12 73h-182zM151 616h119l25 147z" />
    <glyph glyph-name="uni2075" unicode="&#x2075;" 
d="M109 587h55q2 -54 67 -54q27 0 49 14t31 39q6 14 6 31q0 29 -18.5 44t-47.5 15q-43 0 -72 -38l-59 3l44 199h228l-6 -50h-177l-25 -100h2q28 30 82 30q48 0 78 -25.5t30 -71.5q0 -62 -43.5 -98.5t-105.5 -36.5q-52 0 -85 26t-33 73z" />
    <glyph glyph-name="uni2076" unicode="&#x2076;" 
d="M101 608q0 25 6 61q30 179 174 179q47 0 76 -24.5t29 -73.5h-56q0 53 -55 53q-82 0 -107 -127q32 44 97 44q48 0 78 -25.5t30 -71.5q0 -63 -43.5 -99t-106.5 -36q-58 0 -90 31.5t-32 88.5zM162 591q0 -29 18 -43.5t48 -14.5q27 0 49.5 14.5t31.5 39.5q5 15 5 30
q0 29 -18.5 44t-46.5 15q-35 0 -61 -24t-26 -61z" />
    <glyph glyph-name="uni2077" unicode="&#x2077;" 
d="M128 496l204 291h-208l9 53h280l-6 -37l-213 -307h-66z" />
    <glyph glyph-name="uni2078" unicode="&#x2078;" 
d="M88 574q0 40 24 66t62 33v3q-48 12 -48 65q0 48 40.5 77.5t102.5 29.5q55 0 88.5 -24t33.5 -61q0 -32 -21 -55.5t-54 -31.5v-3q27 -5 43 -24t16 -46q0 -54 -44.5 -84.5t-115.5 -30.5q-59 0 -93 23.5t-34 62.5zM147 583q0 -50 74 -50q41 0 68 18t27 52q0 25 -20.5 38
t-54.5 13q-38 0 -66 -18t-28 -53zM247 695q37 0 61 16t24 46q0 22 -18 34t-47 12q-37 0 -61 -16t-24 -46q0 -21 17.5 -33.5t47.5 -12.5z" />
    <glyph glyph-name="uni2079" unicode="&#x2079;" 
d="M102 586h56q0 -53 55 -53q82 0 107 126q-31 -43 -97 -43q-48 0 -78 25.5t-30 71.5q0 63 43.5 99t106.5 36q58 0 90 -31.5t32 -88.5q0 -25 -6 -61q-30 -179 -174 -179q-47 0 -76 24.5t-29 73.5zM326 745q0 27 -17.5 42.5t-48.5 15.5q-27 0 -49.5 -14.5t-31.5 -39.5
q-5 -15 -5 -30q0 -29 18.5 -44t46.5 -15q35 0 61 24t26 61z" />
    <glyph glyph-name="uni2080" unicode="&#x2080;" 
d="M115 -160q-59 0 -89.5 35.5t-30.5 95.5q0 23 5 51q14 79 58.5 128.5t114.5 49.5q59 0 89 -35.5t30 -95.5q0 -28 -4 -51q-14 -79 -58.5 -128.5t-114.5 -49.5zM121 -113q41 0 69 34.5t39 96.5q4 23 4 48q0 87 -66 87q-42 0 -69.5 -34.5t-38.5 -96.5q-5 -28 -5 -49
q0 -86 67 -86z" />
    <glyph glyph-name="uni2081" unicode="&#x2081;" 
d="M50 68l-19 43l148 81h38l-49 -294h96l-6 -50h-263l6 50h108l37 220z" />
    <glyph glyph-name="uni2082" unicode="&#x2082;" 
d="M-22 -152q11 65 45 99.5t92 62.5l30 14q60 30 74 47q12 14 12 32q0 22 -18 35.5t-49 13.5q-35 0 -59 -19.5t-32 -56.5h-53q12 63 52.5 93t96.5 30q53 0 85.5 -24.5t32.5 -65.5q0 -14 -3.5 -26t-7 -20.5t-13.5 -18.5l-15 -15t-20 -13.5l-19.5 -11t-22.5 -11l-22 -10.5
l-31 -15q-74 -35 -80 -70h204l-6 -50h-273z" />
    <glyph glyph-name="uni2083" unicode="&#x2083;" 
d="M-8 -50h56q-5 -35 16.5 -50t58.5 -15q40 0 66.5 18t26.5 52q0 25 -20.5 38t-54.5 13h-28l6 41h28q37 0 61 16t24 46q0 22 -18.5 34t-49.5 12q-75 0 -82 -62h-53q4 49 42 78t98 29q55 0 88.5 -24t33.5 -61q0 -32 -21 -55.5t-55 -31.5v-3q28 -6 44 -24.5t16 -45.5
q0 -54 -43 -84.5t-115 -30.5q-60 0 -97.5 27t-27.5 83z" />
    <glyph glyph-name="uni2084" unicode="&#x2084;" 
d="M-20 -79l6 38l230 234h50l-37 -225h52l-8 -47h-52l-12 -73h-59l12 73h-182zM51 -32h119l25 147z" />
    <glyph glyph-name="uni2085" unicode="&#x2085;" 
d="M9 -61h55q2 -54 67 -54q27 0 49 14t31 39q6 13 6 31q0 29 -18.5 44t-47.5 15q-43 0 -72 -38l-59 3l44 199h228l-6 -50h-177l-25 -100h2q28 30 82 30q48 0 78 -25.5t30 -71.5q0 -62 -43.5 -98.5t-105.5 -36.5q-52 0 -85 26t-33 73z" />
    <glyph glyph-name="uni2086" unicode="&#x2086;" 
d="M1 -40q0 25 6 61q30 179 174 179q47 0 76 -24.5t29 -73.5h-56q0 53 -55 53q-82 0 -107 -127q32 44 97 44q48 0 78 -25.5t30 -71.5q0 -63 -43.5 -99t-106.5 -36q-58 0 -90 31.5t-32 88.5zM62 -57q0 -29 18 -43.5t48 -14.5q27 0 49.5 14.5t31.5 39.5q5 15 5 30
q0 29 -18.5 44t-46.5 15q-35 0 -61 -24t-26 -61z" />
    <glyph glyph-name="uni2087" unicode="&#x2087;" 
d="M28 -152l204 291h-208l9 53h280l-6 -37l-213 -307h-66z" />
    <glyph glyph-name="uni2088" unicode="&#x2088;" 
d="M-12 -74q0 40 24 66t62 33v3q-48 12 -48 65q0 48 40.5 77.5t102.5 29.5q55 0 88.5 -24t33.5 -61q0 -32 -21 -55.5t-54 -31.5v-3q27 -5 43 -24t16 -46q0 -54 -44.5 -84.5t-115.5 -30.5q-59 0 -93 23.5t-34 62.5zM47 -65q0 -50 74 -50q41 0 68 18t27 52q0 25 -20.5 38
t-54.5 13q-38 0 -66 -18t-28 -53zM147 47q37 0 61 16t24 46q0 22 -18 34t-47 12q-37 0 -61 -16t-24 -46q0 -21 17.5 -33.5t47.5 -12.5z" />
    <glyph glyph-name="uni2089" unicode="&#x2089;" 
d="M2 -62h56q0 -53 55 -53q82 0 107 126q-31 -43 -97 -43q-48 0 -78 25.5t-30 71.5q0 63 43.5 99t106.5 36q58 0 90 -31.5t32 -88.5q0 -25 -6 -61q-30 -179 -174 -179q-47 0 -76 24.5t-29 73.5zM226 97q0 27 -17.5 42.5t-48.5 15.5q-27 0 -49.5 -14.5t-31.5 -39.5
q-5 -15 -5 -30q0 -29 18.5 -44t46.5 -15q35 0 61 24t26 61z" />
    <glyph glyph-name="Euro" unicode="&#x20ac;" horiz-adv-x="568" 
d="M34 403l12 44h77q38 116 111.5 184t174.5 68q88 0 132.5 -47.5t49.5 -131.5h-65q-14 120 -123 120q-70 0 -124 -51t-85 -142h196l-12 -44h-197q-12 -52 -18 -107h197l-12 -44h-187v-13q0 -91 35.5 -141t105.5 -50q53 0 89 24.5t63 75.5h65q-66 -159 -229 -159
q-100 0 -150 69t-50 184v10h-86l12 44h76q8 63 18 107h-76z" />
    <glyph glyph-name="afii61289" unicode="&#x2113;" horiz-adv-x="412" 
d="M129 26q-38 41 -38 139v74l-2 1l-59 -41l-12 24l73 61v136q0 102 18 157t55 89q37 33 85 33q47 0 74 -34.5t27 -93.5q0 -46 -17.5 -89.5t-50 -80.5t-55.5 -58.5t-58 -48.5v-109q0 -138 91 -138q63 0 118 80l22 -16q-24 -58 -68 -90.5t-101 -32.5q-66 0 -102 38zM171 342
q121 103 121 230q0 91 -55 91q-68 0 -68 -179v-141z" />
    <glyph glyph-name="afii61352" unicode="&#x2116;" horiz-adv-x="1177" 
d="M47 0l116 688h67l305 -568h3l95 568h71l-116 -688h-68l-305 568h-2l-95 -568h-71zM810 478q0 33 7 60q18 71 72 114t123 43q67 0 106.5 -38t39.5 -103q0 -33 -7 -60q-18 -71 -72 -114t-123 -43q-67 0 -106.5 38t-39.5 103zM875 481q0 -44 22.5 -69t64.5 -25q43 0 76.5 30
t47.5 80q7 30 7 54q0 44 -22.5 69t-64.5 25q-43 0 -76.5 -30t-47.5 -80q-7 -30 -7 -54zM725 0l9 50h342l-8 -50h-343zM756 179l8 50h343l-9 -50h-342z" />
    <glyph glyph-name="trademark" unicode="&#x2122;" horiz-adv-x="784" 
d="M366 344l59 344h78l69 -269h4l162 269h78l-59 -344h-56l49 268h-3l-162 -268h-47l-69 268h-3l-43 -268h-57zM70 641l8 47h299l-8 -47h-120l-51 -297h-56l51 297h-123z" />
    <glyph glyph-name="Omega" unicode="&#x2126;" horiz-adv-x="696" 
d="M369 0l34 200q71 19 133.5 89t62.5 173q0 80 -53 129t-138 49q-108 0 -183 -75.5t-75 -189.5q0 -69 37 -115t86 -60l-34 -200h-216l9 59h151l17 106q-55 28 -89.5 81.5t-34.5 125.5q0 137 99.5 232t241.5 95q114 0 185 -66t71 -168q0 -108 -62.5 -187t-151.5 -116
l-16 -103h151l-9 -59h-216z" />
    <glyph glyph-name="estimated" unicode="&#x212e;" horiz-adv-x="850" 
d="M184 113q98 -103 243 -103q76 0 142 31t113 86h58q-55 -64 -137.5 -101.5t-176.5 -37.5q-165 0 -281 104t-116 252t116.5 252t280.5 104t280 -104t116 -252v-10h-641q-7 0 -7 -4v-194q0 -11 10 -23zM181 355h492q4 0 4 6v193q0 14 -10 24q-98 100 -240 100t-242 -103
q-11 -11 -11 -26v-188q0 -6 7 -6z" />
    <glyph glyph-name="uni2153" unicode="&#x2153;" horiz-adv-x="764" 
d="M420 102h56q-5 -35 16.5 -50t58.5 -15q40 0 66.5 18t26.5 52q0 25 -20.5 38t-54.5 13h-28l6 41h28q37 0 61 16t24 46q0 22 -18.5 34t-49.5 12q-75 0 -82 -62h-53q4 49 42 78t98 29q55 0 88.5 -24t33.5 -61q0 -32 -21 -55.5t-55 -31.5v-3q28 -6 44 -24.5t16 -45.5
q0 -54 -43 -84.5t-115 -30.5q-60 0 -97.5 27t-27.5 83zM147 -12l470 712h53l-470 -712h-53zM122 564l-19 43l148 81h38l-49 -294h96l-6 -50h-263l6 50h108l37 220z" />
    <glyph glyph-name="uni2154" unicode="&#x2154;" horiz-adv-x="764" 
d="M50 344q11 65 45 99.5t92 62.5l30 14q60 30 74 47q12 14 12 32q0 22 -18 35.5t-49 13.5q-35 0 -59 -19.5t-32 -56.5h-53q12 63 52.5 93t96.5 30q53 0 85.5 -24.5t32.5 -65.5q0 -14 -3.5 -26t-7 -20.5t-13.5 -18.5l-15 -15t-20 -13.5l-19.5 -11t-22.5 -11l-22 -10.5
l-31 -15q-74 -35 -80 -70h204l-6 -50h-273zM420 102h56q-5 -35 16.5 -50t58.5 -15q40 0 66.5 18t26.5 52q0 25 -20.5 38t-54.5 13h-28l6 41h28q37 0 61 16t24 46q0 22 -18.5 34t-49.5 12q-75 0 -82 -62h-53q4 49 42 78t98 29q55 0 88.5 -24t33.5 -61q0 -32 -21 -55.5
t-55 -31.5v-3q28 -6 44 -24.5t16 -45.5q0 -54 -43 -84.5t-115 -30.5q-60 0 -97.5 27t-27.5 83zM144 -12l470 712h53l-470 -712h-53z" />
    <glyph glyph-name="uni2155" unicode="&#x2155;" horiz-adv-x="764" 
d="M437 91h55q2 -54 67 -54q27 0 49 14t31 39q6 14 6 31q0 29 -18.5 44t-47.5 15q-43 0 -72 -38l-59 3l44 199h228l-6 -50h-177l-25 -100h2q28 30 82 30q48 0 78 -25.5t30 -71.5q0 -62 -43.5 -98.5t-105.5 -36.5q-52 0 -85 26t-33 73zM144 -12l470 712h53l-470 -712h-53z
M122 564l-19 43l148 81h38l-49 -294h96l-6 -50h-263l6 50h108l37 220z" />
    <glyph glyph-name="uni2156" unicode="&#x2156;" horiz-adv-x="764" 
d="M437 91h55q2 -54 67 -54q27 0 49 14t31 39q6 14 6 31q0 29 -18.5 44t-47.5 15q-43 0 -72 -38l-59 3l44 199h228l-6 -50h-177l-25 -100h2q28 30 82 30q48 0 78 -25.5t30 -71.5q0 -62 -43.5 -98.5t-105.5 -36.5q-52 0 -85 26t-33 73zM50 344q11 65 45 99.5t92 62.5l30 14
q60 30 74 47q12 14 12 32q0 22 -18 35.5t-49 13.5q-35 0 -59 -19.5t-32 -56.5h-53q12 63 52.5 93t96.5 30q53 0 85.5 -24.5t32.5 -65.5q0 -14 -3.5 -26t-7 -20.5t-13.5 -18.5l-15 -15t-20 -13.5l-19.5 -11t-22.5 -11l-22 -10.5l-31 -15q-74 -35 -80 -70h204l-6 -50h-273z
M141 -12l470 712h53l-470 -712h-53z" />
    <glyph glyph-name="uni2157" unicode="&#x2157;" horiz-adv-x="764" 
d="M437 91h55q2 -54 67 -54q27 0 49 14t31 39q6 14 6 31q0 29 -18.5 44t-47.5 15q-43 0 -72 -38l-59 3l44 199h228l-6 -50h-177l-25 -100h2q28 30 82 30q48 0 78 -25.5t30 -71.5q0 -62 -43.5 -98.5t-105.5 -36.5q-52 0 -85 26t-33 73zM64 446h56q-5 -35 16.5 -50t58.5 -15
q40 0 66.5 18t26.5 52q0 25 -20.5 38t-54.5 13h-28l6 41h28q37 0 61 16t24 46q0 22 -18.5 34t-49.5 12q-75 0 -82 -62h-53q4 49 42 78t98 29q55 0 88.5 -24t33.5 -61q0 -32 -21 -55.5t-55 -31.5v-3q28 -6 44 -24.5t16 -45.5q0 -54 -43 -84.5t-115 -30.5q-60 0 -97.5 27
t-27.5 83zM135 -12l470 712h53l-470 -712h-53z" />
    <glyph glyph-name="uni2158" unicode="&#x2158;" horiz-adv-x="764" 
d="M52 417l6 38l230 234h50l-37 -225h52l-8 -47h-52l-12 -73h-59l12 73h-182zM437 91h55q2 -54 67 -54q27 0 49 14t31 39q6 14 6 31q0 29 -18.5 44t-47.5 15q-43 0 -72 -38l-59 3l44 199h228l-6 -50h-177l-25 -100h2q28 30 82 30q48 0 78 -25.5t30 -71.5q0 -62 -43.5 -98.5
t-105.5 -36.5q-52 0 -85 26t-33 73zM135 -12l470 712h53l-470 -712h-53zM123 464h119l25 147z" />
    <glyph glyph-name="uni2159" unicode="&#x2159;" horiz-adv-x="764" 
d="M429 112q0 31 5 61q32 179 175 179q47 0 76 -24.5t29 -73.5h-56q0 53 -56 53q-81 0 -106 -127q32 44 97 44q48 0 78 -25.5t30 -71.5q0 -63 -43.5 -99t-106.5 -36q-58 0 -90 31.5t-32 88.5zM150 -12l470 712h53l-471 -712h-52zM122 564l-19 43l148 81h38l-49 -294h96
l-6 -50h-263l6 50h108l37 220zM490 95q0 -58 66 -58q27 0 49.5 14.5t31.5 39.5q5 15 5 30q0 29 -18.5 44t-47.5 15q-34 0 -60 -24t-26 -61z" />
    <glyph glyph-name="uni215A" unicode="&#x215a;" horiz-adv-x="764" 
d="M429 112q0 31 5 61q32 179 175 179q47 0 76 -24.5t29 -73.5h-56q0 53 -56 53q-81 0 -106 -127q32 44 97 44q48 0 78 -25.5t30 -71.5q0 -63 -43.5 -99t-106.5 -36q-58 0 -90 31.5t-32 88.5zM81 435h55q2 -54 67 -54q27 0 49 14t31 39q6 14 6 31q0 29 -18.5 44t-47.5 15
q-43 0 -72 -38l-59 3l44 199h228l-6 -50h-177l-25 -100h2q28 30 82 30q48 0 78 -25.5t30 -71.5q0 -62 -43.5 -98.5t-105.5 -36.5q-52 0 -85 26t-33 73zM135 -12l470 712h53l-470 -712h-53zM490 95q0 -58 66 -58q27 0 49.5 14.5t31.5 39.5q5 15 5 30q0 29 -18.5 44t-47.5 15
q-34 0 -60 -24t-26 -61z" />
    <glyph glyph-name="uni215B" unicode="&#x215b;" horiz-adv-x="764" 
d="M416 78q0 40 24 66t62 33v3q-48 12 -48 65q0 48 40.5 77.5t102.5 29.5q55 0 88.5 -24t33.5 -61q0 -32 -21 -55.5t-54 -31.5v-3q27 -5 43 -24t16 -46q0 -54 -44.5 -84.5t-115.5 -30.5q-59 0 -93 23.5t-34 62.5zM147 -12l470 712h53l-470 -712h-53zM122 564l-19 43l148 81
h38l-49 -294h96l-6 -50h-263l6 50h108l37 220zM475 87q0 -50 74 -50q41 0 68 18t27 52q0 25 -20.5 38t-54.5 13q-38 0 -66 -18t-28 -53zM575 199q37 0 61 16t24 46q0 22 -18.5 34t-47.5 12q-37 0 -60.5 -16t-23.5 -46q0 -22 17.5 -34t47.5 -12z" />
    <glyph glyph-name="uni215C" unicode="&#x215c;" horiz-adv-x="764" 
d="M416 78q0 40 24 66t62 33v3q-48 12 -48 65q0 48 40.5 77.5t102.5 29.5q55 0 88.5 -24t33.5 -61q0 -32 -21 -55.5t-54 -31.5v-3q27 -5 43 -24t16 -46q0 -54 -44.5 -84.5t-115.5 -30.5q-59 0 -93 23.5t-34 62.5zM64 446h56q-5 -35 16.5 -50t58.5 -15q40 0 66.5 18t26.5 52
q0 25 -20.5 38t-54.5 13h-28l6 41h28q37 0 61 16t24 46q0 22 -18.5 34t-49.5 12q-75 0 -82 -62h-53q4 49 42 78t98 29q55 0 88.5 -24t33.5 -61q0 -32 -21 -55.5t-55 -31.5v-3q28 -6 44 -24.5t16 -45.5q0 -54 -43 -84.5t-115 -30.5q-60 0 -97.5 27t-27.5 83zM135 -12l470 712
h53l-470 -712h-53zM475 87q0 -50 74 -50q41 0 68 18t27 52q0 25 -20.5 38t-54.5 13q-38 0 -66 -18t-28 -53zM575 199q37 0 61 16t24 46q0 22 -18.5 34t-47.5 12q-37 0 -60.5 -16t-23.5 -46q0 -22 17.5 -34t47.5 -12z" />
    <glyph glyph-name="uni215D" unicode="&#x215d;" horiz-adv-x="764" 
d="M416 78q0 40 24 66t62 33v3q-48 12 -48 65q0 48 40.5 77.5t102.5 29.5q55 0 88.5 -24t33.5 -61q0 -32 -21 -55.5t-54 -31.5v-3q27 -5 43 -24t16 -46q0 -54 -44.5 -84.5t-115.5 -30.5q-59 0 -93 23.5t-34 62.5zM81 435h55q2 -54 67 -54q27 0 49 14t31 39q6 14 6 31
q0 29 -18.5 44t-47.5 15q-43 0 -72 -38l-59 3l44 199h228l-6 -50h-177l-25 -100h2q28 30 82 30q48 0 78 -25.5t30 -71.5q0 -62 -43.5 -98.5t-105.5 -36.5q-52 0 -85 26t-33 73zM132 -12l470 712h53l-470 -712h-53zM475 87q0 -50 74 -50q41 0 68 18t27 52q0 25 -20.5 38
t-54.5 13q-38 0 -66 -18t-28 -53zM575 199q37 0 61 16t24 46q0 22 -18.5 34t-47.5 12q-37 0 -60.5 -16t-23.5 -46q0 -22 17.5 -34t47.5 -12z" />
    <glyph glyph-name="uni215E" unicode="&#x215e;" horiz-adv-x="764" 
d="M416 78q0 40 24 66t62 33v3q-48 12 -48 65q0 48 40.5 77.5t102.5 29.5q55 0 88.5 -24t33.5 -61q0 -32 -21 -55.5t-54 -31.5v-3q27 -5 43 -24t16 -46q0 -54 -44.5 -84.5t-115.5 -30.5q-59 0 -93 23.5t-34 62.5zM118 -12l470 712h53l-470 -712h-53zM100 344l204 291h-208
l9 53h280l-6 -37l-213 -307h-66zM475 87q0 -50 74 -50q41 0 68 18t27 52q0 25 -20.5 38t-54.5 13q-38 0 -66 -18t-28 -53zM575 199q37 0 61 16t24 46q0 22 -18.5 34t-47.5 12q-37 0 -60.5 -16t-23.5 -46q0 -22 17.5 -34t47.5 -12z" />
    <glyph glyph-name="uni2190" unicode="&#x2190;" horiz-adv-x="660" 
d="M303 46l-35 -33l-240 239l240 239l35 -33l-187 -184q48 3 162 3h354v-50h-354q-114 0 -162 3z" />
    <glyph glyph-name="uni2191" unicode="&#x2191;" horiz-adv-x="660" 
d="M124 279l-33 35l239 240l239 -240l-33 -35l-184 187q3 -48 3 -162v-354h-50v354q0 114 3 162z" />
    <glyph glyph-name="uni2192" unicode="&#x2192;" horiz-adv-x="660" 
d="M392 13l-35 33l186 184q-47 -3 -161 -3h-354v50h354q114 0 161 -3l-186 184l35 33l240 -239z" />
    <glyph glyph-name="uni2193" unicode="&#x2193;" horiz-adv-x="660" 
d="M536 225l33 -35l-239 -240l-239 240l33 35l184 -187q-3 48 -3 162v354h50v-354q0 -114 -3 -162z" />
    <glyph glyph-name="uni2196" unicode="&#x2196;" horiz-adv-x="660" 
d="M116 482h338v-47h-260q19 -16 137 -134l228 -228l-34 -37l-229 231l-33.5 33l-57 58t-42.5 46v-260h-47v338z" />
    <glyph glyph-name="uni2197" unicode="&#x2197;" horiz-adv-x="660" 
d="M221 435v47h338v-338h-47v260q-16 -19 -134 -137l-228 -231l-34 37l228 228q118 118 137 134h-260z" />
    <glyph glyph-name="uni2198" unicode="&#x2198;" horiz-adv-x="660" 
d="M221 36v47h260q-16 14 -46 42.5l-58 57l-33 33.5l-228 229l34 37l228 -231q92 -87 134 -137v260h47v-338h-338z" />
    <glyph glyph-name="uni2199" unicode="&#x2199;" horiz-adv-x="660" 
d="M194 83h260v-47h-338v338h47v-260q21 25 133 137l229 231l34 -37l-228 -229l-33 -33.5l-58 -57t-46 -42.5z" />
    <glyph glyph-name="partialdiff" unicode="&#x2202;" horiz-adv-x="568" 
d="M25 169q0 110 76 190.5t189 80.5q64 0 111.5 -28.5t57.5 -80.5q13 67 13 120q0 97 -38.5 143t-99.5 46q-124 0 -165 -124h-67q25 84 86 133.5t155 49.5q87 0 143.5 -61t56.5 -185q0 -35 -8 -105q-21 -177 -109.5 -268t-205.5 -91q-82 0 -138.5 49t-56.5 131zM230 48
q82 0 139.5 63.5t57.5 136.5q0 63 -38 98t-97 35q-80 0 -138 -58.5t-58 -147.5q0 -58 38 -92.5t96 -34.5z" />
    <glyph glyph-name="Delta" unicode="&#x2206;" horiz-adv-x="629" 
d="M-15 0l360 688h83l128 -688h-571zM373 612l-287 -553h388z" />
    <glyph glyph-name="product" unicode="&#x220f;" horiz-adv-x="711" 
d="M50 0l117 688h522l-117 -688h-68l107 629h-386l-107 -629h-68z" />
    <glyph glyph-name="summation" unicode="&#x2211;" horiz-adv-x="519" 
d="M-20 0l9 41l270 306l-160 295l6 46h451l-9 -59h-367l160 -288l-252 -282h375l-9 -59h-474z" />
    <glyph glyph-name="minus" unicode="&#x2212;" horiz-adv-x="568" 
d="M51 224l9 59h454l-9 -59h-454z" />
    <glyph glyph-name="uni2215" unicode="&#x2215;" horiz-adv-x="60" 
d="M-217 -12l470 712h53l-470 -712h-53z" />
    <glyph glyph-name="uni2219" unicode="&#x2219;" horiz-adv-x="244" 
d="M68 198l19 108h85l-19 -108h-85z" />
    <glyph glyph-name="radical" unicode="&#x221a;" horiz-adv-x="588" 
d="M42 318l9 59l139 41l79 -343h3l322 613h71l-365 -688h-77l-88 345z" />
    <glyph glyph-name="infinity" unicode="&#x221e;" horiz-adv-x="708" 
d="M152 91q-61 0 -96.5 37t-35.5 95q0 79 52.5 134.5t127.5 55.5q54 0 94.5 -32.5t65.5 -85.5q100 118 192 118q61 0 96.5 -37t35.5 -95q0 -79 -52.5 -134.5t-127.5 -55.5q-54 0 -95 32.5t-66 84.5q-98 -117 -191 -117zM510 144q48 0 81.5 40.5t33.5 90.5q0 37 -20.5 61
t-58.5 24q-66 0 -160 -108q55 -108 124 -108zM158 144q66 0 160 108q-55 108 -124 108q-48 0 -81.5 -40.5t-33.5 -90.5q0 -37 20.5 -61t58.5 -24z" />
    <glyph glyph-name="integral" unicode="&#x222b;" horiz-adv-x="364" 
d="M-17 -116q71 0 100.5 44.5t39.5 134.5l60 515q13 114 59.5 176t148.5 62h26l-6 -59h-20q-70 0 -99.5 -44t-40.5 -135l-60 -515q-13 -114 -59.5 -176t-148.5 -62h-26l6 59h20z" />
    <glyph glyph-name="approxequal" unicode="&#x2248;" horiz-adv-x="568" 
d="M68 286q12 70 49 106.5t89 36.5q39 0 74 -20.5t65 -41t56 -20.5q62 0 76 84h59q-12 -70 -49 -106.5t-89 -36.5q-39 0 -74 20.5t-65 41t-56 20.5q-62 0 -76 -84h-59zM32 80q12 70 49 106.5t89 36.5q39 0 74 -20.5t65 -41t56 -20.5q62 0 76 84h59q-12 -70 -49 -106.5
t-89 -36.5q-39 0 -74 20.5t-65 41t-56 20.5q-62 0 -76 -84h-59z" />
    <glyph glyph-name="notequal" unicode="&#x2260;" horiz-adv-x="568" 
d="M68 329l9 59h268l105 144l44 -28l-85 -116h121l-9 -59h-155l-109 -150h240l-9 -59h-274l-104 -144l-44 28l84 116h-115l9 59h149l109 150h-234z" />
    <glyph glyph-name="lessequal" unicode="&#x2264;" horiz-adv-x="568" 
d="M80 308l9 56l453 183l-9 -65l-379 -148l328 -147l-12 -62zM29 0l9 59h422l-9 -59h-422z" />
    <glyph glyph-name="greaterequal" unicode="&#x2265;" horiz-adv-x="568" 
d="M108 485l12 62l390 -183l-9 -56l-453 -183l9 64l380 148zM29 0l9 59h422l-9 -59h-422z" />
    <glyph glyph-name="uni25A0" unicode="&#x25a0;" horiz-adv-x="688" 
d="M0 0v688h688v-688h-688z" />
    <glyph glyph-name="uni25A1" unicode="&#x25a1;" horiz-adv-x="688" 
d="M0 0v688h688v-688h-688zM62 59h564v570h-564v-570z" />
    <glyph glyph-name="uni25B6" unicode="&#x25b6;" horiz-adv-x="500" 
d="M44 -12v512l444 -256z" />
    <glyph glyph-name="uni25B7" unicode="&#x25b7;" horiz-adv-x="500" 
d="M44 -12v512l444 -256zM106 90l273 154l-273 154v-308z" />
    <glyph glyph-name="uni25C0" unicode="&#x25c0;" horiz-adv-x="500" 
d="M12 244l444 256v-512z" />
    <glyph glyph-name="uni25C1" unicode="&#x25c1;" horiz-adv-x="500" 
d="M12 244l444 256v-512zM122 244l272 -154v308z" />
    <glyph glyph-name="lozenge" unicode="&#x25ca;" horiz-adv-x="642" 
d="M245 0l-194 344l310 344h65l194 -345l-310 -343h-65zM125 343l161 -284l259 286l-161 283z" />
    <glyph glyph-name="uni25CB" unicode="&#x25cb;" horiz-adv-x="552" 
d="M26 244q0 107 73 181t177 74q105 0 177.5 -73t72.5 -182q0 -107 -73 -181t-177 -74q-105 0 -177.5 73t-72.5 182zM88 244q0 -86 53.5 -142.5t134.5 -56.5q82 0 135 56.5t53 142.5t-53.5 142.5t-134.5 56.5q-82 0 -135 -56.5t-53 -142.5z" />
    <glyph glyph-name="uni25CF" unicode="&#x25cf;" horiz-adv-x="552" 
d="M26 244q0 107 73 181t177 74q105 0 177.5 -73t72.5 -182q0 -107 -73 -181t-177 -74q-105 0 -177.5 73t-72.5 182z" />
    <glyph glyph-name="uni25FB" unicode="&#x25fb;" horiz-adv-x="488" 
d="M0 0v488h488v-488h-488zM62 56h364v377h-364v-377z" />
    <glyph glyph-name="uni25FC" unicode="&#x25fc;" horiz-adv-x="488" 
d="M0 0v488h488v-488h-488z" />
    <glyph glyph-name="uni2605" unicode="&#x2605;" horiz-adv-x="546" 
d="M106 13l68 183l-162 108l5 16l195 -9l53 189h16l52 -189l196 9l5 -16l-163 -108l69 -183l-14 -10l-153 121l-153 -121z" />
    <glyph glyph-name="dotlessj" unicode="&#xf6be;" horiz-adv-x="228" 
d="M21 -84l99 572h67l-100 -584q-21 -124 -147 -124h-30l9 59h27q33 0 50.5 18t24.5 59z" />
    <glyph glyph-name="commaaccent" unicode="&#xf6c3;" horiz-adv-x="550" 
d="M185 -66h68l-13 -74l-53 -103h-31l42 97h-27z" />
    <glyph glyph-name="at.sc" horiz-adv-x="826" 
d="M223 83q0 99 141 120l82 12q31 4 45.5 10t17.5 20q6 36 -12.5 60t-63.5 24q-88 0 -107 -77h-63q14 60 60.5 92.5t117.5 32.5q74 0 109.5 -35t22.5 -106l-22 -122q-14 -80 53 -80q63 0 99 69t36 141q0 116 -80 179t-205 63q-156 0 -262 -104t-106 -260q0 -110 73.5 -180.5
t192.5 -70.5q118 0 192 61h67q-104 -104 -265 -104q-139 0 -226 82t-87 207q0 176 122.5 294t305.5 118q144 0 237.5 -75t93.5 -205q0 -59 -20.5 -116t-68.5 -99t-113 -42q-92 0 -104 67q-51 -67 -150 -67q-53 0 -83 25t-30 66zM355 39q50 0 88 28.5t50 91.5l7 37
q-12 -15 -48 -20l-78 -12q-86 -13 -86 -72q0 -24 17.5 -38.5t49.5 -14.5z" />
    <glyph glyph-name="a.sc" horiz-adv-x="508" 
d="M-34 0l290 520h80l117 -520h-70l-30 140h-238l-75 -140h-74zM287 452h-3l-137 -254h194z" />
    <glyph glyph-name="b.sc" horiz-adv-x="568" 
d="M47 0l88 520h226q73 0 112 -30.5t39 -82.5q0 -46 -26.5 -82.5t-80.5 -48.5v-3q43 -9 68 -39.5t25 -70.5q0 -74 -55 -118.5t-148 -44.5h-248zM334 241h-178l-31 -182h176q57 0 92 28t35 76q0 35 -24 56.5t-70 21.5zM355 461h-162l-28 -162h165q52 0 82 26.5t30 69.5
q0 30 -21.5 48t-65.5 18z" />
    <glyph glyph-name="c.sc" horiz-adv-x="581" 
d="M42 211q0 133 88 226.5t216 93.5q94 0 149.5 -48t60.5 -127h-65q-17 115 -148 115q-96 0 -163 -74.5t-67 -179.5q0 -73 43.5 -120.5t119.5 -47.5q125 0 181 115h68q-32 -80 -99.5 -127.5t-155.5 -47.5q-105 0 -166.5 63t-61.5 159z" />
    <glyph glyph-name="d.sc" horiz-adv-x="591" 
d="M47 0l88 520h172q117 0 180 -60.5t63 -158.5q0 -131 -90.5 -216t-236.5 -85h-176zM298 461h-105l-68 -402h107q116 0 181.5 70.5t65.5 171.5q0 71 -45 115.5t-136 44.5z" />
    <glyph glyph-name="e.sc" horiz-adv-x="522" 
d="M47 0l88 520h371l-9 -59h-304l-29 -168h246l-9 -57h-246l-30 -177h310l-9 -59h-379z" />
    <glyph glyph-name="f.sc" horiz-adv-x="492" 
d="M47 0l88 520h367l-9 -59h-300l-32 -183h240l-9 -57h-241l-36 -221h-68z" />
    <glyph glyph-name="g.sc" horiz-adv-x="632" 
d="M313 217l9 56h233l-44 -273h-44l5 70h-3q-72 -81 -195 -81q-104 0 -166.5 64.5t-62.5 161.5q0 136 89.5 226t223.5 90q92 0 150 -47.5t62 -117.5h-71q-5 44 -43 74.5t-104 30.5q-100 0 -168 -73t-68 -180q0 -73 45 -121t122 -48q76 0 133 40.5t68 119.5l1 8h-172z" />
    <glyph glyph-name="h.sc" horiz-adv-x="617" 
d="M47 0l88 520h68l-39 -228h299l39 228h68l-88 -520h-68l39 233h-299l-39 -233h-68z" />
    <glyph glyph-name="i.sc" horiz-adv-x="250" 
d="M47 0l88 520h68l-88 -520h-68z" />
    <glyph glyph-name="j.sc" horiz-adv-x="441" 
d="M24 152l4 23h65l-4 -23q-11 -54 11 -80.5t67 -26.5q90 0 110 110l64 365h68l-64 -365q-15 -86 -59.5 -126t-121.5 -40q-75 0 -115.5 41t-24.5 122z" />
    <glyph glyph-name="k.sc" horiz-adv-x="552" 
d="M47 0l88 520h68l-50 -292l331 292h81l-256 -225l180 -295h-73l-155 253l-122 -107l-24 -146h-68z" />
    <glyph glyph-name="l.sc" horiz-adv-x="468" 
d="M47 0l88 520h68l-78 -461h279l-9 -59h-348z" />
    <glyph glyph-name="m.sc" horiz-adv-x="753" 
d="M47 0l88 520h84l127 -430h3l273 430h84l-88 -520h-68l73 417h-2l-264 -417h-48l-126 417h-3l-65 -417h-68z" />
    <glyph glyph-name="n.sc" horiz-adv-x="618" 
d="M47 0l88 520h62l235 -412h3l68 412h68l-88 -520h-62l-235 412h-3l-68 -412h-68z" />
    <glyph glyph-name="o.sc" horiz-adv-x="624" 
d="M42 211q0 139 92 229.5t219 90.5q101 0 165 -62t64 -160q0 -139 -92 -229.5t-219 -90.5q-101 0 -165 62t-64 160zM277 49q79 0 141.5 50t83.5 133q9 34 9 74q0 75 -44.5 120t-119.5 45q-79 0 -141.5 -50t-83.5 -133q-9 -35 -9 -74q0 -75 44.5 -120t119.5 -45z" />
    <glyph glyph-name="p.sc" horiz-adv-x="538" 
d="M47 0l88 520h215q77 0 120 -41t43 -103q0 -86 -59 -138.5t-158 -52.5h-152l-32 -185h-65zM344 461h-152l-37 -217h150q62 0 99.5 34.5t37.5 91.5q0 40 -25 65.5t-73 25.5z" />
    <glyph glyph-name="q.sc" horiz-adv-x="624" 
d="M42 211q0 139 92 229.5t219 90.5q101 0 165 -62t64 -160q0 -80 -32.5 -145.5t-88.5 -109.5l83 -104l-54 -42l-87 110q-66 -29 -132 -29q-101 0 -165 62t-64 160zM277 49q79 0 141.5 50t83.5 133q9 34 9 74q0 75 -44.5 120t-119.5 45q-79 0 -141.5 -50t-83.5 -133
q-9 -35 -9 -74q0 -75 44.5 -120t119.5 -45z" />
    <glyph glyph-name="r.sc" horiz-adv-x="559" 
d="M47 0l88 520h220q77 0 120 -37.5t43 -97.5q0 -71 -43 -116t-115 -57l113 -212h-74l-109 207h-140l-35 -207h-68zM349 461h-156l-33 -195h155q60 0 94.5 29t34.5 84q0 37 -24.5 59.5t-70.5 22.5z" />
    <glyph glyph-name="s.sc" horiz-adv-x="512" 
d="M30 146h68q-8 -48 25 -74.5t101 -26.5q150 0 150 99q0 18 -8 31.5t-18 22t-30.5 16t-34 11t-40.5 9.5l-19 4q-68 14 -107.5 42.5t-39.5 91.5q0 71 58 115t156 44q96 0 145.5 -41t38.5 -110h-68q8 43 -24.5 69t-97.5 26q-62 0 -101 -25.5t-39 -71.5q0 -38 30 -55t90 -30
l19 -4q37 -8 59.5 -15.5t49 -22.5t39.5 -40t13 -61q0 -75 -57 -118t-167 -43q-104 0 -154 42t-37 115z" />
    <glyph glyph-name="t.sc" horiz-adv-x="498" 
d="M53 461l9 59h462l-9 -59h-198l-78 -461h-68l78 461h-196z" />
    <glyph glyph-name="u.sc" horiz-adv-x="587" 
d="M65 207l53 313h68l-53 -313q-27 -156 126 -156q147 0 175 156l53 313h68l-53 -313q-38 -218 -248 -218q-102 0 -155 53.5t-34 164.5z" />
    <glyph glyph-name="v.sc" horiz-adv-x="504" 
d="M169 0l-114 520h71l92 -452h4l244 452h71l-287 -520h-81z" />
    <glyph glyph-name="w.sc" horiz-adv-x="754" 
d="M118 0l-58 520h68l43 -446h3l213 446h69l63 -447h3l192 447h68l-228 -520h-84l-62 433h-3l-202 -433h-85z" />
    <glyph glyph-name="x.sc" horiz-adv-x="486" 
d="M-32 0l238 264l-143 256h80l109 -204l180 204h77l-227 -253l146 -267h-73l-119 215l-191 -215h-77z" />
    <glyph glyph-name="y.sc" horiz-adv-x="488" 
d="M165 0l33 207l-145 313h77l113 -253h3l206 253h74l-261 -319l-32 -201h-68z" />
    <glyph glyph-name="z.sc" horiz-adv-x="495" 
d="M87 462l12 58h395l-5 -43l-385 -419h308l-9 -58h-405l6 40l387 422h-304z" />
    <glyph glyph-name="ampersand.sc" horiz-adv-x="576" 
d="M28 117q0 65 40.5 103t113.5 67q-45 58 -45 105q0 58 44.5 97t119.5 39q61 0 95.5 -30.5t34.5 -76.5q0 -31 -12.5 -55.5t-38.5 -42t-49 -28.5t-61 -25l128 -144q38 51 55 134h59q-21 -108 -77 -175l76 -85h-71l-43 48q-74 -59 -183 -59q-86 0 -136 35.5t-50 92.5zM216 42
q88 0 144 46l-147 161q-56 -23 -86.5 -50t-30.5 -70q0 -42 32.5 -64.5t87.5 -22.5zM196 395q0 -35 42 -87q66 24 100 48t34 65q0 27 -19.5 43.5t-57.5 16.5q-44 0 -71.5 -23.5t-27.5 -62.5z" />
    <glyph glyph-name="fi.sc" horiz-adv-x="742" 
d="M47 0l88 520h367l-9 -59h-300l-32 -183h240l-9 -57h-241l-36 -221h-68zM539 0l88 520h68l-88 -520h-68z" />
    <glyph glyph-name="fl.sc" horiz-adv-x="960" 
d="M47 0l88 520h367l-9 -59h-300l-32 -183h240l-9 -57h-241l-36 -221h-68zM539 0l88 520h68l-78 -461h279l-9 -59h-348z" />
    <glyph glyph-name="germandbls.sc" horiz-adv-x="1024" 
d="M30 146h68q-8 -48 25 -74.5t101 -26.5q150 0 150 99q0 18 -8 31.5t-18 22t-30.5 16t-34 11t-40.5 9.5l-19 4q-68 14 -107.5 42.5t-39.5 91.5q0 71 58 115t156 44q96 0 145.5 -41t38.5 -110h-68q8 43 -24.5 69t-97.5 26q-62 0 -101 -25.5t-39 -71.5q0 -38 30 -55t90 -30
l19 -4q37 -8 59.5 -15.5t49 -22.5t39.5 -40t13 -61q0 -75 -57 -118t-167 -43q-104 0 -154 42t-37 115zM542 146h68q-8 -48 25 -74.5t101 -26.5q150 0 150 99q0 18 -8 31.5t-18 22t-30.5 16t-34 11t-40.5 9.5l-19 4q-68 14 -107.5 42.5t-39.5 91.5q0 71 58 115t156 44
q96 0 145.5 -41t38.5 -110h-68q8 43 -24.5 69t-97.5 26q-62 0 -101 -25.5t-39 -71.5q0 -38 30 -55t90 -30l19 -4q37 -8 59.5 -15.5t49 -22.5t39.5 -40t13 -61q0 -75 -57 -118t-167 -43q-104 0 -154 42t-37 115z" />
    <glyph glyph-name="t_f" horiz-adv-x="577" 
d="M26 433l9 55h95l25 148h68l-25 -148h221l15 86q27 158 182 158h53l-9 -59h-47q-48 0 -75 -24t-36 -78l-14 -83h122l-9 -55h-123l-73 -433h-68l73 433h-221l-49 -289q-8 -45 5.5 -65t54.5 -20h54l-9 -59h-60q-137 0 -114 140l49 293h-94z" />
    <glyph glyph-name="t_t" horiz-adv-x="600" 
d="M357 140l49 293h-217l-49 -289q-7 -45 6 -65t54 -20h60l-9 -59h-66q-139 0 -114 140l49 293h-94l9 55h95l25 148h68l-25 -148h218l25 148h68l-25 -148h132l-9 -55h-132l-49 -289q-8 -45 5 -65t54 -20h62l-9 -59h-67q-139 0 -114 140z" />
    <glyph glyph-name="slashedzero" horiz-adv-x="568" 
d="M239 -11q-96 0 -142 63t-46 173q0 60 10 119q26 160 101.5 257.5t194.5 97.5q96 0 142 -63t46 -173q0 -60 -10 -119q-26 -160 -101.5 -257.5t-194.5 -97.5zM247 51q84 0 139 77t78 216q10 60 10 116q0 58 -14 98l-298 -473q31 -34 85 -34zM122 228q0 -62 14 -98l297 473
q-31 34 -84 34q-84 0 -139 -77t-78 -216q-10 -60 -10 -116z" />
    <glyph glyph-name="zero.PPF" horiz-adv-x="562" 
d="M50 223q0 60 10 121q27 161 101.5 258t192.5 97q93 0 139.5 -63t46.5 -171q0 -60 -10 -121q-27 -161 -102.5 -258t-193.5 -97q-94 0 -139 62.5t-45 171.5zM243 51q82 0 137 77.5t79 215.5q11 68 11 118q0 84 -32 129.5t-94 45.5q-82 0 -135.5 -77t-77.5 -216
q-11 -68 -11 -118q0 -175 123 -175z" />
    <glyph glyph-name="one.PPF" horiz-adv-x="324" 
d="M86 514l-27 53l199 121h53l-118 -688h-68l103 600z" />
    <glyph glyph-name="two.PPF" horiz-adv-x="516" 
d="M2 0q22 112 67.5 174t137.5 117l88 52q39 23 60 37.5t44.5 37.5t33.5 50t10 62q0 48 -32 79t-88 31q-136 0 -172 -155h-62q21 113 88.5 163.5t154.5 50.5q80 0 129.5 -43t49.5 -120q0 -38 -11 -70.5t-25 -54t-42 -44.5t-46 -35t-52 -32l-88 -52q-82 -49 -114 -90.5
t-45 -98.5h358l-9 -59h-435z" />
    <glyph glyph-name="three.PPF" horiz-adv-x="532" 
d="M29 205h65q-13 -73 23.5 -115t112.5 -42q78 0 132 44t54 118q0 53 -39 85t-100 32h-47l12 58h48q63 0 110.5 41.5t47.5 106.5q0 50 -33.5 78.5t-85.5 28.5q-62 0 -106 -34.5t-54 -103.5h-65q15 92 78.5 144.5t155.5 52.5q78 0 126.5 -43.5t48.5 -113.5q0 -65 -41.5 -116
t-97.5 -65v-4q49 -11 79.5 -50t30.5 -94q0 -102 -73 -163t-184 -61q-107 0 -160.5 56t-37.5 160z" />
    <glyph glyph-name="four.PPF" horiz-adv-x="534" 
d="M11 182l9 49l407 458h55l-76 -448h101l-9 -59h-102l-30 -182h-68l30 182h-317zM98 241h240l56 331z" />
    <glyph glyph-name="five.PPF" horiz-adv-x="514" 
d="M20 180h68q0 -55 34 -93.5t103 -38.5q75 0 126.5 57.5t51.5 144.5q0 60 -34.5 95.5t-91.5 35.5q-86 0 -149 -80l-63 3l86 384h359l-9 -62h-297l-58 -245h3q47 59 143 59q83 0 132.5 -49.5t49.5 -134.5q0 -116 -74.5 -191.5t-177.5 -75.5q-93 0 -147.5 50.5t-54.5 140.5z
" />
    <glyph glyph-name="six.PPF" horiz-adv-x="544" 
d="M53 217q0 51 5 93q27 186 107 287.5t196 101.5q86 0 133.5 -46.5t43.5 -136.5h-68q3 61 -28.5 92.5t-86.5 31.5q-82 0 -139.5 -81t-82.5 -228q26 50 77 79.5t114 29.5q83 0 132 -49.5t49 -134.5q0 -116 -74 -191.5t-177 -75.5q-92 0 -146.5 55t-54.5 173zM125 179
q0 -60 36 -95.5t96 -35.5q76 0 127 57t51 145q0 60 -34.5 95.5t-90.5 35.5q-77 0 -131 -57t-54 -145z" />
    <glyph glyph-name="seven.PPF" horiz-adv-x="448" 
d="M17 0l401 626h-339l9 62h419l-9 -49l-406 -639h-75z" />
    <glyph glyph-name="eight.PPF" horiz-adv-x="530" 
d="M17 158q0 72 50 127.5t122 71.5v4q-38 12 -62.5 48.5t-24.5 84.5q0 87 68 146t165 59q83 0 131 -43.5t48 -118.5q0 -61 -41.5 -111t-98.5 -65v-4q50 -13 80.5 -51.5t30.5 -92.5q0 -101 -75.5 -162.5t-187.5 -61.5q-95 0 -150 45.5t-55 123.5zM85 164q0 -53 40 -84.5
t103 -31.5q79 0 134 44.5t55 117.5q0 53 -39.5 85t-102.5 32q-77 0 -133.5 -45t-56.5 -118zM288 385q66 0 113.5 42t47.5 107q0 49 -33.5 79t-86.5 30q-67 0 -114.5 -42t-47.5 -107q0 -49 34 -79t87 -30z" />
    <glyph glyph-name="nine.PPF" horiz-adv-x="544" 
d="M43 172h68q-4 -61 27.5 -92.5t87.5 -31.5q165 0 218 308q-26 -50 -76.5 -79t-113.5 -29q-83 0 -132 49.5t-49 134.5q0 116 74 191.5t177 75.5q92 0 146.5 -55t54.5 -173q0 -51 -5 -93q-27 -188 -102.5 -288.5t-191.5 -100.5q-87 0 -137 46.5t-46 136.5zM453 509
q0 63 -37.5 97t-94.5 34q-76 0 -127 -57t-51 -145q0 -60 34.5 -95.5t90.5 -35.5q76 0 130.5 57.5t54.5 144.5z" />
    <glyph glyph-name="slashedzero.PPF" horiz-adv-x="562" 
d="M234 -11q-94 0 -139 62.5t-45 171.5q0 60 10 121q27 161 101.5 258t192.5 97q93 0 139.5 -63t46.5 -171q0 -60 -10 -121q-27 -161 -102.5 -258t-193.5 -97zM243 51q82 0 137 77.5t79 215.5q11 68 11 118q0 56 -15 95l-296 -471q30 -35 84 -35zM120 226q0 -57 13 -95
l296 471q-32 35 -85 35q-82 0 -135.5 -77t-77.5 -216q-11 -68 -11 -118z" />
    <glyph glyph-name="zero.sc" horiz-adv-x="504" 
d="M207 -11q-84 0 -125 51t-41 138q0 43 7 84q20 120 83 194.5t165 74.5q85 0 126 -51t41 -139q0 -42 -7 -83q-21 -120 -84.5 -194.5t-164.5 -74.5zM215 45q65 0 110 57t63 156q8 46 8 82q0 135 -107 135q-66 0 -111 -57t-62 -156q-8 -46 -8 -81q0 -64 27.5 -100t79.5 -36z
" />
    <glyph glyph-name="one.sc" horiz-adv-x="504" 
d="M115 352l-22 50l210 118h49l-79 -464h145l-9 -56h-366l9 56h153l64 382z" />
    <glyph glyph-name="two.sc" horiz-adv-x="504" 
d="M18 0q17 86 56.5 135t117.5 91l71 38q6 3 25 13.5l24.5 13.5t20.5 12.5t20.5 14.5t15 15t13 18.5t6.5 20t3 24.5q0 34 -27.5 56.5t-75.5 22.5q-116 0 -142 -110h-62q19 87 75 126.5t132 39.5q71 0 118 -36t47 -93q0 -17 -2 -32t-9 -28.5t-11.5 -23t-17.5 -21t-18.5 -17
t-23.5 -16t-22.5 -13.5t-26.5 -14t-25 -13l-71 -39q-65 -35 -90.5 -62t-34.5 -67h303l-9 -56h-380z" />
    <glyph glyph-name="three.sc" horiz-adv-x="504" 
d="M37 151h62q-8 -55 27 -82t91 -27q66 0 107 30.5t41 83.5q0 40 -32 64.5t-84 24.5h-40l9 52h40q55 0 93 28t38 77q0 35 -27 55.5t-72 20.5q-50 0 -87 -25t-43 -72h-59q8 69 61 109.5t131 40.5q72 0 115 -34t43 -89q0 -47 -29 -83.5t-80 -52.5v-3q40 -11 65.5 -39.5
t25.5 -70.5q0 -82 -62 -126t-160 -44q-81 0 -132.5 40t-41.5 122z" />
    <glyph glyph-name="four.sc" horiz-adv-x="504" 
d="M11 127l5 31l1 15l346 347h55l-57 -338h85l-9 -55h-86l-21 -127h-68l21 127h-272zM96 182h197l40 237z" />
    <glyph glyph-name="five.sc" horiz-adv-x="504" 
d="M44 136h68q0 -41 30 -66t81 -25q48 0 85 24t51 65q8 24 8 51q0 43 -29.5 69t-78.5 26q-74 0 -122 -62l-69 6l68 296h325l-9 -59h-267l-39 -171h3q43 46 128 46q69 0 113.5 -40t44.5 -105q0 -28 -8 -57q-18 -71 -75 -108t-132 -37q-74 0 -124.5 37t-51.5 110z" />
    <glyph glyph-name="six.sc" horiz-adv-x="504" 
d="M42 168q0 40 6 80q23 148 90 215.5t161 67.5q72 0 116.5 -35t45.5 -107h-64q0 38 -25.5 62t-75.5 24q-136 0 -177 -224q20 39 62 62t95 23q71 0 114.5 -40t43.5 -106q0 -24 -7 -54q-18 -68 -74.5 -107.5t-129.5 -39.5q-179 0 -181 179zM118 139q0 -44 28 -69t79 -25
q47 0 83 24.5t50 66.5q8 24 8 48q0 44 -28.5 70.5t-78.5 26.5q-60 0 -100.5 -40t-40.5 -102z" />
    <glyph glyph-name="seven.sc" horiz-adv-x="504" 
d="M96 0l322 458h-329l11 62h405l-6 -43l-332 -477h-71z" />
    <glyph glyph-name="eight.sc" horiz-adv-x="504" 
d="M30 117q0 58 38.5 99.5t98.5 56.5v2q-68 26 -68 95q0 71 55 116t139 45q74 0 116 -33.5t42 -89.5q0 -46 -29.5 -83t-79.5 -52v-3q40 -12 65.5 -41.5t25.5 -69.5q0 -81 -62.5 -125.5t-159.5 -44.5q-82 0 -131.5 33.5t-49.5 94.5zM98 126q0 -40 31 -62t85 -22q56 0 96 22
t51 62q4 13 4 30q0 40 -31.5 64.5t-84.5 24.5q-52 0 -93.5 -23.5t-53.5 -65.5q-4 -12 -4 -30zM259 297q45 0 79.5 20t46.5 55q4 12 4 30q0 35 -27 55.5t-72 20.5q-46 0 -80.5 -20t-45.5 -56q-4 -11 -4 -29q0 -35 26.5 -55.5t72.5 -20.5z" />
    <glyph glyph-name="nine.sc" horiz-adv-x="504" 
d="M38 131h65q0 -38 25 -62t75 -24q135 0 175 220q-21 -37 -60.5 -59t-91.5 -22q-72 0 -116 40t-44 106q0 30 7 54q18 67 75.5 107t130.5 40q85 0 130 -48t47 -132q1 -38 -5 -79q-23 -148 -90 -215.5t-161 -67.5q-72 0 -116.5 35t-45.5 107zM382 383q0 40 -29.5 66t-77.5 26
t-83.5 -24.5t-50.5 -66.5q-8 -24 -8 -48q0 -44 28.5 -70.5t78.5 -26.5q61 0 101.5 39.5t40.5 104.5z" />
    <glyph glyph-name="slashedzero.sc" horiz-adv-x="504" 
d="M207 -11q-84 0 -125 51t-41 138q0 43 7 84q20 120 83 194.5t165 74.5q85 0 126 -51t41 -139q0 -42 -7 -83q-21 -120 -84.5 -194.5t-164.5 -74.5zM215 45q65 0 110 57t63 156q8 46 8 82q0 48 -15 79l-230 -354q26 -20 64 -20zM108 181q0 -50 14 -79l230 354q-27 19 -63 19
q-66 0 -111 -57t-62 -156q-8 -46 -8 -81z" />
    <glyph glyph-name="zero.scppf" horiz-adv-x="506" 
d="M44 181q0 39 6 81q19 119 83.5 194t164.5 75q83 0 123.5 -52t40.5 -141q0 -40 -6 -80q-19 -118 -84 -193.5t-165 -75.5q-82 0 -122.5 52t-40.5 140zM216 45q63 0 107 57.5t62 155.5q7 39 7 79q0 138 -102 138q-64 0 -108.5 -57t-60.5 -156q-7 -39 -7 -79q0 -66 26 -102
t76 -36z" />
    <glyph glyph-name="one.scppf" horiz-adv-x="303" 
d="M55 371l-22 49l174 100h49l-88 -520h-68l73 438z" />
    <glyph glyph-name="two.scppf" horiz-adv-x="452" 
d="M-2 0q17 86 56.5 134.5t117.5 91.5l72 40q31 17 40 22.5t30.5 20t28.5 24.5t14 27t7 37q0 34 -26.5 56t-72.5 22q-112 0 -137 -110h-61q18 87 72 126.5t129 39.5q70 0 115.5 -35.5t45.5 -92.5q0 -35 -9.5 -61.5t-32 -47t-40.5 -32t-53 -30.5q-9 -5 -13 -7l-72 -40
q-65 -35 -90 -62.5t-35 -66.5h298l-9 -56h-375z" />
    <glyph glyph-name="three.scppf" horiz-adv-x="454" 
d="M15 151h61q-7 -53 26.5 -81t88.5 -28q61 0 101.5 30.5t40.5 83.5q0 40 -31.5 64.5t-80.5 24.5h-37l9 52h37q51 0 88.5 28t37.5 77q0 35 -26 55.5t-68 20.5q-50 0 -84.5 -24.5t-40.5 -72.5h-59q7 70 58.5 110t125.5 40q71 0 113.5 -34t42.5 -89q0 -46 -28.5 -83t-75.5 -53
v-3q37 -9 62 -39.5t25 -70.5q0 -81 -61.5 -125.5t-154.5 -44.5q-80 0 -130 40.5t-40 121.5z" />
    <glyph glyph-name="four.scppf" horiz-adv-x="462" 
d="M2 158l2 16l343 347h55l-57 -338h83l-10 -56h-83l-21 -127h-68l21 127h-270zM83 183h194l39 235z" />
    <glyph glyph-name="five.scppf" horiz-adv-x="456" 
d="M26 134h67q0 -39 28 -64t79 -25q58 0 100 39t42 104q0 43 -29 68t-74 25q-69 0 -119 -63l-68 6l68 296h316l-10 -59h-257l-40 -172h3q44 47 128 47q64 0 106.5 -39t42.5 -103q0 -97 -62 -151t-150 -54q-75 0 -122.5 36t-48.5 109z" />
    <glyph glyph-name="six.scppf" horiz-adv-x="482" 
d="M44 167q0 47 5 81q46 283 245 283q71 0 115.5 -35t45.5 -107h-65q0 37 -24.5 61.5t-73.5 24.5q-129 0 -171 -219q20 37 60 58.5t90 21.5q70 0 113 -39.5t43 -103.5q0 -93 -62.5 -148.5t-148.5 -55.5q-169 0 -172 178zM119 141q0 -46 28 -71t73 -25q59 0 99 39t40 103
q0 43 -27 68t-74 25q-60 0 -99.5 -37.5t-39.5 -101.5z" />
    <glyph glyph-name="seven.scppf" horiz-adv-x="406" 
d="M22 0l321 458h-282l11 62h359l-6 -43l-332 -477h-71z" />
    <glyph glyph-name="eight.scppf" horiz-adv-x="470" 
d="M17 118q0 56 37 98t95 57v2q-64 29 -64 96q0 70 56 115t135 45q71 0 112 -34t41 -90q0 -46 -28.5 -82.5t-75.5 -52.5v-3q37 -12 62 -41.5t25 -68.5q0 -80 -62.5 -125t-155.5 -45q-79 0 -128 33.5t-49 95.5zM85 127q0 -40 30.5 -62.5t81.5 -22.5q62 0 104.5 31t42.5 83
q0 40 -31 64.5t-81 24.5q-62 0 -104.5 -33t-42.5 -85zM242 297q51 0 88 28.5t37 76.5q0 35 -26.5 55.5t-67.5 20.5q-51 0 -88.5 -28t-37.5 -77q0 -35 26.5 -55.5t68.5 -20.5z" />
    <glyph glyph-name="nine.scppf" horiz-adv-x="485" 
d="M30 131h65q0 -37 26 -61.5t75 -24.5q128 0 168 219q-20 -37 -60 -58.5t-90 -21.5q-70 0 -113 39.5t-43 103.5q0 93 62.5 148.5t148.5 55.5q85 0 128 -47.5t44 -130.5q0 -49 -6 -81q-45 -283 -242 -283q-71 0 -116.5 35t-46.5 107zM366 379q0 46 -28.5 71t-73.5 25
q-59 0 -98.5 -39t-39.5 -103q0 -43 27 -68t74 -25q60 0 99.5 37.5t39.5 101.5z" />
    <glyph glyph-name="slashedzero.scppf" horiz-adv-x="506" 
d="M44 181q0 39 6 81q19 119 83.5 194t164.5 75q83 0 123.5 -52t40.5 -141q0 -40 -6 -80q-19 -118 -84 -193.5t-165 -75.5q-82 0 -122.5 52t-40.5 140zM216 45q63 0 107 57.5t62 155.5q7 39 7 79q0 47 -13 77l-227 -347q25 -22 64 -22zM114 183q0 -42 11 -75l227 346
q-24 21 -62 21q-64 0 -108.5 -57t-60.5 -156q-7 -39 -7 -79z" />
    <glyph glyph-name="zero.TOSF" horiz-adv-x="568" 
d="M39 191q0 131 83.5 219.5t198.5 88.5q94 0 147.5 -54.5t53.5 -147.5q0 -131 -83.5 -219.5t-198.5 -88.5q-94 0 -147.5 54.5t-53.5 147.5zM110 197q0 -68 36.5 -108.5t99.5 -40.5q83 0 144 69.5t61 173.5q0 68 -36.5 108.5t-99.5 40.5q-83 0 -144 -69.5t-61 -173.5z" />
    <glyph glyph-name="one.TOSF" horiz-adv-x="568" 
d="M122 293l-28 52l231 143h52l-73 -429h177l-9 -59h-432l9 59h187l57 337z" />
    <glyph glyph-name="two.TOSF" horiz-adv-x="568" 
d="M26 0q16 94 68 148t134 80l80 26q33 11 50.5 18t39 19.5t31 29.5t9.5 40q0 33 -32.5 57.5t-94.5 24.5q-141 0 -173 -125h-62q18 92 83 136.5t158 44.5q85 0 137 -36.5t52 -101.5q0 -36 -14 -63t-41 -44t-51 -27.5t-58 -21.5q-9 -3 -13 -4l-77 -26q-53 -18 -90.5 -48
t-43.5 -68h344l-9 -59h-427z" />
    <glyph glyph-name="three.TOSF" horiz-adv-x="568" 
d="M1 5h65q-12 -72 24.5 -114.5t116.5 -42.5q79 0 135 43.5t56 118.5q0 52 -40 84.5t-104 32.5h-51l12 58h52q68 0 115.5 42t47.5 105q0 51 -34 79.5t-89 28.5q-65 0 -110 -34.5t-57 -103.5h-64q16 93 80 145t160 52q80 0 129.5 -43.5t49.5 -114.5q0 -64 -43 -115.5
t-99 -64.5v-4q51 -12 82 -51.5t31 -92.5q0 -103 -75.5 -163.5t-186.5 -60.5t-165 56.5t-38 159.5z" />
    <glyph glyph-name="four.TOSF" horiz-adv-x="568" 
d="M-18 0l9 49l411 440h56l-73 -430h104l-9 -59h-105l-33 -200h-68l33 200h-325zM70 59h247l52 315z" />
    <glyph glyph-name="five.TOSF" horiz-adv-x="568" 
d="M14 -20h68q1 -55 36.5 -93.5t106.5 -38.5q62 0 109.5 34.5t66.5 93.5q12 33 12 72q0 61 -38 97t-96 36q-90 0 -161 -80l-63 3l84 384h381l-9 -62h-319l-57 -245h3q59 59 156 59q84 0 137 -50t53 -136q0 -37 -12 -78q-23 -86 -92.5 -136.5t-158.5 -50.5q-94 0 -150 50.5
t-57 140.5z" />
    <glyph glyph-name="six.TOSF" horiz-adv-x="568" 
d="M53 218q0 56 6 99q27 185 111 283.5t202 98.5q88 0 137 -46.5t45 -136.5h-68q3 60 -30 92t-91 32q-86 0 -147.5 -82.5t-86.5 -234.5q24 52 79 84.5t122 32.5q86 0 138 -50.5t52 -134.5q0 -44 -13 -88q-25 -81 -94 -129.5t-158 -48.5q-93 0 -148.5 55.5t-55.5 173.5z
M126 180q0 -59 38 -95.5t99 -36.5q57 0 103.5 32.5t68.5 86.5q16 38 16 82q0 60 -36.5 96t-96.5 36q-79 0 -135.5 -56.5t-56.5 -144.5z" />
    <glyph glyph-name="seven.TOSF" horiz-adv-x="568" 
d="M75 -200l393 626h-386l9 62h466l-9 -49l-399 -639h-74z" />
    <glyph glyph-name="eight.TOSF" horiz-adv-x="568" 
d="M31 159q0 71 50.5 126t125.5 72v4q-41 12 -66 48.5t-25 85.5q0 87 69.5 145.5t167.5 58.5q86 0 135.5 -44t49.5 -120q0 -60 -42.5 -110t-101.5 -65v-3q52 -12 83.5 -51.5t31.5 -93.5q0 -101 -78 -162t-191 -61q-96 0 -152.5 46.5t-56.5 123.5zM99 165q0 -53 41 -85
t106 -32q80 0 137.5 44t57.5 117q0 53 -40.5 85.5t-106.5 32.5q-81 0 -138 -44.5t-57 -117.5zM307 385q70 0 118 42t48 105q0 51 -34.5 81t-91.5 30q-68 0 -117 -41t-49 -107q0 -49 33.5 -79.5t92.5 -30.5z" />
    <glyph glyph-name="nine.TOSF" horiz-adv-x="568" 
d="M11 -28h67q-3 -60 30 -92t91 -32q86 0 147 81.5t86 232.5q-25 -52 -79 -83t-121 -31q-86 0 -138 50.5t-52 134.5q0 46 14 88q25 81 93.5 129.5t157.5 48.5q93 0 148.5 -55.5t55.5 -173.5q0 -63 -5 -99q-28 -185 -111.5 -283.5t-201.5 -98.5q-88 0 -137 46.5t-45 136.5z
M438 308q0 57 -37 94.5t-100 37.5q-57 0 -103.5 -32.5t-68.5 -86.5q-16 -38 -16 -82q0 -60 37 -96t97 -36q78 0 134.5 56.5t56.5 144.5z" />
    <glyph glyph-name="slashedzero.TOSF" horiz-adv-x="568" 
d="M39 191q0 131 83.5 219.5t198.5 88.5q94 0 147.5 -54.5t53.5 -147.5q0 -131 -83.5 -219.5t-198.5 -88.5q-94 0 -147.5 54.5t-53.5 147.5zM110 197q0 -50 20 -85l271 300q-36 28 -86 28q-83 0 -144 -69.5t-61 -173.5zM451 291q0 49 -20 84l-271 -300q34 -27 86 -27
q83 0 144 69.5t61 173.5z" />
    <glyph glyph-name="zero.oldstyle" horiz-adv-x="574" 
d="M33 195q0 130 86.5 217t204.5 87q97 0 153.5 -56t56.5 -150q0 -130 -86.5 -217t-204.5 -87q-97 0 -153.5 56t-56.5 150zM104 201q0 -70 39.5 -111.5t105.5 -41.5q85 0 149.5 68t64.5 171q0 70 -39.5 111.5t-105.5 41.5q-85 0 -149.5 -68t-64.5 -171z" />
    <glyph glyph-name="one.oldstyle" horiz-adv-x="326" 
d="M55 315l-27 53l198 120h52l-84 -488h-68l69 399z" />
    <glyph glyph-name="two.oldstyle" horiz-adv-x="481" 
d="M-1 0q15 92 66 144.5t129 81.5l74 28q29 11 44.5 18t36 20t30 30t9.5 39q0 33 -29.5 57.5t-86.5 24.5q-131 0 -162 -122h-62q18 91 79.5 134.5t147.5 43.5q83 0 132 -35.5t49 -96.5q0 -18 -3 -34t-11 -29l-14 -23t-20.5 -20.5t-21.5 -16t-25 -14l-23.5 -11t-26 -10
t-22.5 -8.5l-71 -28q-49 -19 -85 -48t-42 -66h320l-9 -59h-403z" />
    <glyph glyph-name="three.oldstyle" horiz-adv-x="514" 
d="M-23 5h65q-13 -73 23.5 -115t112.5 -42q78 0 132 44t54 118q0 53 -39 85t-100 32h-47l12 58h48q63 0 110.5 41.5t47.5 106.5q0 50 -33.5 78.5t-85.5 28.5q-62 0 -106 -34.5t-54 -103.5h-65q15 92 78.5 144.5t155.5 52.5q78 0 126.5 -43.5t48.5 -113.5q0 -65 -41.5 -116
t-97.5 -65v-4q49 -11 79.5 -50t30.5 -94q0 -102 -73 -163t-184 -61q-107 0 -160.5 56t-37.5 160z" />
    <glyph glyph-name="four.oldstyle" horiz-adv-x="528" 
d="M-26 0l9 49l402 440h55l-73 -430h103l-9 -59h-104l-33 -200h-68l33 200h-315zM62 59h237l53 315z" />
    <glyph glyph-name="five.oldstyle" horiz-adv-x="499" 
d="M-10 -20h68q0 -55 34 -93.5t103 -38.5q75 0 126.5 57.5t51.5 144.5q0 60 -34.5 95.5t-91.5 35.5q-86 0 -149 -80l-62 3l86 384h358l-9 -62h-297l-58 -245h3q50 59 143 59q84 0 133 -49.5t49 -134.5q0 -116 -74.5 -191.5t-177.5 -75.5q-92 0 -147 50.5t-55 140.5z" />
    <glyph glyph-name="six.oldstyle" horiz-adv-x="538" 
d="M47 217q0 52 6 93q26 186 106 287.5t196 101.5q86 0 133.5 -46.5t43.5 -136.5h-68q4 61 -28 92.5t-87 31.5q-82 0 -139.5 -81.5t-82.5 -227.5q26 50 77 79.5t115 29.5q83 0 132 -49.5t49 -134.5q0 -116 -74.5 -191.5t-177.5 -75.5q-92 0 -146.5 55t-54.5 173zM119 179
q0 -62 37.5 -96.5t94.5 -34.5q76 0 127 57t51 145q0 60 -34.5 95.5t-90.5 35.5q-76 0 -130.5 -57.5t-54.5 -144.5z" />
    <glyph glyph-name="seven.oldstyle" horiz-adv-x="448" 
d="M-17 -200l400 626h-339l9 62h419l-9 -49l-406 -639h-74z" />
    <glyph glyph-name="eight.oldstyle" horiz-adv-x="530" 
d="M17 158q0 72 50 127.5t122 71.5v4q-38 12 -62.5 48.5t-24.5 84.5q0 87 68 146t165 59q83 0 131 -43.5t48 -118.5q0 -61 -41.5 -111t-98.5 -65v-4q50 -13 80.5 -51.5t30.5 -92.5q0 -101 -75.5 -162.5t-187.5 -61.5q-95 0 -150 45.5t-55 123.5zM85 164q0 -53 40 -84.5
t103 -31.5q79 0 134 44.5t55 117.5q0 53 -39.5 85t-102.5 32q-77 0 -133.5 -45t-56.5 -118zM288 385q66 0 113.5 42t47.5 107q0 49 -33.5 79t-86.5 30q-67 0 -114.5 -42t-47.5 -107q0 -49 34 -79t87 -30z" />
    <glyph glyph-name="nine.oldstyle" horiz-adv-x="538" 
d="M1 -28h68q-4 -61 27.5 -92.5t87.5 -31.5q83 0 138 80t80 228q-26 -50 -76.5 -79t-114.5 -29q-83 0 -132 49.5t-49 134.5q0 116 74.5 191.5t177.5 75.5q92 0 146.5 -55t54.5 -173q0 -52 -6 -93q-26 -187 -104 -288t-195 -101q-87 0 -134 46t-43 137zM410 309
q0 56 -35 93.5t-96 37.5q-76 0 -127 -57t-51 -145q0 -60 34.5 -95.5t90.5 -35.5q76 0 130 57.5t54 144.5z" />
    <glyph glyph-name="slashedzero.oldstyle" horiz-adv-x="574" 
d="M33 195q0 130 86.5 217t204.5 87q97 0 153.5 -56t56.5 -150q0 -130 -86.5 -217t-204.5 -87q-97 0 -153.5 56t-56.5 150zM104 201q0 -57 25 -94l276 307q-35 26 -87 26q-85 0 -149.5 -68t-64.5 -171zM463 287q0 54 -25 93l-276 -307q36 -25 87 -25q85 0 149.5 68t64.5 171
z" />
    <glyph glyph-name="percent.sc" horiz-adv-x="578" 
d="M73 -8l387 536h45l-390 -536h-42zM135 251q-47 0 -71.5 26t-24.5 71q0 12 4 40q11 63 43.5 100t86.5 37q47 0 71.5 -26t24.5 -71q0 -12 -4 -40q-11 -63 -43.5 -100t-86.5 -37zM170 484q-59 0 -76 -96q-4 -26 -4 -37q0 -59 48 -59q59 0 76 96q4 26 4 37q0 59 -48 59z
M401 -9q-47 0 -71 26t-24 71q0 12 4 40q11 63 43.5 100t86.5 37q47 0 71 -26t24 -71q0 -12 -4 -40q-11 -63 -43.5 -100t-86.5 -37zM437 224q-60 0 -77 -96q-4 -26 -4 -37q0 -59 48 -59q60 0 77 96q4 26 4 37q0 59 -48 59z" />
    <glyph glyph-name="perthousand.sc" horiz-adv-x="849" 
d="M73 -8l387 536h45l-390 -536h-42zM135 251q-47 0 -71.5 26t-24.5 71q0 12 4 40q11 63 43.5 100t86.5 37q47 0 71.5 -26t24.5 -71q0 -12 -4 -40q-11 -63 -43.5 -100t-86.5 -37zM170 484q-59 0 -76 -96q-4 -26 -4 -37q0 -59 48 -59q59 0 76 96q4 26 4 37q0 59 -48 59z
M401 -9q-47 0 -71 26t-24 71q0 12 4 40q11 63 43.5 100t86.5 37q47 0 71 -26t24 -71q0 -12 -4 -40q-11 -63 -43.5 -100t-86.5 -37zM437 224q-60 0 -77 -96q-4 -26 -4 -37q0 -59 48 -59q60 0 77 96q4 26 4 37q0 59 -48 59zM673 -9q-47 0 -71.5 26t-24.5 71q0 12 4 40
q11 63 43.5 100t86.5 37q47 0 71.5 -26t24.5 -71q0 -12 -4 -40q-11 -63 -43.5 -100t-86.5 -37zM708 224q-59 0 -76 -96q-4 -26 -4 -37q0 -59 48 -59q59 0 76 96q4 26 4 37q0 59 -48 59z" />
    <glyph glyph-name="a.inferior" horiz-adv-x="421" 
d="M247 -152l10 60h-4q-43 -67 -125 -67q-57 0 -93.5 38.5t-36.5 102.5q0 98 55 157.5t128 59.5q40 0 69.5 -19.5t39.5 -52.5h3l12 65h60l-59 -344h-59zM63 -15q0 -44 22.5 -69t60.5 -25q51 0 89 47t38 116q0 45 -22.5 70t-60.5 25q-51 0 -89 -46.5t-38 -117.5z" />
    <glyph glyph-name="b.inferior" horiz-adv-x="421" 
d="M-6 -152l88 516h62l-17 -105q-14 -78 -27 -127h3q46 67 126 67q57 0 93.5 -38.5t36.5 -102.5q0 -98 -55 -157.5t-128 -59.5q-41 0 -70.5 19.5t-39.5 52.5h-2l-12 -65h-58zM84 -14q0 -45 22.5 -70t60.5 -25q51 0 89 46.5t38 117.5q0 44 -22.5 69t-60.5 25q-51 0 -89 -47.5
t-38 -115.5z" />
    <glyph glyph-name="c.inferior" horiz-adv-x="382" 
d="M-2 -17q0 91 56 153.5t142 62.5q56 0 96 -32t39 -93h-62q0 32 -20.5 53.5t-57.5 21.5q-45 0 -77.5 -31.5t-43.5 -80.5q-7 -30 -7 -52q0 -43 22 -68.5t61 -25.5q77 0 102 72h62q-15 -55 -59.5 -88.5t-110.5 -33.5q-69 0 -105.5 38t-36.5 104z" />
    <glyph glyph-name="d.inferior" horiz-adv-x="421" 
d="M-2 -18q0 98 55 157.5t128 59.5q40 0 69.5 -19.5t39.5 -52.5h3q3 32 19 124l20 113h62l-88 -516h-59l10 60h-4q-43 -67 -125 -67q-57 0 -93.5 38.5t-36.5 102.5zM63 -15q0 -44 22.5 -69t60.5 -25q51 0 89 47t38 116q0 45 -22.5 70t-60.5 25q-51 0 -89 -46.5t-38 -117.5z
" />
    <glyph glyph-name="e.inferior" horiz-adv-x="390" 
d="M-2 -19q0 24 5 51q15 74 67.5 120.5t120.5 46.5q73 0 110 -47.5t25 -118.5l-3 -19h-259q-1 -11 -1 -33q0 -90 85 -90q75 0 99 61h59q-14 -51 -58 -81t-106 -30q-67 0 -105.5 37.5t-38.5 102.5zM185 149q-39 0 -68.5 -25t-43.5 -70h193q3 41 -16 68t-65 27z" />
    <glyph glyph-name="f.inferior" horiz-adv-x="240" 
d="M-4 142l9 50h67l10 54q10 61 43 89.5t92 28.5h55l-9 -53h-46q-33 0 -49.5 -16t-23.5 -52l-9 -51h97l-9 -50h-97l-50 -294h-62l50 294h-68z" />
    <glyph glyph-name="g.inferior" horiz-adv-x="421" 
d="M-23 -195h56q-4 -34 19 -52t66 -18q55 0 87 29t44 98l8 46h-4q-43 -67 -125 -67q-57 0 -93.5 38.5t-36.5 102.5q0 98 55 157.5t128 59.5q40 0 69.5 -19.5t39.5 -52.5h3l12 65h61l-57 -330q-29 -174 -191 -174q-66 0 -106.5 28t-34.5 89zM63 -15q0 -44 22.5 -69t60.5 -25
q51 0 89 47t38 116q0 45 -22.5 70t-60.5 25q-51 0 -89 -46.5t-38 -117.5z" />
    <glyph glyph-name="h.inferior" horiz-adv-x="406" 
d="M-5 -152l88 516h62l-17 -100q-14 -82 -25 -123h2q40 58 111 58q61 0 92.5 -36t18.5 -116l-32 -199h-62l32 199q17 102 -66 102q-40 0 -71 -33t-41 -89l-30 -179h-62z" />
    <glyph glyph-name="i.inferior" horiz-adv-x="166" 
d="M68 289l12 75h65l-12 -75h-65zM-5 -152l57 344h62l-57 -344h-62z" />
    <glyph glyph-name="j.inferior" horiz-adv-x="166" 
d="M68 289l12 75h65l-12 -75h-65zM-15 -202l67 394h62l-67 -397q-16 -103 -118 -103h-26l9 53h20q44 0 53 53z" />
    <glyph glyph-name="k.inferior" horiz-adv-x="365" 
d="M-5 -152l88 516h62l-58 -341l185 169h71l-152 -138l109 -206h-68l-87 164l-71 -65l-17 -99h-62z" />
    <glyph glyph-name="l.inferior" horiz-adv-x="172" 
d="M-5 -152l88 516h62l-88 -516h-62z" />
    <glyph glyph-name="m.inferior" horiz-adv-x="624" 
d="M-5 -152l59 344h59l-9 -49h2q38 56 105 56q88 0 107 -70q45 70 122 70q58 0 89.5 -36t18.5 -116l-33 -199h-62l33 199q17 102 -62 102q-38 0 -68 -33t-40 -89l-29 -179h-62l32 199q17 102 -62 102q-37 0 -68 -32t-41 -92l-29 -177h-62z" />
    <glyph glyph-name="n.inferior" horiz-adv-x="406" 
d="M-5 -152l59 344h59l-9 -49h2q38 56 110 56q60 0 92 -37t19 -115l-32 -199h-62l32 199q17 102 -66 102q-40 0 -71.5 -32.5t-41.5 -93.5l-29 -175h-62z" />
    <glyph glyph-name="o.inferior" horiz-adv-x="409" 
d="M-2 -18q0 96 59 156.5t143 60.5q67 0 106.5 -38t39.5 -103q0 -96 -59 -156.5t-143 -60.5q-67 0 -106.5 38t-39.5 103zM63 -15q0 -44 22.5 -69t64.5 -25q54 0 92.5 47t38.5 117q0 44 -22.5 69t-64.5 25q-54 0 -92.5 -47t-38.5 -117z" />
    <glyph glyph-name="p.inferior" horiz-adv-x="421" 
d="M46 -208l-17 -100h-62l84 500h59l-10 -60h3q46 67 126 67q57 0 93.5 -38.5t36.5 -102.5q0 -98 -55 -157.5t-128 -59.5q-41 0 -70.5 19.5t-39.5 52.5h-2q-3 -31 -18 -121zM84 -14q0 -45 22.5 -70t60.5 -25q51 0 89 46.5t38 117.5q0 44 -22.5 69t-60.5 25q-51 0 -89 -47.5
t-38 -115.5z" />
    <glyph glyph-name="q.inferior" horiz-adv-x="421" 
d="M216 -308l17 95q12 71 24 121h-4q-43 -67 -125 -67q-57 0 -93.5 38.5t-36.5 102.5q0 98 55 157.5t128 59.5q43 0 73 -20t37 -55h2l14 68h59l-88 -500h-62zM63 -15q0 -44 22.5 -69t60.5 -25q51 0 89 47t38 116q0 45 -22.5 70t-60.5 25q-51 0 -89 -46.5t-38 -117.5z" />
    <glyph glyph-name="r.inferior" horiz-adv-x="264" 
d="M-5 -152l56 344h59l-9 -58h2q38 65 100 65q35 0 51 -14l-22 -58q-20 14 -45 14q-38 0 -66 -34t-37 -89l-27 -170h-62z" />
    <glyph glyph-name="s.inferior" horiz-adv-x="366" 
d="M-9 -50h59q-2 -34 21.5 -49.5t60.5 -15.5q41 0 65.5 15t24.5 44q0 41 -55 51l-64 12q-35 6 -56.5 26t-21.5 52q0 54 40 84t107 30q57 0 95 -26t36 -79h-58q1 31 -19.5 46t-58.5 15q-35 0 -59 -15t-24 -41q0 -14 9 -23.5t18 -13t25 -6.5l64 -11q37 -7 60.5 -29.5
t23.5 -59.5q0 -58 -44 -86.5t-111 -28.5q-27 0 -50.5 5t-45.5 17t-33 34t-9 53z" />
    <glyph glyph-name="t.inferior" horiz-adv-x="247" 
d="M-8 142l9 50h67l18 104h62l-18 -104h98l-10 -50h-97l-31 -181q-5 -32 4.5 -46t37.5 -14h45l-9 -53h-51q-58 0 -78.5 24.5t-10.5 82.5l32 187h-68z" />
    <glyph glyph-name="u.inferior" horiz-adv-x="406" 
d="M128 -159q-60 0 -92 36t-19 116l33 199h62l-33 -199q-17 -102 66 -102q40 0 71 33t41 89l31 179h62l-60 -344h-59l9 48h-3q-38 -55 -109 -55z" />
    <glyph glyph-name="v.inferior" horiz-adv-x="346" 
d="M77 -152l-70 344h67l51 -281l148 281h65l-187 -344h-74z" />
    <glyph glyph-name="w.inferior" horiz-adv-x="527" 
d="M51 -152l-46 344h62l33 -283l132 283h65l33 -282l131 282h59l-165 -344h-68l-36 278l-129 -278h-71z" />
    <glyph glyph-name="x.inferior" horiz-adv-x="325" 
d="M-54 -152l151 174l-92 170h68l66 -122l107 122h68l-150 -170l94 -174h-65l-70 127l-111 -127h-66z" />
    <glyph glyph-name="y.inferior" horiz-adv-x="346" 
d="M-42 -255h17q63 0 98 65l9 18l-75 364h68l51 -281l148 281h65l-216 -398q-56 -102 -145 -102h-29z" />
    <glyph glyph-name="z.inferior" horiz-adv-x="324" 
d="M15 142l6 50h271l-6 -37l-234 -257h194l-6 -50h-275l6 34l236 260h-192z" />
    <glyph glyph-name="dollar.inferior" 
d="M-9 -53h56q-2 -27 19 -44.5t61 -17.5q34 0 59.5 15.5t25.5 44.5q0 24 -20 35.5t-59 20.5l-16 4q-43 11 -67 29t-24 55q0 45 33 75t88 34l10 54h50l-10 -56q39 -7 64.5 -30t26.5 -62h-56q-1 25 -20.5 38t-50.5 13q-33 0 -56 -15t-23 -42q0 -15 11.5 -25.5t24 -15
t37.5 -10.5l16 -4q30 -7 49 -15t35 -27t16 -47q0 -47 -35.5 -77.5t-94.5 -35.5l-10 -61h-50l11 62q-44 7 -73 34t-28 71z" />
    <glyph glyph-name="cent.inferior" 
d="M6 -4q0 63 39 105t104 49l9 49h51l-10 -51q83 -17 86 -90h-59q-1 19 -17 34t-45 15q-42 0 -69 -29.5t-27 -75.5q0 -31 19 -50t52 -19q28 0 47.5 14.5t27.5 34.5h59q-10 -35 -41 -61t-77 -31l-8 -49h-51l8 50q-47 7 -72.5 35t-25.5 70z" />
    <glyph glyph-name="euro.inferior" 
d="M-3 40l9 27h28q20 60 62 96t101 36q55 0 83 -28t30 -75h-56q-5 56 -59 56q-33 0 -60 -22.5t-42 -62.5h121l-9 -27h-120q-4 -20 -7 -39h104l-10 -27h-94v-2q0 -85 70 -85q54 0 80 54h56q-40 -101 -141 -101q-62 0 -93 34.5t-31 94.5v5h-44l9 27h36q1 4 2 12t2 14.5l2 12.5
h-29z" />
    <glyph glyph-name="plus.inferior" 
d="M9 -2l8 48h107l18 106h50l-18 -106h107l-8 -48h-108l-18 -107h-50l18 107h-106z" />
    <glyph glyph-name="minus.inferior" 
d="M9 -2l8 48h264l-8 -48h-264z" />
    <glyph glyph-name="equal.inferior" 
d="M19 55l7 47h264l-7 -47h-264zM-1 -59l8 47h264l-8 -47h-264z" />
    <glyph glyph-name="comma.inferior" horiz-adv-x="172" 
d="M-9 -152l15 83h67l-14 -80l-46 -111h-34l40 108h-28z" />
    <glyph glyph-name="period.inferior" horiz-adv-x="172" 
d="M-9 -152l15 83h67l-14 -83h-68z" />
    <glyph glyph-name="hyphen.inferior" horiz-adv-x="276" 
d="M2 -5l9 53h201l-9 -53h-201z" />
    <glyph glyph-name="parenleft.inferior" horiz-adv-x="204" 
d="M65 -224q-42 69 -42 179q0 90 38.5 175t87.5 134h55q-45 -46 -84.5 -134.5t-39.5 -174.5q0 -116 40 -179h-55z" />
    <glyph glyph-name="parenright.inferior" horiz-adv-x="204" 
d="M-9 -224h-55q45 46 84.5 134.5t39.5 174.5q0 115 -41 179h56q41 -67 41 -179q0 -91 -38 -175.5t-87 -133.5z" />
    <glyph glyph-name="a.denominator" horiz-adv-x="421" 
d="M263 0l10 60h-4q-43 -67 -125 -67q-57 0 -93.5 38.5t-36.5 102.5q0 98 55 157.5t128 59.5q40 0 69.5 -19.5t39.5 -52.5h3l12 65h60l-59 -344h-59zM79 137q0 -44 22.5 -69t60.5 -25q51 0 89 47t38 116q0 45 -22.5 70t-60.5 25q-51 0 -89 -46.5t-38 -117.5z" />
    <glyph glyph-name="b.denominator" horiz-adv-x="421" 
d="M10 0l88 516h62l-17 -105q-14 -78 -27 -127h3q46 67 126 67q57 0 93.5 -38.5t36.5 -102.5q0 -98 -55 -157.5t-128 -59.5q-41 0 -70.5 19.5t-39.5 52.5h-2l-12 -65h-58zM100 138q0 -45 22.5 -70t60.5 -25q51 0 89 46.5t38 117.5q0 44 -22.5 69t-60.5 25q-51 0 -89 -47.5
t-38 -115.5z" />
    <glyph glyph-name="c.denominator" horiz-adv-x="382" 
d="M14 135q0 91 56 153.5t142 62.5q56 0 96 -32t39 -93h-62q0 32 -20.5 53.5t-57.5 21.5q-45 0 -77.5 -31.5t-43.5 -80.5q-7 -30 -7 -52q0 -43 22 -68.5t61 -25.5q77 0 102 72h62q-15 -55 -59.5 -88.5t-110.5 -33.5q-69 0 -105.5 38t-36.5 104z" />
    <glyph glyph-name="d.denominator" horiz-adv-x="421" 
d="M14 134q0 98 55 157.5t128 59.5q40 0 69.5 -19.5t39.5 -52.5h3q3 32 19 124l20 113h62l-88 -516h-59l10 60h-4q-43 -67 -125 -67q-57 0 -93.5 38.5t-36.5 102.5zM79 137q0 -44 22.5 -69t60.5 -25q51 0 89 47t38 116q0 45 -22.5 70t-60.5 25q-51 0 -89 -46.5t-38 -117.5z
" />
    <glyph glyph-name="e.denominator" horiz-adv-x="390" 
d="M14 133q0 24 5 51q15 74 67.5 120.5t120.5 46.5q73 0 110 -47.5t25 -118.5l-3 -19h-259q-1 -11 -1 -33q0 -90 85 -90q75 0 99 61h59q-14 -51 -58 -81t-106 -30q-67 0 -105.5 37.5t-38.5 102.5zM201 301q-39 0 -68.5 -25t-43.5 -70h193q3 41 -16 68t-65 27z" />
    <glyph glyph-name="f.denominator" horiz-adv-x="240" 
d="M12 294l9 50h67l10 54q10 61 43 89.5t92 28.5h55l-9 -53h-46q-33 0 -49.5 -16t-23.5 -52l-9 -51h97l-9 -50h-97l-50 -294h-62l50 294h-68z" />
    <glyph glyph-name="g.denominator" horiz-adv-x="421" 
d="M-7 -43h56q-4 -34 19 -52t66 -18q55 0 87 29t44 98l8 46h-4q-43 -67 -125 -67q-57 0 -93.5 38.5t-36.5 102.5q0 98 55 157.5t128 59.5q40 0 69.5 -19.5t39.5 -52.5h3l12 65h61l-57 -330q-29 -174 -191 -174q-66 0 -106.5 28t-34.5 89zM79 137q0 -44 22.5 -69t60.5 -25
q51 0 89 47t38 116q0 45 -22.5 70t-60.5 25q-51 0 -89 -46.5t-38 -117.5z" />
    <glyph glyph-name="h.denominator" horiz-adv-x="406" 
d="M11 0l88 516h62l-17 -100q-14 -82 -25 -123h2q40 58 111 58q61 0 92.5 -36t18.5 -116l-32 -199h-62l32 199q17 102 -66 102q-40 0 -71 -33t-41 -89l-30 -179h-62z" />
    <glyph glyph-name="i.denominator" horiz-adv-x="166" 
d="M84 441l12 75h65l-12 -75h-65zM11 0l57 344h62l-57 -344h-62z" />
    <glyph glyph-name="j.denominator" horiz-adv-x="166" 
d="M84 441l12 75h65l-12 -75h-65zM1 -50l67 394h62l-67 -397q-16 -103 -118 -103h-26l9 53h20q44 0 53 53z" />
    <glyph glyph-name="k.denominator" horiz-adv-x="365" 
d="M11 0l88 516h62l-58 -341l185 169h71l-152 -138l109 -206h-68l-87 164l-71 -65l-17 -99h-62z" />
    <glyph glyph-name="l.denominator" horiz-adv-x="172" 
d="M11 0l88 516h62l-88 -516h-62z" />
    <glyph glyph-name="m.denominator" horiz-adv-x="624" 
d="M11 0l59 344h59l-9 -49h2q38 56 105 56q88 0 107 -70q45 70 122 70q58 0 89.5 -36t18.5 -116l-33 -199h-62l33 199q17 102 -62 102q-38 0 -68 -33t-40 -89l-29 -179h-62l32 199q17 102 -62 102q-37 0 -68 -32t-41 -92l-29 -177h-62z" />
    <glyph glyph-name="n.denominator" horiz-adv-x="406" 
d="M11 0l59 344h59l-9 -49h2q38 56 110 56q60 0 92 -37t19 -115l-32 -199h-62l32 199q17 102 -66 102q-40 0 -71.5 -32.5t-41.5 -93.5l-29 -175h-62z" />
    <glyph glyph-name="o.denominator" horiz-adv-x="409" 
d="M14 134q0 96 59 156.5t143 60.5q67 0 106.5 -38t39.5 -103q0 -96 -59 -156.5t-143 -60.5q-67 0 -106.5 38t-39.5 103zM79 137q0 -44 22.5 -69t64.5 -25q54 0 92.5 47t38.5 117q0 44 -22.5 69t-64.5 25q-54 0 -92.5 -47t-38.5 -117z" />
    <glyph glyph-name="p.denominator" horiz-adv-x="421" 
d="M62 -56l-17 -100h-62l84 500h59l-10 -60h3q46 67 126 67q57 0 93.5 -38.5t36.5 -102.5q0 -98 -55 -157.5t-128 -59.5q-41 0 -70.5 19.5t-39.5 52.5h-2q-3 -31 -18 -121zM100 138q0 -45 22.5 -70t60.5 -25q51 0 89 46.5t38 117.5q0 44 -22.5 69t-60.5 25q-51 0 -89 -47.5
t-38 -115.5z" />
    <glyph glyph-name="q.denominator" horiz-adv-x="421" 
d="M232 -156l17 95q12 71 24 121h-4q-43 -67 -125 -67q-57 0 -93.5 38.5t-36.5 102.5q0 98 55 157.5t128 59.5q43 0 73 -20t37 -55h2l14 68h59l-88 -500h-62zM79 137q0 -44 22.5 -69t60.5 -25q51 0 89 47t38 116q0 45 -22.5 70t-60.5 25q-51 0 -89 -46.5t-38 -117.5z" />
    <glyph glyph-name="r.denominator" horiz-adv-x="264" 
d="M11 0l56 344h59l-9 -58h2q38 65 100 65q35 0 51 -14l-22 -58q-20 14 -45 14q-38 0 -66 -34t-37 -89l-27 -170h-62z" />
    <glyph glyph-name="s.denominator" horiz-adv-x="366" 
d="M7 102h59q-2 -34 21.5 -49.5t60.5 -15.5q41 0 65.5 15t24.5 44q0 41 -55 51l-64 12q-35 6 -56.5 26t-21.5 52q0 54 40 84t107 30q57 0 95 -26t36 -79h-58q1 31 -19.5 46t-58.5 15q-35 0 -59 -15t-24 -41q0 -14 9 -23.5t18 -13t25 -6.5l64 -11q37 -7 60.5 -29.5
t23.5 -59.5q0 -58 -44 -86.5t-111 -28.5q-27 0 -50.5 5t-45.5 17t-33 34t-9 53z" />
    <glyph glyph-name="t.denominator" horiz-adv-x="247" 
d="M8 294l9 50h67l18 104h62l-18 -104h98l-10 -50h-97l-31 -181q-5 -32 4.5 -46t37.5 -14h45l-9 -53h-51q-58 0 -78.5 24.5t-10.5 82.5l32 187h-68z" />
    <glyph glyph-name="u.denominator" horiz-adv-x="406" 
d="M144 -7q-60 0 -92 36t-19 116l33 199h62l-33 -199q-17 -102 66 -102q40 0 71 33t41 89l31 179h62l-60 -344h-59l9 48h-3q-38 -55 -109 -55z" />
    <glyph glyph-name="v.denominator" horiz-adv-x="346" 
d="M93 0l-70 344h67l51 -281l148 281h65l-187 -344h-74z" />
    <glyph glyph-name="w.denominator" horiz-adv-x="527" 
d="M67 0l-46 344h62l33 -283l132 283h65l33 -282l131 282h59l-165 -344h-68l-36 278l-129 -278h-71z" />
    <glyph glyph-name="x.denominator" horiz-adv-x="325" 
d="M-38 0l151 174l-92 170h68l66 -122l107 122h68l-150 -170l94 -174h-65l-70 127l-111 -127h-66z" />
    <glyph glyph-name="y.denominator" horiz-adv-x="346" 
d="M-26 -103h17q63 0 98 65l9 18l-75 364h68l51 -281l148 281h65l-216 -398q-56 -102 -145 -102h-29z" />
    <glyph glyph-name="z.denominator" horiz-adv-x="324" 
d="M31 294l6 50h271l-6 -37l-234 -257h194l-6 -50h-275l6 34l236 260h-192z" />
    <glyph glyph-name="zero.denominator" 
d="M131 -8q-59 0 -89.5 35.5t-30.5 95.5q0 23 5 51q14 79 58.5 128.5t114.5 49.5q59 0 89 -35.5t30 -95.5q0 -28 -4 -51q-14 -79 -58.5 -128.5t-114.5 -49.5zM137 39q41 0 69 34.5t39 96.5q4 23 4 48q0 87 -66 87q-42 0 -69.5 -34.5t-38.5 -96.5q-5 -28 -5 -49q0 -86 67 -86
z" />
    <glyph glyph-name="one.denominator" 
d="M66 220l-19 43l148 81h38l-49 -294h96l-6 -50h-263l6 50h108l37 220z" />
    <glyph glyph-name="two.denominator" 
d="M-6 0q11 65 45 99.5t92 62.5l30 14q60 30 74 47q12 14 12 32q0 22 -18 35.5t-49 13.5q-35 0 -59 -19.5t-32 -56.5h-53q12 63 52.5 93t96.5 30q53 0 85.5 -24.5t32.5 -65.5q0 -14 -3.5 -26t-7 -20.5t-13.5 -18.5l-15 -15t-20 -13.5l-19.5 -11t-22.5 -11l-22 -10.5l-31 -15
q-74 -35 -80 -70h204l-6 -50h-273z" />
    <glyph glyph-name="three.denominator" 
d="M8 102h56q-5 -35 16.5 -50t58.5 -15q40 0 66.5 18t26.5 52q0 25 -20.5 38t-54.5 13h-28l6 41h28q37 0 61 16t24 46q0 22 -18.5 34t-49.5 12q-75 0 -82 -62h-53q4 49 42 78t98 29q55 0 88.5 -24t33.5 -61q0 -32 -21 -55.5t-55 -31.5v-3q28 -6 44 -24.5t16 -45.5
q0 -54 -43 -84.5t-115 -30.5q-60 0 -97.5 27t-27.5 83z" />
    <glyph glyph-name="four.denominator" 
d="M-4 73l6 38l230 234h50l-37 -225h52l-8 -47h-52l-12 -73h-59l12 73h-182zM67 120h119l25 147z" />
    <glyph glyph-name="five.denominator" 
d="M25 91h55q2 -54 67 -54q27 0 49 14t31 39q6 14 6 31q0 29 -18.5 44t-47.5 15q-43 0 -72 -38l-59 3l44 199h228l-6 -50h-177l-25 -100h2q28 30 82 30q48 0 78 -25.5t30 -71.5q0 -62 -43.5 -98.5t-105.5 -36.5q-52 0 -85 26t-33 73z" />
    <glyph glyph-name="six.denominator" 
d="M17 112q0 25 6 61q30 179 174 179q47 0 76 -24.5t29 -73.5h-56q0 53 -55 53q-82 0 -107 -127q32 44 97 44q48 0 78 -25.5t30 -71.5q0 -63 -43.5 -99t-106.5 -36q-58 0 -90 31.5t-32 88.5zM78 95q0 -29 18 -43.5t48 -14.5q27 0 49.5 14.5t31.5 39.5q5 15 5 30
q0 29 -18.5 44t-46.5 15q-35 0 -61 -24t-26 -61z" />
    <glyph glyph-name="seven.denominator" 
d="M44 0l204 291h-208l9 53h280l-6 -37l-213 -307h-66z" />
    <glyph glyph-name="eight.denominator" 
d="M4 78q0 40 24 66t62 33v3q-48 12 -48 65q0 48 40.5 77.5t102.5 29.5q55 0 88.5 -24t33.5 -61q0 -32 -21 -55.5t-54 -31.5v-3q27 -5 43 -24t16 -46q0 -54 -44.5 -84.5t-115.5 -30.5q-59 0 -93 23.5t-34 62.5zM63 87q0 -50 74 -50q41 0 68 18t27 52q0 25 -20.5 38t-54.5 13
q-38 0 -66 -18t-28 -53zM163 199q37 0 61 16t24 46q0 22 -18 34t-47 12q-37 0 -61 -16t-24 -46q0 -22 17.5 -34t47.5 -12z" />
    <glyph glyph-name="nine.denominator" 
d="M18 90h56q0 -53 55 -53q82 0 107 126q-31 -43 -97 -43q-48 0 -78 25.5t-30 71.5q0 63 43.5 99t106.5 36q58 0 90 -31.5t32 -88.5q0 -25 -6 -61q-30 -179 -174 -179q-47 0 -76 24.5t-29 73.5zM242 249q0 27 -17.5 42.5t-48.5 15.5q-27 0 -49.5 -14.5t-31.5 -39.5
q-5 -15 -5 -30q0 -29 18.5 -44t46.5 -15q35 0 61 24t26 61z" />
    <glyph glyph-name="dollar.denominator" 
d="M7 99h56q-2 -27 19 -44.5t61 -17.5q34 0 59.5 15.5t25.5 44.5q0 24 -20 35.5t-59 20.5l-16 4q-43 11 -67 29t-24 55q0 45 33 75t88 34l10 54h50l-10 -56q39 -7 64.5 -30t26.5 -62h-56q-1 25 -20.5 38t-50.5 13q-33 0 -56 -15t-23 -42q0 -15 11.5 -25.5t24 -15t37.5 -10.5
l16 -4q30 -7 49 -15t35 -27t16 -47q0 -48 -35.5 -78t-94.5 -35l-10 -61h-50l11 62q-45 7 -74 33.5t-27 71.5z" />
    <glyph glyph-name="cent.denominator" 
d="M22 148q0 63 39 105t104 49l9 49h51l-10 -51q83 -17 86 -90h-59q-1 19 -17 34t-45 15q-42 0 -69 -29.5t-27 -75.5q0 -31 19 -50t52 -19q28 0 47.5 14.5t27.5 34.5h59q-10 -35 -41 -61t-77 -31l-8 -49h-51l8 50q-47 7 -72.5 35t-25.5 70z" />
    <glyph glyph-name="euro.denominator" 
d="M13 192l9 27h28q20 60 62 96t101 36q55 0 83 -28t30 -75h-56q-5 56 -59 56q-33 0 -60 -22.5t-42 -62.5h121l-9 -27h-120q-4 -20 -7 -39h104l-10 -27h-94v-2q0 -85 70 -85q54 0 80 54h56q-40 -101 -141 -101q-62 0 -93 34.5t-31 94.5v5h-44l9 27h36q1 4 2 12t2 14.5
l2 12.5h-29z" />
    <glyph glyph-name="plus.denominator" 
d="M25 150l8 48h107l18 106h50l-18 -106h107l-8 -48h-108l-18 -107h-50l18 107h-106z" />
    <glyph glyph-name="minus.denominator" 
d="M25 150l8 48h264l-8 -48h-264z" />
    <glyph glyph-name="equal.denominator" 
d="M35 207l7 47h264l-7 -47h-264zM15 93l8 47h264l-8 -47h-264z" />
    <glyph glyph-name="comma.denominator" horiz-adv-x="172" 
d="M7 0l15 83h67l-14 -80l-46 -111h-34l40 108h-28z" />
    <glyph glyph-name="period.denominator" horiz-adv-x="172" 
d="M7 0l15 83h67l-14 -83h-68z" />
    <glyph glyph-name="hyphen.denominator" horiz-adv-x="276" 
d="M18 147l9 53h201l-9 -53h-201z" />
    <glyph glyph-name="parenleft.denominator" horiz-adv-x="204" 
d="M81 -72q-42 69 -42 179q0 90 38.5 175t87.5 134h55q-45 -46 -84.5 -134.5t-39.5 -174.5q0 -116 40 -179h-55z" />
    <glyph glyph-name="parenright.denominator" horiz-adv-x="204" 
d="M7 -72h-55q45 46 84.5 134.5t39.5 174.5q0 115 -41 179h56q41 -67 41 -179q0 -91 -38 -175.5t-87 -133.5z" />
    <glyph glyph-name="a.numerator" horiz-adv-x="421" 
d="M319 344l10 60h-4q-43 -67 -125 -67q-57 0 -93.5 38.5t-36.5 102.5q0 98 55 157.5t128 59.5q40 0 69.5 -19.5t39.5 -52.5h3l12 65h60l-59 -344h-59zM135 481q0 -44 22.5 -69t60.5 -25q51 0 89 47t38 116q0 45 -22.5 70t-60.5 25q-51 0 -89 -46.5t-38 -117.5z" />
    <glyph glyph-name="b.numerator" horiz-adv-x="421" 
d="M66 344l88 516h62l-17 -105q-14 -78 -27 -127h3q46 67 126 67q57 0 93.5 -38.5t36.5 -102.5q0 -98 -55 -157.5t-128 -59.5q-41 0 -70.5 19.5t-39.5 52.5h-2l-12 -65h-58zM156 482q0 -45 22.5 -70t60.5 -25q51 0 89 46.5t38 117.5q0 44 -22.5 69t-60.5 25q-51 0 -89 -47.5
t-38 -115.5z" />
    <glyph glyph-name="c.numerator" horiz-adv-x="382" 
d="M70 479q0 91 56 153.5t142 62.5q56 0 96 -32t39 -93h-62q0 32 -20.5 53.5t-57.5 21.5q-45 0 -77.5 -31.5t-43.5 -80.5q-7 -30 -7 -52q0 -43 22 -68.5t61 -25.5q77 0 102 72h62q-15 -55 -59.5 -88.5t-110.5 -33.5q-69 0 -105.5 38t-36.5 104z" />
    <glyph glyph-name="d.numerator" horiz-adv-x="421" 
d="M70 478q0 98 55 157.5t128 59.5q40 0 69.5 -19.5t39.5 -52.5h3q3 32 19 124l20 113h62l-88 -516h-59l10 60h-4q-43 -67 -125 -67q-57 0 -93.5 38.5t-36.5 102.5zM135 481q0 -44 22.5 -69t60.5 -25q51 0 89 47t38 116q0 45 -22.5 70t-60.5 25q-51 0 -89 -46.5t-38 -117.5z
" />
    <glyph glyph-name="e.numerator" horiz-adv-x="390" 
d="M70 477q0 24 5 51q15 74 67.5 120.5t120.5 46.5q73 0 110 -47.5t25 -118.5l-3 -19h-259q-1 -11 -1 -33q0 -90 85 -90q75 0 99 61h59q-14 -51 -58 -81t-106 -30q-67 0 -105.5 37.5t-38.5 102.5zM257 645q-39 0 -68.5 -25t-43.5 -70h193q3 41 -16 68t-65 27z" />
    <glyph glyph-name="f.numerator" horiz-adv-x="240" 
d="M68 638l9 50h67l10 54q10 61 43 89.5t92 28.5h55l-9 -53h-46q-33 0 -49.5 -16t-23.5 -52l-9 -51h97l-9 -50h-97l-50 -294h-62l50 294h-68z" />
    <glyph glyph-name="g.numerator" horiz-adv-x="421" 
d="M49 301h56q-4 -34 19 -52t66 -18q55 0 87 29t44 98l8 46h-4q-43 -67 -125 -67q-57 0 -93.5 38.5t-36.5 102.5q0 98 55 157.5t128 59.5q40 0 69.5 -19.5t39.5 -52.5h3l12 65h61l-57 -330q-29 -174 -191 -174q-66 0 -106.5 28t-34.5 89zM135 481q0 -44 22.5 -69t60.5 -25
q51 0 89 47t38 116q0 45 -22.5 70t-60.5 25q-51 0 -89 -46.5t-38 -117.5z" />
    <glyph glyph-name="h.numerator" horiz-adv-x="406" 
d="M67 344l88 516h62l-17 -100q-15 -82 -25 -123h2q40 58 111 58q61 0 92.5 -36t18.5 -116l-32 -199h-62l32 199q17 102 -66 102q-40 0 -71 -33t-41 -89l-30 -179h-62z" />
    <glyph glyph-name="i.numerator" horiz-adv-x="166" 
d="M140 785l12 75h65l-12 -75h-65zM67 344l57 344h62l-57 -344h-62z" />
    <glyph glyph-name="j.numerator" horiz-adv-x="166" 
d="M140 785l12 75h65l-12 -75h-65zM57 294l67 394h62l-67 -397q-16 -103 -118 -103h-26l9 53h20q44 0 53 53z" />
    <glyph glyph-name="k.numerator" horiz-adv-x="365" 
d="M67 344l88 516h62l-58 -341l185 169h71l-152 -138l109 -206h-68l-87 164l-71 -65l-17 -99h-62z" />
    <glyph glyph-name="l.numerator" horiz-adv-x="172" 
d="M67 344l88 516h62l-88 -516h-62z" />
    <glyph glyph-name="m.numerator" horiz-adv-x="624" 
d="M67 344l59 344h59l-9 -49h2q38 56 105 56q88 0 107 -70q45 70 122 70q58 0 89.5 -36t18.5 -116l-33 -199h-62l33 199q17 102 -62 102q-38 0 -68 -33t-40 -89l-29 -179h-62l32 199q17 102 -62 102q-37 0 -68 -32t-41 -92l-29 -177h-62z" />
    <glyph glyph-name="n.numerator" horiz-adv-x="406" 
d="M67 344l59 344h59l-9 -49h2q38 56 110 56q60 0 92 -37t19 -115l-32 -199h-62l32 199q17 102 -66 102q-40 0 -71.5 -32.5t-41.5 -93.5l-29 -175h-62z" />
    <glyph glyph-name="o.numerator" horiz-adv-x="409" 
d="M70 478q0 96 59 156.5t143 60.5q67 0 106.5 -38t39.5 -103q0 -96 -59 -156.5t-143 -60.5q-67 0 -106.5 38t-39.5 103zM135 481q0 -44 22.5 -69t64.5 -25q54 0 92.5 47t38.5 117q0 44 -22.5 69t-64.5 25q-54 0 -92.5 -47t-38.5 -117z" />
    <glyph glyph-name="p.numerator" horiz-adv-x="421" 
d="M118 288l-17 -100h-62l84 500h59l-10 -60h3q46 67 126 67q57 0 93.5 -38.5t36.5 -102.5q0 -98 -55 -157.5t-128 -59.5q-41 0 -70.5 19.5t-39.5 52.5h-2q-3 -31 -18 -121zM156 482q0 -45 22.5 -70t60.5 -25q51 0 89 46.5t38 117.5q0 44 -22.5 69t-60.5 25q-51 0 -89 -47.5
t-38 -115.5z" />
    <glyph glyph-name="q.numerator" horiz-adv-x="421" 
d="M288 188l17 95q12 71 24 121h-4q-43 -67 -125 -67q-57 0 -93.5 38.5t-36.5 102.5q0 98 55 157.5t128 59.5q43 0 73 -20t37 -55h2l14 68h59l-88 -500h-62zM135 481q0 -44 22.5 -69t60.5 -25q51 0 89 47t38 116q0 45 -22.5 70t-60.5 25q-51 0 -89 -46.5t-38 -117.5z" />
    <glyph glyph-name="r.numerator" horiz-adv-x="264" 
d="M67 344l56 344h59l-9 -58h2q38 65 100 65q35 0 51 -14l-22 -58q-20 14 -45 14q-38 0 -66 -34t-37 -89l-27 -170h-62z" />
    <glyph glyph-name="s.numerator" horiz-adv-x="366" 
d="M63 446h59q-2 -34 21.5 -49.5t60.5 -15.5q41 0 65.5 15t24.5 44q0 41 -55 51l-64 12q-35 6 -56.5 26t-21.5 52q0 54 40 84t107 30q57 0 95 -26t36 -79h-58q1 31 -19.5 46t-58.5 15q-35 0 -59 -15t-24 -41q0 -14 9 -23.5t18 -13t25 -6.5l64 -11q37 -7 60.5 -29.5
t23.5 -59.5q0 -58 -44 -86.5t-111 -28.5q-27 0 -50.5 5t-45.5 17t-33 34t-9 53z" />
    <glyph glyph-name="t.numerator" horiz-adv-x="247" 
d="M64 638l9 50h67l18 104h62l-18 -104h98l-10 -50h-97l-31 -181q-5 -32 4.5 -46t37.5 -14h45l-9 -53h-51q-58 0 -78.5 24.5t-10.5 82.5l32 187h-68z" />
    <glyph glyph-name="u.numerator" horiz-adv-x="406" 
d="M200 337q-60 0 -92 36t-19 116l33 199h62l-33 -199q-17 -102 66 -102q40 0 71 33t41 89l31 179h62l-60 -344h-59l9 48h-3q-38 -55 -109 -55z" />
    <glyph glyph-name="v.numerator" horiz-adv-x="346" 
d="M149 344l-70 344h67l51 -281l148 281h65l-187 -344h-74z" />
    <glyph glyph-name="w.numerator" horiz-adv-x="527" 
d="M123 344l-46 344h62l33 -283l132 283h65l33 -282l131 282h59l-165 -344h-68l-36 278l-129 -278h-71z" />
    <glyph glyph-name="x.numerator" horiz-adv-x="325" 
d="M18 344l151 174l-92 170h68l66 -122l107 122h68l-150 -170l94 -174h-65l-70 127l-111 -127h-66z" />
    <glyph glyph-name="y.numerator" horiz-adv-x="346" 
d="M30 241h17q63 0 98 65l9 18l-75 364h68l51 -281l148 281h65l-216 -398q-56 -102 -145 -102h-29z" />
    <glyph glyph-name="z.numerator" horiz-adv-x="324" 
d="M87 638l6 50h271l-6 -37l-234 -257h194l-6 -50h-275l6 34l236 260h-192z" />
    <glyph glyph-name="zero.numerator" 
d="M187 336q-59 0 -89.5 35.5t-30.5 95.5q0 23 5 51q14 79 58.5 128.5t114.5 49.5q59 0 89 -35.5t30 -95.5q0 -28 -4 -51q-14 -79 -58.5 -128.5t-114.5 -49.5zM193 383q41 0 69 34.5t39 96.5q4 23 4 48q0 87 -66 87q-42 0 -69.5 -34.5t-38.5 -96.5q-5 -28 -5 -49
q0 -86 67 -86z" />
    <glyph glyph-name="one.numerator" 
d="M122 564l-19 43l148 81h38l-49 -294h96l-6 -50h-263l6 50h108l37 220z" />
    <glyph glyph-name="two.numerator" 
d="M50 344q11 65 45 99.5t92 62.5l30 14q60 30 74 47q12 14 12 32q0 22 -18 35.5t-49 13.5q-35 0 -59 -19.5t-32 -56.5h-53q12 63 52.5 93t96.5 30q53 0 85.5 -24.5t32.5 -65.5q0 -14 -3.5 -26t-7 -20.5t-13.5 -18.5l-15 -15t-20 -13.5l-19.5 -11t-22.5 -11l-22 -10.5
l-31 -15q-74 -35 -80 -70h204l-6 -50h-273z" />
    <glyph glyph-name="three.numerator" 
d="M64 446h56q-5 -35 16.5 -50t58.5 -15q40 0 66.5 18t26.5 52q0 25 -20.5 38t-54.5 13h-28l6 41h28q37 0 61 16t24 46q0 22 -18.5 34t-49.5 12q-75 0 -82 -62h-53q4 49 42 78t98 29q55 0 88.5 -24t33.5 -61q0 -32 -21 -55.5t-55 -31.5v-3q28 -6 44 -24.5t16 -45.5
q0 -54 -43 -84.5t-115 -30.5q-60 0 -97.5 27t-27.5 83z" />
    <glyph glyph-name="four.numerator" 
d="M52 417l6 38l230 234h50l-37 -225h52l-8 -47h-52l-12 -73h-59l12 73h-182zM123 464h119l25 147z" />
    <glyph glyph-name="five.numerator" 
d="M81 435h55q2 -54 67 -54q27 0 49 14t31 39q6 14 6 31q0 29 -18.5 44t-47.5 15q-43 0 -72 -38l-59 3l44 199h228l-6 -50h-177l-25 -100h2q28 30 82 30q48 0 78 -25.5t30 -71.5q0 -62 -43.5 -98.5t-105.5 -36.5q-52 0 -85 26t-33 73z" />
    <glyph glyph-name="six.numerator" 
d="M73 456q0 25 6 61q30 179 174 179q47 0 76 -24.5t29 -73.5h-56q0 53 -55 53q-82 0 -107 -127q32 44 97 44q48 0 78 -25.5t30 -71.5q0 -63 -43.5 -99t-106.5 -36q-58 0 -90 31.5t-32 88.5zM134 439q0 -29 18 -43.5t48 -14.5q27 0 49.5 14.5t31.5 39.5q5 15 5 30
q0 29 -18.5 44t-46.5 15q-35 0 -61 -24t-26 -61z" />
    <glyph glyph-name="seven.numerator" 
d="M100 344l204 291h-208l9 53h280l-6 -37l-213 -307h-66z" />
    <glyph glyph-name="eight.numerator" 
d="M60 422q0 40 24 66t62 33v3q-48 12 -48 65q0 48 40.5 77.5t102.5 29.5q55 0 88.5 -24t33.5 -61q0 -32 -21 -55.5t-54 -31.5v-3q27 -5 43 -24t16 -46q0 -54 -44.5 -84.5t-115.5 -30.5q-59 0 -93 23.5t-34 62.5zM119 431q0 -50 74 -50q41 0 68 18t27 52q0 25 -20.5 38
t-54.5 13q-38 0 -66 -18t-28 -53zM219 543q37 0 61 16t24 46q0 22 -18 34t-47 12q-37 0 -61 -16t-24 -46q0 -21 17.5 -33.5t47.5 -12.5z" />
    <glyph glyph-name="nine.numerator" 
d="M74 434h56q0 -53 55 -53q82 0 107 126q-31 -43 -97 -43q-48 0 -78 25.5t-30 71.5q0 63 43.5 99t106.5 36q58 0 90 -31.5t32 -88.5q0 -25 -6 -61q-30 -179 -174 -179q-47 0 -76 24.5t-29 73.5zM298 593q0 27 -17.5 42.5t-48.5 15.5q-27 0 -49.5 -14.5t-31.5 -39.5
q-5 -15 -5 -30q0 -29 18.5 -44t46.5 -15q35 0 61 24t26 61z" />
    <glyph glyph-name="dollar.numerator" 
d="M63 443h56q-2 -27 19 -44.5t61 -17.5q34 0 59.5 15.5t25.5 44.5q0 24 -20 35.5t-59 20.5l-16 4q-43 11 -67 29t-24 55q0 45 33 75t88 34l10 54h50l-10 -56q39 -7 64.5 -30t26.5 -62h-56q-1 25 -20.5 38t-50.5 13q-33 0 -56 -15t-23 -42q0 -15 11.5 -25.5t24 -15
t37.5 -10.5l16 -4q30 -7 49 -15t35 -27t16 -47q0 -48 -35.5 -78t-94.5 -35l-10 -61h-50l11 62q-45 7 -74 33.5t-27 71.5z" />
    <glyph glyph-name="cent.numerator" 
d="M78 492q0 63 39 105t104 49l9 49h51l-10 -51q83 -17 86 -90h-59q-1 19 -17 34t-45 15q-42 0 -69 -29.5t-27 -75.5q0 -31 19 -50t52 -19q28 0 47.5 14.5t27.5 34.5h59q-10 -35 -41 -61t-77 -31l-8 -49h-51l8 50q-47 7 -72.5 35t-25.5 70z" />
    <glyph glyph-name="euro.numerator" 
d="M69 536l9 27h28q20 60 62 96t101 36q55 0 83 -28t30 -75h-56q-5 56 -59 56q-33 0 -60 -22.5t-42 -62.5h121l-9 -27h-120q-4 -20 -7 -39h104l-10 -27h-94v-2q0 -85 70 -85q54 0 80 54h56q-40 -101 -141 -101q-62 0 -93 34.5t-31 94.5v5h-44l9 27h36l6 39h-29z" />
    <glyph glyph-name="plus.numerator" 
d="M81 494l8 48h107l18 106h50l-18 -106h107l-8 -48h-108l-18 -107h-50l18 107h-106z" />
    <glyph glyph-name="minus.numerator" 
d="M81 494l8 48h264l-8 -48h-264z" />
    <glyph glyph-name="equal.numerator" 
d="M91 551l7 47h264l-7 -47h-264zM71 437l8 47h264l-8 -47h-264z" />
    <glyph glyph-name="comma.numerator" horiz-adv-x="172" 
d="M63 344l15 83h67l-14 -80l-46 -111h-34l40 108h-28z" />
    <glyph glyph-name="period.numerator" horiz-adv-x="172" 
d="M63 344l15 83h67l-14 -83h-68z" />
    <glyph glyph-name="hyphen.numerator" horiz-adv-x="276" 
d="M74 491l9 53h201l-9 -53h-201z" />
    <glyph glyph-name="parenleft.numerator" horiz-adv-x="204" 
d="M137 272q-42 69 -42 179q0 90 38.5 175t87.5 134h55q-45 -46 -84.5 -134.5t-39.5 -174.5q0 -116 40 -179h-55z" />
    <glyph glyph-name="parenright.numerator" horiz-adv-x="204" 
d="M63 272h-55q45 46 84.5 134.5t39.5 174.5q0 115 -41 179h56q41 -67 41 -179q0 -91 -38 -175.5t-87 -133.5z" />
    <glyph glyph-name="a.superior" horiz-adv-x="421" 
d="M347 496l10 60h-4q-43 -67 -125 -67q-57 0 -93.5 38.5t-36.5 102.5q0 98 55 157.5t128 59.5q40 0 69.5 -19.5t39.5 -52.5h3l12 65h60l-59 -344h-59zM163 633q0 -44 22.5 -69t60.5 -25q51 0 89 47t38 116q0 45 -22.5 70t-60.5 25q-51 0 -89 -46.5t-38 -117.5z" />
    <glyph glyph-name="b.superior" horiz-adv-x="421" 
d="M94 496l88 516h62l-17 -105q-14 -78 -27 -127h3q46 67 126 67q57 0 93.5 -38.5t36.5 -102.5q0 -98 -55 -157.5t-128 -59.5q-41 0 -70.5 19.5t-39.5 52.5h-2l-12 -65h-58zM184 634q0 -45 22.5 -70t60.5 -25q51 0 89 46.5t38 117.5q0 44 -22.5 69t-60.5 25q-51 0 -89 -47.5
t-38 -115.5z" />
    <glyph glyph-name="c.superior" horiz-adv-x="382" 
d="M98 631q0 91 56 153.5t142 62.5q56 0 96 -32t39 -93h-62q0 32 -20.5 53.5t-57.5 21.5q-45 0 -77.5 -31.5t-43.5 -80.5q-7 -30 -7 -52q0 -43 22 -68.5t61 -25.5q77 0 102 72h62q-15 -55 -59.5 -88.5t-110.5 -33.5q-69 0 -105.5 38t-36.5 104z" />
    <glyph glyph-name="d.superior" horiz-adv-x="421" 
d="M98 630q0 98 55 157.5t128 59.5q40 0 69.5 -19.5t39.5 -52.5h3q3 32 19 124l20 113h62l-88 -516h-59l10 60h-4q-43 -67 -125 -67q-57 0 -93.5 38.5t-36.5 102.5zM163 633q0 -44 22.5 -69t60.5 -25q51 0 89 47t38 116q0 45 -22.5 70t-60.5 25q-51 0 -89 -46.5t-38 -117.5z
" />
    <glyph glyph-name="e.superior" horiz-adv-x="390" 
d="M98 629q0 24 5 51q15 74 67.5 120.5t120.5 46.5q73 0 110 -47.5t25 -118.5l-3 -19h-259q-1 -11 -1 -33q0 -90 85 -90q75 0 99 61h59q-14 -51 -58 -81t-106 -30q-67 0 -105.5 37.5t-38.5 102.5zM285 797q-39 0 -68.5 -25t-43.5 -70h193q3 41 -16 68t-65 27z" />
    <glyph glyph-name="f.superior" horiz-adv-x="240" 
d="M96 790l9 50h67l10 54q10 61 43 89.5t92 28.5h55l-9 -53h-46q-33 0 -49.5 -16t-23.5 -52l-9 -51h97l-9 -50h-97l-50 -294h-62l50 294h-68z" />
    <glyph glyph-name="g.superior" horiz-adv-x="421" 
d="M77 453h56q-4 -34 19 -52t66 -18q55 0 87 29t44 98l8 46h-4q-43 -67 -125 -67q-57 0 -93.5 38.5t-36.5 102.5q0 98 55 157.5t128 59.5q40 0 69.5 -19.5t39.5 -52.5h3l12 65h61l-57 -330q-29 -174 -191 -174q-66 0 -106.5 28t-34.5 89zM163 633q0 -44 22.5 -69t60.5 -25
q51 0 89 47t38 116q0 45 -22.5 70t-60.5 25q-51 0 -89 -46.5t-38 -117.5z" />
    <glyph glyph-name="h.superior" horiz-adv-x="406" 
d="M95 496l88 516h62l-17 -100q-14 -82 -25 -123h2q40 58 111 58q61 0 92.5 -36t18.5 -116l-32 -199h-62l32 199q17 102 -66 102q-40 0 -71 -33t-41 -89l-30 -179h-62z" />
    <glyph glyph-name="i.superior" horiz-adv-x="166" 
d="M168 937l12 75h65l-12 -75h-65zM95 496l57 344h62l-57 -344h-62z" />
    <glyph glyph-name="j.superior" horiz-adv-x="166" 
d="M168 937l12 75h65l-12 -75h-65zM85 446l67 394h62l-67 -397q-16 -103 -118 -103h-26l9 53h20q44 0 53 53z" />
    <glyph glyph-name="k.superior" horiz-adv-x="365" 
d="M95 496l88 516h62l-58 -341l185 169h71l-152 -138l109 -206h-68l-87 164l-71 -65l-17 -99h-62z" />
    <glyph glyph-name="l.superior" horiz-adv-x="172" 
d="M95 496l88 516h62l-88 -516h-62z" />
    <glyph glyph-name="m.superior" horiz-adv-x="624" 
d="M95 496l59 344h59l-9 -49h2q38 56 105 56q88 0 107 -70q45 70 122 70q58 0 89.5 -36t18.5 -116l-33 -199h-62l33 199q17 102 -62 102q-38 0 -68 -33t-40 -89l-29 -179h-62l32 199q17 102 -62 102q-37 0 -68 -32t-41 -92l-29 -177h-62z" />
    <glyph glyph-name="n.superior" horiz-adv-x="406" 
d="M95 496l59 344h59l-9 -49h2q38 56 110 56q60 0 92 -37t19 -115l-32 -199h-62l32 199q17 102 -66 102q-40 0 -71.5 -32.5t-41.5 -93.5l-29 -175h-62z" />
    <glyph glyph-name="o.superior" horiz-adv-x="409" 
d="M98 630q0 96 59 156.5t143 60.5q67 0 106.5 -38t39.5 -103q0 -96 -59 -156.5t-143 -60.5q-67 0 -106.5 38t-39.5 103zM163 633q0 -44 22.5 -69t64.5 -25q54 0 92.5 47t38.5 117q0 44 -22.5 69t-64.5 25q-54 0 -92.5 -47t-38.5 -117z" />
    <glyph glyph-name="p.superior" horiz-adv-x="421" 
d="M146 440l-17 -100h-62l84 500h59l-10 -60h3q46 67 126 67q57 0 93.5 -38.5t36.5 -102.5q0 -98 -55 -157.5t-128 -59.5q-41 0 -70.5 19.5t-39.5 52.5h-2q-3 -31 -18 -121zM184 634q0 -45 22.5 -70t60.5 -25q51 0 89 46.5t38 117.5q0 44 -22.5 69t-60.5 25q-51 0 -89 -47.5
t-38 -115.5z" />
    <glyph glyph-name="q.superior" horiz-adv-x="421" 
d="M316 340l17 95q12 71 24 121h-4q-43 -67 -125 -67q-57 0 -93.5 38.5t-36.5 102.5q0 98 55 157.5t128 59.5q43 0 73 -20t37 -55h2l14 68h59l-88 -500h-62zM163 633q0 -44 22.5 -69t60.5 -25q51 0 89 47t38 116q0 45 -22.5 70t-60.5 25q-51 0 -89 -46.5t-38 -117.5z" />
    <glyph glyph-name="r.superior" horiz-adv-x="264" 
d="M95 496l56 344h59l-9 -58h2q38 65 100 65q35 0 51 -14l-22 -58q-20 14 -45 14q-38 0 -66 -34t-37 -89l-27 -170h-62z" />
    <glyph glyph-name="s.superior" horiz-adv-x="366" 
d="M91 598h59q-2 -34 21.5 -49.5t60.5 -15.5q41 0 65.5 15t24.5 44q0 41 -55 51l-64 12q-35 6 -56.5 26t-21.5 52q0 54 40 84t107 30q57 0 95 -26t36 -79h-58q1 31 -19.5 46t-58.5 15q-35 0 -59 -15t-24 -41q0 -14 9 -23.5t18 -13t25 -6.5l64 -11q37 -7 60.5 -29.5
t23.5 -59.5q0 -58 -44 -86.5t-111 -28.5q-27 0 -50.5 5t-45.5 17t-33 34t-9 53z" />
    <glyph glyph-name="t.superior" horiz-adv-x="247" 
d="M92 790l9 50h67l18 104h62l-18 -104h98l-10 -50h-97l-31 -181q-5 -32 4.5 -46t37.5 -14h45l-9 -53h-51q-58 0 -78.5 24.5t-10.5 82.5l32 187h-68z" />
    <glyph glyph-name="u.superior" horiz-adv-x="406" 
d="M228 489q-60 0 -92 36t-19 116l33 199h62l-33 -199q-17 -102 66 -102q40 0 71 33t41 89l31 179h62l-60 -344h-59l9 48h-3q-38 -55 -109 -55z" />
    <glyph glyph-name="v.superior" horiz-adv-x="346" 
d="M177 496l-70 344h67l51 -281l148 281h65l-187 -344h-74z" />
    <glyph glyph-name="w.superior" horiz-adv-x="527" 
d="M151 496l-46 344h62l33 -283l132 283h65l33 -282l131 282h59l-165 -344h-68l-36 278l-129 -278h-71z" />
    <glyph glyph-name="x.superior" horiz-adv-x="325" 
d="M46 496l151 174l-92 170h68l66 -122l107 122h68l-150 -170l94 -174h-65l-70 127l-111 -127h-66z" />
    <glyph glyph-name="y.superior" horiz-adv-x="346" 
d="M58 393h17q63 0 98 65l9 18l-75 364h68l51 -281l148 281h65l-216 -398q-56 -102 -145 -102h-29z" />
    <glyph glyph-name="z.superior" horiz-adv-x="324" 
d="M115 790l6 50h271l-6 -37l-234 -257h194l-6 -50h-275l6 34l236 260h-192z" />
    <glyph glyph-name="dollar.superior" 
d="M91 595h56q-2 -27 19 -44.5t61 -17.5q34 0 59.5 15.5t25.5 44.5q0 24 -20 35.5t-59 20.5l-16 4q-43 11 -67 29t-24 55q0 45 33 75t88 34l10 54h50l-10 -56q39 -7 64.5 -30t26.5 -62h-56q-1 25 -20.5 38t-50.5 13q-33 0 -56 -15t-23 -42q0 -15 11.5 -25.5t24 -15
t37.5 -10.5l16 -4q30 -7 49 -15t35 -27t16 -47q0 -48 -35.5 -78t-94.5 -35l-10 -61h-50l11 62q-45 7 -74 33.5t-27 71.5z" />
    <glyph glyph-name="cent.superior" 
d="M106 644q0 63 39 105t104 49l9 49h51l-10 -51q83 -17 86 -90h-59q-1 19 -17 34t-45 15q-42 0 -69 -29.5t-27 -75.5q0 -31 19 -50t52 -19q28 0 47.5 14.5t27.5 34.5h59q-10 -35 -41 -61t-77 -31l-8 -49h-51l8 50q-47 7 -72.5 35t-25.5 70z" />
    <glyph glyph-name="euro.superior" 
d="M97 688l9 27h28q20 60 62 96t101 36q55 0 83 -28t30 -75h-56q-5 56 -59 56q-33 0 -60 -22.5t-42 -62.5h121l-9 -27h-120q-4 -20 -7 -39h104l-10 -27h-94v-2q0 -85 70 -85q54 0 80 54h56q-40 -101 -141 -101q-62 0 -93 34.5t-31 94.5v5h-44l9 27h36l6 39h-29z" />
    <glyph glyph-name="plus.superior" 
d="M109 646l8 48h107l18 106h50l-18 -106h107l-8 -48h-108l-18 -107h-50l18 107h-106z" />
    <glyph glyph-name="minus.superior" 
d="M109 646l8 48h264l-8 -48h-264z" />
    <glyph glyph-name="equal.superior" 
d="M119 703l7 47h264l-7 -47h-264zM99 589l8 47h264l-8 -47h-264z" />
    <glyph glyph-name="comma.superior" horiz-adv-x="172" 
d="M91 496l15 83h67l-14 -80l-46 -111h-34l40 108h-28z" />
    <glyph glyph-name="period.superior" horiz-adv-x="172" 
d="M91 496l15 83h67l-14 -83h-68z" />
    <glyph glyph-name="hyphen.superior" horiz-adv-x="276" 
d="M102 643l9 53h201l-9 -53h-201z" />
    <glyph glyph-name="parenleft.superior" horiz-adv-x="204" 
d="M165 424q-42 69 -42 179q0 90 38.5 175t87.5 134h55q-45 -46 -84.5 -134.5t-39.5 -174.5q0 -116 40 -179h-55z" />
    <glyph glyph-name="parenright.superior" horiz-adv-x="204" 
d="M91 424h-55q45 46 84.5 134.5t39.5 174.5q0 115 -41 179h56q41 -67 41 -179q0 -91 -38 -175.5t-87 -133.5z" />
    <glyph glyph-name="exclam.sc" horiz-adv-x="256" 
d="M88 148l21 234l23 138h80l-24 -138l-61 -234h-39zM44 0l15 94h79l-15 -94h-79z" />
    <glyph glyph-name="question.sc" horiz-adv-x="453" 
d="M164 151l4 23q7 38 29.5 66t50.5 44.5l54.5 31.5t44.5 35.5t18 48.5q0 32 -29.5 53.5t-76.5 21.5q-59 0 -96.5 -29.5t-46.5 -80.5h-64q12 74 68 120t145 46q75 0 121.5 -34.5t46.5 -90.5q0 -40 -18.5 -69t-46 -46t-55.5 -31.5t-50 -36t-27 -49.5l-4 -23h-68zM139 0l16 94
h77l-16 -94h-77z" />
    <glyph glyph-name="exclamdown.sc" horiz-adv-x="256" 
d="M117 426l15 94h80l-15 -94h-80zM44 0l23 138l62 234h38l-20 -234l-24 -138h-79z" />
    <glyph glyph-name="questiondown.sc" horiz-adv-x="453" 
d="M217 435l17 94h76l-16 -94h-77zM16 123q0 40 18.5 69t46 45.5t55.5 31.5t50 36.5t27 49.5l4 23h68l-4 -23q-7 -38 -29.5 -66t-50.5 -44.5l-54.5 -31.5t-44.5 -35.5t-18 -48.5q0 -32 29.5 -53.5t76.5 -21.5q59 0 96.5 29t46.5 81h64q-12 -74 -68 -120t-145 -46
q-75 0 -121.5 34.5t-46.5 90.5z" />
    <glyph glyph-name="hyphen.sc" horiz-adv-x="396" 
d="M57 233l9 61h276l-9 -61h-276z" />
    <glyph glyph-name="endash.sc" horiz-adv-x="556" 
d="M57 233l9 61h433l-9 -61h-433z" />
    <glyph glyph-name="emdash.sc" horiz-adv-x="840" 
d="M57 233l9 61h720l-9 -61h-720z" />
    <glyph glyph-name="periodcentered.sc" horiz-adv-x="238" 
d="M68 211l19 105h85l-18 -105h-86z" />
    <glyph glyph-name="bullet.sc" horiz-adv-x="408" 
d="M204 128q-55 0 -93.5 38.5t-38.5 93.5t38.5 93.5t93.5 38.5t93.5 -38.5t38.5 -93.5t-38.5 -93.5t-93.5 -38.5z" />
    <glyph glyph-name="guilsinglleft.sc" horiz-adv-x="275" 
d="M139 104l-84 160l137 157h56l-125 -160l69 -157h-53z" />
    <glyph glyph-name="guilsinglright.sc" horiz-adv-x="275" 
d="M26 104l125 160l-68 157h52l84 -160l-136 -157h-57z" />
    <glyph glyph-name="guillemotleft.sc" horiz-adv-x="432" 
d="M297 104l-84 160l137 157h56l-125 -160l69 -157h-53zM139 104l-84 160l137 157h56l-125 -160l69 -157h-53z" />
    <glyph glyph-name="guillemotright.sc" horiz-adv-x="432" 
d="M184 104l125 160l-69 157h53l84 -160l-137 -157h-56zM26 104l125 160l-68 157h52l84 -160l-136 -157h-57z" />
    <glyph glyph-name="parenleft.sc" horiz-adv-x="279" 
d="M142 -92q-60 112 -60 255q0 125 54.5 245.5t125.5 203.5h59q-69 -81 -123 -205.5t-54 -246.5q0 -131 57 -252h-59z" />
    <glyph glyph-name="parenright.sc" horiz-adv-x="279" 
d="M17 -92h-59q69 81 123 205.5t54 246.5q0 127 -57 252h59q60 -112 60 -255q0 -125 -54.5 -245.5t-125.5 -203.5z" />
    <glyph glyph-name="bracketleft.sc" horiz-adv-x="282" 
d="M31 -92l120 704h172l-9 -53h-113l-102 -598h114l-9 -53h-173z" />
    <glyph glyph-name="bracketright.sc" horiz-adv-x="282" 
d="M-33 -39h114l101 598h-113l9 53h173l-120 -704h-172z" />
    <glyph glyph-name="braceleft.sc" horiz-adv-x="303" 
d="M80 31l19 105q10 56 -6 79t-65 27l6 41q50 3 73.5 26.5t34.5 79.5l19 99q11 62 44 93t99 31h40l-9 -50h-34q-40 0 -58 -16.5t-26 -57.5l-21 -114q-9 -46 -33 -72t-71 -38v-3q44 -13 59 -39.5t5 -79.5l-20 -111q-7 -39 6.5 -56t53.5 -17h34l-6 -50h-40q-126 0 -104 123z
" />
    <glyph glyph-name="braceright.sc" horiz-adv-x="303" 
d="M2 -42q39 0 57.5 17t25.5 57l22 118q8 46 32.5 72t71.5 38v3q-44 12 -59 39t-5 80l19 107q8 39 -5.5 56t-53.5 17h-35l6 50h41q127 0 103 -123l-18 -101q-10 -56 6 -79t65 -27l-6 -41q-50 -3 -74.5 -26.5t-34.5 -79.5l-18 -103q-12 -62 -45 -93t-98 -31h-41l9 50h35z" />
    <glyph glyph-name="slash.sc" horiz-adv-x="325" 
d="M27 -12h-61l326 544h60z" />
    <glyph glyph-name="backslash.sc" horiz-adv-x="325" 
d="M201 -12l-140 544h59l140 -544h-59z" />
    <glyph glyph-name="quoteleft.sc" horiz-adv-x="237" 
d="M80 268l16 100l66 152h37l-56 -146h33l-17 -106h-79z" />
    <glyph glyph-name="quotedblleft.sc" horiz-adv-x="409" 
d="M252 268l16 100l66 152h37l-56 -146h32l-16 -106h-79zM80 268l16 100l66 152h37l-56 -146h33l-17 -106h-79z" />
    <glyph glyph-name="quoteright.sc" horiz-adv-x="237" 
d="M82 268l56 146h-32l16 106h80l-16 -100l-66 -152h-38z" />
    <glyph glyph-name="quotedblright.sc" horiz-adv-x="409" 
d="M254 268l56 146h-32l16 106h80l-16 -100l-66 -152h-38zM82 268l56 146h-32l16 106h80l-16 -100l-66 -152h-38z" />
    <glyph glyph-name="asterisk.sc" horiz-adv-x="450" 
d="M299 528l-37 -140l138 56l9 -53l-143 -32l74 -104l-50 -32l-50 117l-93 -117l-39 32l108 106l-128 30l25 53l119 -55l11 139h56z" />
    <glyph glyph-name="degree.sc" horiz-adv-x="356" 
d="M184 260q-54 0 -87.5 33t-33.5 82q0 66 45.5 111t110.5 45q53 0 87 -33t34 -82q0 -66 -45.5 -111t-110.5 -45zM187 310q40 0 68.5 28.5t28.5 71.5q0 31 -18.5 51t-49.5 20q-40 0 -68.5 -29t-28.5 -71q0 -31 18.5 -51t49.5 -20z" />
    <glyph glyph-name="quotesingle.sc" horiz-adv-x="208" 
d="M84 268l17 165l14 87h68l-15 -87l-40 -165h-44z" />
    <glyph glyph-name="quotedbl.sc" horiz-adv-x="384" 
d="M260 268l17 165l14 87h68l-15 -87l-40 -165h-44zM84 268l17 165l14 87h68l-15 -87l-40 -165h-44z" />
    <glyph glyph-name="ordfeminine.sc" horiz-adv-x="318" 
d="M242 260l7 47q-33 -52 -98 -52q-45 0 -72 28.5t-27 77.5q0 75 41.5 119.5t98.5 44.5q31 0 54 -15.5t30 -41.5l9 52h47l-45 -260h-45zM165 293q39 0 67 35.5t28 86.5q0 34 -16.5 53t-45.5 19q-39 0 -67.5 -35.5t-28.5 -88.5q0 -33 17 -51.5t46 -18.5z" />
    <glyph glyph-name="ordmasculine.sc" horiz-adv-x="309" 
d="M162 255q-51 0 -80.5 28.5t-29.5 77.5q0 72 45 118t109 46q51 0 81 -28.5t30 -77.5q0 -73 -45 -118.5t-110 -45.5zM167 293q41 0 70 35.5t29 88.5q0 33 -16.5 51.5t-48.5 18.5q-41 0 -70 -35.5t-29 -88.5q0 -33 16.5 -51.5t48.5 -18.5z" />
    <glyph glyph-name="trademark.sc" horiz-adv-x="609" 
d="M270 260l44 260h68l48 -193h2l115 193h66l-44 -260h-48l35 193h-3l-116 -193h-38l-48 194h-3l-30 -194h-48zM42 479l7 41h229l-7 -41h-88l-37 -219h-51l37 219h-90z" />
    <glyph glyph-name="copyright.sc" horiz-adv-x="611" 
d="M41 264q0 114 74 190.5t189 76.5q114 0 190 -76.5t76 -190.5q0 -115 -75.5 -195t-190.5 -80q-114 0 -188.5 80t-74.5 195zM85 264q0 -97 62 -165.5t157 -68.5q94 0 158 69t64 165t-63.5 161t-158.5 65q-96 0 -157.5 -65t-61.5 -161zM178 264q0 59 34.5 97t95.5 38
q46 0 76.5 -25t37.5 -65h-47q-6 21 -23 35t-44 14q-39 0 -61 -25.5t-22 -68.5q0 -41 22.5 -67.5t59.5 -26.5q54 0 67 49h47q-7 -41 -37.5 -65.5t-76.5 -24.5q-60 0 -94.5 38.5t-34.5 96.5z" />
    <glyph glyph-name="registered.sc" horiz-adv-x="611" 
d="M41 264q0 114 74 190.5t189 76.5q114 0 190 -76.5t76 -190.5q0 -115 -75.5 -195t-190.5 -80q-114 0 -188.5 80t-74.5 195zM85 264q0 -97 62 -165.5t157 -68.5q94 0 158 69t64 165t-63.5 161t-158.5 65q-96 0 -157.5 -65t-61.5 -161zM201 136v256h122q46 0 70.5 -22
t24.5 -59q0 -28 -16 -49.5t-44 -30.5l63 -95h-51l-61 90h-58v-90h-50zM317 352h-66v-86h66q51 0 51 45q0 41 -51 41z" />
    <glyph glyph-name="paragraph.sc" horiz-adv-x="500" 
d="M302 0l89 520h62l-89 -520h-62zM165 0l34 198q-65 5 -101.5 39.5t-36.5 90.5q0 85 61 138.5t156 53.5h37l-88 -520h-62z" />
    <glyph glyph-name="dagger.sc" horiz-adv-x="358" 
d="M56 337l8 50h105l23 133h59l-23 -133h109l-8 -50h-109l-57 -337h-59l57 337h-105z" />
    <glyph glyph-name="daggerdbl.sc" horiz-adv-x="358" 
d="M56 343l8 50h106l22 127h59l-22 -127h108l-8 -50h-108l-29 -169h108l-7 -50h-109l-21 -124h-59l21 124h-105l7 50h106l29 169h-106z" />
    <glyph glyph-name="section.sc" horiz-adv-x="427" 
d="M-5 -54h59q-1 -34 23 -52t66 -18q49 0 80.5 23.5t31.5 60.5q0 29 -17 44t-50 26l-67 23q-90 32 -90 105q0 48 29 83.5t78 50.5q-57 33 -57 95q0 63 48.5 102t125.5 39q66 0 107.5 -28t38.5 -88h-58q1 34 -23.5 52t-66.5 18q-48 0 -79.5 -24t-31.5 -61q0 -29 16.5 -44
t49.5 -26l68 -23q89 -31 89 -105q0 -48 -29 -83.5t-78 -50.5q58 -31 58 -94q0 -64 -48.5 -103t-126.5 -39q-65 0 -106.5 28.5t-39.5 88.5zM237 255l-45 15q-46 -8 -74 -34.5t-28 -62.5q0 -26 16.5 -41.5t53.5 -28.5l45 -17q46 10 74 36.5t28 62.5q0 25 -16.5 41t-53.5 29z
" />
    <glyph glyph-name="exclamdown.cap" horiz-adv-x="256" 
d="M144 586l17 102h79l-17 -102h-79zM43 0l32 184l74 315h39l-34 -315l-32 -184h-79z" />
    <glyph glyph-name="questiondown.cap" horiz-adv-x="485" 
d="M259 586l15 102h79l-15 -102h-79zM23 141q0 50 21 87t52.5 61t64 46t58.5 54.5t32 74.5l4 28h68l-4 -28q-8 -52 -34 -90.5t-58 -61.5l-62.5 -44t-51 -51t-20.5 -70q0 -43 32.5 -71t82.5 -28q68 0 111 38t55 109h64q-10 -92 -73 -149t-163 -57q-78 0 -128.5 41t-50.5 111z
" />
    <glyph glyph-name="hyphen.cap" horiz-adv-x="396" 
d="M70 317l9 62h276l-9 -62h-276z" />
    <glyph glyph-name="endash.cap" horiz-adv-x="556" 
d="M70 317l9 62h436l-9 -62h-436z" />
    <glyph glyph-name="emdash.cap" horiz-adv-x="840" 
d="M70 317l9 62h720l-9 -62h-720z" />
    <glyph glyph-name="periodcentered.cap" horiz-adv-x="272" 
d="M98 296l19 105h85l-19 -105h-85z" />
    <glyph glyph-name="bullet.cap" horiz-adv-x="488" 
d="M260 176q-73 0 -122.5 49.5t-49.5 122.5t49.5 122.5t122.5 49.5t122.5 -49.5t49.5 -122.5t-49.5 -122.5t-122.5 -49.5z" />
    <glyph glyph-name="guilsinglleft.cap" horiz-adv-x="311" 
d="M183 144l-112 204l180 204h57l-164 -210l95 -198h-56z" />
    <glyph glyph-name="guilsinglright.cap" horiz-adv-x="311" 
d="M32 144l163 210l-94 198h56l112 -204l-180 -204h-57z" />
    <glyph glyph-name="guillemotleft.cap" horiz-adv-x="505" 
d="M377 144l-113 204l181 204h56l-163 -210l95 -198h-56zM183 144l-112 204l180 204h57l-164 -210l95 -198h-56z" />
    <glyph glyph-name="guillemotright.cap" horiz-adv-x="505" 
d="M225 144l164 210l-95 198h56l112 -204l-180 -204h-57zM32 144l163 210l-95 198h56l113 -204l-181 -204h-56z" />
    <glyph glyph-name="parenleft.cap" horiz-adv-x="311" 
d="M175 -56q-80 137 -80 297q0 145 63.5 274t153.5 229h65q-89 -100 -153 -229.5t-64 -270.5q0 -156 77 -300h-62z" />
    <glyph glyph-name="parenright.cap" horiz-adv-x="311" 
d="M-38 -56q89 100 153 229.5t64 270.5q0 156 -77 300h62q80 -137 80 -297q0 -145 -63.5 -274t-153.5 -229h-65z" />
    <glyph glyph-name="bracketleft.cap" horiz-adv-x="318" 
d="M35 -56l140 800h208l-9 -56h-146l-121 -688h146l-9 -56h-209z" />
    <glyph glyph-name="bracketright.cap" horiz-adv-x="318" 
d="M-28 0h146l121 688h-146l9 56h209l-140 -800h-208z" />
    <glyph glyph-name="braceleft.cap" horiz-adv-x="358" 
d="M111 94l17 97q12 72 -2 101t-83 34l6 46q65 4 94 31.5t40 96.5l16 94q12 76 52.5 113t119.5 37h52l-8 -53h-47q-93 0 -108 -97l-15 -94q-12 -71 -39.5 -102.5t-86.5 -46.5v-4q53 -17 68 -51t3 -105l-17 -97q-8 -51 9 -74t65 -23h47l-9 -53h-46q-153 0 -128 150z" />
    <glyph glyph-name="braceright.cap" horiz-adv-x="358" 
d="M20 -3q92 0 109 97l14 101q12 71 40 102.5t87 46.5v3q-53 18 -68 51.5t-4 104.5l18 91q8 50 -9.5 73.5t-65.5 23.5h-46l9 53h46q157 0 128 -150l-17 -91q-16 -64 -0.5 -96.5t84.5 -37.5l-6 -47q-65 -4 -93.5 -31t-39.5 -96l-16 -101q-13 -75 -52 -112.5t-118 -37.5h-55
l9 53h46z" />
    <glyph glyph-name="plus.sc" horiz-adv-x="504" 
d="M55 233l10 59h161l28 165h62l-28 -165h161l-10 -59h-161l-28 -166h-62l28 166h-161z" />
    <glyph glyph-name="minus.sc" horiz-adv-x="504" 
d="M55 233l10 59h384l-10 -59h-384z" />
    <glyph glyph-name="multiply.sc" horiz-adv-x="504" 
d="M87 83l-34 41l162 141l-109 141l41 35l108 -141l161 141l33 -40l-162 -142l109 -140l-41 -35l-108 139z" />
    <glyph glyph-name="divide.sc" horiz-adv-x="504" 
d="M237 369l15 86h68l-15 -86h-68zM55 233l10 59h384l-10 -59h-384zM184 67l15 86h68l-15 -86h-68z" />
    <glyph glyph-name="equal.sc" horiz-adv-x="504" 
d="M69 316l11 59h384l-11 -59h-384zM41 150l10 59h384l-10 -59h-384z" />
    <glyph glyph-name="less.sc" horiz-adv-x="504" 
d="M67 236l9 56l386 157l-9 -62l-310 -124l267 -122l-9 -59z" />
    <glyph glyph-name="greater.sc" horiz-adv-x="504" 
d="M94 387l9 59l335 -154l-9 -56l-387 -157l9 62l310 123z" />
    <glyph glyph-name="plusminus.sc" horiz-adv-x="504" 
d="M77 248l9 56h141l24 137h59l-24 -137h143l-9 -56h-143l-24 -138h-59l24 138h-141zM34 0l9 56h343l-9 -56h-343z" />
    <glyph glyph-name="lessequal.sc" horiz-adv-x="504" 
d="M76 248l9 56l367 133l-10 -59l-292 -102l257 -102l-10 -56zM34 0l9 56h343l-10 -56h-342z" />
    <glyph glyph-name="greaterequal.sc" horiz-adv-x="504" 
d="M102 378l10 56l321 -130l-8 -56l-368 -133l10 59l291 102zM38 0l9 56h343l-10 -56h-342z" />
    </font>
</defs>
</svg>
