<?xml version="1.0" encoding="UTF-8" standalone="no"?>
<svg width="35px" height="31px" viewBox="0 0 35 31" version="1.1" xmlns="http://www.w3.org/2000/svg" xmlns:xlink="http://www.w3.org/1999/xlink">
    <!-- Generator: Sketch 3.8.3 (29802) - http://www.bohemiancoding.com/sketch -->
    <title>iconTwitter</title>
    <desc>Created with Sketch.</desc>
    <defs></defs>
    <g id="Version-1" stroke="none" stroke-width="1" fill="none" fill-rule="evenodd">
        <g id="Work" transform="translate(-591.000000, -2217.000000)" stroke="#BCC1C9">
            <g id="Footer" transform="translate(-108.000000, 1882.000000)">
                <g id="iconTwitter" transform="translate(699.000000, 336.000000)">
                    <path d="M33.4998272,0.530735867 C32.1329754,1.36041308 30.6226317,1.96381469 29.0083484,2.28759116 C27.7224407,0.879347468 25.8846413,0 23.8500005,0 C19.9499657,0 16.7848667,3.24512329 16.7848667,7.24725806 C16.7848667,7.81570653 16.8455748,8.36667842 16.966991,8.89741429 C11.0930235,8.59479366 5.88592516,5.71299909 2.39796951,1.32270048 C1.78904898,2.39704969 1.4413572,3.64340515 1.4413572,4.97070473 C1.4413572,7.48365168 2.68863248,9.70225638 4.58622016,11.0019614 C3.4290872,10.9670082 2.33726142,10.6377128 1.38248875,10.0986986 L1.38248875,10.1870013 C1.38248875,13.699792 3.81909068,16.6303371 7.05501578,17.2935269 C6.462652,17.4636935 5.83717472,17.5492368 5.19238123,17.5492368 C4.73707057,17.5492368 4.29279773,17.5050854 3.8623222,17.420462 C4.76190569,20.2985773 7.37051387,22.394846 10.4638669,22.450955 C8.04566141,24.3954535 4.99645967,25.5544261 1.68602919,25.5544261 C1.11574109,25.5544261 0.551891716,25.5213126 0,25.4550856 C3.12738639,27.5081228 6.8443771,28.7084873 10.8345542,28.7084873 C23.8362032,28.7084873 30.9436487,17.6669737 30.9436487,8.08889292 C30.9436487,7.77339483 30.9381298,7.45881655 30.9261722,7.14975719 C32.3068213,6.12783769 33.5062659,4.85204801 34.4500008,3.39873315 C33.1843291,3.97454018 31.8211566,4.36454366 30.391757,4.53930937 C31.8515106,3.64340515 32.9718508,2.2232038 33.4998272,0.530735867" id="Twitter-Copy-2"></path>
                </g>
            </g>
        </g>
    </g>
</svg>