<?xml version="1.0" encoding="UTF-8" standalone="no"?>
<svg width="34px" height="28px" viewBox="0 0 34 28" version="1.1" xmlns="http://www.w3.org/2000/svg" xmlns:xlink="http://www.w3.org/1999/xlink">
    <!-- Generator: Sketch 3.8.3 (29802) - http://www.bohemiancoding.com/sketch -->
    <title>iconEmail</title>
    <desc>Created with Sketch.</desc>
    <defs></defs>
    <g id="Version-1" stroke="none" stroke-width="1" fill="none" fill-rule="evenodd">
        <g id="Work" transform="translate(-816.000000, -2218.000000)" stroke="#BCC1C9">
            <g id="Footer" transform="translate(-108.000000, 1882.000000)">
                <g id="iconEmail" transform="translate(925.000000, 337.000000)">
                    <path d="M30.4761905,25.6 L1.52380952,25.6 C0.681904762,25.6 0,24.905697 0,24.0484848 L0,1.55151515 C0,0.69430303 0.681904762,0 1.52380952,0 L30.4761905,0 C31.3180952,0 32,0.69430303 32,1.55151515 L32,24.0484848 C32,24.905697 31.3180952,25.6 30.4761905,25.6 L30.4761905,25.6 Z" id="Stroke-1"></path>
                    <path d="M0,0 L14.423619,13.9868296 C15.3066667,14.8424854 16.6933333,14.8424854 17.576381,13.9868296 L32,0" id="Stroke-3"></path>
                    <path d="M0,25.6 L13.7142857,12.8" id="Stroke-5"></path>
                    <path d="M32,25.6 L18.2857143,12.8" id="Stroke-7"></path>
                </g>
            </g>
        </g>
    </g>
</svg>