<?xml version="1.0" encoding="UTF-8" standalone="no"?>
<svg width="43px" height="43px" viewBox="0 0 43 43" version="1.1" xmlns="http://www.w3.org/2000/svg" xmlns:xlink="http://www.w3.org/1999/xlink">
    <!-- Generator: Sketch 3.8.3 (29802) - http://www.bohemiancoding.com/sketch -->
    <title>iconDribbleV3</title>
    <desc>Created with Sketch.</desc>
    <defs></defs>
    <g id="Version-2" stroke="none" stroke-width="1" fill="none" fill-rule="evenodd">
        <g id="Work" transform="translate(-356.000000, -2272.000000)" stroke="#FFFFFF" stroke-width="2" fill="#BCC1C9">
            <g id="iconDribbleV3" transform="translate(357.000000, 2273.000000)">
                <path d="M20.4990888,0 C9.17716644,0.000911153488 0,9.17853403 0,20.5009112 C0,31.8214668 9.17716644,41 20.4990888,41 C31.8210112,41 40.9986324,31.8214668 41,20.5009112 C40.9986324,9.17853403 31.8210086,0.000911153488 20.4990888,0 L20.4990888,0 Z M33.6728096,10.1475115 C35.770256,12.8111229 36.8881912,16.1097012 37.053978,19.7116661 C34.6263885,19.1966228 33,18.9731331 30,18.9731331 L30,19 L30.3751869,19 C28.6542339,19 27.0383873,19.1288891 25.5161896,19.3988323 C25.1459103,18.4920101 24.7713337,17.6073475 24.3934117,16.7731495 C27.7837238,15.2858276 31.0378647,13.154644 33.6728096,10.1475115 L33.6728096,10.1475115 Z M20.4990444,3.7266555 C24.4559994,3.7266555 28.0851993,5.1098223 30.9585571,7.4127112 C28.7598228,10.0452672 25.8573208,11.9520779 22.7216682,13.2984562 C20.5186348,9.0381117 18.389656,5.9903679 16.9343452,4.1270351 C18.0862675,3.8714223 19.2754555,3.7266555 20.4990444,3.7266555 L20.4990444,3.7266555 Z M13.0901451,5.4753218 C14.2544899,6.8503666 16.5855656,9.6459379 19.0752678,14.3687725 C14.0117779,15.8761597 8.9129343,16 5.8279238,16 L5.5675345,16 L5.5646667,16 C5.0453224,16 4.5986003,16.2206402 4.2254557,16.2091732 C5.428977,11.3931713 8.7285109,7.6334438 13.0901451,5.4753218 L13.0901451,5.4753218 Z M3.7252226,20.5009556 C3.7252226,20.4221211 3.7280889,20.1957722 3.7328668,20.1131153 C4.2115998,20.1307926 4.8260221,20 5.5651445,20 L5.5694456,20 C8.941124,20 14.8283005,19.8422165 20.7943115,17.9588165 C21.1196785,18.6697502 21.4412231,19.4833488 21.759901,20.2520904 C17.775711,21.5846137 14.6376686,23.7439002 12.3166227,25.8580684 C10.0825338,27.893402 8.5727558,29.9269256 7.6907787,31.2728271 C5.222578,28.3507404 3.7266555,24.6136665 3.7252226,20.5009556 L3.7252226,20.5009556 Z M20.4990444,37.2752571 C16.7661667,37.2752571 13.3256893,36.0406761 10.5345115,33.9690361 C11.1279115,32.9919777 12.3997564,31.1166992 14.4250545,29.1783562 C16.5091228,27.1812458 19.3858222,25.125845 23.141632,23.902256 C24.4182548,27.4808121 25.5735225,31.5720253 26.4535884,36.1768455 C24.5998116,36.8829994 22.596489,37.2752571 20.4990444,37.2752571 L20.4990444,37.2752571 Z M29.9924889,34.2967873 C29.1415672,30.132 28.0713444,26.4864502 26.8964882,23.13484 C27.9862995,22.9786053 29.1300964,23 30.3369637,23 L30.379963,23 L30.3828278,23 L30.3856926,23 C32.3866272,23 34.5848846,23.1391392 36.9689941,23.6809387 C36.1438751,28.1161499 33.5748672,31.8262024 29.9924889,34.2967873 L29.9924889,34.2967873 Z" id="Dribbble"></path>
            </g>
        </g>
    </g>
</svg>